<?xml version="1.0" encoding="UTF-8" standalone="no"?>
<!-- Created with Inkscape (http://www.inkscape.org/) -->

<svg
   version="1.1"
   id="svg1"
   width="414.73868"
   height="193.98"
   viewBox="0 0 414.73868 193.98"
   xmlns="http://www.w3.org/2000/svg"
   xmlns:svg="http://www.w3.org/2000/svg">
  <defs
     id="defs1" />
  <g
     id="g1">
    <path
       id="path1"
       d="m 3.38167,34.01608 c 0,1.86766 -1.51401,3.38167 -3.38167,3.38167 -1.86766,0 -3.38167,-1.51401 -3.38167,-3.38167 0,-1.86768 1.51401,-3.38168 3.38167,-3.38168 1.86766,0 3.38167,1.514 3.38167,3.38168 z"
       style="fill:#000000;fill-opacity:1;fill-rule:nonzero;stroke:none"
       transform="matrix(1.3333333,0,0,-1.3333333,12.541333,76.589333)" />
    <path
       id="path2"
       d="M 4.8334635,-4.0916146 3.9936198,-6.0740365 c -0.029297,-0.078125 -0.048828,-0.1171875 -0.048828,-0.1269531 0,-0.068359 0.1660156,-0.2539062 0.5859375,-0.2929687 0.097656,-0.00977 0.2050781,-0.019531 0.2050781,-0.1855469 0,-0.1269531 -0.1269531,-0.1269531 -0.15625,-0.1269531 -0.4101563,0 -0.8300781,0.029297 -1.25,0.029297 -0.2539063,0 -0.8691406,-0.029297 -1.1230469,-0.029297 -0.058594,0 -0.1757812,0 -0.1757812,0.2050781 0,0.1074219 0.097656,0.1074219 0.234375,0.1074219 0.5957031,0 0.6542968,0.097656 0.7421875,0.3222656 l 1.171875,2.7734375 -2.0996094,2.265625 -0.1269531,0.1074219 c -0.4882813,0.52734372 -0.95703128,0.68359372 -1.46484378,0.71289059 -0.12695313,0.009766 -0.21484375,0.009766 -0.21484375,0.20507813 0,0.0097656 0,0.10742187167 0.12695312,0.10742187167 0.29296875,0 0.62500001,-0.0292968717 0.93750001,-0.0292968717 0.3613281,0 0.7519531,0.0292968717 1.1132812,0.0292968717 0.058594,0 0.1757813,0 0.1757813,-0.19531250167 0,-0.10742187 -0.097656,-0.1171875 -0.1171875,-0.1171875 -0.087891,-0.009766 -0.4003906,-0.0292969 -0.4003906,-0.30273437 0,-0.16601563 0.15625,-0.32226563 0.2734375,-0.44921872 l 1.015625,-1.0742188 0.8984375,-0.9765625 1.0058593,2.38281252 c 0.039063,0.10742187 0.048828,0.1171875 0.048828,0.13671875 0,0.078125 -0.1953125,0.24414062 -0.5761719,0.28320312 -0.1171875,0.009766 -0.2050781,0.0195313 -0.2050781,0.1953125 0,0.11718750167 0.1074218,0.11718750167 0.1464843,0.11718750167 0.2832032,0 0.9765625,-0.0292968717 1.2597657,-0.0292968717 0.2539062,0 0.859375,0.0292968717 1.1035156,0.0292968717 0.068359,0 0.1953125,0 0.1953125,-0.18554687167 0,-0.12695313 -0.1074219,-0.12695313 -0.1855469,-0.12695313 C 6.4252604,-0.32208333 6.4057292,-0.35138021 6.2397135,-0.75177083 5.8490885,-1.6697396 5.1752604,-3.222474 4.950651,-3.8279427 c 0.6738282,-0.6933594 1.71875,-1.875 2.0410157,-2.1582031 0.2929687,-0.2441407 0.6640625,-0.4785157 1.2695312,-0.5078125 0.1269531,-0.00977 0.2148438,-0.00977 0.2148438,-0.1953125 0,-0.00977 0,-0.1171875 -0.1269532,-0.1171875 -0.3027343,0 -0.625,0.029297 -0.9375,0.029297 -0.3710937,0 -0.7519531,-0.029297 -1.1035156,-0.029297 -0.058594,0 -0.1953125,0 -0.1953125,0.2050781 0,0.068359 0.048828,0.097656 0.1269531,0.1074219 0.087891,0.00977 0.390625,0.029297 0.390625,0.3125 0,0.1367187 -0.1074218,0.2636718 -0.1855468,0.3515625 z m 0,0"
       style="fill:#000000;fill-opacity:1;fill-rule:nonzero;stroke:none"
       aria-label="X"
       transform="matrix(1.6,0,0,1.6,5.3133333,20.765333)" />
    <path
       id="path3"
       d="m 71.41383,34.01608 c 0,1.86766 -1.514,3.38167 -3.38166,3.38167 -1.86768,0 -3.38169,-1.51401 -3.38169,-3.38167 0,-1.86768 1.51401,-3.38168 3.38169,-3.38168 1.86766,0 3.38166,1.514 3.38166,3.38168 z"
       style="fill:none;stroke:#000000;stroke-width:0.3985;stroke-linecap:butt;stroke-linejoin:miter;stroke-miterlimit:10;stroke-dasharray:none;stroke-opacity:1"
       transform="matrix(1.3333333,0,0,-1.3333333,12.541333,76.589333)" />
    <path
       id="path4"
       d="m 5.9477734,-5.6630013 0.1367188,-0.1464844 c 0.3027344,-0.2929687 0.625,-0.6347656 1.3085937,-0.6835937 0.1074219,-0.00977 0.1953125,-0.00977 0.1953125,-0.1855469 0,-0.087891 -0.048828,-0.1269531 -0.1269531,-0.1269531 -0.2636719,0 -0.546875,0.029297 -0.8203125,0.029297 -0.3222656,0 -0.6738281,-0.029297 -0.9960937,-0.029297 -0.058594,0 -0.1855469,0 -0.1855469,0.1953125 0,0.1074218 0.097656,0.1171875 0.1464844,0.1171875 0.068359,0 0.3613281,0.019531 0.3613281,0.2246093 0,0.1757813 -0.2246094,0.4296875 -0.2734375,0.4785157 l -2.3046875,2.6660156 -1.09375,-2.9589844 c -0.068359,-0.1464844 -0.068359,-0.1660156 -0.068359,-0.1757812 0,-0.234375 0.4882813,-0.234375 0.5957031,-0.234375 0.1367188,0 0.234375,0 0.234375,-0.1953125 0,-0.1171875 -0.1171875,-0.1171875 -0.1464843,-0.1171875 -0.2832032,0 -0.9765625,0.029297 -1.2597657,0.029297 -0.2441406,0 -0.85937496,-0.029297 -1.11328121,-0.029297 -0.0585937,0 -0.18554688,0 -0.18554688,0.2050781 0,0.1074219 0.0976563,0.1074219 0.22460938,0.1074219 0.59570311,0 0.63476561,0.087891 0.73242191,0.3417968 l 1.2207031,3.2714844 c 0.00977,0.029297 0.039063,0.1367188 0.039063,0.1757813 0,0.029297 -0.4003906,1.6308593 -0.4492188,1.8066406 -0.1269531,0.546875 -0.1367187,0.57617187 -0.9375,0.5859375 -0.18554684,0 -0.26367184,0 -0.26367184,0.20507812 0,0.10742188 0.11718754,0.10742188 0.13671874,0.10742188 0.2832031,0 0.9765625,-0.02929688 1.2597656,-0.02929688 0.2734375,0 0.9960938,0.02929688 1.2695313,0.02929688 0.068359,0 0.1953125,0 0.1953125,-0.1953125 0,-0.1171875 -0.097656,-0.1171875 -0.2832031,-0.1171875 -0.019531,0 -0.2050782,0 -0.3808594,-0.0195313 -0.2050781,-0.0195313 -0.2636719,-0.0390625 -0.2636719,-0.15625 0,-0.0683594 0.087891,-0.41992188 0.1367188,-0.6250001 l 0.3515625,-1.40625 c 0.048828,-0.1855468 0.058594,-0.2246093 0.1367187,-0.3125 z m 0,0"
       style="fill:#000000;fill-opacity:1;fill-rule:nonzero;stroke:none"
       aria-label="Y"
       transform="matrix(1.6,0,0,1.6,82.632,16.205333)" />
    <path
       id="path5"
       d="m 2.1789336,-4.6277044 c 0.00977,-0.019531 0.029297,-0.1074219 0.029297,-0.1171875 0,-0.029297 -0.029297,-0.097656 -0.1074219,-0.097656 -0.1367188,0 -0.7226563,0.058594 -0.8886719,0.078125 -0.058594,0 -0.15625,0.00977 -0.15625,0.15625 0,0.097656 0.097656,0.097656 0.1757813,0.097656 0.3417968,0 0.3417968,0.048828 0.3417968,0.1074218 0,0.048828 -0.019531,0.087891 -0.029297,0.1464844 l -0.98632816,3.95507815 c -0.0292969,0.1171875 -0.0292969,0.13671875 -0.0292969,0.14648437 0,0.10742188 0.078125,0.22460938 0.234375,0.22460938 0.18554687,0 0.27343756,-0.13671875 0.32226566,-0.29296875 0.00977,-0.0292969 0.3125,-1.25000005 0.3417969,-1.34765625 0.4882812,0.048828 0.8886718,0.2050781 0.8886718,0.5664062 0,0.0390626 0,0.0683594 -0.00977,0.1367188 -0.029297,0.10742187 -0.029297,0.14648437 -0.029297,0.22460937 0,0.48828125 0.4003907,0.71289063 0.7324219,0.71289063 0.6835938,0 0.8886719,-1.0546875 0.8886719,-1.06445313 0,-0.0878907 -0.087891,-0.0878907 -0.1074219,-0.0878907 -0.097656,0 -0.1074219,0.029297 -0.1464844,0.16601564 -0.078125,0.29296875 -0.2636718,0.79101563 -0.6054687,0.79101563 -0.1953125,0 -0.2441406,-0.17578125 -0.2441406,-0.36132813 0,-0.1171875 0,-0.13671875 0.039063,-0.3125 0.00977,-0.0195313 0.029297,-0.13671875 0.029297,-0.21484374 0,-0.625 -0.8300781,-0.7226562 -1.1230468,-0.7421875 0.1953125,-0.1269531 0.4589843,-0.3515625 0.5761718,-0.4589844 0.3515625,-0.3320312 0.703125,-0.6640625 1.09375,-0.6640625 0.087891,0 0.1757813,0.019531 0.234375,0.087891 -0.3027343,0.048828 -0.3613281,0.2929687 -0.3613281,0.390625 0,0.15625 0.1171875,0.2636718 0.2734375,0.2636718 0.1855469,0 0.4003906,-0.15625 0.4003906,-0.4492187 0,-0.2246094 -0.1660156,-0.4882813 -0.5371093,-0.4882813 -0.4003907,0 -0.7617188,0.2832032 -1.1132813,0.6152344 -0.2929687,0.2832031 -0.5273437,0.4980469 -0.8105469,0.6152344 z m 5.925293,2.7734375 c 0,-0.7714844 -0.5761719,-1.2207032 -1.2597657,-1.2207032 -1.0351562,0 -2.0117187,0.9667969 -2.0117187,1.9238282 0,0.70312497 0.5078125,1.2207031 1.2695312,1.2207031 0.9960938,0 2.0019532,-0.91796875 2.0019532,-1.9238281 z m -1.9921875,1.7285156 c -0.3515625,0 -0.6933594,-0.22460938 -0.6933594,-0.77148438 0,-0.28320312 0.1269531,-0.96679692 0.4003906,-1.36718752 0.3027344,-0.4296875 0.703125,-0.6152344 1.015625,-0.6152344 0.3808594,0 0.703125,0.2636719 0.703125,0.7714844 0,0.1757813 -0.087891,0.859375 -0.390625,1.34765627 -0.2734375,0.41015625 -0.6835937,0.63476563 -1.0351562,0.63476563 z m 5.2514649,-0.43945313 c -0.03906,0.13671875 -0.09766,0.38085938 -0.09766,0.41015625 0,0.15625 0.126953,0.22460938 0.234375,0.22460938 0.126953,0 0.234375,-0.08789063 0.273437,-0.15625 0.03906,-0.05859375 0.08789,-0.28320313 0.126953,-0.4296875 0.0293,-0.12695313 0.107422,-0.44921875 0.15625,-0.625 0.03906,-0.15625 0.07813,-0.3125 0.117188,-0.46875 0.07813,-0.3027344 0.07813,-0.3125 0.214844,-0.5273438 0.224609,-0.3417968 0.566406,-0.7421875 1.113281,-0.7421875 0.390625,0 0.410156,0.3222657 0.410156,0.4882813 0,0.4199219 -0.292969,1.1914062 -0.410156,1.484375 -0.07813,0.1953125 -0.107422,0.26367187 -0.107422,0.38085937 0,0.37109375 0.3125,0.59570313 0.664062,0.59570313 0.703125,0 1.00586,-0.95703125 1.00586,-1.06445313 0,-0.0878907 -0.08789,-0.0878907 -0.107422,-0.0878907 -0.09766,0 -0.107422,0.039063 -0.136719,0.11718752 -0.15625,0.55664062 -0.458984,0.83984375 -0.742187,0.83984375 -0.146485,0 -0.175782,-0.0976563 -0.175782,-0.24414063 0,-0.15625 0.03906,-0.25390625 0.166016,-0.56640625 0.07813,-0.21484369 0.371094,-0.94726559 0.371094,-1.33789059 0,-0.1171875 0,-0.4101563 -0.263672,-0.6152344 -0.117188,-0.087891 -0.322266,-0.1855469 -0.644531,-0.1855469 -0.625,0 -1.015625,0.4101563 -1.230469,0.703125 -0.05859,-0.5859375 -0.556641,-0.703125 -0.908203,-0.703125 -0.585938,0 -0.976563,0.3613282 -1.181641,0.6347657 -0.04883,-0.4785157 -0.4589842,-0.6347657 -0.7421873,-0.6347657 -0.3027344,0 -0.4589844,0.2148438 -0.5566407,0.3808594 -0.1464843,0.2539063 -0.2441406,0.6542969 -0.2441406,0.6835938 0,0.097656 0.097656,0.097656 0.1171875,0.097656 0.097656,0 0.097656,-0.019531 0.1464844,-0.2148437 0.1074219,-0.4101563 0.2441406,-0.7519532 0.5175781,-0.7519532 0.1757813,0 0.2246094,0.15625 0.2246094,0.3417969 0,0.1367188 -0.058594,0.390625 -0.1074219,0.5761719 -0.048828,0.1953125 -0.1171875,0.4785156 -0.15625,0.6347656 l -0.2246094,0.88867187 c -0.029297,0.0878906 -0.068359,0.26367187 -0.068359,0.28320312 0,0.15625 0.1269531,0.22460938 0.234375,0.22460938 0.1269531,0 0.2441406,-0.08789063 0.2734375,-0.15625 0.039063,-0.05859375 0.087891,-0.28320313 0.1269531,-0.4296875 0.039063,-0.12695313 0.1074219,-0.44921875 0.15625,-0.62499997 0.039063,-0.15625 0.078125,-0.3125 0.1171869,-0.46875 0.07813,-0.2832031 0.08789,-0.3417969 0.292969,-0.625 0.195313,-0.2832031 0.517578,-0.6445313 1.044922,-0.6445313 0.400391,0 0.410156,0.3613282 0.410156,0.4882813 0,0.1757812 -0.01953,0.2636719 -0.117187,0.6542969 z m 4.567871,1.41601563 c -0.04883,0.1953125 -0.06836,0.2539062 -0.341797,0.2539062 -0.09766,0 -0.195312,0 -0.195312,0.1464844 0,0.078125 0.06836,0.1074219 0.09766,0.1074219 0.185547,0 0.410156,-0.029297 0.605469,-0.029297 0.234375,0 0.498046,0.029297 0.732421,0.029297 0.05859,0 0.136719,-0.029297 0.136719,-0.15625 0,-0.097656 -0.09766,-0.097656 -0.185547,-0.097656 -0.146484,0 -0.341797,0 -0.341797,-0.087891 0,-0.0292969 0.04883,-0.21484373 0.07813,-0.3222656 0.08789,-0.36132813 0.185547,-0.7421875 0.263672,-1.03515625 0.07813,0.13671875 0.292969,0.41015625 0.712891,0.41015625 0.849609,0 1.796875,-0.9375 1.796875,-1.9824219 0,-0.8105469 -0.566406,-1.1621094 -1.044922,-1.1621094 -0.439453,0 -0.810547,0.2929688 -0.996094,0.4882813 -0.117187,-0.4003906 -0.507812,-0.4882813 -0.71289,-0.4882813 -0.273438,0 -0.439453,0.1855469 -0.556641,0.3710938 -0.136719,0.234375 -0.244141,0.6542969 -0.244141,0.6933594 0,0.097656 0.09766,0.097656 0.117188,0.097656 0.09766,0 0.09766,-0.019531 0.146484,-0.2148437 0.107422,-0.4003907 0.244141,-0.7519532 0.517578,-0.7519532 0.175782,0 0.22461,0.15625 0.22461,0.3417969 0,0.078125 -0.0098,0.1660156 -0.01953,0.2148438 z m 1.308594,-3.0859375 c 0.410156,-0.5371094 0.761718,-0.6445313 0.976562,-0.6445313 0.273438,0 0.517578,0.2050782 0.517578,0.6738282 0,0.2929687 -0.15625,0.9960937 -0.371093,1.40624997 -0.166016,0.34179688 -0.507813,0.67382813 -0.869141,0.67382813 -0.488281,0 -0.615234,-0.53710938 -0.615234,-0.60546875 0,-0.0292969 0.0098,-0.078125 0.01953,-0.10742188 z m 0,0"
       style="fill:#000000;fill-opacity:1;fill-rule:nonzero;stroke:none"
       aria-label="komp"
       transform="matrix(1.6,0,0,1.6,91.8848,18.595733)" />
    <path
       id="path6"
       d="m 71.41383,-17.00801 c 0,1.86767 -1.514,3.38168 -3.38166,3.38168 -1.86768,0 -3.38169,-1.51401 -3.38169,-3.38168 0,-1.86768 1.51401,-3.38169 3.38169,-3.38169 1.86766,0 3.38166,1.51401 3.38166,3.38169 z"
       style="fill:#000000;fill-opacity:1;fill-rule:nonzero;stroke:#000000;stroke-width:1.39478;stroke-linecap:butt;stroke-linejoin:miter;stroke-miterlimit:10;stroke-dasharray:none;stroke-opacity:1"
       transform="matrix(1.3333333,0,0,-1.3333333,12.541333,76.589333)" />
    <path
       id="path7"
       d="m 71.41383,-17.00801 c 0,1.86767 -1.514,3.38168 -3.38166,3.38168 -1.86768,0 -3.38169,-1.51401 -3.38169,-3.38168 0,-1.86768 1.51401,-3.38169 3.38169,-3.38169 1.86766,0 3.38166,1.51401 3.38166,3.38169 z"
       style="fill:none;stroke:#ffffff;stroke-width:0.59776;stroke-linecap:butt;stroke-linejoin:miter;stroke-miterlimit:10;stroke-dasharray:none;stroke-opacity:1"
       transform="matrix(1.3333333,0,0,-1.3333333,12.541333,76.589333)" />
    <path
       id="path8"
       d="m 5.9472005,-5.6651888 0.1367188,-0.1464844 c 0.3027343,-0.2929687 0.625,-0.6347656 1.3085937,-0.6835937 0.1074219,-0.00977 0.1953125,-0.00977 0.1953125,-0.1855469 0,-0.087891 -0.048828,-0.1269531 -0.1269531,-0.1269531 -0.2636719,0 -0.546875,0.029297 -0.8203125,0.029297 -0.3222656,0 -0.6738281,-0.029297 -0.9960938,-0.029297 -0.058594,0 -0.1855468,0 -0.1855468,0.1953125 0,0.1074218 0.097656,0.1171875 0.1464843,0.1171875 0.068359,0 0.3613282,0.019531 0.3613282,0.2246093 0,0.1757813 -0.2246094,0.4296875 -0.2734375,0.4785157 l -2.3046875,2.6660156 -1.09375,-2.9589844 c -0.068359,-0.1464844 -0.068359,-0.1660156 -0.068359,-0.1757812 0,-0.234375 0.4882812,-0.234375 0.5957031,-0.234375 0.1367188,0 0.234375,0 0.234375,-0.1953125 0,-0.1171875 -0.1171875,-0.1171875 -0.1464844,-0.1171875 -0.2832031,0 -0.9765625,0.029297 -1.2597656,0.029297 -0.2441406,0 -0.85937498,-0.029297 -1.11328123,-0.029297 -0.0585938,0 -0.18554687,0 -0.18554687,0.2050781 0,0.1074219 0.0976563,0.1074219 0.22460937,0.1074219 0.59570313,0 0.63476563,0.087891 0.73242183,0.3417968 l 1.2207032,3.2714844 c 0.00977,0.029297 0.039063,0.1367188 0.039063,0.1757813 0,0.029297 -0.4003907,1.6308593 -0.4492188,1.8066406 -0.1269531,0.546875 -0.1367187,0.57617187 -0.9375,0.5859375 -0.18554685,0 -0.26367185,0 -0.26367185,0.20507812 0,0.10742188 0.11718745,0.10742188 0.13671875,0.10742188 0.2832031,0 0.9765625,-0.02929688 1.2597656,-0.02929688 0.2734375,0 0.9960938,0.02929688 1.2695313,0.02929688 0.068359,0 0.1953125,0 0.1953125,-0.1953125 0,-0.1171875 -0.097656,-0.1171875 -0.2832032,-0.1171875 -0.019531,0 -0.2050781,0 -0.3808593,-0.0195313 -0.2050782,-0.0195313 -0.2636719,-0.0390625 -0.2636719,-0.15625 0,-0.0683594 0.087891,-0.41992188 0.1367187,-0.6250001 l 0.3515625,-1.40625 c 0.048828,-0.1855468 0.058594,-0.2246093 0.1367188,-0.3125 z m 0,0"
       style="fill:#000000;fill-opacity:1;fill-rule:nonzero;stroke:none"
       aria-label="Y"
       transform="matrix(1.6,0,0,1.6,113.72667,103.52133)" />
    <path
       id="path9"
       d="m 1.8355638,-4.6298919 c 0.00977,-0.019531 0.029297,-0.1074219 0.029297,-0.1171875 0,-0.029297 -0.029297,-0.097656 -0.1074219,-0.097656 -0.1367187,0 -0.7226562,0.058594 -0.88867187,0.078125 -0.0585938,0 -0.15625,0.00977 -0.15625,0.15625 0,0.097656 0.0976563,0.097656 0.17578125,0.097656 0.34179692,0 0.34179692,0.048828 0.34179692,0.1074218 0,0.048828 -0.068359,0.3222657 -0.1171875,0.4882813 l -0.15625005,0.6347656 c -0.0683594,0.2441406 -0.44921875,1.7675781 -0.45898437,1.8554688 -0.0390625,0.1660156 -0.0390625,0.2636718 -0.0390625,0.3417968 0,0.70312505 0.44921875,1.1523438 1.02539062,1.1523438 0.8691406,0 1.796875,-0.94726563 1.796875,-1.9824219 0,-0.8105469 -0.5664062,-1.1621094 -1.0449219,-1.1621094 -0.3613281,0 -0.6640625,0.2050782 -0.8789062,0.3808594 z m -0.3417969,4.5019531 c -0.3417968,0 -0.53710935,-0.30273438 -0.53710935,-0.71289063 0,-0.25390627 0.0585938,-0.48828127 0.25390625,-1.27929687 0.048828,-0.1367188 0.048828,-0.1464844 0.1757813,-0.3027344 0.2636718,-0.3027344 0.5761718,-0.4589844 0.8300781,-0.4589844 0.2734375,0 0.5078125,0.2050782 0.5078125,0.6738282 0,0.2929687 -0.15625,0.9960937 -0.3613281,1.40624997 -0.1660157,0.34179688 -0.5175782,0.67382813 -0.8691407,0.67382813 z m 3.5717774,-1.4648438 c 0.1953125,0 0.7421875,-0.00977 1.1230468,-0.1464843 0.5175782,-0.1757813 0.6152344,-0.5175782 0.6152344,-0.7226563 0,-0.3808594 -0.390625,-0.6152344 -0.8691406,-0.6152344 -0.8300781,0 -1.9628906,0.6445313 -1.9628906,1.8359375 0,0.70312505 0.4394531,1.3085938 1.25,1.3085938 1.1816406,0 1.7285156,-0.69335938 1.7285156,-0.79101563 0,-0.0390625 -0.058594,-0.1171875 -0.1171875,-0.1171875 -0.039063,0 -0.048828,0.0195313 -0.1074219,0.0683594 -0.546875,0.64453125 -1.3574219,0.64453125 -1.484375,0.64453125 -0.4199219,0 -0.703125,-0.2734375 -0.703125,-0.83984375 0,-0.0976562 0,-0.24414067 0.087891,-0.62500007 z M 4.6846849,-1.7880951 c 0.2832031,-1.0058593 1.0546875,-1.09375 1.25,-1.09375 0.3125,0 0.5664062,0.15625 0.5664062,0.4199219 0,0.6738281 -1.1816406,0.6738281 -1.4746093,0.6738281 z m 6.2988281,-0.068359 c 0,-0.7714844 -0.576172,-1.2207032 -1.2597656,-1.2207032 -1.0351563,0 -2.0117188,0.9667969 -2.0117188,1.9238282 0,0.70312497 0.5078125,1.2207031 1.2695313,1.2207031 0.9960937,0 2.0019531,-0.91796875 2.0019531,-1.9238281 z m -1.9921875,1.7285156 c -0.3515625,0 -0.6933594,-0.22460938 -0.6933594,-0.77148438 0,-0.28320312 0.1269532,-0.96679692 0.4003907,-1.36718752 0.3027343,-0.4296875 0.703125,-0.6152344 1.015625,-0.6152344 0.3808592,0 0.7031252,0.2636719 0.7031252,0.7714844 0,0.1757813 -0.08789,0.859375 -0.390625,1.34765627 -0.2734377,0.41015625 -0.683594,0.63476563 -1.0351565,0.63476563 z m 4.0600585,-4.5019531 c 0.0098,-0.019531 0.0293,-0.1074219 0.0293,-0.1171875 0,-0.029297 -0.0293,-0.097656 -0.107422,-0.097656 -0.136719,0 -0.722656,0.058594 -0.888672,0.078125 -0.05859,0 -0.15625,0.00977 -0.15625,0.15625 0,0.097656 0.09766,0.097656 0.175781,0.097656 0.341797,0 0.341797,0.048828 0.341797,0.1074218 0,0.048828 -0.06836,0.3222657 -0.117187,0.4882813 l -0.15625,0.6347656 c -0.06836,0.2441406 -0.449219,1.7675781 -0.458985,1.8554688 -0.03906,0.1660156 -0.03906,0.2636718 -0.03906,0.3417968 0,0.70312505 0.449219,1.1523438 1.025391,1.1523438 0.86914,0 1.796875,-0.94726563 1.796875,-1.9824219 0,-0.8105469 -0.566407,-1.1621094 -1.044922,-1.1621094 -0.361328,0 -0.664063,0.2050782 -0.878907,0.3808594 z m -0.341797,4.5019531 c -0.341797,0 -0.537109,-0.30273438 -0.537109,-0.71289063 0,-0.25390627 0.05859,-0.48828127 0.253906,-1.27929687 0.04883,-0.1367188 0.04883,-0.1464844 0.175781,-0.3027344 0.263672,-0.3027344 0.576172,-0.4589844 0.830078,-0.4589844 0.273438,0 0.507813,0.2050782 0.507813,0.6738282 0,0.2929687 -0.15625,0.9960937 -0.361328,1.40624997 -0.166016,0.34179688 -0.517578,0.67382813 -0.869141,0.67382813 z m 0,0"
       style="fill:#000000;fill-opacity:1;fill-rule:nonzero;stroke:none"
       aria-label="beob"
       transform="matrix(1.6,0,0,1.6,122.98107,105.91173)" />
    <path
       id="path10"
       d="m 71.41383,-68.03217 c 0,1.86768 -1.514,3.38169 -3.38166,3.38169 -1.86768,0 -3.38169,-1.51401 -3.38169,-3.38169 0,-1.86766 1.51401,-3.38166 3.38169,-3.38166 1.86766,0 3.38166,1.514 3.38166,3.38166 z"
       style="fill:#000000;fill-opacity:1;fill-rule:nonzero;stroke:none"
       transform="matrix(1.3333333,0,0,-1.3333333,12.541333,76.589333)" />
    <path
       id="path11"
       d="m 3.7396159,-6.1124674 c 0.058594,-0.2441407 0.087891,-0.3417969 0.2734375,-0.3710938 0.087891,-0.00977 0.4101562,-0.00977 0.6054687,-0.00977 0.7128907,0 1.8164063,0 1.8164063,0.9863281 0,0.3417969 -0.15625,1.0253906 -0.546875,1.4160156 -0.2636719,0.2539063 -0.7910156,0.5761719 -1.6894531,0.5761719 H 3.085319 Z m 1.4257812,2.7246093 c 1.0058594,-0.2148437 2.1972657,-0.9179687 2.1972657,-1.9238281 0,-0.8496094 -0.8984375,-1.4941406 -2.2070313,-1.4941406 H 2.3236003 c -0.2050782,0 -0.2929688,0 -0.2929688,0.2050781 0,0.1074219 0.087891,0.1074219 0.2832031,0.1074219 0.019531,0 0.2050782,0 0.3710938,0.019531 0.1855469,0.019531 0.2734375,0.029297 0.2734375,0.15625 0,0.039063 -0.00977,0.068359 -0.039063,0.1953125 l -1.3378906,5.3417969 c -0.097656,0.390625 -0.1171875,0.46875 -0.90820316,0.46875 -0.17578125,0 -0.26367188,0 -0.26367188,0.20507813 0,0.10742187208 0.1171875,0.10742187208 0.13671875,0.10742187208 0.28320313,0 0.97656249,-0.0292968721 1.25976559,-0.0292968721 0.2734375,0 0.9863282,0.0292968721 1.2597657,0.0292968721 0.078125,0 0.2050781,0 0.2050781,-0.19531250208 0,-0.1171875 -0.097656,-0.1171875 -0.2832031,-0.1171875 -0.3710938,0 -0.6445313,0 -0.6445313,-0.17578125 0,-0.0585938 0.019531,-0.10742187 0.029297,-0.16601562 L 3.0267253,-3.2999674 h 1.1816406 c 0.9082031,0 1.09375,0.5566406 1.09375,0.9082031 0,0.1464844 -0.087891,0.4589844 -0.1464844,0.6933594 -0.068359,0.2734375 -0.15625,0.6445312 -0.15625,0.8398437 0,1.07421875 1.1914063,1.07421875 1.328125,1.07421875 0.8398438,0 1.1914063,-1.00585937 1.1914063,-1.14257812 0,-0.11718753 -0.1074219,-0.11718753 -0.1171875,-0.11718753 -0.087891,0 -0.1074219,0.0683594 -0.1269532,0.13671878 -0.2539062,0.7421875 -0.6835937,0.90820312208 -0.9082031,0.90820312208 -0.3320312,0 -0.4003906,-0.21484375208 -0.4003906,-0.60546875208 0,-0.3125 0.058594,-0.82031245 0.097656,-1.14257815 0.019531,-0.1367187 0.039063,-0.3222656 0.039063,-0.4589843 0,-0.7714844 -0.6640625,-1.0839844 -0.9375003,-1.1816407 z m 0,0"
       style="fill:#000000;fill-opacity:1;fill-rule:nonzero;stroke:none"
       aria-label="R"
       transform="matrix(1.6,0,0,1.6,97.153333,188.66667)" />
    <path
       id="path12"
       d="m 3.6214,34.02293 57.73854,-6e-5"
       style="fill:none;stroke:#000000;stroke-width:0.3985;stroke-linecap:butt;stroke-linejoin:miter;stroke-miterlimit:10;stroke-dasharray:none;stroke-opacity:1"
       transform="matrix(1.3333333,0,0,-1.3333333,12.541333,76.589333)" />
    <path
       id="path13"
       d="M 4.21463,0 0.64343,1.34572 1.8178,0 0.64343,-1.34572 Z"
       style="fill:#000000;fill-opacity:1;fill-rule:nonzero;stroke:#000000;stroke-width:0.3985;stroke-linecap:butt;stroke-linejoin:miter;stroke-miterlimit:10;stroke-dasharray:none;stroke-opacity:1"
       transform="matrix(1.3333333,0,0,-1.3333333,92.063667,31.225507)" />
    <path
       id="path14"
       d="m 68.04623,30.40121 -4e-5,-40.72715"
       style="fill:none;stroke:#000000;stroke-width:0.3985;stroke-linecap:butt;stroke-linejoin:miter;stroke-miterlimit:10;stroke-dasharray:none;stroke-opacity:1"
       transform="matrix(1.3333333,0,0,-1.3333333,12.541333,76.589333)" />
    <path
       id="path15"
       d="M 4.21463,0 0.64343,1.34572 1.8178,0 0.64343,-1.34572 Z"
       style="fill:#000000;fill-opacity:1;fill-rule:nonzero;stroke:#000000;stroke-width:0.3985;stroke-linecap:butt;stroke-linejoin:miter;stroke-miterlimit:10;stroke-dasharray:none;stroke-opacity:1"
       transform="matrix(0,1.3333333,1.3333333,0,103.26959,88.06632)" />
    <path
       id="path16"
       d="m 68.04623,-64.42384 -4e-5,40.72723"
       style="fill:none;stroke:#000000;stroke-width:0.3985;stroke-linecap:butt;stroke-linejoin:miter;stroke-miterlimit:10;stroke-dasharray:none;stroke-opacity:1"
       transform="matrix(1.3333333,0,0,-1.3333333,12.541333,76.589333)" />
    <path
       id="path17"
       d="M 4.21463,0 0.64343,1.34572 1.8178,0 0.64343,-1.34572 Z"
       style="fill:#000000;fill-opacity:1;fill-rule:nonzero;stroke:#000000;stroke-width:0.3985;stroke-linecap:butt;stroke-linejoin:miter;stroke-miterlimit:10;stroke-dasharray:none;stroke-opacity:1"
       transform="matrix(0,-1.3333333,-1.3333333,0,103.26959,110.47573)" />
    <path
       id="path18"
       d="M 71.66666,34.02293 C 131.3719,34.02261 131.3719,-68.04524 74.73058,-68.04596"
       style="fill:none;stroke:#000000;stroke-width:0.3985;stroke-linecap:butt;stroke-linejoin:miter;stroke-miterlimit:10;stroke-dasharray:none;stroke-opacity:1"
       transform="matrix(1.3333333,0,0,-1.3333333,12.541333,76.589333)" />
    <path
       id="path19"
       d="M 4.21463,0 0.64343,1.34572 1.8178,0 0.64343,-1.34572 Z"
       style="fill:#000000;fill-opacity:1;fill-rule:nonzero;stroke:#000000;stroke-width:0.3985;stroke-linecap:butt;stroke-linejoin:miter;stroke-miterlimit:10;stroke-dasharray:none;stroke-opacity:1"
       transform="matrix(-1.3333333,0,0,1.3333333,114.47301,167.31728)" />
    <path
       id="path20"
       d="m 173.46217,34.01608 c 0,1.86766 -1.51402,3.38167 -3.38168,3.38167 -1.86768,0 -3.38169,-1.51401 -3.38169,-3.38167 0,-1.86768 1.51401,-3.38168 3.38169,-3.38168 1.86766,0 3.38168,1.514 3.38168,3.38168 z"
       style="fill:#000000;fill-opacity:1;fill-rule:nonzero;stroke:none"
       transform="matrix(1.3333333,0,0,-1.3333333,12.541333,76.589333)" />
    <path
       id="path21"
       d="M 4.8351953,-4.0916146 3.9953516,-6.0740365 c -0.029297,-0.078125 -0.048828,-0.1171875 -0.048828,-0.1269531 0,-0.068359 0.1660157,-0.2539062 0.5859375,-0.2929687 0.097656,-0.00977 0.2050782,-0.019531 0.2050782,-0.1855469 0,-0.1269531 -0.1269532,-0.1269531 -0.15625,-0.1269531 -0.4101563,0 -0.8300782,0.029297 -1.25,0.029297 -0.2539063,0 -0.8691407,-0.029297 -1.1230469,-0.029297 -0.058594,0 -0.1757813,0 -0.1757813,0.2050781 0,0.1074219 0.097656,0.1074219 0.234375,0.1074219 0.5957032,0 0.6542969,0.097656 0.7421875,0.3222656 l 1.171875,2.7734375 -2.0996093,2.265625 -0.1269532,0.1074219 c -0.4882812,0.52734372 -0.95703121,0.68359372 -1.46484371,0.71289059 -0.12695313,0.009766 -0.21484375,0.009766 -0.21484375,0.20507813 0,0.0097656 0,0.10742187167 0.12695312,0.10742187167 0.29296875,0 0.62500004,-0.0292968717 0.93750004,-0.0292968717 0.3613281,0 0.7519531,0.0292968717 1.1132812,0.0292968717 0.058594,0 0.1757813,0 0.1757813,-0.19531250167 0,-0.10742187 -0.097656,-0.1171875 -0.1171875,-0.1171875 -0.087891,-0.009766 -0.4003907,-0.0292969 -0.4003907,-0.30273437 0,-0.16601563 0.15625,-0.32226563 0.2734375,-0.44921872 l 1.015625,-1.0742188 0.8984375,-0.9765625 1.0058594,2.38281252 c 0.039063,0.10742187 0.048828,0.1171875 0.048828,0.13671875 0,0.078125 -0.1953125,0.24414062 -0.5761718,0.28320312 -0.1171875,0.009766 -0.2050782,0.0195313 -0.2050782,0.1953125 0,0.11718750167 0.1074219,0.11718750167 0.1464844,0.11718750167 0.2832031,0 0.9765625,-0.0292968717 1.2597656,-0.0292968717 0.2539063,0 0.859375,0.0292968717 1.1035157,0.0292968717 0.068359,0 0.1953125,0 0.1953125,-0.18554687167 0,-0.12695313 -0.1074219,-0.12695313 -0.1855469,-0.12695313 C 6.4269922,-0.32208333 6.4074609,-0.35138021 6.2414453,-0.75177083 5.8508203,-1.6697396 5.1769922,-3.222474 4.9523828,-3.8279427 c 0.6738281,-0.6933594 1.71875,-1.875 2.0410156,-2.1582031 0.2929688,-0.2441407 0.6640625,-0.4785157 1.2695313,-0.5078125 0.1269531,-0.00977 0.2148437,-0.00977 0.2148437,-0.1953125 0,-0.00977 0,-0.1171875 -0.1269531,-0.1171875 -0.3027344,0 -0.625,0.029297 -0.9375,0.029297 -0.3710937,0 -0.7519531,-0.029297 -1.1035156,-0.029297 -0.058594,0 -0.1953125,0 -0.1953125,0.2050781 0,0.068359 0.048828,0.097656 0.1269531,0.1074219 0.087891,0.00977 0.390625,0.029297 0.390625,0.3125 0,0.1367187 -0.1074219,0.2636718 -0.1855469,0.3515625 z m 0,0"
       style="fill:#000000;fill-opacity:1;fill-rule:nonzero;stroke:none"
       aria-label="X"
       transform="matrix(1.6,0,0,1.6,232.084,20.765333)" />
    <path
       id="path22"
       d="m 241.49434,34.01608 c 0,1.86766 -1.51402,3.38167 -3.38168,3.38167 -1.86768,0 -3.38169,-1.51401 -3.38169,-3.38167 0,-1.86768 1.51401,-3.38168 3.38169,-3.38168 1.86766,0 3.38168,1.514 3.38168,3.38168 z"
       style="fill:none;stroke:#000000;stroke-width:0.3985;stroke-linecap:butt;stroke-linejoin:miter;stroke-miterlimit:10;stroke-dasharray:none;stroke-opacity:1"
       transform="matrix(1.3333333,0,0,-1.3333333,12.541333,76.589333)" />
    <path
       id="path23"
       d="m 5.9470638,-5.6630013 0.1367188,-0.1464844 c 0.3027343,-0.2929687 0.625,-0.6347656 1.3085937,-0.6835937 0.1074219,-0.00977 0.1953125,-0.00977 0.1953125,-0.1855469 0,-0.087891 -0.048828,-0.1269531 -0.1269531,-0.1269531 -0.2636719,0 -0.546875,0.029297 -0.8203125,0.029297 -0.3222656,0 -0.6738281,-0.029297 -0.9960938,-0.029297 -0.058594,0 -0.1855468,0 -0.1855468,0.1953125 0,0.1074218 0.097656,0.1171875 0.1464843,0.1171875 0.068359,0 0.3613282,0.019531 0.3613282,0.2246093 0,0.1757813 -0.2246094,0.4296875 -0.2734375,0.4785157 l -2.3046875,2.6660156 -1.09375,-2.9589844 c -0.068359,-0.1464844 -0.068359,-0.1660156 -0.068359,-0.1757812 0,-0.234375 0.4882812,-0.234375 0.5957031,-0.234375 0.1367188,0 0.234375,0 0.234375,-0.1953125 0,-0.1171875 -0.1171875,-0.1171875 -0.1464844,-0.1171875 -0.2832031,0 -0.9765625,0.029297 -1.2597656,0.029297 -0.2441406,0 -0.859375,-0.029297 -1.11328125,-0.029297 -0.0585938,0 -0.18554687,0 -0.18554687,0.2050781 0,0.1074219 0.0976563,0.1074219 0.22460937,0.1074219 0.59570315,0 0.63476565,0.087891 0.73242185,0.3417968 l 1.2207032,3.2714844 c 0.00977,0.029297 0.039063,0.1367188 0.039063,0.1757813 0,0.029297 -0.4003907,1.6308593 -0.4492188,1.8066406 -0.1269531,0.546875 -0.1367187,0.57617187 -0.9375,0.5859375 -0.18554687,0 -0.26367187,0 -0.26367187,0.20507812 0,0.10742188 0.11718747,0.10742188 0.13671877,0.10742188 0.2832031,0 0.9765625,-0.02929688 1.2597656,-0.02929688 0.2734375,0 0.9960938,0.02929688 1.2695313,0.02929688 0.068359,0 0.1953125,0 0.1953125,-0.1953125 0,-0.1171875 -0.097656,-0.1171875 -0.2832032,-0.1171875 -0.019531,0 -0.2050781,0 -0.3808593,-0.0195313 -0.2050782,-0.0195313 -0.2636719,-0.0390625 -0.2636719,-0.15625 0,-0.0683594 0.087891,-0.41992188 0.1367187,-0.6250001 l 0.3515625,-1.40625 c 0.048828,-0.1855468 0.058594,-0.2246093 0.1367188,-0.3125 z m 0,0"
       style="fill:#000000;fill-opacity:1;fill-rule:nonzero;stroke:none"
       aria-label="Y"
       transform="matrix(1.6,0,0,1.6,309.40267,16.205333)" />
    <path
       id="path24"
       d="m 2.177224,-4.6277044 c 0.00977,-0.019531 0.029297,-0.1074219 0.029297,-0.1171875 0,-0.029297 -0.029297,-0.097656 -0.1074218,-0.097656 -0.1367188,0 -0.7226563,0.058594 -0.8886719,0.078125 -0.058594,0 -0.15625,0.00977 -0.15625,0.15625 0,0.097656 0.097656,0.097656 0.1757812,0.097656 0.3417969,0 0.3417969,0.048828 0.3417969,0.1074218 0,0.048828 -0.019531,0.087891 -0.029297,0.1464844 l -0.98632809,3.95507815 c -0.0292969,0.1171875 -0.0292969,0.13671875 -0.0292969,0.14648437 0,0.10742188 0.078125,0.22460938 0.234375,0.22460938 0.18554688,0 0.27343749,-0.13671875 0.32226569,-0.29296875 0.00977,-0.0292969 0.3125,-1.25000005 0.3417968,-1.34765625 0.4882813,0.048828 0.8886719,0.2050781 0.8886719,0.5664062 0,0.0390626 0,0.0683594 -0.00977,0.1367188 -0.029297,0.10742187 -0.029297,0.14648437 -0.029297,0.22460937 0,0.48828125 0.4003906,0.71289063 0.7324219,0.71289063 0.6835937,0 0.8886719,-1.0546875 0.8886719,-1.06445313 0,-0.0878907 -0.087891,-0.0878907 -0.1074219,-0.0878907 -0.097656,0 -0.1074219,0.029297 -0.1464844,0.16601564 -0.078125,0.29296875 -0.2636719,0.79101563 -0.6054687,0.79101563 -0.1953125,0 -0.2441407,-0.17578125 -0.2441407,-0.36132813 0,-0.1171875 0,-0.13671875 0.039063,-0.3125 0.00977,-0.0195313 0.029297,-0.13671875 0.029297,-0.21484374 0,-0.625 -0.8300781,-0.7226562 -1.1230469,-0.7421875 0.1953125,-0.1269531 0.4589844,-0.3515625 0.5761719,-0.4589844 0.3515625,-0.3320312 0.703125,-0.6640625 1.09375,-0.6640625 0.087891,0 0.1757813,0.019531 0.234375,0.087891 -0.3027344,0.048828 -0.3613281,0.2929687 -0.3613281,0.390625 0,0.15625 0.1171875,0.2636718 0.2734375,0.2636718 0.1855469,0 0.4003906,-0.15625 0.4003906,-0.4492187 0,-0.2246094 -0.1660156,-0.4882813 -0.5371094,-0.4882813 -0.4003906,0 -0.7617187,0.2832032 -1.1132812,0.6152344 -0.2929688,0.2832031 -0.5273438,0.4980469 -0.8105469,0.6152344 z m 5.9277343,2.7734375 c 0,-0.7714844 -0.5761718,-1.2207032 -1.2597656,-1.2207032 -1.0351562,0 -2.0117187,0.9667969 -2.0117187,1.9238282 0,0.70312497 0.5078125,1.2207031 1.2695312,1.2207031 0.9960938,0 2.0019531,-0.91796875 2.0019531,-1.9238281 z m -1.9921875,1.7285156 c -0.3515625,0 -0.6933593,-0.22460938 -0.6933593,-0.77148438 0,-0.28320312 0.1269531,-0.96679692 0.4003906,-1.36718752 0.3027344,-0.4296875 0.703125,-0.6152344 1.015625,-0.6152344 0.3808594,0 0.703125,0.2636719 0.703125,0.7714844 0,0.1757813 -0.087891,0.859375 -0.390625,1.34765627 -0.2734375,0.41015625 -0.6835938,0.63476563 -1.0351563,0.63476563 z m 5.2490232,-0.43945313 c -0.03906,0.13671875 -0.09766,0.38085938 -0.09766,0.41015625 0,0.15625 0.126953,0.22460938 0.234375,0.22460938 0.126953,0 0.234375,-0.08789063 0.273438,-0.15625 0.03906,-0.05859375 0.08789,-0.28320313 0.126953,-0.4296875 0.0293,-0.12695313 0.107422,-0.44921875 0.15625,-0.625 0.03906,-0.15625 0.07813,-0.3125 0.117187,-0.46875 0.07813,-0.3027344 0.07813,-0.3125 0.214844,-0.5273438 0.224609,-0.3417968 0.566406,-0.7421875 1.113281,-0.7421875 0.390625,0 0.410156,0.3222657 0.410156,0.4882813 0,0.4199219 -0.292968,1.1914062 -0.410156,1.484375 -0.07813,0.1953125 -0.107422,0.26367187 -0.107422,0.38085937 0,0.37109375 0.3125,0.59570313 0.664063,0.59570313 0.703125,0 1.005859,-0.95703125 1.005859,-1.06445313 0,-0.0878907 -0.08789,-0.0878907 -0.107422,-0.0878907 -0.09766,0 -0.107422,0.039063 -0.136718,0.11718752 -0.15625,0.55664062 -0.458985,0.83984375 -0.742188,0.83984375 -0.146484,0 -0.175781,-0.0976563 -0.175781,-0.24414063 0,-0.15625 0.03906,-0.25390625 0.166015,-0.56640625 0.07813,-0.21484369 0.371094,-0.94726559 0.371094,-1.33789059 0,-0.1171875 0,-0.4101563 -0.263672,-0.6152344 -0.117187,-0.087891 -0.322265,-0.1855469 -0.644531,-0.1855469 -0.625,0 -1.015625,0.4101563 -1.230469,0.703125 -0.05859,-0.5859375 -0.55664,-0.703125 -0.908203,-0.703125 -0.585937,0 -0.976562,0.3613282 -1.18164,0.6347657 -0.04883,-0.4785157 -0.4589849,-0.6347657 -0.742188,-0.6347657 -0.3027344,0 -0.4589844,0.2148438 -0.5566406,0.3808594 -0.1464844,0.2539063 -0.2441406,0.6542969 -0.2441406,0.6835938 0,0.097656 0.097656,0.097656 0.1171875,0.097656 0.097656,0 0.097656,-0.019531 0.1464843,-0.2148437 0.1074219,-0.4101563 0.2441407,-0.7519532 0.5175782,-0.7519532 0.1757812,0 0.2246093,0.15625 0.2246093,0.3417969 0,0.1367188 -0.058594,0.390625 -0.1074218,0.5761719 -0.048828,0.1953125 -0.1171875,0.4785156 -0.15625,0.6347656 l -0.2246094,0.88867187 c -0.029297,0.0878906 -0.068359,0.26367187 -0.068359,0.28320312 0,0.15625 0.1269531,0.22460938 0.234375,0.22460938 0.1269531,0 0.2441406,-0.08789063 0.2734375,-0.15625 0.039063,-0.05859375 0.087891,-0.28320313 0.1269531,-0.4296875 0.039063,-0.12695313 0.1074219,-0.44921875 0.15625,-0.62499997 0.039063,-0.15625 0.078125,-0.3125 0.1171875,-0.46875 0.07813,-0.2832031 0.08789,-0.3417969 0.292968,-0.625 0.195313,-0.2832031 0.517579,-0.6445313 1.044922,-0.6445313 0.400391,0 0.410157,0.3613282 0.410157,0.4882813 0,0.1757812 -0.01953,0.2636719 -0.117188,0.6542969 z m 4.570313,1.41601563 c -0.04883,0.1953125 -0.06836,0.2539062 -0.341797,0.2539062 -0.09766,0 -0.195313,0 -0.195313,0.1464844 0,0.078125 0.06836,0.1074219 0.09766,0.1074219 0.185547,0 0.410156,-0.029297 0.605468,-0.029297 0.234375,0 0.498047,0.029297 0.732422,0.029297 0.05859,0 0.136719,-0.029297 0.136719,-0.15625 0,-0.097656 -0.09766,-0.097656 -0.185547,-0.097656 -0.146484,0 -0.341797,0 -0.341797,-0.087891 0,-0.0292969 0.04883,-0.21484373 0.07813,-0.3222656 0.08789,-0.36132813 0.185547,-0.7421875 0.263672,-1.03515625 0.07813,0.13671875 0.292969,0.41015625 0.712891,0.41015625 0.849609,0 1.796875,-0.9375 1.796875,-1.9824219 0,-0.8105469 -0.566406,-1.1621094 -1.044922,-1.1621094 -0.439453,0 -0.810547,0.2929688 -0.996094,0.4882813 -0.117187,-0.4003906 -0.507812,-0.4882813 -0.71289,-0.4882813 -0.273438,0 -0.439454,0.1855469 -0.556641,0.3710938 -0.136719,0.234375 -0.244141,0.6542969 -0.244141,0.6933594 0,0.097656 0.09766,0.097656 0.117188,0.097656 0.09766,0 0.09766,-0.019531 0.146484,-0.2148437 0.107422,-0.4003907 0.244141,-0.7519532 0.517578,-0.7519532 0.175782,0 0.22461,0.15625 0.22461,0.3417969 0,0.078125 -0.0098,0.1660156 -0.01953,0.2148438 z m 1.308594,-3.0859375 c 0.410156,-0.5371094 0.761718,-0.6445313 0.976562,-0.6445313 0.273438,0 0.517578,0.2050782 0.517578,0.6738282 0,0.2929687 -0.15625,0.9960937 -0.371094,1.40624997 -0.166015,0.34179688 -0.507812,0.67382813 -0.86914,0.67382813 -0.488281,0 -0.615235,-0.53710938 -0.615235,-0.60546875 0,-0.0292969 0.0098,-0.078125 0.01953,-0.10742188 z m 0,0"
       style="fill:#000000;fill-opacity:1;fill-rule:nonzero;stroke:none"
       aria-label="komp"
       transform="matrix(1.6,0,0,1.6,318.65707,18.595733)" />
    <path
       id="path25"
       d="m 241.49434,-17.00801 c 0,1.86767 -1.51402,3.38168 -3.38168,3.38168 -1.86768,0 -3.38169,-1.51401 -3.38169,-3.38168 0,-1.86768 1.51401,-3.38169 3.38169,-3.38169 1.86766,0 3.38168,1.51401 3.38168,3.38169 z"
       style="fill:#000000;fill-opacity:1;fill-rule:nonzero;stroke:#000000;stroke-width:1.39478;stroke-linecap:butt;stroke-linejoin:miter;stroke-miterlimit:10;stroke-dasharray:none;stroke-opacity:1"
       transform="matrix(1.3333333,0,0,-1.3333333,12.541333,76.589333)" />
    <path
       id="path26"
       d="m 241.49434,-17.00801 c 0,1.86767 -1.51402,3.38168 -3.38168,3.38168 -1.86768,0 -3.38169,-1.51401 -3.38169,-3.38168 0,-1.86768 1.51401,-3.38169 3.38169,-3.38169 1.86766,0 3.38168,1.51401 3.38168,3.38169 z"
       style="fill:none;stroke:#ffffff;stroke-width:0.59776;stroke-linecap:butt;stroke-linejoin:miter;stroke-miterlimit:10;stroke-dasharray:none;stroke-opacity:1"
       transform="matrix(1.3333333,0,0,-1.3333333,12.541333,76.589333)" />
    <path
       id="path27"
       d="m 5.948099,-5.6651888 0.1367187,-0.1464844 c 0.3027344,-0.2929687 0.625,-0.6347656 1.3085938,-0.6835937 0.1074218,-0.00977 0.1953125,-0.00977 0.1953125,-0.1855469 0,-0.087891 -0.048828,-0.1269531 -0.1269532,-0.1269531 -0.2636718,0 -0.546875,0.029297 -0.8203125,0.029297 -0.3222656,0 -0.6738281,-0.029297 -0.9960937,-0.029297 -0.058594,0 -0.1855469,0 -0.1855469,0.1953125 0,0.1074218 0.097656,0.1171875 0.1464844,0.1171875 0.068359,0 0.3613281,0.019531 0.3613281,0.2246093 0,0.1757813 -0.2246094,0.4296875 -0.2734375,0.4785157 l -2.3046875,2.6660156 -1.09375,-2.9589844 c -0.068359,-0.1464844 -0.068359,-0.1660156 -0.068359,-0.1757812 0,-0.234375 0.4882813,-0.234375 0.5957032,-0.234375 0.1367187,0 0.234375,0 0.234375,-0.1953125 0,-0.1171875 -0.1171875,-0.1171875 -0.1464844,-0.1171875 -0.2832031,0 -0.9765625,0.029297 -1.2597656,0.029297 -0.2441407,0 -0.85937504,-0.029297 -1.11328129,-0.029297 -0.0585938,0 -0.18554688,0 -0.18554688,0.2050781 0,0.1074219 0.0976563,0.1074219 0.22460938,0.1074219 0.59570309,0 0.63476559,0.087891 0.73242189,0.3417968 l 1.2207031,3.2714844 c 0.00977,0.029297 0.039063,0.1367188 0.039063,0.1757813 0,0.029297 -0.4003906,1.6308593 -0.4492187,1.8066406 -0.1269532,0.546875 -0.1367188,0.57617187 -0.9375,0.5859375 -0.18554692,0 -0.26367192,0 -0.26367192,0.20507812 0,0.10742188 0.11718752,0.10742188 0.13671872,0.10742188 0.2832032,0 0.9765625,-0.02929688 1.2597657,-0.02929688 0.2734375,0 0.9960937,0.02929688 1.2695312,0.02929688 0.068359,0 0.1953125,0 0.1953125,-0.1953125 0,-0.1171875 -0.097656,-0.1171875 -0.2832031,-0.1171875 -0.019531,0 -0.2050781,0 -0.3808594,-0.0195313 -0.2050781,-0.0195313 -0.2636719,-0.0390625 -0.2636719,-0.15625 0,-0.0683594 0.087891,-0.41992188 0.1367188,-0.6250001 l 0.3515625,-1.40625 c 0.048828,-0.1855468 0.058594,-0.2246093 0.1367187,-0.3125 z m 0,0"
       style="fill:#000000;fill-opacity:1;fill-rule:nonzero;stroke:none"
       aria-label="Y"
       transform="matrix(1.6,0,0,1.6,340.49867,103.52133)" />
    <path
       id="path28"
       d="m 1.8364622,-4.6298919 c 0.00977,-0.019531 0.029297,-0.1074219 0.029297,-0.1171875 0,-0.029297 -0.029297,-0.097656 -0.1074219,-0.097656 -0.1367187,0 -0.7226562,0.058594 -0.88867184,0.078125 -0.0585938,0 -0.15625,0.00977 -0.15625,0.15625 0,0.097656 0.0976563,0.097656 0.17578125,0.097656 0.34179689,0 0.34179689,0.048828 0.34179689,0.1074218 0,0.048828 -0.068359,0.3222657 -0.1171875,0.4882813 l -0.15625001,0.6347656 c -0.0683594,0.2441406 -0.44921875,1.7675781 -0.45898438,1.8554688 -0.0390625,0.1660156 -0.0390625,0.2636718 -0.0390625,0.3417968 0,0.70312505 0.44921875,1.1523438 1.02539059,1.1523438 0.8691407,0 1.796875,-0.94726563 1.796875,-1.9824219 0,-0.8105469 -0.5664062,-1.1621094 -1.0449218,-1.1621094 -0.3613282,0 -0.6640625,0.2050782 -0.8789063,0.3808594 z m -0.3417968,4.5019531 c -0.3417969,0 -0.53710941,-0.30273438 -0.53710941,-0.71289063 0,-0.25390627 0.0585937,-0.48828127 0.25390621,-1.27929687 0.048828,-0.1367188 0.048828,-0.1464844 0.1757813,-0.3027344 0.2636719,-0.3027344 0.5761719,-0.4589844 0.8300781,-0.4589844 0.2734375,0 0.5078125,0.2050782 0.5078125,0.6738282 0,0.2929687 -0.15625,0.9960937 -0.3613281,1.40624997 -0.1660156,0.34179688 -0.5175781,0.67382813 -0.8691406,0.67382813 z m 3.5717773,-1.4648438 c 0.1953125,0 0.7421875,-0.00977 1.1230469,-0.1464843 0.5175781,-0.1757813 0.6152344,-0.5175782 0.6152344,-0.7226563 0,-0.3808594 -0.390625,-0.6152344 -0.8691407,-0.6152344 -0.8300781,0 -1.9628906,0.6445313 -1.9628906,1.8359375 0,0.70312505 0.4394531,1.3085938 1.25,1.3085938 1.1816406,0 1.7285156,-0.69335938 1.7285156,-0.79101563 0,-0.0390625 -0.058594,-0.1171875 -0.1171875,-0.1171875 -0.039063,0 -0.048828,0.0195313 -0.1074218,0.0683594 -0.546875,0.64453125 -1.3574219,0.64453125 -1.484375,0.64453125 -0.4199219,0 -0.703125,-0.2734375 -0.703125,-0.83984375 0,-0.0976562 0,-0.24414067 0.087891,-0.62500007 z M 4.6855833,-1.7880951 c 0.2832032,-1.0058593 1.0546875,-1.09375 1.25,-1.09375 0.3125,0 0.5664063,0.15625 0.5664063,0.4199219 0,0.6738281 -1.1816406,0.6738281 -1.4746094,0.6738281 z m 6.2988277,-0.068359 c 0,-0.7714844 -0.576171,-1.2207032 -1.2597652,-1.2207032 -1.0351562,0 -2.0117187,0.9667969 -2.0117187,1.9238282 0,0.70312497 0.5078125,1.2207031 1.2695312,1.2207031 0.9960938,0 2.0019527,-0.91796875 2.0019527,-1.9238281 z m -1.992187,1.7285156 c -0.3515625,0 -0.6933594,-0.22460938 -0.6933594,-0.77148438 0,-0.28320312 0.1269531,-0.96679692 0.4003906,-1.36718752 0.3027344,-0.4296875 0.703125,-0.6152344 1.015625,-0.6152344 0.3808598,0 0.7031248,0.2636719 0.7031248,0.7714844 0,0.1757813 -0.08789,0.859375 -0.390625,1.34765627 -0.2734373,0.41015625 -0.6835935,0.63476563 -1.035156,0.63476563 z m 4.060059,-4.5019531 c 0.0098,-0.019531 0.0293,-0.1074219 0.0293,-0.1171875 0,-0.029297 -0.0293,-0.097656 -0.107421,-0.097656 -0.136719,0 -0.722657,0.058594 -0.888672,0.078125 -0.05859,0 -0.15625,0.00977 -0.15625,0.15625 0,0.097656 0.09766,0.097656 0.175781,0.097656 0.341797,0 0.341797,0.048828 0.341797,0.1074218 0,0.048828 -0.06836,0.3222657 -0.117188,0.4882813 l -0.15625,0.6347656 c -0.06836,0.2441406 -0.449218,1.7675781 -0.458984,1.8554688 -0.03906,0.1660156 -0.03906,0.2636718 -0.03906,0.3417968 0,0.70312505 0.449219,1.1523438 1.025391,1.1523438 0.869141,0 1.796875,-0.94726563 1.796875,-1.9824219 0,-0.8105469 -0.566406,-1.1621094 -1.044922,-1.1621094 -0.361328,0 -0.664062,0.2050782 -0.878906,0.3808594 z m -0.341797,4.5019531 c -0.341797,0 -0.53711,-0.30273438 -0.53711,-0.71289063 0,-0.25390627 0.05859,-0.48828127 0.253907,-1.27929687 0.04883,-0.1367188 0.04883,-0.1464844 0.175781,-0.3027344 0.263672,-0.3027344 0.576172,-0.4589844 0.830078,-0.4589844 0.273437,0 0.507812,0.2050782 0.507812,0.6738282 0,0.2929687 -0.15625,0.9960937 -0.361328,1.40624997 -0.166015,0.34179688 -0.517578,0.67382813 -0.86914,0.67382813 z m 0,0"
       style="fill:#000000;fill-opacity:1;fill-rule:nonzero;stroke:none"
       aria-label="beob"
       transform="matrix(1.6,0,0,1.6,349.75307,105.91173)" />
    <path
       id="path29"
       d="m 241.49434,-68.03217 c 0,1.86768 -1.51402,3.38169 -3.38168,3.38169 -1.86768,0 -3.38169,-1.51401 -3.38169,-3.38169 0,-1.86766 1.51401,-3.38166 3.38169,-3.38166 1.86766,0 3.38168,1.514 3.38168,3.38166 z"
       style="fill:#000000;fill-opacity:1;fill-rule:nonzero;stroke:none"
       transform="matrix(1.3333333,0,0,-1.3333333,12.541333,76.589333)" />
    <path
       id="path30"
       d="m 3.7405143,-6.1124674 c 0.058594,-0.2441407 0.087891,-0.3417969 0.2734375,-0.3710938 0.087891,-0.00977 0.4101563,-0.00977 0.6054688,-0.00977 0.7128906,0 1.8164062,0 1.8164062,0.9863281 0,0.3417969 -0.15625,1.0253906 -0.546875,1.4160156 -0.2636719,0.2539063 -0.7910156,0.5761719 -1.6894531,0.5761719 H 3.0862174 Z m 1.4257813,2.7246093 c 1.0058593,-0.2148437 2.1972656,-0.9179687 2.1972656,-1.9238281 0,-0.8496094 -0.8984375,-1.4941406 -2.2070313,-1.4941406 H 2.3244987 c -0.2050781,0 -0.2929688,0 -0.2929688,0.2050781 0,0.1074219 0.087891,0.1074219 0.2832032,0.1074219 0.019531,0 0.2050781,0 0.3710937,0.019531 0.1855469,0.019531 0.2734375,0.029297 0.2734375,0.15625 0,0.039063 -0.00977,0.068359 -0.039063,0.1953125 l -1.3378906,5.3417969 c -0.097656,0.390625 -0.1171875,0.46875 -0.90820313,0.46875 -0.17578125,0 -0.26367187,0 -0.26367187,0.20507813 0,0.10742187208 0.1171875,0.10742187208 0.13671875,0.10742187208 0.28320312,0 0.97656245,-0.0292968721 1.25976565,-0.0292968721 0.2734375,0 0.9863281,0.0292968721 1.2597656,0.0292968721 0.078125,0 0.2050781,0 0.2050781,-0.19531250208 0,-0.1171875 -0.097656,-0.1171875 -0.2832031,-0.1171875 -0.3710938,0 -0.6445313,0 -0.6445313,-0.17578125 0,-0.0585938 0.019531,-0.10742187 0.029297,-0.16601562 L 3.0276237,-3.2999674 h 1.1816406 c 0.9082031,0 1.09375,0.5566406 1.09375,0.9082031 0,0.1464844 -0.087891,0.4589844 -0.1464844,0.6933594 -0.068359,0.2734375 -0.15625,0.6445312 -0.15625,0.8398437 0,1.07421875 1.1914063,1.07421875 1.328125,1.07421875 0.8398438,0 1.1914063,-1.00585937 1.1914063,-1.14257812 0,-0.11718753 -0.1074219,-0.11718753 -0.1171875,-0.11718753 -0.087891,0 -0.1074219,0.0683594 -0.1269531,0.13671878 -0.2539063,0.7421875 -0.6835938,0.90820312208 -0.9082032,0.90820312208 -0.3320312,0 -0.4003906,-0.21484375208 -0.4003906,-0.60546875208 0,-0.3125 0.058594,-0.82031245 0.097656,-1.14257815 0.019531,-0.1367187 0.039063,-0.3222656 0.039063,-0.4589843 0,-0.7714844 -0.6640625,-1.0839844 -0.9375002,-1.1816407 z m 0,0"
       style="fill:#000000;fill-opacity:1;fill-rule:nonzero;stroke:none"
       aria-label="R"
       transform="matrix(1.6,0,0,1.6,323.92533,188.66667)" />
    <path
       id="path31"
       d="m 173.7019,34.02293 57.73854,-6e-5"
       style="fill:none;stroke:#000000;stroke-width:0.3985;stroke-linecap:butt;stroke-linejoin:miter;stroke-miterlimit:10;stroke-dasharray:none;stroke-opacity:1"
       transform="matrix(1.3333333,0,0,-1.3333333,12.541333,76.589333)" />
    <path
       id="path32"
       d="M 4.21463,0 0.64343,1.34572 1.8178,0 0.64343,-1.34572 Z"
       style="fill:#000000;fill-opacity:1;fill-rule:nonzero;stroke:#000000;stroke-width:0.3985;stroke-linecap:butt;stroke-linejoin:miter;stroke-miterlimit:10;stroke-dasharray:none;stroke-opacity:1"
       transform="matrix(1.3333333,0,0,-1.3333333,318.83768,31.225507)" />
    <path
       id="path33"
       d="m 238.12674,30.40121 -4e-5,-40.72715"
       style="fill:none;stroke:#000000;stroke-width:0.3985;stroke-linecap:butt;stroke-linejoin:miter;stroke-miterlimit:10;stroke-dasharray:none;stroke-opacity:1"
       transform="matrix(1.3333333,0,0,-1.3333333,12.541333,76.589333)" />
    <path
       id="path34"
       d="M 4.21463,0 0.64343,1.34572 1.8178,0 0.64343,-1.34572 Z"
       style="fill:#000000;fill-opacity:1;fill-rule:nonzero;stroke:#000000;stroke-width:0.3985;stroke-linecap:butt;stroke-linejoin:miter;stroke-miterlimit:10;stroke-dasharray:none;stroke-opacity:1"
       transform="matrix(0,1.3333333,1.3333333,0,330.0436,88.06632)" />
    <path
       id="path35"
       d="m 238.12674,-64.42384 -4e-5,40.72723"
       style="fill:none;stroke:#000000;stroke-width:0.3985;stroke-linecap:butt;stroke-linejoin:miter;stroke-miterlimit:10;stroke-dasharray:none;stroke-opacity:1"
       transform="matrix(1.3333333,0,0,-1.3333333,12.541333,76.589333)" />
    <path
       id="path36"
       d="M 4.21463,0 0.64343,1.34572 1.8178,0 0.64343,-1.34572 Z"
       style="fill:#000000;fill-opacity:1;fill-rule:nonzero;stroke:#000000;stroke-width:0.3985;stroke-linecap:butt;stroke-linejoin:miter;stroke-miterlimit:10;stroke-dasharray:none;stroke-opacity:1"
       transform="matrix(0,-1.3333333,-1.3333333,0,330.0436,110.47573)" />
    <path
       id="path37"
       d="m 172.08928,31.00961 62.32837,-93.49252"
       style="fill:none;stroke:#000000;stroke-width:0.3985;stroke-linecap:butt;stroke-linejoin:miter;stroke-miterlimit:10;stroke-dasharray:none;stroke-opacity:1"
       transform="matrix(1.3333333,0,0,-1.3333333,12.541333,76.589333)" />
    <path
       id="path38"
       d="M 4.21463,0 0.64343,1.34572 1.8178,0 0.64343,-1.34572 Z"
       style="fill:#000000;fill-opacity:1;fill-rule:nonzero;stroke:#000000;stroke-width:0.3985;stroke-linecap:butt;stroke-linejoin:miter;stroke-miterlimit:10;stroke-dasharray:none;stroke-opacity:1"
       transform="matrix(0.73956,1.10936,1.10936,-0.73956,323.82748,157.99379)" />
    <path
       id="path39"
       d="m 241.74718,34.02293 c 59.70524,-3.2e-4 59.70524,-102.06817 3.0639,-102.06889"
       style="fill:none;stroke:#000000;stroke-width:0.3985;stroke-linecap:butt;stroke-linejoin:miter;stroke-miterlimit:10;stroke-dasharray:none;stroke-opacity:1"
       transform="matrix(1.3333333,0,0,-1.3333333,12.541333,76.589333)" />
    <path
       id="path40"
       d="M 4.21463,0 0.64343,1.34572 1.8178,0 0.64343,-1.34572 Z"
       style="fill:#000000;fill-opacity:1;fill-rule:nonzero;stroke:#000000;stroke-width:0.3985;stroke-linecap:butt;stroke-linejoin:miter;stroke-miterlimit:10;stroke-dasharray:none;stroke-opacity:1"
       transform="matrix(-1.3333333,0,0,1.3333333,341.24704,167.31728)" />
  </g>
</svg>
