<?xml version="1.0" encoding="UTF-8" standalone="no"?>
<!-- Created with Inkscape (http://www.inkscape.org/) -->

<svg
   version="1.1"
   id="svg1"
   width="690.99866"
   height="323.25467"
   viewBox="0 0 690.99866 323.25467"
   xmlns="http://www.w3.org/2000/svg"
   xmlns:svg="http://www.w3.org/2000/svg">
  <defs
     id="defs1" />
  <g
     id="g1">
    <path
       id="path1"
       d="m 5.63615,56.69362 c 0,3.11279 -2.52335,5.63615 -5.63615,5.63615 -3.1128,0 -5.63615,-2.52336 -5.63615,-5.63615 0,-3.11281 2.52335,-5.63617 5.63615,-5.63617 3.1128,0 5.63615,2.52336 5.63615,5.63617 z"
       style="fill:#000000;fill-opacity:1;fill-rule:nonzero;stroke:none"
       transform="matrix(1.3333333,0,0,-1.3333333,20.902667,127.632)" />
    <path
       id="path2"
       d="M 4.8284258,-4.0956875 3.9963945,-6.0761562 c -0.029297,-0.082031 -0.052734,-0.1171875 -0.052734,-0.1289063 0,-0.058594 0.1699218,-0.2519531 0.5859375,-0.2871094 0.099609,-0.011719 0.1992187,-0.023437 0.1992187,-0.1933593 0,-0.1171875 -0.1171875,-0.1171875 -0.1464844,-0.1171875 -0.4101562,0 -0.8378906,0.029297 -1.2539062,0.029297 -0.2519531,0 -0.8671875,-0.029297 -1.1191406,-0.029297 -0.058594,0 -0.1757813,0 -0.1757813,0.1992187 0,0.1113281 0.099609,0.1113281 0.2285156,0.1113281 0.5976563,0 0.65625,0.099609 0.7441407,0.3164063 L 4.1838948,-3.3984219 2.0803792,-1.1367031 1.951473,-1.025375 c -0.4863282,0.52734375 -0.95507817,0.68554688 -1.46484379,0.71484375 -0.12890625,0.0117188 -0.21679688,0.0117188 -0.21679688,0.19921875 0,0.01171875 0,0.111328125 0.12890625,0.111328125 0.29882813,0 0.62695312,-0.029296875 0.93750002,-0.029296875 0.3691406,0 0.7558594,0.029296875 1.1132812,0.029296875 0.058594,0 0.1816407,0 0.1816407,-0.199218745 0,-0.0996094 -0.099609,-0.11132813 -0.1230469,-0.11132813 -0.087891,-0.005859 -0.3984375,-0.0292969 -0.3984375,-0.3046875 0,-0.1640625 0.1523437,-0.32226562 0.2695312,-0.45117185 l 1.0195313,-1.0722656 0.8964844,-0.9785157 1.0019531,2.37890628 c 0.041016,0.11132812 0.052734,0.12304687 0.052734,0.140625 0,0.0820313 -0.1875,0.25195312 -0.5800782,0.28710937 -0.1054687,0.0117188 -0.1992187,0.0234375 -0.1992187,0.19335938 0,0.117187495 0.1113281,0.117187495 0.1523437,0.117187495 0.2753907,0 0.9726563,-0.029296875 1.2539063,-0.029296875 0.2460937,0 0.8554687,0.029296875 1.1074219,0.029296875 0.070312,0 0.1875,0 0.1875,-0.187499995 0,-0.12304688 -0.099609,-0.12304688 -0.1816407,-0.12304688 C 6.4221758,-0.31639062 6.4045977,-0.3456875 6.2346758,-0.744125 5.847957,-1.6757656 5.1799883,-3.2285 4.9514727,-3.8261562 c 0.6738281,-0.6972657 1.7226562,-1.8808594 2.0390625,-2.1621094 0.2929687,-0.234375 0.6679687,-0.4746094 1.265625,-0.5039063 0.1289062,-0.011719 0.2226562,-0.011719 0.2226562,-0.1992187 0,-0.011719 0,-0.1113281 -0.1289062,-0.1113281 -0.2988282,0 -0.6328125,0.029297 -0.9375,0.029297 -0.3691407,0 -0.75,-0.029297 -1.1074219,-0.029297 -0.058594,0 -0.1875,0 -0.1875,0.1992187 0,0.070312 0.046875,0.099609 0.1171875,0.1113281 0.087891,0.00586 0.3984375,0.029297 0.3984375,0.3046875 0,0.140625 -0.1113281,0.2695313 -0.1875,0.3632813 z m 0,0"
       style="fill:#000000;fill-opacity:1;fill-rule:nonzero;stroke:none"
       aria-label="X"
       transform="matrix(2.6666667,0,0,2.6666667,8.8546667,34.609333)" />
    <path
       id="path3"
       d="m 119.02339,56.69362 c 0,3.11279 -2.52336,5.63615 -5.63615,5.63615 -3.11281,0 -5.63617,-2.52336 -5.63617,-5.63615 0,-3.11281 2.52336,-5.63617 5.63617,-5.63617 3.11279,0 5.63615,2.52336 5.63615,5.63617 z"
       style="fill:none;stroke:#000000;stroke-width:0.3985;stroke-linecap:butt;stroke-linejoin:miter;stroke-miterlimit:10;stroke-dasharray:none;stroke-opacity:1"
       transform="matrix(1.3333333,0,0,-1.3333333,20.902667,127.632)" />
    <path
       id="path4"
       d="m 5.947543,-5.6665859 0.140625,-0.140625 c 0.2988281,-0.2988282 0.6269531,-0.6386719 1.3007812,-0.6855469 0.1113281,-0.011719 0.1992188,-0.011719 0.1992188,-0.1933594 0,-0.076172 -0.046875,-0.1171875 -0.1289063,-0.1171875 -0.2578125,0 -0.5449219,0.029297 -0.8144531,0.029297 -0.328125,0 -0.6796875,-0.029297 -0.9960938,-0.029297 -0.058594,0 -0.1875,0 -0.1875,0.1875 0,0.1113281 0.099609,0.1230469 0.1464844,0.1230469 0.070312,0 0.3574219,0.017578 0.3574219,0.2285156 0,0.1699219 -0.2285156,0.4277344 -0.2695313,0.4746094 L 3.3869961,-3.1294766 2.291293,-6.0884609 C 2.232699,-6.2232266 2.232699,-6.2466641 2.232699,-6.2583828 c 0,-0.234375 0.4863281,-0.234375 0.5859375,-0.234375 0.140625,0 0.2402344,0 0.2402344,-0.1992188 0,-0.1113281 -0.1230469,-0.1113281 -0.1523438,-0.1113281 -0.2753906,0 -0.9726562,0.029297 -1.2539062,0.029297 -0.2460938,0 -0.86718751,-0.029297 -1.11328126,-0.029297 -0.0585938,0 -0.19335937,0 -0.19335937,0.1992188 0,0.1113281 0.0996094,0.1113281 0.234375,0.1113281 0.59765623,0 0.63281253,0.087891 0.72656253,0.3339844 l 1.2246093,3.28125 c 0.00586,0.029297 0.041016,0.140625 0.041016,0.1699218 0,0.029297 -0.3984375,1.6289063 -0.4511719,1.81054691 -0.1289063,0.55078125 -0.140625,0.58007813 -0.9375,0.5859375 -0.18750001,0 -0.26953126,0 -0.26953126,0.19921875 0,0.1113281275 0.12304686,0.1113281275 0.14062496,0.1113281275 0.28125,0 0.9785157,-0.0292968775 1.2539063,-0.0292968775 0.28125,0 0.9960937,0.0292968775 1.2773437,0.0292968775 0.070312,0 0.1875,0 0.1875,-0.1992187475 0,-0.11132813 -0.087891,-0.11132813 -0.2753906,-0.11132813 -0.023437,0 -0.2109375,0 -0.3808594,-0.0175781 -0.2109375,-0.0175781 -0.2695312,-0.0410156 -0.2695312,-0.15820313 0,-0.0703125 0.087891,-0.421875 0.140625,-0.62695318 l 0.3457031,-1.40625 c 0.052734,-0.1875 0.064453,-0.2167968 0.140625,-0.3105468 z m 0,0"
       style="fill:#000000;fill-opacity:1;fill-rule:nonzero;stroke:none"
       aria-label="Y"
       transform="matrix(2.6666667,0,0,2.6666667,137.69067,27.009333)" />
    <path
       id="path5"
       d="m 2.179168,-4.6293359 c 0.011719,-0.017578 0.029297,-0.1054688 0.029297,-0.1113282 0,-0.035156 -0.029297,-0.099609 -0.1113281,-0.099609 -0.140625,0 -0.7148437,0.058594 -0.890625,0.070312 -0.058594,0.00586 -0.1523437,0.011719 -0.1523437,0.1582031 0,0.099609 0.09375,0.099609 0.1816406,0.099609 0.3339844,0 0.3339844,0.046875 0.3339844,0.1054687 0,0.046875 -0.017578,0.087891 -0.029297,0.1523438 l -0.98437501,3.94921871 c -0.0351563,0.12304688 -0.0351563,0.13476563 -0.0351563,0.15234375 0,0.10546875 0.0878906,0.22265625 0.24023438,0.22265625 0.1875,0 0.27539063,-0.140625 0.31640633,-0.29296875 0.017578,-0.0292969 0.3164062,-1.25390626 0.345703,-1.35351566 0.4921875,0.046875 0.8906251,0.2109375 0.8906251,0.5742188 0,0.0351562 0,0.0703125 -0.011719,0.13476561 -0.029297,0.10546875 -0.029297,0.140625 -0.029297,0.21679688 0,0.49804687 0.4042968,0.72070312 0.7382812,0.72070312 0.6796875,0 0.8847656,-1.06054687 0.8847656,-1.06640625 0,-0.09375 -0.087891,-0.09375 -0.1113281,-0.09375 -0.09375,0 -0.1054687,0.035156 -0.140625,0.1699218 -0.082031,0.29882812 -0.2695312,0.796875 -0.609375,0.796875 -0.1875,0 -0.2460937,-0.17578125 -0.2460937,-0.36328125 0,-0.12304688 0,-0.13476563 0.041016,-0.31640625 0.00586,-0.0175781 0.035156,-0.140625 0.035156,-0.2167968 0,-0.6210938 -0.8378906,-0.7148438 -1.1308593,-0.7382813 0.2050781,-0.1230469 0.4628906,-0.3574219 0.5800781,-0.4570312 0.3574219,-0.3398438 0.703125,-0.6621094 1.0957031,-0.6621094 0.082031,0 0.1757813,0.017578 0.2285156,0.087891 -0.2988281,0.046875 -0.3632812,0.2871094 -0.3632812,0.3925781 0,0.1523438 0.1230469,0.2578125 0.28125,0.2578125 0.1875,0 0.3984375,-0.1582031 0.3984375,-0.4453125 0,-0.234375 -0.1699219,-0.4921875 -0.5390625,-0.4921875 -0.3984375,0 -0.7617188,0.2871094 -1.1132813,0.6152344 -0.2929687,0.28125 -0.5273437,0.4921875 -0.8085937,0.6152344 z m 5.9267578,2.7714843 c 0,-0.7734375 -0.5800781,-1.21875 -1.2597656,-1.21875 -1.0371094,0 -2.0097657,0.9726563 -2.0097657,1.9277344 0,0.69726564 0.5097657,1.21875001 1.265625,1.21875001 1.0019532,0 2.0039063,-0.91992187 2.0039063,-1.92773441 z m -1.9921875,1.73437504 c -0.3515625,0 -0.6972656,-0.22851563 -0.6972656,-0.77929688 0,-0.28124996 0.1289062,-0.96679686 0.4042968,-1.36523436 0.2988282,-0.4335938 0.703125,-0.609375 1.0136719,-0.609375 0.3808594,0 0.6972656,0.2578125 0.6972656,0.7734375 0,0.1640625 -0.082031,0.8554687 -0.3867187,1.34179686 -0.2695313,0.41015625 -0.6855469,0.63867188 -1.03125,0.63867188 z m 5.2441407,-0.43945313 c -0.0293,0.13476563 -0.09375,0.375 -0.09375,0.41015625 0,0.1523437525 0.123047,0.22265625 0.234375,0.22265625 0.128906,0 0.240234,-0.09375 0.275391,-0.15234375 0.03516,-0.06445312 0.08789,-0.28710937 0.123046,-0.43359375 0.03516,-0.13476562 0.111329,-0.45117187 0.152344,-0.62695311 0.04102,-0.1523438 0.08789,-0.3105469 0.123047,-0.46875 0.07617,-0.2988281 0.07617,-0.3105469 0.210938,-0.5273438 0.222656,-0.3457031 0.574218,-0.7382812 1.11914,-0.7382812 0.386719,0 0.410156,0.3164062 0.410156,0.4863281 0,0.4160156 -0.298828,1.1894531 -0.410156,1.48242189 -0.07617,0.19921875 -0.105469,0.2578125 -0.105469,0.38085937 0,0.36914063 0.304688,0.59765625 0.66211,0.59765625 0.697265,0 1.001953,-0.9609375 1.001953,-1.06640625 0,-0.09375 -0.08789,-0.09375 -0.111328,-0.09375 -0.09375,0 -0.105469,0.041016 -0.128906,0.1230468 -0.164063,0.55664062 -0.462891,0.84375 -0.738282,0.84375 -0.146484,0 -0.175781,-0.0996094 -0.175781,-0.24609375 0,-0.15820313 0.03516,-0.25195313 0.158203,-0.5625 0.08203,-0.21679685 0.369141,-0.95507805 0.369141,-1.34765625 0,-0.1113281 0,-0.4042968 -0.257813,-0.609375 -0.117187,-0.087891 -0.322265,-0.1875 -0.644531,-0.1875 -0.632812,0 -1.013672,0.4101563 -1.236328,0.703125 -0.05859,-0.5917968 -0.550781,-0.703125 -0.908203,-0.703125 -0.580078,0 -0.966797,0.3574219 -1.177735,0.6328125 -0.04687,-0.4804687 -0.4570308,-0.6328125 -0.7441402,-0.6328125 -0.2988281,0 -0.4628906,0.2167969 -0.5507813,0.375 -0.1523437,0.2578125 -0.2519531,0.65625 -0.2519531,0.6914063 0,0.09375 0.099609,0.09375 0.1171875,0.09375 0.099609,0 0.1054688,-0.023437 0.1523438,-0.2109375 0.1054687,-0.4101563 0.2402343,-0.75 0.5097656,-0.75 0.1816406,0 0.2285156,0.1523437 0.2285156,0.3398437 0,0.1289063 -0.058594,0.3867188 -0.1113281,0.5800782 -0.046875,0.1875 -0.1171875,0.4746093 -0.1523438,0.6269531 l -0.2226562,0.89062495 c -0.029297,0.0878906 -0.070312,0.26367187 -0.070312,0.28710937 0,0.1523437525 0.1289062,0.22265625 0.2402344,0.22265625 0.1230468,0 0.234375,-0.09375 0.2695312,-0.15234375 0.035156,-0.06445312 0.09375,-0.28710937 0.1289063,-0.43359375 0.035156,-0.13476562 0.1113281,-0.45117187 0.1523437,-0.62695307 0.041016,-0.1523438 0.082031,-0.3105469 0.1171876,-0.46875 0.07617,-0.2871094 0.08789,-0.3398438 0.292969,-0.6269531 0.19336,-0.28125 0.521485,-0.6386719 1.042968,-0.6386719 0.404297,0 0.416017,0.3515625 0.416017,0.4863281 0,0.1757813 -0.02344,0.2636719 -0.123047,0.65625 z m 4.568848,1.41210938 c -0.04687,0.19921871 -0.05859,0.25195311 -0.339844,0.25195311 -0.09375,0 -0.1875,0 -0.1875,0.1464844 0,0.076172 0.06445,0.1054687 0.09375,0.1054687 0.18164,0 0.416015,-0.029297 0.603515,-0.029297 0.234375,0 0.498047,0.029297 0.732422,0.029297 0.05859,0 0.140625,-0.023437 0.140625,-0.1523437 0,-0.099609 -0.09961,-0.099609 -0.18164,-0.099609 -0.158203,0 -0.345703,0 -0.345703,-0.082031 0,-0.0351563 0.05273,-0.21679691 0.07617,-0.32226566 0.08789,-0.36914063 0.181641,-0.74414063 0.257813,-1.03710938 0.08789,0.13476563 0.304687,0.41015625 0.720703,0.41015625 0.849609,0 1.792969,-0.94335937 1.792969,-1.98046871 0,-0.8144532 -0.56836,-1.1660157 -1.048828,-1.1660157 -0.427735,0 -0.802735,0.2929688 -0.990235,0.4921875 -0.117187,-0.3984375 -0.509765,-0.4921875 -0.714843,-0.4921875 -0.275391,0 -0.439454,0.1816407 -0.550782,0.3691407 -0.140625,0.2402343 -0.251953,0.65625 -0.251953,0.6972656 0,0.09375 0.09961,0.09375 0.117188,0.09375 0.09961,0 0.105468,-0.023437 0.152343,-0.2109375 0.105469,-0.4042969 0.240235,-0.75 0.509766,-0.75 0.181641,0 0.228516,0.1523437 0.228516,0.3398437 0,0.076172 -0.01172,0.1640625 -0.01758,0.2109375 z m 1.318359,-3.08789059 c 0.404297,-0.5390625 0.755859,-0.6386719 0.978516,-0.6386719 0.269531,0 0.509765,0.1992187 0.509765,0.6738281 0,0.2871094 -0.158203,0.9960938 -0.363281,1.40039064 -0.175781,0.33984375 -0.515625,0.6796875 -0.873047,0.6796875 -0.492187,0 -0.621094,-0.5390625 -0.621094,-0.609375 0,-0.0292969 0.01172,-0.0761719 0.02344,-0.10546875 z m 0,0"
       style="fill:#000000;fill-opacity:1;fill-rule:nonzero;stroke:none"
       aria-label="komp"
       transform="matrix(2.6666667,0,0,2.6666667,153.11467,30.993333)" />
    <path
       id="path6"
       d="m 116.2053,-28.34679 c 0,1.5564 -1.26168,2.81809 -2.81806,2.81809 -1.5564,0 -2.81809,-1.26169 -2.81809,-2.81809 0,-1.55639 1.26169,-2.81808 2.81809,-2.81808 1.55638,0 2.81806,1.26169 2.81806,2.81808 z"
       style="fill:#000000;fill-opacity:1;fill-rule:nonzero;stroke:#000000;stroke-width:1.39478;stroke-linecap:butt;stroke-linejoin:miter;stroke-miterlimit:10;stroke-dasharray:none;stroke-opacity:1"
       transform="matrix(1.3333333,0,0,-1.3333333,20.902667,127.632)" />
    <path
       id="path7"
       d="m 116.2053,-28.34679 c 0,1.5564 -1.26168,2.81809 -2.81806,2.81809 -1.5564,0 -2.81809,-1.26169 -2.81809,-2.81809 0,-1.55639 1.26169,-2.81808 2.81809,-2.81808 1.55638,0 2.81806,1.26169 2.81806,2.81808 z"
       style="fill:none;stroke:#ffffff;stroke-width:0.59776;stroke-linecap:butt;stroke-linejoin:miter;stroke-miterlimit:10;stroke-dasharray:none;stroke-opacity:1"
       transform="matrix(1.3333333,0,0,-1.3333333,20.902667,127.632)" />
    <path
       id="path8"
       d="m 5.9474453,-5.6661211 0.140625,-0.140625 c 0.2988281,-0.2988281 0.6269531,-0.6386719 1.3007813,-0.6855469 0.1113281,-0.011719 0.1992187,-0.011719 0.1992187,-0.1933593 0,-0.076172 -0.046875,-0.1171875 -0.1289062,-0.1171875 -0.2578125,0 -0.5449219,0.029297 -0.8144532,0.029297 -0.328125,0 -0.6796875,-0.029297 -0.9960937,-0.029297 -0.058594,0 -0.1875,0 -0.1875,0.1875 0,0.1113281 0.099609,0.1230468 0.1464844,0.1230468 0.070312,0 0.3574218,0.017578 0.3574218,0.2285157 0,0.1699218 -0.2285156,0.4277343 -0.2695312,0.4746093 L 3.3868984,-3.1290117 2.2911953,-6.0879961 c -0.058594,-0.1347656 -0.058594,-0.1582031 -0.058594,-0.1699219 0,-0.234375 0.4863281,-0.234375 0.5859375,-0.234375 0.140625,0 0.2402343,0 0.2402343,-0.1992187 0,-0.1113281 -0.1230468,-0.1113281 -0.1523437,-0.1113281 -0.2753906,0 -0.9726563,0.029297 -1.2539063,0.029297 -0.2460937,0 -0.86718746,-0.029297 -1.11328121,-0.029297 -0.0585937,0 -0.19335938,0 -0.19335938,0.1992187 0,0.1113281 0.0996094,0.1113281 0.234375,0.1113281 0.59765629,0 0.63281249,0.087891 0.72656249,0.3339844 l 1.2246094,3.28125 c 0.00586,0.029297 0.041016,0.140625 0.041016,0.1699219 0,0.029297 -0.3984375,1.6289062 -0.4511719,1.81054686 -0.1289062,0.55078125 -0.140625,0.58007812 -0.9375,0.5859375 -0.18749996,0 -0.26953121,0 -0.26953121,0.19921875 0,0.11132812125 0.12304691,0.11132812125 0.14062501,0.11132812125 0.28125,0 0.9785156,-0.0292968712 1.2539062,-0.0292968712 0.28125,0 0.9960938,0.0292968712 1.2773438,0.0292968712 0.070312,0 0.1875,0 0.1875,-0.19921875125 0,-0.11132812 -0.087891,-0.11132812 -0.2753906,-0.11132812 -0.023437,0 -0.2109375,0 -0.3808594,-0.0175781 -0.2109375,-0.0175781 -0.2695313,-0.0410156 -0.2695313,-0.15820312 0,-0.0703125 0.087891,-0.421875 0.140625,-0.62695314 l 0.3457032,-1.40625 c 0.052734,-0.1875 0.064453,-0.2167969 0.140625,-0.3105469 z m 0,0"
       style="fill:#000000;fill-opacity:1;fill-rule:nonzero;stroke:none"
       aria-label="Y"
       transform="matrix(2.6666667,0,0,2.6666667,185.75733,172.512)" />
    <path
       id="path9"
       d="m 1.8392266,-4.6284063 c 0.00586,-0.017578 0.029297,-0.1054687 0.029297,-0.1113281 0,-0.035156 -0.029297,-0.099609 -0.1113281,-0.099609 -0.140625,0 -0.7207031,0.058594 -0.89062499,0.070312 -0.0585938,0.00586 -0.15820312,0.011719 -0.15820312,0.1582032 0,0.099609 0.0996094,0.099609 0.18164062,0.099609 0.33398439,0 0.33398439,0.046875 0.33398439,0.1054688 0,0.046875 -0.064453,0.328125 -0.1113281,0.4863281 L 0.95446114,-3.274891 c -0.0644531,0.234375 -0.4453125,1.7636718 -0.46289063,1.8515625 -0.0292969,0.1699218 -0.0292969,0.2578125 -0.0292969,0.3457031 0,0.703125 0.4453125,1.1484375 1.01953129,1.1484375 0.8730469,0 1.7988281,-0.94921875 1.7988281,-1.9804688 0,-0.8144531 -0.5625,-1.1660156 -1.0429687,-1.1660156 -0.3632813,0 -0.6679688,0.2050781 -0.8789063,0.3867188 z m -0.3457032,4.50585942 c -0.3457031,0 -0.53906246,-0.3046875 -0.53906246,-0.71484375 0,-0.25781247 0.0644532,-0.49218747 0.25781246,-1.28320317 0.041016,-0.1289062 0.041016,-0.1464843 0.1757813,-0.2988281 0.2636719,-0.3046875 0.5800781,-0.4570312 0.8261719,-0.4570312 0.2753906,0 0.5097656,0.1992187 0.5097656,0.6738281 0,0.2871094 -0.1523438,0.9960937 -0.3632813,1.40039062 -0.1640625,0.33984375 -0.515625,0.6796875 -0.8671875,0.6796875 z M 5.0677422,-1.5873906 c 0.1933594,0 0.7441406,-0.017578 1.1191406,-0.1464844 0.515625,-0.1816406 0.6152344,-0.515625 0.6152344,-0.7265625 0,-0.3867188 -0.3867188,-0.6152344 -0.8671875,-0.6152344 -0.8320313,0 -1.9628906,0.6445313 -1.9628906,1.8339844 0,0.703125 0.4394531,1.3125 1.2539062,1.3125 1.1777344,0 1.7285156,-0.69140625 1.7285156,-0.79101563 0,-0.0410156 -0.064453,-0.1171875 -0.1171875,-0.1171875 -0.041016,0 -0.058594,0.0175781 -0.1113281,0.0703125 -0.5449219,0.64453125 -1.359375,0.64453125 -1.4882812,0.64453125 -0.4160157,0 -0.6972657,-0.28125 -0.6972657,-0.84375 0,-0.0996094 0,-0.24023442 0.087891,-0.62109372 z M 4.6810234,-1.7866094 c 0.2871094,-1.0078125 1.0605469,-1.0898437 1.2539063,-1.0898437 0.3105469,0 0.5683594,0.1523437 0.5683594,0.4160156 0,0.6738281 -1.1777344,0.6738281 -1.4824219,0.6738281 z m 6.3061526,-0.070312 c 0,-0.7734375 -0.580078,-1.21875 -1.2597658,-1.21875 -1.0371094,0 -2.0097657,0.9726563 -2.0097657,1.9277344 0,0.69726562 0.5097657,1.21875 1.265625,1.21875 1.0019532,0 2.0039065,-0.91992188 2.0039065,-1.9277344 z m -1.9921877,1.73437502 c -0.3515625,0 -0.6972656,-0.22851562 -0.6972656,-0.77929687 0,-0.28125005 0.1289062,-0.96679685 0.4042968,-1.36523435 0.2988282,-0.4335938 0.703125,-0.609375 1.0136719,-0.609375 0.3808596,0 0.6972656,0.2578125 0.6972656,0.7734375 0,0.1640625 -0.08203,0.8554687 -0.386719,1.34179685 C 9.756707,-0.351062 9.3406914,-0.12254638 8.9949883,-0.12254638 Z M 13.055535,-4.6284063 c 0.0059,-0.017578 0.0293,-0.1054687 0.0293,-0.1113281 0,-0.035156 -0.0293,-0.099609 -0.111328,-0.099609 -0.140625,0 -0.720703,0.058594 -0.890625,0.070312 -0.05859,0.00586 -0.158203,0.011719 -0.158203,0.1582032 0,0.099609 0.09961,0.099609 0.18164,0.099609 0.333985,0 0.333985,0.046875 0.333985,0.1054688 0,0.046875 -0.06445,0.328125 -0.111328,0.4863281 l -0.158203,0.6445313 c -0.06445,0.234375 -0.445313,1.7636718 -0.462891,1.8515625 -0.0293,0.1699218 -0.0293,0.2578125 -0.0293,0.3457031 0,0.703125 0.445313,1.1484375 1.019531,1.1484375 0.873047,0 1.798828,-0.94921875 1.798828,-1.9804688 0,-0.8144531 -0.5625,-1.1660156 -1.042968,-1.1660156 -0.363282,0 -0.667969,0.2050781 -0.878907,0.3867188 z m -0.345703,4.50585942 c -0.345703,0 -0.539062,-0.3046875 -0.539062,-0.71484375 0,-0.25781247 0.06445,-0.49218747 0.257812,-1.28320317 0.04102,-0.1289062 0.04102,-0.1464843 0.175781,-0.2988281 0.263672,-0.3046875 0.580078,-0.4570312 0.826172,-0.4570312 0.275391,0 0.509766,0.1992187 0.509766,0.6738281 0,0.2871094 -0.152344,0.9960937 -0.363281,1.40039062 -0.164063,0.33984375 -0.515625,0.6796875 -0.867188,0.6796875 z m 0,0"
       style="fill:#000000;fill-opacity:1;fill-rule:nonzero;stroke:none"
       aria-label="beob"
       transform="matrix(2.6666667,0,0,2.6666667,201.18133,176.49867)" />
    <path
       id="path10"
       d="m 119.02339,-113.38724 c 0,3.11281 -2.52336,5.63617 -5.63615,5.63617 -3.11281,0 -5.63617,-2.52336 -5.63617,-5.63617 0,-3.11279 2.52336,-5.63615 5.63617,-5.63615 3.11279,0 5.63615,2.52336 5.63615,5.63615 z"
       style="fill:#000000;fill-opacity:1;fill-rule:nonzero;stroke:none"
       transform="matrix(1.3333333,0,0,-1.3333333,20.902667,127.632)" />
    <path
       id="path11"
       d="m 3.7323711,-6.1177734 c 0.064453,-0.2402344 0.09375,-0.3398438 0.28125,-0.3691407 0.087891,-0.00586 0.4101562,-0.00586 0.609375,-0.00586 0.703125,0 1.8105469,0 1.8105469,0.984375 0,0.3398437 -0.1582032,1.0253906 -0.5449219,1.4121093 -0.2636719,0.2636719 -0.7910156,0.5800782 -1.6875,0.5800782 H 3.0878398 Z m 1.4355469,2.7304687 c 1.0078125,-0.2167969 2.1914062,-0.9140625 2.1914062,-1.921875 0,-0.8554687 -0.8964844,-1.4941406 -2.1972656,-1.4941406 H 2.3202617 c -0.1992187,0 -0.2871094,0 -0.2871094,0.1992187 0,0.1113282 0.087891,0.1113282 0.2753907,0.1113282 0.023437,0 0.2109375,0 0.3808593,0.017578 0.1816407,0.017578 0.2695313,0.029297 0.2695313,0.1582031 0,0.041016 -0.011719,0.070312 -0.041016,0.1933594 l -1.3359375,5.34374999 c -0.099609,0.39257812 -0.1171875,0.46875 -0.90234378,0.46875 -0.18164063,0 -0.26953125,0 -0.26953125,0.19921875 0,0.1113281225 0.1171875,0.1113281225 0.13476562,0.1113281225 0.28125,0 0.97851561,-0.0292968725 1.25976561,-0.0292968725 0.2753906,0 0.984375,0.0292968725 1.265625,0.0292968725 0.076172,0 0.1992188,0 0.1992188,-0.1992187525 0,-0.11132812 -0.09375,-0.11132812 -0.28125,-0.11132812 -0.3691407,0 -0.6503907,0 -0.6503907,-0.17578125 0,-0.0585938 0.023437,-0.11132813 0.035156,-0.16992188 l 0.65625,-2.64257816 h 1.1835937 c 0.9082032,0 1.0839844,0.5625 1.0839844,0.9082032 0,0.1523437 -0.076172,0.4570312 -0.1347656,0.6855468 -0.070312,0.28125 -0.1640625,0.6503907 -0.1640625,0.84960941 0,1.07226563 1.1953125,1.07226563 1.3242187,1.07226563 0.8496094,0 1.1953125,-1.00195313 1.1953125,-1.14257813 0,-0.11718751 -0.1054687,-0.11718751 -0.1171875,-0.11718751 -0.087891,0 -0.1113281,0.0644531 -0.1289062,0.13476564 -0.2519531,0.73828125 -0.6796875,0.9082031225 -0.9082031,0.9082031225 -0.328125,0 -0.3984375,-0.2167968725 -0.3984375,-0.6093750025 0,-0.3046875 0.058594,-0.81445316 0.099609,-1.13085936 0.023437,-0.140625 0.041016,-0.3339844 0.041016,-0.46875 0,-0.7675781 -0.6679688,-1.078125 -0.9374993,-1.1777343 z m 0,0"
       style="fill:#000000;fill-opacity:1;fill-rule:nonzero;stroke:none"
       aria-label="R"
       transform="matrix(2.6666667,0,0,2.6666667,161.89467,314.4)" />
    <path
       id="path12"
       d="m 6.03467,56.69362 h 98.25398"
       style="fill:none;stroke:#000000;stroke-width:0.3985;stroke-linecap:butt;stroke-linejoin:miter;stroke-miterlimit:10;stroke-dasharray:none;stroke-opacity:1"
       transform="matrix(1.3333333,0,0,-1.3333333,20.902667,127.632)" />
    <path
       id="path13"
       d="M 4.21463,0 0.64343,1.34572 1.8178,0 0.64343,-1.34572 Z"
       style="fill:#000000;fill-opacity:1;fill-rule:nonzero;stroke:#000000;stroke-width:0.3985;stroke-linecap:butt;stroke-linejoin:miter;stroke-miterlimit:10;stroke-dasharray:none;stroke-opacity:1"
       transform="matrix(1.3333333,0,0,-1.3333333,157.66329,52.040507)" />
    <path
       id="path14"
       d="M 113.38724,50.65895 V -22.06628"
       style="fill:none;stroke:#000000;stroke-width:0.3985;stroke-linecap:butt;stroke-linejoin:miter;stroke-miterlimit:10;stroke-dasharray:none;stroke-opacity:1"
       transform="matrix(1.3333333,0,0,-1.3333333,20.902667,127.632)" />
    <path
       id="path15"
       d="M 4.21463,0 0.64343,1.34572 1.8178,0 0.64343,-1.34572 Z"
       style="fill:#000000;fill-opacity:1;fill-rule:nonzero;stroke:#000000;stroke-width:0.3985;stroke-linecap:butt;stroke-linejoin:miter;stroke-miterlimit:10;stroke-dasharray:none;stroke-opacity:1"
       transform="matrix(0,1.3333333,1.3333333,0,172.08565,154.7628)" />
    <path
       id="path16"
       d="m 113.38724,-107.35257 v 72.72528"
       style="fill:none;stroke:#000000;stroke-width:0.3985;stroke-linecap:butt;stroke-linejoin:miter;stroke-miterlimit:10;stroke-dasharray:none;stroke-opacity:1"
       transform="matrix(1.3333333,0,0,-1.3333333,20.902667,127.632)" />
    <path
       id="path17"
       d="M 4.21463,0 0.64343,1.34572 1.8178,0 0.64343,-1.34572 Z"
       style="fill:#000000;fill-opacity:1;fill-rule:nonzero;stroke:#000000;stroke-width:0.3985;stroke-linecap:butt;stroke-linejoin:miter;stroke-miterlimit:10;stroke-dasharray:none;stroke-opacity:1"
       transform="matrix(0,-1.3333333,-1.3333333,0,172.08565,176.09263)" />
    <path
       id="path18"
       d="m 119.4219,56.69362 c 99.4897,0 99.4897,-170.08086 3.06391,-170.08086"
       style="fill:none;stroke:#000000;stroke-width:0.3985;stroke-linecap:butt;stroke-linejoin:miter;stroke-miterlimit:10;stroke-dasharray:none;stroke-opacity:1"
       transform="matrix(1.3333333,0,0,-1.3333333,20.902667,127.632)" />
    <path
       id="path19"
       d="M 4.21463,0 0.64343,1.34572 1.8178,0 0.64343,-1.34572 Z"
       style="fill:#000000;fill-opacity:1;fill-rule:nonzero;stroke:#000000;stroke-width:0.3985;stroke-linecap:butt;stroke-linejoin:miter;stroke-miterlimit:10;stroke-dasharray:none;stroke-opacity:1"
       transform="matrix(-1.3333333,0,0,1.3333333,186.508,278.81499)" />
    <path
       id="path20"
       d="m 289.10437,56.69362 c 0,3.11279 -2.52336,5.63615 -5.63615,5.63615 -3.11281,0 -5.63617,-2.52336 -5.63617,-5.63615 0,-3.11281 2.52336,-5.63617 5.63617,-5.63617 3.11279,0 5.63615,2.52336 5.63615,5.63617 z"
       style="fill:#000000;fill-opacity:1;fill-rule:nonzero;stroke:none"
       transform="matrix(1.3333333,0,0,-1.3333333,20.902667,127.632)" />
    <path
       id="path21"
       d="M 4.8283477,-4.0956875 3.9963164,-6.0761562 c -0.029297,-0.082031 -0.052734,-0.1171875 -0.052734,-0.1289063 0,-0.058594 0.1699219,-0.2519531 0.5859375,-0.2871094 0.099609,-0.011719 0.1992188,-0.023437 0.1992188,-0.1933593 0,-0.1171875 -0.1171875,-0.1171875 -0.1464844,-0.1171875 -0.4101562,0 -0.8378906,0.029297 -1.2539062,0.029297 -0.2519532,0 -0.8671875,-0.029297 -1.1191407,-0.029297 -0.058594,0 -0.1757812,0 -0.1757812,0.1992187 0,0.1113281 0.099609,0.1113281 0.2285156,0.1113281 0.5976563,0 0.65625,0.099609 0.7441406,0.3164063 l 1.1777344,2.7773437 -2.1035156,2.2617188 -0.1289063,0.1113281 c -0.4863281,0.52734375 -0.95507809,0.68554688 -1.46484372,0.71484375 -0.12890625,0.0117188 -0.21679687,0.0117188 -0.21679687,0.19921875 0,0.01171875 0,0.111328125 0.12890625,0.111328125 0.29882812,0 0.62695314,-0.029296875 0.93750004,-0.029296875 0.3691406,0 0.7558593,0.029296875 1.1132812,0.029296875 0.058594,0 0.1816406,0 0.1816406,-0.199218745 0,-0.0996094 -0.099609,-0.11132813 -0.1230468,-0.11132813 -0.087891,-0.005859 -0.3984375,-0.0292969 -0.3984375,-0.3046875 0,-0.1640625 0.1523437,-0.32226562 0.2695312,-0.45117185 l 1.0195313,-1.0722656 0.8964843,-0.9785157 1.0019532,2.37890628 c 0.041016,0.11132812 0.052734,0.12304687 0.052734,0.140625 0,0.0820313 -0.1875,0.25195312 -0.5800781,0.28710937 -0.1054687,0.0117188 -0.1992187,0.0234375 -0.1992187,0.19335938 0,0.117187495 0.1113281,0.117187495 0.1523437,0.117187495 0.2753906,0 0.9726563,-0.029296875 1.2539063,-0.029296875 0.2460937,0 0.8554687,0.029296875 1.1074218,0.029296875 0.070312,0 0.1875,0 0.1875,-0.187499995 0,-0.12304688 -0.099609,-0.12304688 -0.1816406,-0.12304688 C 6.4220977,-0.31639062 6.4045195,-0.3456875 6.2345977,-0.744125 5.8478789,-1.6757656 5.1799102,-3.2285 4.9513945,-3.8261562 5.6252227,-4.5234219 6.6740508,-5.7070156 6.990457,-5.9882656 c 0.2929688,-0.234375 0.6679688,-0.4746094 1.265625,-0.5039063 0.1289063,-0.011719 0.2226563,-0.011719 0.2226563,-0.1992187 0,-0.011719 0,-0.1113281 -0.1289063,-0.1113281 -0.2988281,0 -0.6328125,0.029297 -0.9375,0.029297 -0.3691406,0 -0.75,-0.029297 -1.1074218,-0.029297 -0.058594,0 -0.1875,0 -0.1875,0.1992187 0,0.070312 0.046875,0.099609 0.1171875,0.1113281 0.087891,0.00586 0.3984375,0.029297 0.3984375,0.3046875 0,0.140625 -0.1113282,0.2695313 -0.1875,0.3632813 z m 0,0"
       style="fill:#000000;fill-opacity:1;fill-rule:nonzero;stroke:none"
       aria-label="X"
       transform="matrix(2.6666667,0,0,2.6666667,386.808,34.609333)" />
    <path
       id="path22"
       d="m 402.49162,56.69362 c 0,3.11279 -2.52336,5.63615 -5.63617,5.63615 -3.1128,0 -5.63617,-2.52336 -5.63617,-5.63615 0,-3.11281 2.52337,-5.63617 5.63617,-5.63617 3.11281,0 5.63617,2.52336 5.63617,5.63617 z"
       style="fill:none;stroke:#000000;stroke-width:0.3985;stroke-linecap:butt;stroke-linejoin:miter;stroke-miterlimit:10;stroke-dasharray:none;stroke-opacity:1"
       transform="matrix(1.3333333,0,0,-1.3333333,20.902667,127.632)" />
    <path
       id="path23"
       d="m 5.9479648,-5.6665859 0.140625,-0.140625 c 0.2988282,-0.2988282 0.6269532,-0.6386719 1.3007813,-0.6855469 0.1113281,-0.011719 0.1992187,-0.011719 0.1992187,-0.1933594 0,-0.076172 -0.046875,-0.1171875 -0.1289062,-0.1171875 -0.2578125,0 -0.5449219,0.029297 -0.8144531,0.029297 -0.328125,0 -0.6796875,-0.029297 -0.9960938,-0.029297 -0.058594,0 -0.1875,0 -0.1875,0.1875 0,0.1113281 0.099609,0.1230469 0.1464844,0.1230469 0.070312,0 0.3574219,0.017578 0.3574219,0.2285156 0,0.1699219 -0.2285157,0.4277344 -0.2695313,0.4746094 L 3.387418,-3.1294766 2.2917148,-6.0884609 c -0.058594,-0.1347657 -0.058594,-0.1582032 -0.058594,-0.1699219 0,-0.234375 0.4863281,-0.234375 0.5859375,-0.234375 0.140625,0 0.2402344,0 0.2402344,-0.1992188 0,-0.1113281 -0.1230469,-0.1113281 -0.1523438,-0.1113281 -0.2753906,0 -0.9726562,0.029297 -1.2539062,0.029297 -0.2460938,0 -0.86718753,-0.029297 -1.11328128,-0.029297 -0.0585938,0 -0.19335938,0 -0.19335938,0.1992188 0,0.1113281 0.0996094,0.1113281 0.234375,0.1113281 0.59765626,0 0.63281246,0.087891 0.72656246,0.3339844 l 1.2246094,3.28125 c 0.00586,0.029297 0.041016,0.140625 0.041016,0.1699218 0,0.029297 -0.3984375,1.6289063 -0.4511718,1.81054691 -0.1289063,0.55078125 -0.140625,0.58007813 -0.9375,0.5859375 -0.18750003,0 -0.26953128,0 -0.26953128,0.19921875 0,0.1113281275 0.12304688,0.1113281275 0.14062498,0.1113281275 0.28125,0 0.9785156,-0.0292968775 1.2539063,-0.0292968775 0.28125,0 0.9960937,0.0292968775 1.2773437,0.0292968775 0.070312,0 0.1875,0 0.1875,-0.1992187475 0,-0.11132813 -0.087891,-0.11132813 -0.2753906,-0.11132813 -0.023437,0 -0.2109375,0 -0.3808594,-0.0175781 -0.2109375,-0.0175781 -0.2695312,-0.0410156 -0.2695312,-0.15820313 0,-0.0703125 0.087891,-0.421875 0.140625,-0.62695318 l 0.3457031,-1.40625 c 0.052734,-0.1875 0.064453,-0.2167968 0.140625,-0.3105468 z m 0,0"
       style="fill:#000000;fill-opacity:1;fill-rule:nonzero;stroke:none"
       aria-label="Y"
       transform="matrix(2.6666667,0,0,2.6666667,515.64267,27.009333)" />
    <path
       id="path24"
       d="m 2.1795898,-4.6293359 c 0.011719,-0.017578 0.029297,-0.1054688 0.029297,-0.1113282 0,-0.035156 -0.029297,-0.099609 -0.1113281,-0.099609 -0.140625,0 -0.7148438,0.058594 -0.890625,0.070312 -0.058594,0.00586 -0.1523438,0.011719 -0.1523438,0.1582031 0,0.099609 0.09375,0.099609 0.1816407,0.099609 0.3339843,0 0.3339843,0.046875 0.3339843,0.1054687 0,0.046875 -0.017578,0.087891 -0.029297,0.1523438 l -0.98437503,3.94921871 c -0.0351563,0.12304688 -0.0351563,0.13476563 -0.0351563,0.15234375 0,0.10546875 0.0878906,0.22265625 0.24023437,0.22265625 0.1875,0 0.27539066,-0.140625 0.31640616,-0.29296875 0.017578,-0.0292969 0.3164063,-1.25390626 0.3457032,-1.35351566 0.4921875,0.046875 0.8906251,0.2109375 0.8906251,0.5742188 0,0.0351562 0,0.0703125 -0.011719,0.13476561 -0.029297,0.10546875 -0.029297,0.140625 -0.029297,0.21679688 0,0.49804687 0.4042969,0.72070312 0.7382813,0.72070312 0.6796875,0 0.8847656,-1.06054687 0.8847656,-1.06640625 0,-0.09375 -0.087891,-0.09375 -0.1113281,-0.09375 -0.09375,0 -0.1054688,0.035156 -0.140625,0.1699218 -0.082031,0.29882812 -0.2695313,0.796875 -0.609375,0.796875 -0.1875,0 -0.2460938,-0.17578125 -0.2460938,-0.36328125 0,-0.12304688 0,-0.13476563 0.041016,-0.31640625 0.00586,-0.0175781 0.035156,-0.140625 0.035156,-0.2167968 0,-0.6210938 -0.8378906,-0.7148438 -1.1308594,-0.7382813 0.2050781,-0.1230469 0.4628907,-0.3574219 0.5800782,-0.4570312 0.3574218,-0.3398438 0.703125,-0.6621094 1.095703,-0.6621094 0.082031,0 0.1757812,0.017578 0.2285156,0.087891 -0.2988281,0.046875 -0.3632811,0.2871094 -0.3632811,0.3925781 0,0.1523438 0.1230468,0.2578125 0.28125,0.2578125 0.1875,0 0.3984374,-0.1582031 0.3984374,-0.4453125 0,-0.234375 -0.1699218,-0.4921875 -0.5390624,-0.4921875 -0.3984375,0 -0.7617189,0.2871094 -1.1132813,0.6152344 -0.2929687,0.28125 -0.5273437,0.4921875 -0.8085937,0.6152344 z m 5.9267579,2.7714843 c 0,-0.7734375 -0.5800782,-1.21875 -1.2597657,-1.21875 -1.0371093,0 -2.0097656,0.9726563 -2.0097656,1.9277344 0,0.69726564 0.5097656,1.21875001 1.265625,1.21875001 1.0019531,0 2.0039063,-0.91992187 2.0039063,-1.92773441 z m -1.9921875,1.73437504 c -0.3515625,0 -0.6972657,-0.22851563 -0.6972657,-0.77929688 0,-0.28124996 0.1289063,-0.96679686 0.4042969,-1.36523436 0.2988281,-0.4335938 0.703125,-0.609375 1.0136719,-0.609375 0.3808594,0 0.6972656,0.2578125 0.6972656,0.7734375 0,0.1640625 -0.082031,0.8554687 -0.3867187,1.34179686 -0.2695313,0.41015625 -0.6855469,0.63867188 -1.03125,0.63867188 z m 5.2441408,-0.43945313 c -0.0293,0.13476563 -0.09375,0.375 -0.09375,0.41015625 0,0.1523437525 0.123047,0.22265625 0.234375,0.22265625 0.128906,0 0.240234,-0.09375 0.27539,-0.15234375 0.03516,-0.06445312 0.08789,-0.28710937 0.123047,-0.43359375 0.03516,-0.13476562 0.111328,-0.45117187 0.152344,-0.62695311 0.04102,-0.1523438 0.08789,-0.3105469 0.123047,-0.46875 0.07617,-0.2988281 0.07617,-0.3105469 0.210937,-0.5273438 0.222657,-0.3457031 0.574219,-0.7382812 1.119141,-0.7382812 0.386719,0 0.410156,0.3164062 0.410156,0.4863281 0,0.4160156 -0.298828,1.1894531 -0.410156,1.48242189 -0.07617,0.19921875 -0.105469,0.2578125 -0.105469,0.38085937 0,0.36914063 0.304688,0.59765625 0.66211,0.59765625 0.697265,0 1.001953,-0.9609375 1.001953,-1.06640625 0,-0.09375 -0.08789,-0.09375 -0.111328,-0.09375 -0.09375,0 -0.105469,0.041016 -0.128907,0.1230468 -0.164062,0.55664062 -0.46289,0.84375 -0.738281,0.84375 -0.146484,0 -0.175781,-0.0996094 -0.175781,-0.24609375 0,-0.15820313 0.03516,-0.25195313 0.158203,-0.5625 0.08203,-0.21679685 0.369141,-0.95507805 0.369141,-1.34765625 0,-0.1113281 0,-0.4042968 -0.257813,-0.609375 -0.117187,-0.087891 -0.322265,-0.1875 -0.644531,-0.1875 -0.632813,0 -1.013672,0.4101563 -1.236328,0.703125 -0.05859,-0.5917968 -0.550781,-0.703125 -0.908203,-0.703125 -0.580078,0 -0.966797,0.3574219 -1.177735,0.6328125 -0.04687,-0.4804687 -0.457031,-0.6328125 -0.7441403,-0.6328125 -0.2988282,0 -0.4628907,0.2167969 -0.5507813,0.375 -0.1523437,0.2578125 -0.2519531,0.65625 -0.2519531,0.6914063 0,0.09375 0.099609,0.09375 0.1171875,0.09375 0.099609,0 0.1054687,-0.023437 0.1523437,-0.2109375 0.1054688,-0.4101563 0.2402344,-0.75 0.5097657,-0.75 0.1816406,0 0.2285156,0.1523437 0.2285156,0.3398437 0,0.1289063 -0.058594,0.3867188 -0.1113281,0.5800782 -0.046875,0.1875 -0.1171875,0.4746093 -0.1523438,0.6269531 l -0.2226562,0.89062495 c -0.029297,0.0878906 -0.070312,0.26367187 -0.070312,0.28710937 0,0.1523437525 0.1289062,0.22265625 0.2402343,0.22265625 0.1230469,0 0.234375,-0.09375 0.2695313,-0.15234375 0.035156,-0.06445312 0.09375,-0.28710937 0.1289062,-0.43359375 0.035156,-0.13476562 0.1113282,-0.45117187 0.1523438,-0.62695307 0.041016,-0.1523438 0.082031,-0.3105469 0.1171867,-0.46875 0.07617,-0.2871094 0.08789,-0.3398438 0.292969,-0.6269531 0.193359,-0.28125 0.521484,-0.6386719 1.042969,-0.6386719 0.404297,0 0.416015,0.3515625 0.416015,0.4863281 0,0.1757813 -0.02344,0.2636719 -0.123046,0.65625 z m 4.567383,1.41210938 C 15.878809,1.0483984 15.86709,1.1011328 15.58584,1.1011328 c -0.09375,0 -0.1875,0 -0.1875,0.1464844 0,0.076172 0.06445,0.1054687 0.09375,0.1054687 0.18164,0 0.416015,-0.029297 0.603515,-0.029297 0.234375,0 0.498047,0.029297 0.732422,0.029297 0.05859,0 0.140625,-0.023437 0.140625,-0.1523437 0,-0.099609 -0.09961,-0.099609 -0.18164,-0.099609 -0.158203,0 -0.345703,0 -0.345703,-0.082031 0,-0.0351563 0.05273,-0.21679691 0.07617,-0.32226566 0.08789,-0.36914063 0.181641,-0.74414063 0.257813,-1.03710938 0.08789,0.13476563 0.304687,0.41015625 0.720703,0.41015625 0.849609,0 1.792969,-0.94335937 1.792969,-1.98046871 0,-0.8144532 -0.56836,-1.1660157 -1.048828,-1.1660157 -0.427735,0 -0.802735,0.2929688 -0.990235,0.4921875 -0.117187,-0.3984375 -0.509765,-0.4921875 -0.714843,-0.4921875 -0.275391,0 -0.439454,0.1816407 -0.550782,0.3691407 -0.140625,0.2402343 -0.251953,0.65625 -0.251953,0.6972656 0,0.09375 0.09961,0.09375 0.117188,0.09375 0.09961,0 0.105468,-0.023437 0.152343,-0.2109375 0.105469,-0.4042969 0.240235,-0.75 0.509766,-0.75 0.181641,0 0.228516,0.1523437 0.228516,0.3398437 0,0.076172 -0.01172,0.1640625 -0.01758,0.2109375 z m 1.318359,-3.08789059 c 0.404297,-0.5390625 0.755859,-0.6386719 0.978516,-0.6386719 0.269531,0 0.509765,0.1992187 0.509765,0.6738281 0,0.2871094 -0.158203,0.9960938 -0.363281,1.40039064 -0.175781,0.33984375 -0.515625,0.6796875 -0.873047,0.6796875 -0.492187,0 -0.621094,-0.5390625 -0.621094,-0.609375 0,-0.0292969 0.01172,-0.0761719 0.02344,-0.10546875 z m 0,0"
       style="fill:#000000;fill-opacity:1;fill-rule:nonzero;stroke:none"
       aria-label="komp"
       transform="matrix(2.6666667,0,0,2.6666667,531.06667,30.993333)" />
    <path
       id="path25"
       d="m 399.67354,-28.34679 c 0,1.5564 -1.26169,2.81809 -2.81809,2.81809 -1.55639,0 -2.81808,-1.26169 -2.81808,-2.81809 0,-1.55639 1.26169,-2.81808 2.81808,-2.81808 1.5564,0 2.81809,1.26169 2.81809,2.81808 z"
       style="fill:#000000;fill-opacity:1;fill-rule:nonzero;stroke:#000000;stroke-width:1.39478;stroke-linecap:butt;stroke-linejoin:miter;stroke-miterlimit:10;stroke-dasharray:none;stroke-opacity:1"
       transform="matrix(1.3333333,0,0,-1.3333333,20.902667,127.632)" />
    <path
       id="path26"
       d="m 399.67354,-28.34679 c 0,1.5564 -1.26169,2.81809 -2.81809,2.81809 -1.55639,0 -2.81808,-1.26169 -2.81808,-2.81809 0,-1.55639 1.26169,-2.81808 2.81808,-2.81808 1.5564,0 2.81809,1.26169 2.81809,2.81808 z"
       style="fill:none;stroke:#ffffff;stroke-width:0.59776;stroke-linecap:butt;stroke-linejoin:miter;stroke-miterlimit:10;stroke-dasharray:none;stroke-opacity:1"
       transform="matrix(1.3333333,0,0,-1.3333333,20.902667,127.632)" />
    <path
       id="path27"
       d="m 5.9473672,-5.6661211 0.140625,-0.140625 c 0.2988281,-0.2988281 0.6269531,-0.6386719 1.3007812,-0.6855469 0.1113282,-0.011719 0.1992188,-0.011719 0.1992188,-0.1933593 0,-0.076172 -0.046875,-0.1171875 -0.1289063,-0.1171875 -0.2578125,0 -0.5449218,0.029297 -0.8144531,0.029297 -0.328125,0 -0.6796875,-0.029297 -0.9960937,-0.029297 -0.058594,0 -0.1875,0 -0.1875,0.1875 0,0.1113281 0.099609,0.1230468 0.1464843,0.1230468 0.070312,0 0.3574219,0.017578 0.3574219,0.2285157 0,0.1699218 -0.2285156,0.4277343 -0.2695312,0.4746093 L 3.3868203,-3.1290117 2.2911172,-6.0879961 c -0.058594,-0.1347656 -0.058594,-0.1582031 -0.058594,-0.1699219 0,-0.234375 0.4863282,-0.234375 0.5859375,-0.234375 0.140625,0 0.2402344,0 0.2402344,-0.1992187 0,-0.1113281 -0.1230469,-0.1113281 -0.1523437,-0.1113281 -0.2753907,0 -0.9726563,0.029297 -1.2539063,0.029297 -0.2460937,0 -0.86718749,-0.029297 -1.11328124,-0.029297 -0.0585937,0 -0.19335937,0 -0.19335937,0.1992187 0,0.1113281 0.0996094,0.1113281 0.234375,0.1113281 0.59765621,0 0.63281251,0.087891 0.72656251,0.3339844 l 1.2246094,3.28125 c 0.00586,0.029297 0.041016,0.140625 0.041016,0.1699219 0,0.029297 -0.3984375,1.6289062 -0.4511719,1.81054686 -0.1289062,0.55078125 -0.140625,0.58007812 -0.9375,0.5859375 -0.18749999,0 -0.26953124,0 -0.26953124,0.19921875 0,0.11132812125 0.12304684,0.11132812125 0.14062504,0.11132812125 0.28125,0 0.9785156,-0.0292968712 1.2539062,-0.0292968712 0.28125,0 0.9960938,0.0292968712 1.2773438,0.0292968712 0.070312,0 0.1875,0 0.1875,-0.19921875125 0,-0.11132812 -0.087891,-0.11132812 -0.2753907,-0.11132812 -0.023437,0 -0.2109375,0 -0.3808593,-0.0175781 -0.2109375,-0.0175781 -0.2695313,-0.0410156 -0.2695313,-0.15820312 0,-0.0703125 0.087891,-0.421875 0.140625,-0.62695314 l 0.3457031,-1.40625 c 0.052734,-0.1875 0.064453,-0.2167969 0.140625,-0.3105469 z m 0,0"
       style="fill:#000000;fill-opacity:1;fill-rule:nonzero;stroke:none"
       aria-label="Y"
       transform="matrix(2.6666667,0,0,2.6666667,563.71067,172.512)" />
    <path
       id="path28"
       d="m 1.8391484,-4.6284063 c 0.00586,-0.017578 0.029297,-0.1054687 0.029297,-0.1113281 0,-0.035156 -0.029297,-0.099609 -0.1113281,-0.099609 -0.140625,0 -0.7207031,0.058594 -0.89062501,0.070312 -0.0585938,0.00586 -0.15820313,0.011719 -0.15820313,0.1582032 0,0.099609 0.0996094,0.099609 0.18164063,0.099609 0.33398441,0 0.33398441,0.046875 0.33398441,0.1054688 0,0.046875 -0.064453,0.328125 -0.1113282,0.4863281 L 0.95438291,-3.274891 c -0.0644531,0.234375 -0.4453125,1.7636718 -0.46289062,1.8515625 -0.0292969,0.1699218 -0.0292969,0.2578125 -0.0292969,0.3457031 0,0.703125 0.4453125,1.1484375 1.01953131,1.1484375 0.8730468,0 1.7988281,-0.94921875 1.7988281,-1.9804688 0,-0.8144531 -0.5625,-1.1660156 -1.0429688,-1.1660156 -0.3632812,0 -0.6679687,0.2050781 -0.8789062,0.3867188 z m -0.3457031,4.50585942 c -0.3457031,0 -0.53906249,-0.3046875 -0.53906249,-0.71484375 0,-0.25781247 0.0644531,-0.49218747 0.25781249,-1.28320317 0.041016,-0.1289062 0.041016,-0.1464843 0.1757813,-0.2988281 0.2636718,-0.3046875 0.5800781,-0.4570312 0.8261718,-0.4570312 0.2753907,0 0.5097657,0.1992187 0.5097657,0.6738281 0,0.2871094 -0.1523438,0.9960937 -0.3632813,1.40039062 -0.1640625,0.33984375 -0.515625,0.6796875 -0.8671875,0.6796875 z M 5.0676641,-1.5873906 c 0.1933593,0 0.7441406,-0.017578 1.1191406,-0.1464844 0.515625,-0.1816406 0.6152344,-0.515625 0.6152344,-0.7265625 0,-0.3867188 -0.3867188,-0.6152344 -0.8671875,-0.6152344 -0.8320313,0 -1.9628907,0.6445313 -1.9628907,1.8339844 0,0.703125 0.4394532,1.3125 1.2539063,1.3125 1.1777344,0 1.7285156,-0.69140625 1.7285156,-0.79101563 0,-0.0410156 -0.064453,-0.1171875 -0.1171875,-0.1171875 -0.041016,0 -0.058594,0.0175781 -0.1113281,0.0703125 -0.5449219,0.64453125 -1.359375,0.64453125 -1.4882813,0.64453125 -0.4160156,0 -0.6972656,-0.28125 -0.6972656,-0.84375 0,-0.0996094 0,-0.24023442 0.087891,-0.62109372 z M 4.6809453,-1.7866094 c 0.2871094,-1.0078125 1.0605469,-1.0898437 1.2539063,-1.0898437 0.3105468,0 0.5683593,0.1523437 0.5683593,0.4160156 0,0.6738281 -1.1777343,0.6738281 -1.4824218,0.6738281 z m 6.3061527,-0.070312 c 0,-0.7734375 -0.580078,-1.21875 -1.259766,-1.21875 -1.0371093,0 -2.0097656,0.9726563 -2.0097656,1.9277344 0,0.69726562 0.5097656,1.21875 1.265625,1.21875 1.0019531,0 2.0039066,-0.91992188 2.0039066,-1.9277344 z m -1.9921878,1.73437502 c -0.3515625,0 -0.6972657,-0.22851562 -0.6972657,-0.77929687 0,-0.28125005 0.1289063,-0.96679685 0.4042969,-1.36523435 0.2988281,-0.4335938 0.703125,-0.609375 1.0136719,-0.609375 0.3808597,0 0.6972657,0.2578125 0.6972657,0.7734375 0,0.1640625 -0.08203,0.8554687 -0.386719,1.34179685 C 9.7566289,-0.351062 9.3406133,-0.12254638 8.9949102,-0.12254638 Z M 13.055457,-4.6284063 c 0.0059,-0.017578 0.0293,-0.1054687 0.0293,-0.1113281 0,-0.035156 -0.0293,-0.099609 -0.111328,-0.099609 -0.140625,0 -0.720703,0.058594 -0.890625,0.070312 -0.05859,0.00586 -0.158203,0.011719 -0.158203,0.1582032 0,0.099609 0.09961,0.099609 0.18164,0.099609 0.333985,0 0.333985,0.046875 0.333985,0.1054688 0,0.046875 -0.06445,0.328125 -0.111328,0.4863281 l -0.158204,0.6445313 c -0.06445,0.234375 -0.445312,1.7636718 -0.46289,1.8515625 -0.0293,0.1699218 -0.0293,0.2578125 -0.0293,0.3457031 0,0.703125 0.445312,1.1484375 1.019531,1.1484375 0.873047,0 1.798828,-0.94921875 1.798828,-1.9804688 0,-0.8144531 -0.5625,-1.1660156 -1.042968,-1.1660156 -0.363282,0 -0.667969,0.2050781 -0.878907,0.3867188 z m -0.345703,4.50585942 c -0.345703,0 -0.539063,-0.3046875 -0.539063,-0.71484375 0,-0.25781247 0.06445,-0.49218747 0.257813,-1.28320317 0.04102,-0.1289062 0.04102,-0.1464843 0.175781,-0.2988281 0.263672,-0.3046875 0.580078,-0.4570312 0.826172,-0.4570312 0.275391,0 0.509766,0.1992187 0.509766,0.6738281 0,0.2871094 -0.152344,0.9960937 -0.363282,1.40039062 -0.164062,0.33984375 -0.515625,0.6796875 -0.867187,0.6796875 z m 0,0"
       style="fill:#000000;fill-opacity:1;fill-rule:nonzero;stroke:none"
       aria-label="beob"
       transform="matrix(2.6666667,0,0,2.6666667,579.13467,176.49867)" />
    <path
       id="path29"
       d="m 402.49162,-113.38724 c 0,3.11281 -2.52336,5.63617 -5.63617,5.63617 -3.1128,0 -5.63617,-2.52336 -5.63617,-5.63617 0,-3.11279 2.52337,-5.63615 5.63617,-5.63615 3.11281,0 5.63617,2.52336 5.63617,5.63615 z"
       style="fill:#000000;fill-opacity:1;fill-rule:nonzero;stroke:none"
       transform="matrix(1.3333333,0,0,-1.3333333,20.902667,127.632)" />
    <path
       id="path30"
       d="m 3.732793,-6.1177734 c 0.064453,-0.2402344 0.09375,-0.3398438 0.28125,-0.3691407 0.087891,-0.00586 0.4101562,-0.00586 0.609375,-0.00586 0.703125,0 1.8105468,0 1.8105468,0.984375 0,0.3398437 -0.1582031,1.0253906 -0.5449218,1.4121093 -0.2636719,0.2636719 -0.7910157,0.5800782 -1.6875,0.5800782 H 3.0882617 Z m 1.4355468,2.7304687 c 1.0078125,-0.2167969 2.1914063,-0.9140625 2.1914063,-1.921875 0,-0.8554687 -0.8964844,-1.4941406 -2.1972656,-1.4941406 H 2.3206836 c -0.1992188,0 -0.2871094,0 -0.2871094,0.1992187 0,0.1113282 0.087891,0.1113282 0.2753906,0.1113282 0.023437,0 0.2109375,0 0.3808594,0.017578 0.1816406,0.017578 0.2695313,0.029297 0.2695313,0.1582031 0,0.041016 -0.011719,0.070312 -0.041016,0.1933594 L 1.582402,-0.77988291 c -0.099609,0.39257812 -0.1171875,0.46875 -0.90234371,0.46875 -0.18164062,0 -0.26953125,0 -0.26953125,0.19921875 0,0.1113281225 0.1171875,0.1113281225 0.13476563,0.1113281225 0.28125,0 0.97851563,-0.0292968725 1.25976563,-0.0292968725 0.2753906,0 0.984375,0.0292968725 1.265625,0.0292968725 0.076172,0 0.1992187,0 0.1992187,-0.1992187525 0,-0.11132812 -0.09375,-0.11132812 -0.28125,-0.11132812 -0.3691406,0 -0.6503906,0 -0.6503906,-0.17578125 0,-0.0585938 0.023437,-0.11132813 0.035156,-0.16992188 l 0.65625,-2.64257816 h 1.1835937 c 0.9082031,0 1.0839844,0.5625 1.0839844,0.9082032 0,0.1523437 -0.076172,0.4570312 -0.1347656,0.6855468 -0.070312,0.28125 -0.1640625,0.6503907 -0.1640625,0.84960941 0,1.07226563 1.1953125,1.07226563 1.3242187,1.07226563 0.8496094,0 1.1953125,-1.00195313 1.1953125,-1.14257813 0,-0.11718751 -0.1054687,-0.11718751 -0.1171875,-0.11718751 -0.087891,0 -0.1113281,0.0644531 -0.1289062,0.13476564 -0.2519532,0.73828125 -0.6796875,0.9082031225 -0.9082032,0.9082031225 -0.328125,0 -0.3984375,-0.2167968725 -0.3984375,-0.6093750025 0,-0.3046875 0.058594,-0.81445316 0.099609,-1.13085936 0.023437,-0.140625 0.041016,-0.3339844 0.041016,-0.46875 0,-0.7675781 -0.6679687,-1.078125 -0.9374994,-1.1777343 z m 0,0"
       style="fill:#000000;fill-opacity:1;fill-rule:nonzero;stroke:none"
       aria-label="R"
       transform="matrix(2.6666667,0,0,2.6666667,539.84667,314.4)" />
    <path
       id="path31"
       d="m 289.50288,56.69362 h 98.25399"
       style="fill:none;stroke:#000000;stroke-width:0.3985;stroke-linecap:butt;stroke-linejoin:miter;stroke-miterlimit:10;stroke-dasharray:none;stroke-opacity:1"
       transform="matrix(1.3333333,0,0,-1.3333333,20.902667,127.632)" />
    <path
       id="path32"
       d="M 4.21463,0 0.64343,1.34572 1.8178,0 0.64343,-1.34572 Z"
       style="fill:#000000;fill-opacity:1;fill-rule:nonzero;stroke:#000000;stroke-width:0.3985;stroke-linecap:butt;stroke-linejoin:miter;stroke-miterlimit:10;stroke-dasharray:none;stroke-opacity:1"
       transform="matrix(1.3333333,0,0,-1.3333333,535.62091,52.040507)" />
    <path
       id="path33"
       d="M 396.85545,50.65895 V -22.06628"
       style="fill:none;stroke:#000000;stroke-width:0.3985;stroke-linecap:butt;stroke-linejoin:miter;stroke-miterlimit:10;stroke-dasharray:none;stroke-opacity:1"
       transform="matrix(1.3333333,0,0,-1.3333333,20.902667,127.632)" />
    <path
       id="path34"
       d="M 4.21463,0 0.64343,1.34572 1.8178,0 0.64343,-1.34572 Z"
       style="fill:#000000;fill-opacity:1;fill-rule:nonzero;stroke:#000000;stroke-width:0.3985;stroke-linecap:butt;stroke-linejoin:miter;stroke-miterlimit:10;stroke-dasharray:none;stroke-opacity:1"
       transform="matrix(0,1.3333333,1.3333333,0,550.04327,154.7628)" />
    <path
       id="path35"
       d="m 396.85545,-107.35257 v 72.72528"
       style="fill:none;stroke:#000000;stroke-width:0.3985;stroke-linecap:butt;stroke-linejoin:miter;stroke-miterlimit:10;stroke-dasharray:none;stroke-opacity:1"
       transform="matrix(1.3333333,0,0,-1.3333333,20.902667,127.632)" />
    <path
       id="path36"
       d="M 4.21463,0 0.64343,1.34572 1.8178,0 0.64343,-1.34572 Z"
       style="fill:#000000;fill-opacity:1;fill-rule:nonzero;stroke:#000000;stroke-width:0.3985;stroke-linecap:butt;stroke-linejoin:miter;stroke-miterlimit:10;stroke-dasharray:none;stroke-opacity:1"
       transform="matrix(0,-1.3333333,-1.3333333,0,550.04327,176.09263)" />
    <path
       id="path37"
       d="M 286.81548,51.67267 391.80873,-105.81708"
       style="fill:none;stroke:#000000;stroke-width:0.3985;stroke-linecap:butt;stroke-linejoin:miter;stroke-miterlimit:10;stroke-dasharray:none;stroke-opacity:1"
       transform="matrix(1.3333333,0,0,-1.3333333,20.902667,127.632)" />
    <path
       id="path38"
       d="M 4.21463,0 0.64343,1.34572 1.8178,0 0.64343,-1.34572 Z"
       style="fill:#000000;fill-opacity:1;fill-rule:nonzero;stroke:#000000;stroke-width:0.3985;stroke-linecap:butt;stroke-linejoin:miter;stroke-miterlimit:10;stroke-dasharray:none;stroke-opacity:1"
       transform="matrix(0.73956,1.10936,1.10936,-0.73956,542.0436,266.81535)" />
    <path
       id="path39"
       d="m 402.89012,56.69362 c 99.48972,0 99.48972,-170.08086 3.06392,-170.08086"
       style="fill:none;stroke:#000000;stroke-width:0.3985;stroke-linecap:butt;stroke-linejoin:miter;stroke-miterlimit:10;stroke-dasharray:none;stroke-opacity:1"
       transform="matrix(1.3333333,0,0,-1.3333333,20.902667,127.632)" />
    <path
       id="path40"
       d="M 4.21463,0 0.64343,1.34572 1.8178,0 0.64343,-1.34572 Z"
       style="fill:#000000;fill-opacity:1;fill-rule:nonzero;stroke:#000000;stroke-width:0.3985;stroke-linecap:butt;stroke-linejoin:miter;stroke-miterlimit:10;stroke-dasharray:none;stroke-opacity:1"
       transform="matrix(-1.3333333,0,0,1.3333333,564.46564,278.81499)" />
  </g>
</svg>
