<?xml version="1.0" encoding="UTF-8" standalone="no"?>
<!-- Created with Inkscape (http://www.inkscape.org/) -->

<svg
   version="1.1"
   id="svg1"
   width="316.164"
   height="161.62666"
   viewBox="0 0 316.164 161.62666"
   xmlns="http://www.w3.org/2000/svg"
   xmlns:svg="http://www.w3.org/2000/svg">
  <defs
     id="defs1" />
  <g
     id="g1">
    <path
       id="path1"
       d="m 2.81807,28.3468 c 0,1.5564 -1.26169,2.81809 -2.81807,2.81809 -1.55638,0 -2.81807,-1.26169 -2.81807,-2.81809 0,-1.5564 1.26169,-2.81808 2.81807,-2.81808 1.55638,0 2.81807,1.26168 2.81807,2.81808 z"
       style="fill:#000000;fill-opacity:1;fill-rule:nonzero;stroke:none"
       transform="matrix(1.3333333,0,0,-1.3333333,10.450667,63.816)" />
    <path
       id="path2"
       d="M 4.8293906,-4.0893281 3.9973594,-6.0815156 c -0.035156,-0.070312 -0.046875,-0.1171875 -0.046875,-0.1289063 0,-0.058594 0.1640625,-0.2460937 0.5859375,-0.28125 0.09375,-0.011719 0.1992187,-0.023437 0.1992187,-0.1875 0,-0.1289062 -0.1171875,-0.1289062 -0.1523437,-0.1289062 -0.4101563,0 -0.8320313,0.035156 -1.2539063,0.035156 -0.2460937,0 -0.8671875,-0.035156 -1.1132812,-0.035156 -0.058594,0 -0.1875,0 -0.1875,0.1992187 0,0.1171875 0.1054687,0.1171875 0.234375,0.1171875 0.5976562,0 0.65625,0.09375 0.75,0.3164063 l 1.171875,2.7773437 -2.0976563,2.2617188 -0.1289062,0.1054687 c -0.4921875,0.52734377 -0.96093753,0.69140627 -1.46484378,0.72656252 -0.12890625,0 -0.22265625,0 -0.22265625,0.19921875 0,0 0,0.105468755 0.12890625,0.105468755 0.3046875,0 0.63281248,-0.035156255 0.93749998,-0.035156255 0.3632813,0 0.7617188,0.035156255 1.1132813,0.035156255 0.058594,0 0.1757812,0 0.1757812,-0.199218755 0,-0.10546875 -0.09375,-0.10546875 -0.1171875,-0.10546875 -0.082031,-0.0117188 -0.3984375,-0.0351563 -0.3984375,-0.31640625 0,-0.15234375 0.1523438,-0.31640625 0.2695313,-0.44531247 l 1.0195312,-1.078125 0.890625,-0.9726563 1.0078125,2.37890627 c 0.046875,0.10546875 0.046875,0.1171875 0.046875,0.140625 0,0.0820313 -0.1875,0.24609375 -0.5742187,0.29296875 -0.1054688,0 -0.1992188,0.0117188 -0.1992188,0.1875 0,0.117187505 0.1171875,0.117187505 0.1523438,0.117187505 0.28125,0 0.9726562,-0.035156255 1.2539062,-0.035156255 0.2460938,0 0.8554688,0.035156255 1.1015625,0.035156255 0.070312,0 0.1992188,0 0.1992188,-0.187500005 0,-0.1171875 -0.1054688,-0.1171875 -0.1875,-0.1171875 -0.6679688,-0.0117188 -0.6796875,-0.046875 -0.8554688,-0.4453125 C 5.8489219,-1.6752656 5.1809531,-3.2221406 4.9465781,-3.8197969 c 0.6796875,-0.703125 1.734375,-1.8867187 2.0507813,-2.1679687 0.28125,-0.234375 0.6679687,-0.4804688 1.265625,-0.5039063 0.1289062,-0.011719 0.2109375,-0.011719 0.2109375,-0.1992187 0,-0.011719 0,-0.1171875 -0.1289063,-0.1171875 -0.2929687,0 -0.6210937,0.035156 -0.9375,0.035156 -0.3632812,0 -0.7382812,-0.035156 -1.1015625,-0.035156 -0.058594,0 -0.1875,0 -0.1875,0.1992187 0,0.070312 0.046875,0.1054688 0.1171875,0.1171875 0.09375,0.011719 0.3984375,0.023437 0.3984375,0.3046875 0,0.140625 -0.1054687,0.2695313 -0.1875,0.3632813 z m 0,0"
       style="fill:#000000;fill-opacity:1;fill-rule:nonzero;stroke:none"
       aria-label="X"
       transform="matrix(1.3333333,0,0,1.3333333,4.428,17.304)" />
    <path
       id="path3"
       d="m 59.51169,28.3468 c 0,1.5564 -1.26169,2.81809 -2.81807,2.81809 -1.5564,0 -2.81809,-1.26169 -2.81809,-2.81809 0,-1.5564 1.26169,-2.81808 2.81809,-2.81808 1.55638,0 2.81807,1.26168 2.81807,2.81808 z"
       style="fill:none;stroke:#000000;stroke-width:0.3985;stroke-linecap:butt;stroke-linejoin:miter;stroke-miterlimit:10;stroke-dasharray:none;stroke-opacity:1"
       transform="matrix(1.3333333,0,0,-1.3333333,10.450667,63.816)" />
    <path
       id="path4"
       d="m 5.9402187,-5.6719453 0.140625,-0.140625 c 0.3046875,-0.2929688 0.6328125,-0.6328125 1.3125,-0.6796875 0.1054688,-0.011719 0.1992188,-0.011719 0.1992188,-0.1875 0,-0.082031 -0.058594,-0.1289063 -0.1289063,-0.1289063 -0.2578125,0 -0.5507812,0.035156 -0.8203125,0.035156 -0.328125,0 -0.6796875,-0.035156 -0.9960937,-0.035156 -0.058594,0 -0.1875,0 -0.1875,0.1992188 0,0.1054687 0.09375,0.1171875 0.1523437,0.1171875 0.070312,0 0.3515625,0.011719 0.3515625,0.2226562 0,0.1757813 -0.2226562,0.4335938 -0.2695312,0.4804688 l -2.3085938,2.6601562 -1.0898437,-2.953125 c -0.070312,-0.140625 -0.070312,-0.1640625 -0.070312,-0.1757812 0,-0.234375 0.4921875,-0.234375 0.5976562,-0.234375 0.1289063,0 0.234375,0 0.234375,-0.1992188 0,-0.1171875 -0.1171875,-0.1171875 -0.1523437,-0.1171875 -0.28125,0 -0.9726563,0.035156 -1.2539063,0.035156 -0.2460937,0 -0.86718745,-0.035156 -1.1132812,-0.035156 -0.0585938,0 -0.1875,0 -0.1875,0.1992188 0,0.1171875 0.09375,0.1171875 0.22265625,0.1171875 0.59765625,0 0.64453125,0.082031 0.72656245,0.3398437 l 1.2304688,3.2695313 c 0.011719,0.035156 0.035156,0.140625 0.035156,0.1757812 0,0.023437 -0.3984375,1.6289063 -0.4453125,1.80468754 -0.1289062,0.55078125 -0.140625,0.5859375 -0.9375,0.59765625 -0.18749995,0 -0.2695312,0 -0.2695312,0.19921875 0,0.1054687475 0.1171875,0.1054687475 0.140625,0.1054687475 0.28125,0 0.9726562,-0.0351562475 1.2539062,-0.0351562475 0.28125,0 0.9960938,0.0351562475 1.2773438,0.0351562475 0.070312,0 0.1875,0 0.1875,-0.1992187475 0,-0.10546875 -0.082031,-0.10546875 -0.28125,-0.10546875 -0.011719,0 -0.1992188,0 -0.375,-0.0234375 -0.2109375,-0.0234375 -0.2695313,-0.0351563 -0.2695313,-0.1640625 0,-0.0703125 0.09375,-0.41015625 0.140625,-0.62109379 l 0.3515625,-1.40625 c 0.046875,-0.1875 0.058594,-0.2226562 0.140625,-0.3046875 z m 0,0"
       style="fill:#000000;fill-opacity:1;fill-rule:nonzero;stroke:none"
       aria-label="Y"
       transform="matrix(1.3333333,0,0,1.3333333,68.845333,13.504)" />
    <path
       id="path5"
       d="m 2.1806328,-4.6288359 c 0.011719,-0.011719 0.035156,-0.1054688 0.035156,-0.1171875 0,-0.035156 -0.035156,-0.09375 -0.1171875,-0.09375 -0.140625,0 -0.7148438,0.058594 -0.890625,0.070312 -0.058594,0.011719 -0.1523438,0.011719 -0.1523438,0.1640625 0,0.09375 0.09375,0.09375 0.1757813,0.09375 0.3398437,0 0.3398437,0.046875 0.3398437,0.1054687 0,0.046875 -0.011719,0.09375 -0.035156,0.1523438 l -0.97265629,3.94921871 c -0.0351563,0.12890625 -0.0351563,0.140625 -0.0351563,0.15234375 0,0.10546875 0.0820313,0.22265625 0.234375,0.22265625 0.1875,0 0.28125009,-0.140625 0.31640629,-0.29296875 0.011719,-0.0234375 0.3164063,-1.25390626 0.3398438,-1.34765626 0.5039062,0.046875 0.9023437,0.1992188 0.9023437,0.5625 0,0.0351563 0,0.0703125 -0.023437,0.14062501 -0.023437,0.10546875 -0.023437,0.140625 -0.023437,0.22265625 0,0.4921875 0.3984375,0.71484375 0.7382813,0.71484375 0.6796875,0 0.890625,-1.0546875 0.890625,-1.06640625 0,-0.09375 -0.09375,-0.09375 -0.1171875,-0.09375 -0.09375,0 -0.1054688,0.035156 -0.140625,0.16406242 -0.082031,0.3046875 -0.2695313,0.796875 -0.609375,0.796875 -0.1875,0 -0.2460938,-0.17578125 -0.2460938,-0.36328125 0,-0.1171875 0,-0.12890625 0.046875,-0.3046875 0,-0.0234375 0.035156,-0.140625 0.035156,-0.22265617 0,-0.6210938 -0.84375,-0.7148438 -1.1367188,-0.7382813 0.1992188,-0.1289062 0.4570313,-0.3515625 0.5859375,-0.4570312 0.3515625,-0.3398438 0.703125,-0.6679688 1.0898438,-0.6679688 0.082031,0 0.1757812,0.023437 0.234375,0.09375 -0.3046875,0.046875 -0.3632813,0.28125 -0.3632813,0.3867188 0,0.1523437 0.1171875,0.2578125 0.2695313,0.2578125 0.1992187,0 0.3984375,-0.1523438 0.3984375,-0.4453125 0,-0.2226563 -0.1640625,-0.4804688 -0.5273438,-0.4804688 -0.3984375,0 -0.7617187,0.28125 -1.125,0.609375 -0.2929687,0.28125 -0.515625,0.4921875 -0.8085937,0.609375 z m 5.9238281,2.7773437 c 0,-0.7734375 -0.5742187,-1.21875 -1.265625,-1.21875 -1.03125,0 -2.0039062,0.9609375 -2.0039062,1.921875 0,0.69140626 0.5039062,1.21875001 1.265625,1.21875001 0.9960937,0 2.0039062,-0.92578125 2.0039062,-1.92187501 z m -1.9921875,1.72265626 c -0.3515625,0 -0.703125,-0.22265625 -0.703125,-0.7734375 0,-0.28124996 0.140625,-0.96093746 0.4101563,-1.35937496 0.2929687,-0.4335938 0.703125,-0.6210938 1.0195312,-0.6210938 0.375,0 0.6914063,0.2578125 0.6914063,0.7734375 0,0.1757813 -0.082031,0.8554688 -0.3867188,1.34765626 -0.2695312,0.41015625 -0.6796875,0.6328125 -1.03125,0.6328125 z m 5.2470706,-0.43359375 c -0.03516,0.140625 -0.09375,0.375 -0.09375,0.41015625 0,0.1523437525 0.128906,0.22265625 0.234375,0.22265625 0.128906,0 0.234375,-0.09375 0.269531,-0.15234375 0.03516,-0.05859375 0.09375,-0.29296875 0.128906,-0.43359375 0.03516,-0.12890625 0.117188,-0.45703125 0.152344,-0.63281251 0.04687,-0.1523437 0.08203,-0.3046875 0.117187,-0.4570312 0.08203,-0.3046875 0.08203,-0.3164063 0.222657,-0.5390625 0.222656,-0.3398438 0.5625,-0.7382813 1.113281,-0.7382813 0.386719,0 0.410156,0.328125 0.410156,0.4921875 0,0.421875 -0.304687,1.1953125 -0.410156,1.48828126 -0.08203,0.1875 -0.105469,0.2578125 -0.105469,0.375 0,0.36328125 0.304688,0.59765625 0.65625,0.59765625 0.703125,0 1.007813,-0.9609375 1.007813,-1.06640625 0,-0.09375 -0.09375,-0.09375 -0.105469,-0.09375 -0.105469,0 -0.105469,0.046875 -0.140625,0.11718742 -0.152344,0.5625 -0.457031,0.84375 -0.738281,0.84375 -0.140625,0 -0.175782,-0.09375 -0.175782,-0.24609375 0,-0.15234375 0.03516,-0.24609375 0.164063,-0.5625 0.08203,-0.21093747 0.375,-0.94921867 0.375,-1.34765617 0,-0.1054688 0,-0.3984375 -0.257813,-0.5976563 -0.128906,-0.09375 -0.328125,-0.1875 -0.65625,-0.1875 -0.621093,0 -1.007812,0.4101563 -1.230468,0.703125 -0.05859,-0.5976562 -0.550782,-0.703125 -0.902344,-0.703125 -0.585938,0 -0.972656,0.3515625 -1.183594,0.6328125 -0.04687,-0.4804687 -0.457031,-0.6328125 -0.7499998,-0.6328125 -0.2929687,0 -0.4570312,0.2109375 -0.5507812,0.375 -0.1523438,0.2578125 -0.2460938,0.65625 -0.2460938,0.6914063 0,0.082031 0.09375,0.082031 0.1171875,0.082031 0.09375,0 0.1054688,-0.011719 0.1523438,-0.1992187 0.1054687,-0.421875 0.234375,-0.7617188 0.515625,-0.7617188 0.1757812,0 0.2226562,0.1523438 0.2226562,0.3398438 0,0.140625 -0.058594,0.3984375 -0.1054687,0.5859375 -0.046875,0.1875 -0.1171875,0.46875 -0.1523438,0.6210937 L 9.191375,-0.43352344 c -0.035156,0.0820313 -0.070312,0.2578125 -0.070312,0.28125 0,0.1523437525 0.1171875,0.22265625 0.234375,0.22265625 0.1289062,0 0.234375,-0.09375 0.2695312,-0.15234375 0.035156,-0.05859375 0.09375,-0.29296875 0.1289063,-0.43359375 0.035156,-0.12890625 0.1054687,-0.45703125 0.1523437,-0.63281251 0.035156,-0.1523437 0.082031,-0.3046875 0.1171878,-0.4570312 0.08203,-0.2929688 0.09375,-0.3515625 0.292968,-0.6328125 0.199219,-0.28125 0.527344,-0.6445313 1.042969,-0.6445313 0.410156,0 0.410156,0.3632813 0.410156,0.4921875 0,0.1757813 -0.01172,0.2695313 -0.117188,0.65625 z m 4.573242,1.41796875 c -0.05859,0.18750004 -0.07031,0.24609374 -0.351563,0.24609374 -0.08203,0 -0.1875,0 -0.1875,0.1523438 0,0.070312 0.07031,0.09375 0.105469,0.09375 0.175781,0 0.410156,-0.023437 0.597656,-0.023437 0.234375,0 0.503907,0.023437 0.726563,0.023437 0.07031,0 0.140625,-0.011719 0.140625,-0.1523438 0,-0.09375 -0.09375,-0.09375 -0.175781,-0.09375 -0.152344,0 -0.339844,0 -0.339844,-0.082031 0,-0.0351563 0.04687,-0.22265629 0.07031,-0.31640629 0.08203,-0.375 0.1875,-0.75 0.257813,-1.04296875 0.08203,0.140625 0.304687,0.41015625 0.726562,0.41015625 0.84375,0 1.78125,-0.9375 1.78125,-1.98046871 0,-0.8203125 -0.5625,-1.1601563 -1.042968,-1.1601563 -0.433594,0 -0.796875,0.2929688 -0.984375,0.4804688 -0.117188,-0.3984375 -0.515625,-0.4804688 -0.726563,-0.4804688 -0.269531,0 -0.433594,0.1757813 -0.550781,0.3632813 -0.140625,0.234375 -0.246094,0.65625 -0.246094,0.703125 0,0.082031 0.09375,0.082031 0.117188,0.082031 0.09375,0 0.105468,-0.011719 0.152343,-0.1992187 0.105469,-0.4101563 0.234375,-0.7617188 0.515625,-0.7617188 0.175782,0 0.222657,0.1523438 0.222657,0.3398438 0,0.082031 -0.01172,0.1757812 -0.02344,0.2109375 z m 1.3125,-3.09374996 c 0.410156,-0.5390625 0.75,-0.6445313 0.972656,-0.6445313 0.28125,0 0.515625,0.2109375 0.515625,0.6796875 0,0.28125 -0.152344,0.9960938 -0.363281,1.40625001 -0.175781,0.33984375 -0.515625,0.66796875 -0.867188,0.66796875 -0.503906,0 -0.621093,-0.5390625 -0.621093,-0.59765625 0,-0.0351563 0.01172,-0.0820313 0.01172,-0.10546875 z m 0,0"
       style="fill:#000000;fill-opacity:1;fill-rule:nonzero;stroke:none"
       aria-label="komp"
       transform="matrix(1.3333333,0,0,1.3333333,76.557333,15.496)" />
    <path
       id="path6"
       d="m 59.51169,-14.17339 c 0,1.5564 -1.26169,2.81809 -2.81807,2.81809 -1.5564,0 -2.81809,-1.26169 -2.81809,-2.81809 0,-1.55639 1.26169,-2.81808 2.81809,-2.81808 1.55638,0 2.81807,1.26169 2.81807,2.81808 z"
       style="fill:none;stroke:#000000;stroke-width:1.39478;stroke-linecap:butt;stroke-linejoin:miter;stroke-miterlimit:10;stroke-dasharray:none;stroke-opacity:1"
       transform="matrix(1.3333333,0,0,-1.3333333,10.450667,63.816)" />
    <path
       id="path7"
       d="m 59.51169,-14.17339 c 0,1.5564 -1.26169,2.81809 -2.81807,2.81809 -1.5564,0 -2.81809,-1.26169 -2.81809,-2.81809 0,-1.55639 1.26169,-2.81808 2.81809,-2.81808 1.55638,0 2.81807,1.26169 2.81807,2.81808 z"
       style="fill:none;stroke:#ffffff;stroke-width:0.59776;stroke-linecap:butt;stroke-linejoin:miter;stroke-miterlimit:10;stroke-dasharray:none;stroke-opacity:1"
       transform="matrix(1.3333333,0,0,-1.3333333,10.450667,63.816)" />
    <path
       id="path8"
       d="m 5.9417656,-5.6705156 0.140625,-0.140625 c 0.3046875,-0.2929688 0.6328125,-0.6328125 1.3125,-0.6796875 0.1054688,-0.011719 0.1992188,-0.011719 0.1992188,-0.1875 0,-0.082031 -0.058594,-0.1289063 -0.1289063,-0.1289063 -0.2578125,0 -0.5507812,0.035156 -0.8203125,0.035156 -0.328125,0 -0.6796875,-0.035156 -0.9960937,-0.035156 -0.058594,0 -0.1875,0 -0.1875,0.1992188 0,0.1054687 0.09375,0.1171875 0.1523437,0.1171875 0.070312,0 0.3515625,0.011719 0.3515625,0.2226562 0,0.1757813 -0.2226562,0.4335938 -0.2695312,0.4804688 l -2.3085938,2.6601562 -1.0898437,-2.953125 c -0.070312,-0.140625 -0.070312,-0.1640625 -0.070312,-0.1757812 0,-0.234375 0.4921875,-0.234375 0.5976562,-0.234375 0.1289063,0 0.234375,0 0.234375,-0.1992188 0,-0.1171875 -0.1171875,-0.1171875 -0.1523437,-0.1171875 -0.28125,0 -0.9726563,0.035156 -1.2539063,0.035156 -0.2460937,0 -0.86718747,-0.035156 -1.11328122,-0.035156 -0.0585938,0 -0.1875,0 -0.1875,0.1992188 0,0.1171875 0.09375,0.1171875 0.22265625,0.1171875 0.59765627,0 0.64453127,0.082031 0.72656247,0.3398437 l 1.2304688,3.2695313 c 0.011719,0.035156 0.035156,0.140625 0.035156,0.1757812 0,0.023437 -0.3984375,1.6289063 -0.4453125,1.80468752 -0.1289062,0.55078125 -0.140625,0.5859375 -0.9375,0.59765625 -0.18749997,0 -0.26953122,0 -0.26953122,0.19921875 0,0.10546875 0.11718752,0.10546875 0.14062502,0.10546875 0.28125,0 0.9726562,-0.03515625 1.2539062,-0.03515625 0.28125,0 0.9960938,0.03515625 1.2773438,0.03515625 0.070312,0 0.1875,0 0.1875,-0.19921875 0,-0.10546875 -0.082031,-0.10546875 -0.28125,-0.10546875 -0.011719,0 -0.1992188,0 -0.375,-0.0234375 -0.2109375,-0.0234375 -0.2695313,-0.0351563 -0.2695313,-0.1640625 0,-0.0703125 0.09375,-0.41015625 0.140625,-0.62109377 l 0.3515625,-1.40625 c 0.046875,-0.1875 0.058594,-0.2226562 0.140625,-0.3046875 z m 0,0"
       style="fill:#000000;fill-opacity:1;fill-rule:nonzero;stroke:none"
       aria-label="Y"
       transform="matrix(1.3333333,0,0,1.3333333,94.757333,86.256)" />
    <path
       id="path9"
       d="m 1.8394063,-4.6303359 c 0.011719,-0.011719 0.023437,-0.1054688 0.023437,-0.1171875 0,-0.035156 -0.023437,-0.09375 -0.1054688,-0.09375 -0.140625,0 -0.7148437,0.058594 -0.890625,0.070312 -0.0585938,0.011719 -0.15234375,0.011719 -0.15234375,0.1640625 0,0.09375 0.09375,0.09375 0.17578125,0.09375 0.3398438,0 0.3398438,0.046875 0.3398438,0.1054687 0,0.046875 -0.070312,0.328125 -0.1171875,0.4921875 L 0.9605,-3.2826797 c -0.0703125,0.2460938 -0.45703125,1.7695313 -0.46875,1.8632813 -0.0351563,0.1640625 -0.0351563,0.2578125 -0.0351563,0.3398437 0,0.70312501 0.4453125,1.14843751 1.03125,1.14843751 0.8671875,0 1.7929688,-0.94921875 1.7929688,-1.98046871 0,-0.8203125 -0.5625,-1.1601563 -1.0429688,-1.1601563 -0.3632813,0 -0.6679688,0.1992188 -0.8789063,0.375 z m -0.3515625,4.49999996 c -0.3398438,0 -0.5273438,-0.29296875 -0.5273438,-0.703125 0,-0.25781246 0.0585938,-0.50390626 0.2578125,-1.28906246 0.035156,-0.1289063 0.035156,-0.140625 0.1640625,-0.2929688 0.2695313,-0.3164062 0.5859375,-0.46875 0.8320313,-0.46875 0.2695312,0 0.515625,0.2109375 0.515625,0.6796875 0,0.28125 -0.1523438,0.9960938 -0.3632813,1.40625001 -0.1757812,0.33984375 -0.515625,0.66796875 -0.8789062,0.66796875 z M 5.0620625,-1.5951797 c 0.1992188,0 0.75,-0.011719 1.125,-0.140625 0.515625,-0.1875 0.609375,-0.515625 0.609375,-0.7265625 0,-0.3867187 -0.375,-0.609375 -0.8554687,-0.609375 -0.84375,0 -1.96875,0.6328125 -1.96875,1.828125 0,0.70312501 0.4335937,1.31250001 1.2539062,1.31250001 1.1835938,0 1.734375,-0.69140625 1.734375,-0.78515625 0,-0.046875 -0.070312,-0.1171875 -0.1289062,-0.1171875 -0.035156,0 -0.046875,0.0117188 -0.1054688,0.0703125 -0.5507812,0.6328125 -1.359375,0.6328125 -1.4882812,0.6328125 -0.421875,0 -0.6914063,-0.28125 -0.6914063,-0.84375 0,-0.09375 0,-0.23437496 0.082031,-0.62109376 z m -0.375,-0.1875 c 0.28125,-1.0195312 1.0546875,-1.1015625 1.2539063,-1.1015625 0.3046875,0 0.5625,0.1523438 0.5625,0.421875 0,0.6796875 -1.1835938,0.6796875 -1.4765625,0.6796875 z m 6.2988285,-0.070312 c 0,-0.7734375 -0.574219,-1.21875 -1.2656254,-1.21875 -1.03125,0 -2.0039062,0.9609375 -2.0039062,1.921875 0,0.69140626 0.5039062,1.21875001 1.265625,1.21875001 0.9960937,0 2.0039066,-0.92578125 2.0039066,-1.92187501 z m -1.9921879,1.72265626 c -0.3515625,0 -0.703125,-0.22265625 -0.703125,-0.7734375 0,-0.28124996 0.140625,-0.96093746 0.4101563,-1.35937496 0.2929687,-0.4335938 0.703125,-0.6210938 1.0195312,-0.6210938 0.3750004,0 0.6914064,0.2578125 0.6914064,0.7734375 0,0.1757813 -0.08203,0.8554688 -0.386719,1.34765626 -0.2695311,0.41015625 -0.6796874,0.6328125 -1.0312499,0.6328125 z M 13.05718,-4.6303359 c 0.01172,-0.011719 0.02344,-0.1054688 0.02344,-0.1171875 0,-0.035156 -0.02344,-0.09375 -0.105469,-0.09375 -0.140625,0 -0.714843,0.058594 -0.890625,0.070312 -0.05859,0.011719 -0.152343,0.011719 -0.152343,0.1640625 0,0.09375 0.09375,0.09375 0.175781,0.09375 0.339844,0 0.339844,0.046875 0.339844,0.1054687 0,0.046875 -0.07031,0.328125 -0.117188,0.4921875 l -0.152344,0.6328125 c -0.07031,0.2460938 -0.457031,1.7695313 -0.46875,1.8632813 -0.03516,0.1640625 -0.03516,0.2578125 -0.03516,0.3398437 0,0.70312501 0.445313,1.14843751 1.03125,1.14843751 0.867188,0 1.792969,-0.94921875 1.792969,-1.98046871 0,-0.8203125 -0.5625,-1.1601563 -1.042969,-1.1601563 -0.363281,0 -0.667969,0.1992188 -0.878906,0.375 z m -0.351563,4.49999996 c -0.339844,0 -0.527344,-0.29296875 -0.527344,-0.703125 0,-0.25781246 0.05859,-0.50390626 0.257813,-1.28906246 0.03516,-0.1289063 0.03516,-0.140625 0.164062,-0.2929688 0.269532,-0.3164062 0.585938,-0.46875 0.832032,-0.46875 0.269531,0 0.515625,0.2109375 0.515625,0.6796875 0,0.28125 -0.152344,0.9960938 -0.363282,1.40625001 -0.175781,0.33984375 -0.515625,0.66796875 -0.878906,0.66796875 z m 0,0"
       style="fill:#000000;fill-opacity:1;fill-rule:nonzero;stroke:none"
       aria-label="beob"
       transform="matrix(1.3333333,0,0,1.3333333,102.46933,88.248)" />
    <path
       id="path10"
       d="m 59.51169,-56.69362 c 0,1.5564 -1.26169,2.81809 -2.81807,2.81809 -1.5564,0 -2.81809,-1.26169 -2.81809,-2.81809 0,-1.55638 1.26169,-2.81807 2.81809,-2.81807 1.55638,0 2.81807,1.26169 2.81807,2.81807 z"
       style="fill:#000000;fill-opacity:1;fill-rule:nonzero;stroke:none"
       transform="matrix(1.3333333,0,0,-1.3333333,10.450667,63.816)" />
    <path
       id="path11"
       d="m 3.7372656,-6.1167734 c 0.058594,-0.234375 0.082031,-0.3398438 0.28125,-0.3632813 0.082031,-0.011719 0.3984375,-0.011719 0.5976563,-0.011719 0.7148437,0 1.8164062,0 1.8164062,0.984375 0,0.3398437 -0.1523437,1.0195312 -0.5507812,1.4179687 -0.2578125,0.2578125 -0.7851563,0.5742188 -1.6757813,0.5742188 H 3.0927344 Z m 1.4296875,2.7304687 c 1.0078125,-0.2226562 2.1914063,-0.9140625 2.1914063,-1.921875 0,-0.8554687 -0.890625,-1.5 -2.203125,-1.5 H 2.3192969 c -0.1992188,0 -0.2929688,0 -0.2929688,0.1992188 0,0.1171875 0.09375,0.1171875 0.28125,0.1171875 0.023437,0 0.2109375,0 0.3867188,0.011719 0.1757812,0.023437 0.2578125,0.035156 0.2578125,0.1640625 0,0.035156 0,0.070312 -0.035156,0.1875 l -1.3359375,5.35546876 c -0.09375,0.38671875 -0.1171875,0.46875 -0.90234372,0.46875 -0.17578125,0 -0.26953125,0 -0.26953125,0.19921875 0,0.1054687525 0.1171875,0.1054687525 0.140625,0.1054687525 0.28125,0 0.97265627,-0.0351562525 1.25390627,-0.0351562525 0.28125,0 0.984375,0.0351562525 1.265625,0.0351562525 0.082031,0 0.1992187,0 0.1992187,-0.1992187525 0,-0.10546875 -0.09375,-0.10546875 -0.28125,-0.10546875 -0.3632812,0 -0.6445312,0 -0.6445312,-0.1875 0,-0.0585938 0.011719,-0.10546875 0.023437,-0.1640625 l 0.65625,-2.63671876 h 1.1953125 c 0.9023437,0 1.078125,0.5507813 1.078125,0.9023438 0,0.1523437 -0.082031,0.4570312 -0.140625,0.6914062 -0.070312,0.2695313 -0.1523438,0.6445313 -0.1523438,0.84375001 0,1.078125 1.1953125,1.078125 1.3242188,1.078125 0.84375,0 1.1953125,-1.0078125 1.1953125,-1.1484375 0,-0.11718751 -0.1171875,-0.11718751 -0.1171875,-0.11718751 -0.09375,0 -0.1171875,0.0703125 -0.1289063,0.14062501 -0.2578125,0.73828125 -0.6796875,0.9023437525 -0.9140625,0.9023437525 -0.328125,0 -0.3984375,-0.2226562525 -0.3984375,-0.6093750025 0,-0.3046875 0.058594,-0.82031246 0.1054688,-1.13671876 0.011719,-0.140625 0.035156,-0.328125 0.035156,-0.46875 0,-0.7617187 -0.6679687,-1.078125 -0.9374996,-1.1718753 z m 0,0"
       style="fill:#000000;fill-opacity:1;fill-rule:nonzero;stroke:none"
       aria-label="R"
       transform="matrix(1.3333333,0,0,1.3333333,80.946667,157.19867)" />
    <path
       id="path12"
       d="M 3.01733,28.3468 H 50.61237"
       style="fill:none;stroke:#000000;stroke-width:0.3985;stroke-linecap:butt;stroke-linejoin:miter;stroke-miterlimit:10;stroke-dasharray:none;stroke-opacity:1"
       transform="matrix(1.3333333,0,0,-1.3333333,10.450667,63.816)" />
    <path
       id="path13"
       d="M 4.21463,0 0.64343,1.34572 1.8178,0 0.64343,-1.34572 Z"
       style="fill:#000000;fill-opacity:1;fill-rule:nonzero;stroke:#000000;stroke-width:0.3985;stroke-linecap:butt;stroke-linejoin:miter;stroke-miterlimit:10;stroke-dasharray:none;stroke-opacity:1"
       transform="matrix(1.3333333,0,0,-1.3333333,75.642907,26.020267)" />
    <path
       id="path14"
       d="M 56.69362,25.32947 V -8.09215"
       style="fill:none;stroke:#000000;stroke-width:0.3985;stroke-linecap:butt;stroke-linejoin:miter;stroke-miterlimit:10;stroke-dasharray:none;stroke-opacity:1"
       transform="matrix(1.3333333,0,0,-1.3333333,10.450667,63.816)" />
    <path
       id="path15"
       d="M 4.21463,0 0.64343,1.34572 1.8178,0 0.64343,-1.34572 Z"
       style="fill:#000000;fill-opacity:1;fill-rule:nonzero;stroke:#000000;stroke-width:0.3985;stroke-linecap:butt;stroke-linejoin:miter;stroke-miterlimit:10;stroke-dasharray:none;stroke-opacity:1"
       transform="matrix(0,1.3333333,1.3333333,0,86.04216,72.3146)" />
    <path
       id="path16"
       d="m 56.69362,-53.67628 v 33.42164"
       style="fill:none;stroke:#000000;stroke-width:0.3985;stroke-linecap:butt;stroke-linejoin:miter;stroke-miterlimit:10;stroke-dasharray:none;stroke-opacity:1"
       transform="matrix(1.3333333,0,0,-1.3333333,10.450667,63.816)" />
    <path
       id="path17"
       d="M 4.21463,0 0.64343,1.34572 1.8178,0 0.64343,-1.34572 Z"
       style="fill:#000000;fill-opacity:1;fill-rule:nonzero;stroke:#000000;stroke-width:0.3985;stroke-linecap:butt;stroke-linejoin:miter;stroke-miterlimit:10;stroke-dasharray:none;stroke-opacity:1"
       transform="matrix(0,-1.3333333,-1.3333333,0,86.04216,93.113093)" />
    <path
       id="path18"
       d="M 59.30666,26.8382 C 87.00803,10.8449 87.00803,-39.19171 61.96004,-53.65309"
       style="fill:none;stroke:#000000;stroke-width:0.3985;stroke-linecap:butt;stroke-linejoin:miter;stroke-miterlimit:10;stroke-dasharray:none;stroke-opacity:1"
       transform="matrix(1.3333333,0,0,-1.3333333,10.450667,63.816)" />
    <path
       id="path19"
       d="M 4.21463,0 0.64343,1.34572 1.8178,0 0.64343,-1.34572 Z"
       style="fill:#000000;fill-opacity:1;fill-rule:nonzero;stroke:#000000;stroke-width:0.3985;stroke-linecap:butt;stroke-linejoin:miter;stroke-miterlimit:10;stroke-dasharray:none;stroke-opacity:1"
       transform="matrix(-1.15468,0.66664,0.66664,1.15468,95.048,134.20805)" />
    <path
       id="path20"
       d="m 144.55219,28.3468 c 0,1.5564 -1.26169,2.81809 -2.81809,2.81809 -1.5564,0 -2.81808,-1.26169 -2.81808,-2.81809 0,-1.5564 1.26168,-2.81808 2.81808,-2.81808 1.5564,0 2.81809,1.26168 2.81809,2.81808 z"
       style="fill:#000000;fill-opacity:1;fill-rule:nonzero;stroke:none"
       transform="matrix(1.3333333,0,0,-1.3333333,10.450667,63.816)" />
    <path
       id="path21"
       d="M 4.8268828,-4.0893281 3.9948516,-6.0815156 c -0.035156,-0.070312 -0.046875,-0.1171875 -0.046875,-0.1289063 0,-0.058594 0.1640625,-0.2460937 0.5859375,-0.28125 0.09375,-0.011719 0.1992187,-0.023437 0.1992187,-0.1875 0,-0.1289062 -0.1171875,-0.1289062 -0.1523437,-0.1289062 -0.4101563,0 -0.8320313,0.035156 -1.2539063,0.035156 -0.2460937,0 -0.8671875,-0.035156 -1.1132812,-0.035156 -0.058594,0 -0.1875,0 -0.1875,0.1992187 0,0.1171875 0.1054687,0.1171875 0.234375,0.1171875 0.5976562,0 0.65625,0.09375 0.75,0.3164063 l 1.171875,2.7773437 -2.0976563,2.2617188 -0.1289062,0.1054687 c -0.4921875,0.52734377 -0.96093754,0.69140627 -1.46484379,0.72656252 -0.12890625,0 -0.22265625,0 -0.22265625,0.19921875 0,0 0,0.105468755 0.12890625,0.105468755 0.3046875,0 0.63281249,-0.035156255 0.93749999,-0.035156255 0.3632813,0 0.7617188,0.035156255 1.1132813,0.035156255 0.058594,0 0.1757812,0 0.1757812,-0.199218755 0,-0.10546875 -0.09375,-0.10546875 -0.1171875,-0.10546875 -0.082031,-0.0117188 -0.3984375,-0.0351563 -0.3984375,-0.31640625 0,-0.15234375 0.1523438,-0.31640625 0.2695313,-0.44531247 l 1.0195312,-1.078125 0.890625,-0.9726563 1.0078125,2.37890627 c 0.046875,0.10546875 0.046875,0.1171875 0.046875,0.140625 0,0.0820313 -0.1875,0.24609375 -0.5742187,0.29296875 -0.1054688,0 -0.1992188,0.0117188 -0.1992188,0.1875 0,0.117187505 0.1171875,0.117187505 0.1523438,0.117187505 0.28125,0 0.9726562,-0.035156255 1.2539062,-0.035156255 0.2460938,0 0.8554688,0.035156255 1.1015625,0.035156255 0.070312,0 0.1992188,0 0.1992188,-0.187500005 0,-0.1171875 -0.1054688,-0.1171875 -0.1875,-0.1171875 -0.6679688,-0.0117188 -0.6796875,-0.046875 -0.8554688,-0.4453125 C 5.8464141,-1.6752656 5.1784453,-3.2221406 4.9440703,-3.8197969 c 0.6796875,-0.703125 1.734375,-1.8867187 2.0507813,-2.1679687 0.28125,-0.234375 0.6679687,-0.4804688 1.265625,-0.5039063 0.1289062,-0.011719 0.2109375,-0.011719 0.2109375,-0.1992187 0,-0.011719 0,-0.1171875 -0.1289063,-0.1171875 -0.2929687,0 -0.6210937,0.035156 -0.9375,0.035156 -0.3632812,0 -0.7382812,-0.035156 -1.1015625,-0.035156 -0.058594,0 -0.1875,0 -0.1875,0.1992187 0,0.070312 0.046875,0.1054688 0.1171875,0.1171875 0.09375,0.011719 0.3984375,0.023437 0.3984375,0.3046875 0,0.140625 -0.1054687,0.2695313 -0.1875,0.3632813 z m 0,0"
       style="fill:#000000;fill-opacity:1;fill-rule:nonzero;stroke:none"
       aria-label="X"
       transform="matrix(1.3333333,0,0,1.3333333,193.404,17.304)" />
    <path
       id="path22"
       d="m 201.2458,28.3468 c 0,1.5564 -1.26168,2.81809 -2.81808,2.81809 -1.5564,0 -2.81809,-1.26169 -2.81809,-2.81809 0,-1.5564 1.26169,-2.81808 2.81809,-2.81808 1.5564,0 2.81808,1.26168 2.81808,2.81808 z"
       style="fill:none;stroke:#000000;stroke-width:0.3985;stroke-linecap:butt;stroke-linejoin:miter;stroke-miterlimit:10;stroke-dasharray:none;stroke-opacity:1"
       transform="matrix(1.3333333,0,0,-1.3333333,10.450667,63.816)" />
    <path
       id="path23"
       d="m 5.9406406,-5.6719453 0.140625,-0.140625 c 0.3046875,-0.2929688 0.6328125,-0.6328125 1.3125,-0.6796875 0.1054688,-0.011719 0.1992188,-0.011719 0.1992188,-0.1875 0,-0.082031 -0.058594,-0.1289063 -0.1289063,-0.1289063 -0.2578125,0 -0.5507812,0.035156 -0.8203125,0.035156 -0.328125,0 -0.6796875,-0.035156 -0.9960937,-0.035156 -0.058594,0 -0.1875,0 -0.1875,0.1992188 0,0.1054687 0.09375,0.1171875 0.1523437,0.1171875 0.070312,0 0.3515625,0.011719 0.3515625,0.2226562 0,0.1757813 -0.2226562,0.4335938 -0.2695312,0.4804688 l -2.3085938,2.6601562 -1.0898437,-2.953125 c -0.070312,-0.140625 -0.070312,-0.1640625 -0.070312,-0.1757812 0,-0.234375 0.4921875,-0.234375 0.5976562,-0.234375 0.1289063,0 0.234375,0 0.234375,-0.1992188 0,-0.1171875 -0.1171875,-0.1171875 -0.1523437,-0.1171875 -0.28125,0 -0.9726563,0.035156 -1.2539063,0.035156 -0.2460937,0 -0.86718748,-0.035156 -1.11328123,-0.035156 -0.0585938,0 -0.1875,0 -0.1875,0.1992188 0,0.1171875 0.09375,0.1171875 0.22265625,0.1171875 0.59765628,0 0.64453128,0.082031 0.72656248,0.3398437 l 1.2304688,3.2695313 c 0.011719,0.035156 0.035156,0.140625 0.035156,0.1757812 0,0.023437 -0.3984375,1.6289063 -0.4453125,1.80468754 -0.1289062,0.55078125 -0.140625,0.5859375 -0.9375,0.59765625 -0.18749998,0 -0.26953123,0 -0.26953123,0.19921875 0,0.1054687475 0.11718753,0.1054687475 0.14062503,0.1054687475 0.28125,0 0.9726562,-0.0351562475 1.2539062,-0.0351562475 0.28125,0 0.9960938,0.0351562475 1.2773438,0.0351562475 0.070312,0 0.1875,0 0.1875,-0.1992187475 0,-0.10546875 -0.082031,-0.10546875 -0.28125,-0.10546875 -0.011719,0 -0.1992188,0 -0.375,-0.0234375 -0.2109375,-0.0234375 -0.2695313,-0.0351563 -0.2695313,-0.1640625 0,-0.0703125 0.09375,-0.41015625 0.140625,-0.62109379 l 0.3515625,-1.40625 c 0.046875,-0.1875 0.058594,-0.2226562 0.140625,-0.3046875 z m 0,0"
       style="fill:#000000;fill-opacity:1;fill-rule:nonzero;stroke:none"
       aria-label="Y"
       transform="matrix(1.3333333,0,0,1.3333333,257.82133,13.504)" />
    <path
       id="path24"
       d="m 2.1810547,-4.6288359 c 0.011719,-0.011719 0.035156,-0.1054688 0.035156,-0.1171875 0,-0.035156 -0.035156,-0.09375 -0.1171875,-0.09375 -0.140625,0 -0.7148437,0.058594 -0.890625,0.070312 -0.058594,0.011719 -0.1523437,0.011719 -0.1523437,0.1640625 0,0.09375 0.09375,0.09375 0.1757812,0.09375 0.3398438,0 0.3398438,0.046875 0.3398438,0.1054687 0,0.046875 -0.011719,0.09375 -0.035156,0.1523438 l -0.97265621,3.94921871 c -0.0351563,0.12890625 -0.0351563,0.140625 -0.0351563,0.15234375 0,0.10546875 0.0820313,0.22265625 0.234375,0.22265625 0.1875,0 0.28124991,-0.140625 0.31640621,-0.29296875 0.011719,-0.0234375 0.3164062,-1.25390626 0.3398437,-1.34765626 0.5039063,0.046875 0.9023439,0.1992188 0.9023439,0.5625 0,0.0351563 0,0.0703125 -0.023437,0.14062501 -0.023437,0.10546875 -0.023437,0.140625 -0.023437,0.22265625 0,0.4921875 0.3984375,0.71484375 0.7382812,0.71484375 0.6796875,0 0.890625,-1.0546875 0.890625,-1.06640625 0,-0.09375 -0.09375,-0.09375 -0.1171875,-0.09375 -0.09375,0 -0.1054687,0.035156 -0.140625,0.16406242 -0.082031,0.3046875 -0.2695312,0.796875 -0.609375,0.796875 -0.1875,0 -0.2460937,-0.17578125 -0.2460937,-0.36328125 0,-0.1171875 0,-0.12890625 0.046875,-0.3046875 0,-0.0234375 0.035156,-0.140625 0.035156,-0.22265617 0,-0.6210938 -0.84375,-0.7148438 -1.1367187,-0.7382813 0.1992187,-0.1289062 0.4570312,-0.3515625 0.5859375,-0.4570312 0.3515625,-0.3398438 0.703125,-0.6679688 1.0898437,-0.6679688 0.082031,0 0.1757813,0.023437 0.234375,0.09375 -0.3046875,0.046875 -0.3632812,0.28125 -0.3632812,0.3867188 0,0.1523437 0.1171875,0.2578125 0.2695312,0.2578125 0.1992188,0 0.3984375,-0.1523438 0.3984375,-0.4453125 0,-0.2226563 -0.1640625,-0.4804688 -0.5273437,-0.4804688 -0.3984375,0 -0.7617188,0.28125 -1.125,0.609375 -0.2929688,0.28125 -0.515625,0.4921875 -0.8085938,0.609375 z m 5.9238281,2.7773437 c 0,-0.7734375 -0.5742187,-1.21875 -1.265625,-1.21875 -1.03125,0 -2.0039062,0.9609375 -2.0039062,1.921875 0,0.69140626 0.5039062,1.21875001 1.265625,1.21875001 0.9960937,0 2.0039062,-0.92578125 2.0039062,-1.92187501 z m -1.9921875,1.72265626 c -0.3515625,0 -0.703125,-0.22265625 -0.703125,-0.7734375 0,-0.28124996 0.140625,-0.96093746 0.4101563,-1.35937496 0.2929687,-0.4335938 0.703125,-0.6210938 1.0195312,-0.6210938 0.375,0 0.6914063,0.2578125 0.6914063,0.7734375 0,0.1757813 -0.082031,0.8554688 -0.3867188,1.34765626 -0.2695312,0.41015625 -0.6796875,0.6328125 -1.03125,0.6328125 z m 5.2470707,-0.43359375 c -0.03516,0.140625 -0.09375,0.375 -0.09375,0.41015625 0,0.1523437525 0.128906,0.22265625 0.234375,0.22265625 0.128906,0 0.234375,-0.09375 0.269531,-0.15234375 0.03516,-0.05859375 0.09375,-0.29296875 0.128906,-0.43359375 0.03516,-0.12890625 0.117188,-0.45703125 0.152344,-0.63281251 0.04687,-0.1523437 0.08203,-0.3046875 0.117187,-0.4570312 0.08203,-0.3046875 0.08203,-0.3164063 0.222657,-0.5390625 0.222656,-0.3398438 0.5625,-0.7382813 1.113281,-0.7382813 0.386719,0 0.410156,0.328125 0.410156,0.4921875 0,0.421875 -0.304687,1.1953125 -0.410156,1.48828126 -0.08203,0.1875 -0.105469,0.2578125 -0.105469,0.375 0,0.36328125 0.304688,0.59765625 0.65625,0.59765625 0.703125,0 1.007813,-0.9609375 1.007813,-1.06640625 0,-0.09375 -0.09375,-0.09375 -0.105469,-0.09375 -0.105469,0 -0.105469,0.046875 -0.140625,0.11718742 -0.152344,0.5625 -0.457031,0.84375 -0.738281,0.84375 -0.140625,0 -0.175782,-0.09375 -0.175782,-0.24609375 0,-0.15234375 0.03516,-0.24609375 0.164063,-0.5625 0.08203,-0.21093747 0.375,-0.94921867 0.375,-1.34765617 0,-0.1054688 0,-0.3984375 -0.257813,-0.5976563 -0.128906,-0.09375 -0.328125,-0.1875 -0.65625,-0.1875 -0.621093,0 -1.007812,0.4101563 -1.230468,0.703125 -0.05859,-0.5976562 -0.550782,-0.703125 -0.902344,-0.703125 -0.585938,0 -0.972656,0.3515625 -1.183594,0.6328125 -0.04687,-0.4804687 -0.4570311,-0.6328125 -0.7499999,-0.6328125 -0.2929687,0 -0.4570312,0.2109375 -0.5507812,0.375 -0.1523438,0.2578125 -0.2460938,0.65625 -0.2460938,0.6914063 0,0.082031 0.09375,0.082031 0.1171875,0.082031 0.09375,0 0.1054688,-0.011719 0.1523438,-0.1992187 0.1054687,-0.421875 0.234375,-0.7617188 0.515625,-0.7617188 0.1757812,0 0.2226562,0.1523438 0.2226562,0.3398438 0,0.140625 -0.058594,0.3984375 -0.1054687,0.5859375 -0.046875,0.1875 -0.1171875,0.46875 -0.1523438,0.6210937 l -0.2226562,0.90234372 c -0.035156,0.0820313 -0.070312,0.2578125 -0.070312,0.28125 0,0.1523437525 0.1171875,0.22265625 0.234375,0.22265625 0.1289062,0 0.234375,-0.09375 0.2695312,-0.15234375 0.035156,-0.05859375 0.09375,-0.29296875 0.1289063,-0.43359375 0.035156,-0.12890625 0.1054687,-0.45703125 0.1523437,-0.63281247 0.035156,-0.1523437 0.082031,-0.3046875 0.1171879,-0.4570312 0.08203,-0.2929688 0.09375,-0.3515625 0.292969,-0.6328125 0.199219,-0.28125 0.527344,-0.6445313 1.042969,-0.6445313 0.410156,0 0.410156,0.3632813 0.410156,0.4921875 0,0.1757813 -0.01172,0.2695313 -0.117188,0.65625 z m 4.573242,1.41796875 c -0.05859,0.18750004 -0.07031,0.24609374 -0.351563,0.24609374 -0.08203,0 -0.1875,0 -0.1875,0.1523438 0,0.070312 0.07031,0.09375 0.105469,0.09375 0.175781,0 0.410156,-0.023437 0.597656,-0.023437 0.234375,0 0.503907,0.023437 0.726563,0.023437 0.07031,0 0.140625,-0.011719 0.140625,-0.1523438 0,-0.09375 -0.09375,-0.09375 -0.175781,-0.09375 -0.152344,0 -0.339844,0 -0.339844,-0.082031 0,-0.0351563 0.04687,-0.22265629 0.07031,-0.31640629 0.08203,-0.375 0.1875,-0.75 0.257813,-1.04296875 0.08203,0.140625 0.304687,0.41015625 0.726562,0.41015625 0.84375,0 1.78125,-0.9375 1.78125,-1.98046871 0,-0.8203125 -0.5625,-1.1601563 -1.042968,-1.1601563 -0.433594,0 -0.796875,0.2929688 -0.984375,0.4804688 -0.117188,-0.3984375 -0.515625,-0.4804688 -0.726563,-0.4804688 -0.269531,0 -0.433594,0.1757813 -0.550781,0.3632813 -0.140625,0.234375 -0.246094,0.65625 -0.246094,0.703125 0,0.082031 0.09375,0.082031 0.117188,0.082031 0.09375,0 0.105468,-0.011719 0.152343,-0.1992187 0.105469,-0.4101563 0.234375,-0.7617188 0.515625,-0.7617188 0.175782,0 0.222657,0.1523438 0.222657,0.3398438 0,0.082031 -0.01172,0.1757812 -0.02344,0.2109375 z m 1.3125,-3.09374996 c 0.410156,-0.5390625 0.75,-0.6445313 0.972656,-0.6445313 0.28125,0 0.515625,0.2109375 0.515625,0.6796875 0,0.28125 -0.152344,0.9960938 -0.363281,1.40625001 -0.175781,0.33984375 -0.515625,0.66796875 -0.867188,0.66796875 -0.503906,0 -0.621093,-0.5390625 -0.621093,-0.59765625 0,-0.0351563 0.01172,-0.0820313 0.01172,-0.10546875 z m 0,0"
       style="fill:#000000;fill-opacity:1;fill-rule:nonzero;stroke:none"
       aria-label="komp"
       transform="matrix(1.3333333,0,0,1.3333333,265.53333,15.496)" />
    <path
       id="path25"
       d="m 201.2458,-14.17339 c 0,1.5564 -1.26168,2.81809 -2.81808,2.81809 -1.5564,0 -2.81809,-1.26169 -2.81809,-2.81809 0,-1.55639 1.26169,-2.81808 2.81809,-2.81808 1.5564,0 2.81808,1.26169 2.81808,2.81808 z"
       style="fill:none;stroke:#000000;stroke-width:1.39478;stroke-linecap:butt;stroke-linejoin:miter;stroke-miterlimit:10;stroke-dasharray:none;stroke-opacity:1"
       transform="matrix(1.3333333,0,0,-1.3333333,10.450667,63.816)" />
    <path
       id="path26"
       d="m 201.2458,-14.17339 c 0,1.5564 -1.26168,2.81809 -2.81808,2.81809 -1.5564,0 -2.81809,-1.26169 -2.81809,-2.81809 0,-1.55639 1.26169,-2.81808 2.81809,-2.81808 1.5564,0 2.81808,1.26169 2.81808,2.81808 z"
       style="fill:none;stroke:#ffffff;stroke-width:0.59776;stroke-linecap:butt;stroke-linejoin:miter;stroke-miterlimit:10;stroke-dasharray:none;stroke-opacity:1"
       transform="matrix(1.3333333,0,0,-1.3333333,10.450667,63.816)" />
    <path
       id="path27"
       d="m 5.9411875,-5.6705156 0.140625,-0.140625 c 0.3046875,-0.2929688 0.6328125,-0.6328125 1.3125,-0.6796875 0.1054688,-0.011719 0.1992188,-0.011719 0.1992188,-0.1875 0,-0.082031 -0.058594,-0.1289063 -0.1289063,-0.1289063 -0.2578125,0 -0.5507812,0.035156 -0.8203125,0.035156 -0.328125,0 -0.6796875,-0.035156 -0.9960937,-0.035156 -0.058594,0 -0.1875,0 -0.1875,0.1992188 0,0.1054687 0.09375,0.1171875 0.1523437,0.1171875 0.070312,0 0.3515625,0.011719 0.3515625,0.2226562 0,0.1757813 -0.2226562,0.4335938 -0.2695312,0.4804688 L 3.3865,-3.1275469 2.2966563,-6.0806719 c -0.070312,-0.140625 -0.070312,-0.1640625 -0.070312,-0.1757812 0,-0.234375 0.4921875,-0.234375 0.5976562,-0.234375 0.1289063,0 0.234375,0 0.234375,-0.1992188 0,-0.1171875 -0.1171875,-0.1171875 -0.1523437,-0.1171875 -0.28125,0 -0.9726563,0.035156 -1.2539063,0.035156 -0.2460937,0 -0.8671875,-0.035156 -1.11328125,-0.035156 -0.0585937,0 -0.1875,0 -0.1875,0.1992188 0,0.1171875 0.09375,0.1171875 0.22265625,0.1171875 0.5976563,0 0.6445313,0.082031 0.7265625,0.3398437 l 1.2304688,3.2695313 c 0.011719,0.035156 0.035156,0.140625 0.035156,0.1757812 0,0.023437 -0.3984375,1.6289063 -0.4453125,1.80468752 -0.1289062,0.55078125 -0.140625,0.5859375 -0.9375,0.59765625 -0.1875,0 -0.26953125,0 -0.26953125,0.19921875 0,0.10546875 0.11718755,0.10546875 0.14062505,0.10546875 0.28125,0 0.9726562,-0.03515625 1.2539062,-0.03515625 0.28125,0 0.9960938,0.03515625 1.2773438,0.03515625 0.070312,0 0.1875,0 0.1875,-0.19921875 0,-0.10546875 -0.082031,-0.10546875 -0.28125,-0.10546875 -0.011719,0 -0.1992188,0 -0.375,-0.0234375 -0.2109375,-0.0234375 -0.2695313,-0.0351563 -0.2695313,-0.1640625 0,-0.0703125 0.09375,-0.41015625 0.140625,-0.62109377 l 0.3515625,-1.40625 c 0.046875,-0.1875 0.058594,-0.2226562 0.140625,-0.3046875 z m 0,0"
       style="fill:#000000;fill-opacity:1;fill-rule:nonzero;stroke:none"
       aria-label="Y"
       transform="matrix(1.3333333,0,0,1.3333333,283.73467,86.256)" />
    <path
       id="path28"
       d="m 1.8398281,-4.6303359 c 0.011719,-0.011719 0.023437,-0.1054688 0.023437,-0.1171875 0,-0.035156 -0.023437,-0.09375 -0.1054687,-0.09375 -0.140625,0 -0.7148438,0.058594 -0.89062503,0.070312 -0.0585938,0.011719 -0.15234375,0.011719 -0.15234375,0.1640625 0,0.09375 0.09375,0.09375 0.17578125,0.09375 0.33984373,0 0.33984373,0.046875 0.33984373,0.1054687 0,0.046875 -0.070312,0.328125 -0.1171875,0.4921875 l -0.15234373,0.6328125 c -0.0703125,0.2460938 -0.45703125,1.7695313 -0.46875,1.8632813 -0.0351563,0.1640625 -0.0351563,0.2578125 -0.0351563,0.3398437 0,0.70312501 0.4453125,1.14843751 1.03124993,1.14843751 0.8671876,0 1.7929688,-0.94921875 1.7929688,-1.98046871 0,-0.8203125 -0.5625,-1.1601563 -1.0429687,-1.1601563 -0.3632813,0 -0.6679688,0.1992188 -0.8789063,0.375 z m -0.3515625,4.49999996 c -0.3398437,0 -0.52734373,-0.29296875 -0.52734373,-0.703125 0,-0.25781246 0.0585937,-0.50390626 0.25781253,-1.28906246 0.035156,-0.1289063 0.035156,-0.140625 0.1640625,-0.2929688 0.2695312,-0.3164062 0.5859375,-0.46875 0.8320312,-0.46875 0.2695313,0 0.515625,0.2109375 0.515625,0.6796875 0,0.28125 -0.1523437,0.9960938 -0.3632812,1.40625001 -0.1757813,0.33984375 -0.515625,0.66796875 -0.8789063,0.66796875 z M 5.0624844,-1.5951797 c 0.1992187,0 0.75,-0.011719 1.125,-0.140625 0.515625,-0.1875 0.609375,-0.515625 0.609375,-0.7265625 0,-0.3867187 -0.375,-0.609375 -0.8554688,-0.609375 -0.84375,0 -1.96875,0.6328125 -1.96875,1.828125 0,0.70312501 0.4335938,1.31250001 1.2539063,1.31250001 1.1835937,0 1.734375,-0.69140625 1.734375,-0.78515625 0,-0.046875 -0.070312,-0.1171875 -0.1289063,-0.1171875 -0.035156,0 -0.046875,0.0117188 -0.1054687,0.0703125 -0.5507813,0.6328125 -1.359375,0.6328125 -1.4882813,0.6328125 -0.421875,0 -0.6914062,-0.28125 -0.6914062,-0.84375 0,-0.09375 0,-0.23437496 0.082031,-0.62109376 z m -0.375,-0.1875 c 0.28125,-1.0195312 1.0546875,-1.1015625 1.2539062,-1.1015625 0.3046875,0 0.5625,0.1523438 0.5625,0.421875 0,0.6796875 -1.1835937,0.6796875 -1.4765625,0.6796875 z m 6.2988276,-0.070312 c 0,-0.7734375 -0.574218,-1.21875 -1.2656245,-1.21875 -1.03125,0 -2.0039063,0.9609375 -2.0039063,1.921875 0,0.69140626 0.5039063,1.21875001 1.265625,1.21875001 0.9960938,0 2.0039058,-0.92578125 2.0039058,-1.92187501 z m -1.992187,1.72265626 c -0.3515625,0 -0.703125,-0.22265625 -0.703125,-0.7734375 0,-0.28124996 0.140625,-0.96093746 0.4101562,-1.35937496 0.2929688,-0.4335938 0.703125,-0.6210938 1.0195313,-0.6210938 0.3749995,0 0.6914065,0.2578125 0.6914065,0.7734375 0,0.1757813 -0.08203,0.8554688 -0.386719,1.34765626 -0.2695313,0.41015625 -0.6796875,0.6328125 -1.03125,0.6328125 z m 4.060547,-4.49999996 c 0.01172,-0.011719 0.02344,-0.1054688 0.02344,-0.1171875 0,-0.035156 -0.02344,-0.09375 -0.105468,-0.09375 -0.140625,0 -0.714844,0.058594 -0.890625,0.070312 -0.05859,0.011719 -0.152344,0.011719 -0.152344,0.1640625 0,0.09375 0.09375,0.09375 0.175781,0.09375 0.339844,0 0.339844,0.046875 0.339844,0.1054687 0,0.046875 -0.07031,0.328125 -0.117188,0.4921875 l -0.152343,0.6328125 c -0.07031,0.2460938 -0.457032,1.7695313 -0.46875,1.8632813 -0.03516,0.1640625 -0.03516,0.2578125 -0.03516,0.3398437 0,0.70312501 0.445313,1.14843751 1.03125,1.14843751 0.867188,0 1.792969,-0.94921875 1.792969,-1.98046871 0,-0.8203125 -0.5625,-1.1601563 -1.042969,-1.1601563 -0.363281,0 -0.667968,0.1992188 -0.878906,0.375 z m -0.351563,4.49999996 c -0.339843,0 -0.527343,-0.29296875 -0.527343,-0.703125 0,-0.25781246 0.05859,-0.50390626 0.257812,-1.28906246 0.03516,-0.1289063 0.03516,-0.140625 0.164063,-0.2929688 0.269531,-0.3164062 0.585937,-0.46875 0.832031,-0.46875 0.269531,0 0.515625,0.2109375 0.515625,0.6796875 0,0.28125 -0.152344,0.9960938 -0.363281,1.40625001 -0.175782,0.33984375 -0.515625,0.66796875 -0.878907,0.66796875 z m 0,0"
       style="fill:#000000;fill-opacity:1;fill-rule:nonzero;stroke:none"
       aria-label="beob"
       transform="matrix(1.3333333,0,0,1.3333333,291.44533,88.248)" />
    <path
       id="path29"
       d="m 201.2458,-56.69362 c 0,1.5564 -1.26168,2.81809 -2.81808,2.81809 -1.5564,0 -2.81809,-1.26169 -2.81809,-2.81809 0,-1.55638 1.26169,-2.81807 2.81809,-2.81807 1.5564,0 2.81808,1.26169 2.81808,2.81807 z"
       style="fill:#000000;fill-opacity:1;fill-rule:nonzero;stroke:none"
       transform="matrix(1.3333333,0,0,-1.3333333,10.450667,63.816)" />
    <path
       id="path30"
       d="m 3.7396172,-6.1167734 c 0.058594,-0.234375 0.082031,-0.3398438 0.28125,-0.3632813 0.082031,-0.011719 0.3984375,-0.011719 0.5976562,-0.011719 0.7148438,0 1.8164063,0 1.8164063,0.984375 0,0.3398437 -0.1523438,1.0195312 -0.5507813,1.4179687 -0.2578125,0.2578125 -0.7851562,0.5742188 -1.6757812,0.5742188 H 3.0950859 Z m 1.4296875,2.7304687 c 1.0078125,-0.2226562 2.1914062,-0.9140625 2.1914062,-1.921875 0,-0.8554687 -0.890625,-1.5 -2.203125,-1.5 H 2.3216484 c -0.1992187,0 -0.2929687,0 -0.2929687,0.1992188 0,0.1171875 0.09375,0.1171875 0.28125,0.1171875 0.023437,0 0.2109375,0 0.3867187,0.011719 0.1757813,0.023437 0.2578125,0.035156 0.2578125,0.1640625 0,0.035156 0,0.070312 -0.035156,0.1875 l -1.3359375,5.35546876 c -0.09375,0.38671875 -0.1171875,0.46875 -0.90234376,0.46875 -0.17578125,0 -0.26953125,0 -0.26953125,0.19921875 0,0.1054687525 0.1171875,0.1054687525 0.140625,0.1054687525 0.28125,0 0.97265621,-0.0351562525 1.25390621,-0.0351562525 0.28125,0 0.984375,0.0351562525 1.265625,0.0351562525 0.082031,0 0.1992188,0 0.1992188,-0.1992187525 0,-0.10546875 -0.09375,-0.10546875 -0.28125,-0.10546875 -0.3632813,0 -0.6445313,0 -0.6445313,-0.1875 0,-0.0585938 0.011719,-0.10546875 0.023437,-0.1640625 l 0.65625,-2.63671876 h 1.1953125 c 0.9023438,0 1.078125,0.5507813 1.078125,0.9023438 0,0.1523437 -0.082031,0.4570312 -0.140625,0.6914062 -0.070312,0.2695313 -0.1523437,0.6445313 -0.1523437,0.84375001 0,1.078125 1.1953125,1.078125 1.3242187,1.078125 0.84375,0 1.1953125,-1.0078125 1.1953125,-1.1484375 0,-0.11718751 -0.1171875,-0.11718751 -0.1171875,-0.11718751 -0.09375,0 -0.1171875,0.0703125 -0.1289062,0.14062501 -0.2578125,0.73828125 -0.6796875,0.9023437525 -0.9140625,0.9023437525 -0.328125,0 -0.3984375,-0.2226562525 -0.3984375,-0.6093750025 0,-0.3046875 0.058594,-0.82031246 0.1054687,-1.13671876 0.011719,-0.140625 0.035156,-0.328125 0.035156,-0.46875 0,-0.7617187 -0.6679688,-1.078125 -0.9374994,-1.1718753 z m 0,0"
       style="fill:#000000;fill-opacity:1;fill-rule:nonzero;stroke:none"
       aria-label="R"
       transform="matrix(1.3333333,0,0,1.3333333,269.924,157.19867)" />
    <path
       id="path31"
       d="M 141.7341,0 V 3.0639"
       style="fill:none;stroke:#000000;stroke-width:0.3985;stroke-linecap:butt;stroke-linejoin:miter;stroke-miterlimit:10;stroke-dasharray:none;stroke-opacity:1"
       transform="matrix(1.3333333,0,0,-1.3333333,10.450667,63.816)" />
    <path
       id="path32"
       d="M 4.21463,0 0.64343,1.34572 1.8178,0 0.64343,-1.34572 Z"
       style="fill:#000000;fill-opacity:1;fill-rule:nonzero;stroke:#000000;stroke-width:0.3985;stroke-linecap:butt;stroke-linejoin:miter;stroke-miterlimit:10;stroke-dasharray:none;stroke-opacity:1"
       transform="matrix(0,-1.3333333,-1.3333333,0,199.42947,70.19212)" />
    <path
       id="path33"
       d="M 141.7341,0 V 3.0639"
       style="fill:none;stroke:#000000;stroke-width:0.3985;stroke-linecap:butt;stroke-linejoin:miter;stroke-miterlimit:10;stroke-dasharray:none;stroke-opacity:1"
       transform="matrix(1.3333333,0,0,-1.3333333,10.450667,63.816)" />
    <path
       id="path34"
       d="M 4.21463,0 0.64343,1.34572 1.8178,0 0.64343,-1.34572 Z"
       style="fill:#000000;fill-opacity:1;fill-rule:nonzero;stroke:#000000;stroke-width:0.3985;stroke-linecap:butt;stroke-linejoin:miter;stroke-miterlimit:10;stroke-dasharray:none;stroke-opacity:1"
       transform="matrix(0,-1.3333333,-1.3333333,0,199.42947,70.19212)" />
    <path
       id="path35"
       d="M 141.7341,0 V 3.0639"
       style="fill:none;stroke:#000000;stroke-width:0.3985;stroke-linecap:butt;stroke-linejoin:miter;stroke-miterlimit:10;stroke-dasharray:none;stroke-opacity:1"
       transform="matrix(1.3333333,0,0,-1.3333333,10.450667,63.816)" />
    <path
       id="path36"
       d="M 4.21463,0 0.64343,1.34572 1.8178,0 0.64343,-1.34572 Z"
       style="fill:#000000;fill-opacity:1;fill-rule:nonzero;stroke:#000000;stroke-width:0.3985;stroke-linecap:butt;stroke-linejoin:miter;stroke-miterlimit:10;stroke-dasharray:none;stroke-opacity:1"
       transform="matrix(0,-1.3333333,-1.3333333,0,199.42947,70.19212)" />
    <path
       id="path37"
       d="M 141.7341,0 V 3.0639"
       style="fill:none;stroke:#000000;stroke-width:0.3985;stroke-linecap:butt;stroke-linejoin:miter;stroke-miterlimit:10;stroke-dasharray:none;stroke-opacity:1"
       transform="matrix(1.3333333,0,0,-1.3333333,10.450667,63.816)" />
    <path
       id="path38"
       d="M 4.21463,0 0.64343,1.34572 1.8178,0 0.64343,-1.34572 Z"
       style="fill:#000000;fill-opacity:1;fill-rule:nonzero;stroke:#000000;stroke-width:0.3985;stroke-linecap:butt;stroke-linejoin:miter;stroke-miterlimit:10;stroke-dasharray:none;stroke-opacity:1"
       transform="matrix(0,-1.3333333,-1.3333333,0,199.42947,70.19212)" />
    <path
       id="path39"
       d="m 141.7341,0 c 0,0 0,0 0,3.0639"
       style="fill:none;stroke:#000000;stroke-width:0.3985;stroke-linecap:butt;stroke-linejoin:miter;stroke-miterlimit:10;stroke-dasharray:none;stroke-opacity:1"
       transform="matrix(1.3333333,0,0,-1.3333333,10.450667,63.816)" />
    <path
       id="path40"
       d="M 4.21463,0 0.64343,1.34572 1.8178,0 0.64343,-1.34572 Z"
       style="fill:#000000;fill-opacity:1;fill-rule:nonzero;stroke:#000000;stroke-width:0.3985;stroke-linecap:butt;stroke-linejoin:miter;stroke-miterlimit:10;stroke-dasharray:none;stroke-opacity:1"
       transform="matrix(0,-1.3333333,-1.3333333,0,199.42947,70.19212)" />
  </g>
</svg>
