<?xml version="1.0" encoding="UTF-8" standalone="no"?>
<!-- Created with Inkscape (http://www.inkscape.org/) -->

<svg
   version="1.1"
   id="svg1"
   width="676.52533"
   height="275.01334"
   viewBox="0 0 676.52533 275.01334"
   xmlns="http://www.w3.org/2000/svg"
   xmlns:svg="http://www.w3.org/2000/svg">
  <defs
     id="defs1" />
  <g
     id="g1">
    <path
       id="path1"
       d="m 2.81807,56.69362 c 0,1.55638 -1.26169,2.81807 -2.81807,2.81807 -1.55638,0 -2.81807,-1.26169 -2.81807,-2.81807 0,-1.5564 1.26169,-2.81809 2.81807,-2.81809 1.55638,0 2.81807,1.26169 2.81807,2.81809 z"
       style="fill:#000000;fill-opacity:1;fill-rule:nonzero;stroke:none"
       transform="matrix(1.3333333,0,0,-1.3333333,10.450667,101.612)" />
    <path
       id="path2"
       d="M 4.8293906,-4.0903281 3.9973594,-6.0825156 c -0.035156,-0.070312 -0.046875,-0.1171875 -0.046875,-0.1289063 0,-0.058594 0.1640625,-0.2460937 0.5859375,-0.28125 0.09375,-0.011719 0.1992187,-0.023437 0.1992187,-0.1875 0,-0.1289062 -0.1171875,-0.1289062 -0.1523437,-0.1289062 -0.4101563,0 -0.8320313,0.035156 -1.2539063,0.035156 -0.2460937,0 -0.8671875,-0.035156 -1.1132812,-0.035156 -0.058594,0 -0.1875,0 -0.1875,0.1992187 0,0.1171875 0.1054687,0.1171875 0.234375,0.1171875 0.5976562,0 0.65625,0.09375 0.75,0.3164063 l 1.171875,2.7773437 -2.0976563,2.2617188 -0.1289062,0.1054687 c -0.4921875,0.52734378 -0.96093753,0.69140628 -1.46484378,0.72656253 -0.12890625,0 -0.22265625,0 -0.22265625,0.19921875 0,0 0,0.105468745 0.12890625,0.105468745 0.3046875,0 0.63281248,-0.035156245 0.93749998,-0.035156245 0.3632813,0 0.7617188,0.035156245 1.1132813,0.035156245 0.058594,0 0.1757812,0 0.1757812,-0.199218745 0,-0.10546875 -0.09375,-0.10546875 -0.1171875,-0.10546875 -0.082031,-0.0117188 -0.3984375,-0.0351563 -0.3984375,-0.31640625 0,-0.15234375 0.1523438,-0.31640625 0.2695313,-0.44531248 l 1.0195312,-1.078125 0.890625,-0.9726563 1.0078125,2.37890628 c 0.046875,0.10546875 0.046875,0.1171875 0.046875,0.140625 0,0.0820313 -0.1875,0.24609375 -0.5742187,0.29296875 -0.1054688,0 -0.1992188,0.0117188 -0.1992188,0.1875 0,0.117187495 0.1171875,0.117187495 0.1523438,0.117187495 0.28125,0 0.9726562,-0.035156245 1.2539062,-0.035156245 0.2460938,0 0.8554688,0.035156245 1.1015625,0.035156245 0.070312,0 0.1992188,0 0.1992188,-0.187499995 0,-0.1171875 -0.1054688,-0.1171875 -0.1875,-0.1171875 -0.6679688,-0.0117188 -0.6796875,-0.046875 -0.8554688,-0.4453125 C 5.8489219,-1.6762656 5.1809531,-3.2231406 4.9465781,-3.8207969 c 0.6796875,-0.703125 1.734375,-1.8867187 2.0507813,-2.1679687 0.28125,-0.234375 0.6679687,-0.4804688 1.265625,-0.5039063 0.1289062,-0.011719 0.2109375,-0.011719 0.2109375,-0.1992187 0,-0.011719 0,-0.1171875 -0.1289063,-0.1171875 -0.2929687,0 -0.6210937,0.035156 -0.9375,0.035156 -0.3632812,0 -0.7382812,-0.035156 -1.1015625,-0.035156 -0.058594,0 -0.1875,0 -0.1875,0.1992187 0,0.070312 0.046875,0.1054688 0.1171875,0.1171875 0.09375,0.011719 0.3984375,0.023437 0.3984375,0.3046875 0,0.140625 -0.1054687,0.2695313 -0.1875,0.3632813 z m 0,0"
       style="fill:#000000;fill-opacity:1;fill-rule:nonzero;stroke:none"
       aria-label="X"
       transform="matrix(1.3333333,0,0,1.3333333,4.428,17.305333)" />
    <path
       id="path3"
       d="m 116.2053,56.69362 c 0,1.55638 -1.26168,2.81807 -2.81806,2.81807 -1.5564,0 -2.81809,-1.26169 -2.81809,-2.81807 0,-1.5564 1.26169,-2.81809 2.81809,-2.81809 1.55638,0 2.81806,1.26169 2.81806,2.81809 z"
       style="fill:none;stroke:#000000;stroke-width:0.3985;stroke-linecap:butt;stroke-linejoin:miter;stroke-miterlimit:10;stroke-dasharray:none;stroke-opacity:1"
       transform="matrix(1.3333333,0,0,-1.3333333,10.450667,101.612)" />
    <path
       id="path4"
       d="m 5.9425313,-5.6729453 0.140625,-0.140625 c 0.3046875,-0.2929688 0.6328125,-0.6328125 1.3125,-0.6796875 0.1054687,-0.011719 0.1992187,-0.011719 0.1992187,-0.1875 0,-0.082031 -0.058594,-0.1289063 -0.1289062,-0.1289063 -0.2578125,0 -0.5507813,0.035156 -0.8203125,0.035156 -0.328125,0 -0.6796875,-0.035156 -0.9960938,-0.035156 -0.058594,0 -0.1875,0 -0.1875,0.1992188 0,0.1054687 0.09375,0.1171875 0.1523438,0.1171875 0.070312,0 0.3515625,0.011719 0.3515625,0.2226562 0,0.1757813 -0.2226563,0.4335938 -0.2695313,0.4804688 L 3.3878438,-3.1299766 2.298,-6.0831016 c -0.070312,-0.140625 -0.070312,-0.1640625 -0.070312,-0.1757812 0,-0.234375 0.4921875,-0.234375 0.5976563,-0.234375 0.1289062,0 0.234375,0 0.234375,-0.1992188 0,-0.1171875 -0.1171875,-0.1171875 -0.1523438,-0.1171875 -0.28125,0 -0.9726562,0.035156 -1.2539062,0.035156 -0.2460938,0 -0.86718755,-0.035156 -1.1132813,-0.035156 -0.0585938,0 -0.1875,0 -0.1875,0.1992188 0,0.1171875 0.09375,0.1171875 0.22265625,0.1171875 0.59765625,0 0.64453125,0.082031 0.72656255,0.3398437 l 1.2304687,3.2695313 c 0.011719,0.035156 0.035156,0.140625 0.035156,0.1757812 0,0.023437 -0.3984375,1.6289063 -0.4453125,1.80468754 -0.1289063,0.55078125 -0.140625,0.5859375 -0.9375,0.59765625 -0.18750005,0 -0.2695313,0 -0.2695313,0.19921875 0,0.10546875 0.1171875,0.10546875 0.140625,0.10546875 0.28125,0 0.9726563,-0.03515625 1.2539063,-0.03515625 0.28125,0 0.9960937,0.03515625 1.2773437,0.03515625 0.070312,0 0.1875,0 0.1875,-0.19921875 0,-0.10546875 -0.082031,-0.10546875 -0.28125,-0.10546875 -0.011719,0 -0.1992187,0 -0.375,-0.0234375 -0.2109375,-0.0234375 -0.2695312,-0.0351563 -0.2695312,-0.1640625 0,-0.0703125 0.09375,-0.41015625 0.140625,-0.62109379 l 0.3515625,-1.40625 c 0.046875,-0.1875 0.058594,-0.2226562 0.140625,-0.3046875 z m 0,0"
       style="fill:#000000;fill-opacity:1;fill-rule:nonzero;stroke:none"
       aria-label="Y"
       transform="matrix(1.3333333,0,0,1.3333333,144.436,13.505333)" />
    <path
       id="path5"
       d="m 2.1800156,-4.6298359 c 0.011719,-0.011719 0.035156,-0.1054688 0.035156,-0.1171875 0,-0.035156 -0.035156,-0.09375 -0.1171875,-0.09375 -0.140625,0 -0.7148438,0.058594 -0.890625,0.070312 -0.058594,0.011719 -0.1523438,0.011719 -0.1523438,0.1640625 0,0.09375 0.09375,0.09375 0.1757813,0.09375 0.3398437,0 0.3398437,0.046875 0.3398437,0.1054687 0,0.046875 -0.011719,0.09375 -0.035156,0.1523438 l -0.97265628,3.94921871 c -0.0351563,0.12890625 -0.0351563,0.140625 -0.0351563,0.15234375 0,0.10546875 0.0820313,0.22265625 0.234375,0.22265625 0.1875,0 0.28125008,-0.140625 0.31640628,-0.29296875 0.011719,-0.0234375 0.3164063,-1.25390626 0.3398438,-1.34765626 0.5039061,0.046875 0.9023437,0.1992188 0.9023437,0.5625 0,0.0351563 0,0.0703125 -0.023437,0.14062501 -0.023437,0.10546875 -0.023437,0.140625 -0.023437,0.22265625 0,0.4921875 0.3984375,0.71484375 0.7382813,0.71484375 0.6796875,0 0.890625,-1.0546875 0.890625,-1.06640625 0,-0.09375 -0.09375,-0.09375 -0.1171875,-0.09375 -0.09375,0 -0.1054688,0.035156 -0.140625,0.16406242 -0.082031,0.3046875 -0.2695313,0.796875 -0.609375,0.796875 -0.1875,0 -0.2460938,-0.17578125 -0.2460938,-0.36328125 0,-0.1171875 0,-0.12890625 0.046875,-0.3046875 0,-0.0234375 0.035156,-0.140625 0.035156,-0.22265617 0,-0.6210938 -0.84375,-0.7148438 -1.1367188,-0.7382813 0.1992188,-0.1289062 0.4570313,-0.3515625 0.5859375,-0.4570312 0.3515625,-0.3398438 0.703125,-0.6679688 1.0898437,-0.6679688 0.082031,0 0.1757812,0.023437 0.234375,0.09375 -0.3046875,0.046875 -0.3632813,0.28125 -0.3632813,0.3867188 0,0.1523437 0.1171875,0.2578125 0.2695313,0.2578125 0.1992187,0 0.3984375,-0.1523438 0.3984375,-0.4453125 0,-0.2226563 -0.1640625,-0.4804688 -0.5273438,-0.4804688 -0.3984375,0 -0.7617187,0.28125 -1.125,0.609375 -0.2929687,0.28125 -0.515625,0.4921875 -0.8085937,0.609375 z m 5.9267578,2.7773437 c 0,-0.7734375 -0.5742187,-1.21875 -1.265625,-1.21875 -1.03125,0 -2.0039062,0.9609375 -2.0039062,1.921875 0,0.69140626 0.5039062,1.21875001 1.265625,1.21875001 0.9960937,0 2.0039062,-0.92578125 2.0039062,-1.92187501 z m -1.9921875,1.72265626 c -0.3515625,0 -0.703125,-0.22265625 -0.703125,-0.7734375 0,-0.28124996 0.140625,-0.96093746 0.4101563,-1.35937496 0.2929687,-0.4335938 0.703125,-0.6210938 1.0195312,-0.6210938 0.375,0 0.6914063,0.2578125 0.6914063,0.7734375 0,0.1757813 -0.082031,0.8554688 -0.3867188,1.34765626 -0.2695312,0.41015625 -0.6796875,0.6328125 -1.03125,0.6328125 z m 5.2441411,-0.43359375 c -0.03516,0.140625 -0.09375,0.375 -0.09375,0.41015625 0,0.1523437525 0.128906,0.22265625 0.234375,0.22265625 0.128906,0 0.234375,-0.09375 0.269531,-0.15234375 0.03516,-0.05859375 0.09375,-0.29296875 0.128906,-0.43359375 0.03516,-0.12890625 0.117188,-0.45703125 0.152344,-0.63281251 0.04687,-0.1523437 0.08203,-0.3046875 0.117187,-0.4570312 0.08203,-0.3046875 0.08203,-0.3164063 0.222657,-0.5390625 0.222656,-0.3398438 0.5625,-0.7382813 1.113281,-0.7382813 0.386719,0 0.410156,0.328125 0.410156,0.4921875 0,0.421875 -0.304687,1.1953125 -0.410156,1.48828126 -0.08203,0.1875 -0.105469,0.2578125 -0.105469,0.375 0,0.36328125 0.304688,0.59765625 0.65625,0.59765625 0.703125,0 1.007813,-0.9609375 1.007813,-1.06640625 0,-0.09375 -0.09375,-0.09375 -0.105469,-0.09375 -0.105469,0 -0.105469,0.046875 -0.140625,0.11718742 -0.152344,0.5625 -0.457031,0.84375 -0.738281,0.84375 -0.140625,0 -0.175782,-0.09375 -0.175782,-0.24609375 0,-0.15234375 0.03516,-0.24609375 0.164063,-0.5625 0.08203,-0.21093747 0.375,-0.94921867 0.375,-1.34765617 0,-0.1054688 0,-0.3984375 -0.257813,-0.5976563 -0.128906,-0.09375 -0.328125,-0.1875 -0.65625,-0.1875 -0.621093,0 -1.007812,0.4101563 -1.230468,0.703125 -0.05859,-0.5976562 -0.550782,-0.703125 -0.902344,-0.703125 -0.585938,0 -0.972656,0.3515625 -1.183594,0.6328125 -0.04687,-0.4804687 -0.4570312,-0.6328125 -0.7499999,-0.6328125 -0.2929688,0 -0.4570313,0.2109375 -0.5507813,0.375 -0.1523437,0.2578125 -0.2460937,0.65625 -0.2460937,0.6914063 0,0.082031 0.09375,0.082031 0.1171875,0.082031 0.09375,0 0.1054687,-0.011719 0.1523437,-0.1992187 0.1054688,-0.421875 0.234375,-0.7617188 0.515625,-0.7617188 0.1757813,0 0.2226563,0.1523438 0.2226563,0.3398438 0,0.140625 -0.058594,0.3984375 -0.1054688,0.5859375 -0.046875,0.1875 -0.1171875,0.46875 -0.1523437,0.6210937 l -0.2226563,0.90234372 c -0.035156,0.0820313 -0.070312,0.2578125 -0.070312,0.28125 0,0.1523437525 0.1171875,0.22265625 0.234375,0.22265625 0.1289063,0 0.234375,-0.09375 0.2695313,-0.15234375 0.035156,-0.05859375 0.09375,-0.29296875 0.1289062,-0.43359375 0.035156,-0.12890625 0.1054688,-0.45703125 0.1523438,-0.63281247 0.035156,-0.1523437 0.082031,-0.3046875 0.1171879,-0.4570312 0.08203,-0.2929688 0.09375,-0.3515625 0.292969,-0.6328125 0.199219,-0.28125 0.527344,-0.6445313 1.042969,-0.6445313 0.410156,0 0.410156,0.3632813 0.410156,0.4921875 0,0.1757813 -0.01172,0.2695313 -0.117188,0.65625 z m 4.573242,1.41796875 c -0.05859,0.18750004 -0.07031,0.24609374 -0.351563,0.24609374 -0.08203,0 -0.1875,0 -0.1875,0.1523438 0,0.070312 0.07031,0.09375 0.105469,0.09375 0.175781,0 0.410156,-0.023437 0.597656,-0.023437 0.234375,0 0.503906,0.023437 0.726563,0.023437 0.07031,0 0.140625,-0.011719 0.140625,-0.1523438 0,-0.09375 -0.09375,-0.09375 -0.175782,-0.09375 -0.152343,0 -0.339843,0 -0.339843,-0.082031 0,-0.0351563 0.04687,-0.22265629 0.07031,-0.31640629 0.08203,-0.375 0.1875,-0.75 0.257813,-1.04296875 0.08203,0.140625 0.304687,0.41015625 0.726562,0.41015625 0.84375,0 1.78125,-0.9375 1.78125,-1.98046871 0,-0.8203125 -0.5625,-1.1601563 -1.042969,-1.1601563 -0.433593,0 -0.796875,0.2929688 -0.984375,0.4804688 -0.117187,-0.3984375 -0.515625,-0.4804688 -0.726562,-0.4804688 -0.269531,0 -0.433594,0.1757813 -0.550781,0.3632813 -0.140625,0.234375 -0.246094,0.65625 -0.246094,0.703125 0,0.082031 0.09375,0.082031 0.117187,0.082031 0.09375,0 0.105469,-0.011719 0.152344,-0.1992187 0.105469,-0.4101563 0.234375,-0.7617188 0.515625,-0.7617188 0.175781,0 0.222656,0.1523438 0.222656,0.3398438 0,0.082031 -0.01172,0.1757812 -0.02344,0.2109375 z m 1.3125,-3.09374996 c 0.410156,-0.5390625 0.75,-0.6445313 0.972656,-0.6445313 0.28125,0 0.515625,0.2109375 0.515625,0.6796875 0,0.28125 -0.152344,0.9960938 -0.363281,1.40625001 -0.175782,0.33984375 -0.515625,0.66796875 -0.867188,0.66796875 -0.503906,0 -0.621094,-0.5390625 -0.621094,-0.59765625 0,-0.0351563 0.01172,-0.0820313 0.01172,-0.10546875 z m 0,0"
       style="fill:#000000;fill-opacity:1;fill-rule:nonzero;stroke:none"
       aria-label="komp"
       transform="matrix(1.3333333,0,0,1.3333333,152.148,15.497333)" />
    <path
       id="path6"
       d="m 116.2053,-28.34679 c 0,1.5564 -1.26168,2.81809 -2.81806,2.81809 -1.5564,0 -2.81809,-1.26169 -2.81809,-2.81809 0,-1.55639 1.26169,-2.81808 2.81809,-2.81808 1.55638,0 2.81806,1.26169 2.81806,2.81808 z"
       style="fill:#000000;fill-opacity:1;fill-rule:nonzero;stroke:#000000;stroke-width:1.39478;stroke-linecap:butt;stroke-linejoin:miter;stroke-miterlimit:10;stroke-dasharray:none;stroke-opacity:1"
       transform="matrix(1.3333333,0,0,-1.3333333,10.450667,101.612)" />
    <path
       id="path7"
       d="m 116.2053,-28.34679 c 0,1.5564 -1.26168,2.81809 -2.81806,2.81809 -1.5564,0 -2.81809,-1.26169 -2.81809,-2.81809 0,-1.55639 1.26169,-2.81808 2.81809,-2.81808 1.55638,0 2.81806,1.26169 2.81806,2.81808 z"
       style="fill:none;stroke:#ffffff;stroke-width:0.59776;stroke-linecap:butt;stroke-linejoin:miter;stroke-miterlimit:10;stroke-dasharray:none;stroke-opacity:1"
       transform="matrix(1.3333333,0,0,-1.3333333,10.450667,101.612)" />
    <path
       id="path8"
       d="m 5.9411484,-5.6719609 0.140625,-0.140625 c 0.3046875,-0.2929688 0.6328125,-0.6328125 1.3125,-0.6796875 0.1054688,-0.011719 0.1992188,-0.011719 0.1992188,-0.1875 0,-0.082031 -0.058594,-0.1289063 -0.1289063,-0.1289063 -0.2578125,0 -0.5507812,0.035156 -0.8203125,0.035156 -0.328125,0 -0.6796875,-0.035156 -0.9960937,-0.035156 -0.058594,0 -0.1875,0 -0.1875,0.1992188 0,0.1054687 0.09375,0.1171875 0.1523437,0.1171875 0.070312,0 0.3515625,0.011719 0.3515625,0.2226562 0,0.1757813 -0.2226562,0.4335938 -0.2695312,0.4804688 l -2.3085938,2.6601562 -1.0898437,-2.953125 c -0.070312,-0.140625 -0.070312,-0.1640625 -0.070312,-0.1757812 0,-0.234375 0.4921875,-0.234375 0.5976562,-0.234375 0.1289063,0 0.234375,0 0.234375,-0.1992188 0,-0.1171875 -0.1171875,-0.1171875 -0.1523437,-0.1171875 -0.28125,0 -0.9726563,0.035156 -1.2539063,0.035156 -0.2460937,0 -0.86718746,-0.035156 -1.11328121,-0.035156 -0.0585938,0 -0.1875,0 -0.1875,0.1992188 0,0.1171875 0.09375,0.1171875 0.22265625,0.1171875 0.59765626,0 0.64453126,0.082031 0.72656246,0.3398437 l 1.2304688,3.2695313 c 0.011719,0.035156 0.035156,0.140625 0.035156,0.1757812 0,0.023437 -0.3984375,1.6289063 -0.4453125,1.80468751 -0.1289062,0.55078125 -0.140625,0.5859375 -0.9375,0.59765625 -0.18749996,0 -0.26953121,0 -0.26953121,0.19921875 0,0.1054687525 0.11718751,0.1054687525 0.14062501,0.1054687525 0.28125,0 0.9726562,-0.0351562525 1.2539062,-0.0351562525 0.28125,0 0.9960938,0.0351562525 1.2773438,0.0351562525 0.070312,0 0.1875,0 0.1875,-0.1992187525 0,-0.10546875 -0.082031,-0.10546875 -0.28125,-0.10546875 -0.011719,0 -0.1992188,0 -0.375,-0.0234375 -0.2109375,-0.0234375 -0.2695313,-0.0351563 -0.2695313,-0.1640625 0,-0.0703125 0.09375,-0.41015625 0.140625,-0.62109376 l 0.3515625,-1.40625 c 0.046875,-0.1875 0.058594,-0.2226562 0.140625,-0.3046875 z m 0,0"
       style="fill:#000000;fill-opacity:1;fill-rule:nonzero;stroke:none"
       aria-label="Y"
       transform="matrix(1.3333333,0,0,1.3333333,170.348,142.94933)" />
    <path
       id="path9"
       d="m 1.8387891,-4.6288516 c 0.011719,-0.011719 0.023437,-0.1054687 0.023437,-0.1171875 0,-0.035156 -0.023437,-0.09375 -0.1054688,-0.09375 -0.140625,0 -0.7148437,0.058594 -0.89062499,0.070312 -0.0585938,0.011719 -0.15234375,0.011719 -0.15234375,0.1640625 0,0.09375 0.09375,0.09375 0.17578125,0.09375 0.33984379,0 0.33984379,0.046875 0.33984379,0.1054688 0,0.046875 -0.070312,0.328125 -0.1171875,0.4921875 l -0.15234379,0.6328125 c -0.0703125,0.2460937 -0.45703125,1.7695312 -0.46875,1.8632812 -0.0351563,0.1640625 -0.0351563,0.2578125 -0.0351563,0.3398438 0,0.70312499 0.4453125,1.14843749 1.03124999,1.14843749 0.8671875,0 1.7929687,-0.94921875 1.7929687,-1.98046879 0,-0.8203125 -0.5625,-1.1601562 -1.0429687,-1.1601562 -0.3632813,0 -0.6679688,0.1992187 -0.8789063,0.375 z m -0.3515625,4.50000004 c -0.3398438,0 -0.52734379,-0.29296875 -0.52734379,-0.703125 0,-0.25781254 0.0585938,-0.50390624 0.25781249,-1.28906254 0.035156,-0.1289062 0.035156,-0.140625 0.1640625,-0.2929687 0.2695313,-0.3164063 0.5859375,-0.46875 0.8320313,-0.46875 0.2695312,0 0.515625,0.2109375 0.515625,0.6796875 0,0.28125 -0.1523438,0.9960937 -0.3632813,1.40624999 -0.1757812,0.33984375 -0.515625,0.66796875 -0.8789062,0.66796875 z M 5.0614453,-1.5936953 c 0.1992188,0 0.75,-0.011719 1.125,-0.140625 0.515625,-0.1875 0.609375,-0.515625 0.609375,-0.7265625 0,-0.3867188 -0.375,-0.609375 -0.8554687,-0.609375 -0.84375,0 -1.96875,0.6328125 -1.96875,1.828125 0,0.70312499 0.4335937,1.31249999 1.2539062,1.31249999 1.1835938,0 1.734375,-0.69140625 1.734375,-0.78515625 0,-0.046875 -0.070312,-0.1171875 -0.1289062,-0.1171875 -0.035156,0 -0.046875,0.0117188 -0.1054688,0.0703125 -0.5507812,0.6328125 -1.359375,0.6328125 -1.4882812,0.6328125 -0.421875,0 -0.6914063,-0.28125 -0.6914063,-0.84375 0,-0.09375 0,-0.23437504 0.082031,-0.62109374 z m -0.375,-0.1875 c 0.28125,-1.0195313 1.0546875,-1.1015625 1.2539063,-1.1015625 0.3046875,0 0.5625,0.1523437 0.5625,0.421875 0,0.6796875 -1.1835938,0.6796875 -1.4765625,0.6796875 z m 6.2988277,-0.070312 c 0,-0.7734375 -0.574218,-1.21875 -1.2656246,-1.21875 -1.03125,0 -2.0039062,0.9609375 -2.0039062,1.921875 0,0.69140624 0.5039062,1.21874999 1.265625,1.21874999 0.9960937,0 2.0039058,-0.92578125 2.0039058,-1.92187499 z m -1.9921871,1.72265624 c -0.3515625,0 -0.703125,-0.22265625 -0.703125,-0.7734375 0,-0.28125004 0.140625,-0.96093754 0.4101563,-1.35937504 0.2929687,-0.4335937 0.703125,-0.6210937 1.0195312,-0.6210937 0.3749996,0 0.6914066,0.2578125 0.6914066,0.7734375 0,0.1757812 -0.08203,0.8554687 -0.386719,1.34765624 -0.2695313,0.41015625 -0.6796876,0.6328125 -1.0312501,0.6328125 z M 13.056563,-4.6288516 c 0.01172,-0.011719 0.02344,-0.1054687 0.02344,-0.1171875 0,-0.035156 -0.02344,-0.09375 -0.105469,-0.09375 -0.140625,0 -0.714843,0.058594 -0.890625,0.070312 -0.05859,0.011719 -0.152343,0.011719 -0.152343,0.1640625 0,0.09375 0.09375,0.09375 0.175781,0.09375 0.339844,0 0.339844,0.046875 0.339844,0.1054688 0,0.046875 -0.07031,0.328125 -0.117188,0.4921875 l -0.152344,0.6328125 c -0.07031,0.2460937 -0.457031,1.7695312 -0.46875,1.8632812 -0.03516,0.1640625 -0.03516,0.2578125 -0.03516,0.3398438 0,0.70312499 0.445313,1.14843749 1.03125,1.14843749 0.867188,0 1.792969,-0.94921875 1.792969,-1.98046879 0,-0.8203125 -0.5625,-1.1601562 -1.042969,-1.1601562 -0.363281,0 -0.667969,0.1992187 -0.878906,0.375 z M 12.705,-0.12885156 c -0.339844,0 -0.527344,-0.29296875 -0.527344,-0.703125 0,-0.25781254 0.05859,-0.50390624 0.257813,-1.28906254 0.03516,-0.1289062 0.03516,-0.140625 0.164062,-0.2929687 0.269532,-0.3164063 0.585938,-0.46875 0.832032,-0.46875 0.269531,0 0.515625,0.2109375 0.515625,0.6796875 0,0.28125 -0.152344,0.9960937 -0.363282,1.40624999 -0.175781,0.33984375 -0.515625,0.66796875 -0.878906,0.66796875 z m 0,0"
       style="fill:#000000;fill-opacity:1;fill-rule:nonzero;stroke:none"
       aria-label="beob"
       transform="matrix(1.3333333,0,0,1.3333333,178.06,144.94133)" />
    <path
       id="path10"
       d="m 116.2053,-113.38724 c 0,1.5564 -1.26168,2.81809 -2.81806,2.81809 -1.5564,0 -2.81809,-1.26169 -2.81809,-2.81809 0,-1.55638 1.26169,-2.81806 2.81809,-2.81806 1.55638,0 2.81806,1.26168 2.81806,2.81806 z"
       style="fill:#000000;fill-opacity:1;fill-rule:nonzero;stroke:none"
       transform="matrix(1.3333333,0,0,-1.3333333,10.450667,101.612)" />
    <path
       id="path11"
       d="m 3.7395781,-6.1167344 c 0.058594,-0.234375 0.082031,-0.3398437 0.28125,-0.3632812 0.082031,-0.011719 0.3984375,-0.011719 0.5976563,-0.011719 0.7148437,0 1.8164062,0 1.8164062,0.984375 0,0.3398438 -0.1523437,1.0195313 -0.5507812,1.4179688 -0.2578125,0.2578125 -0.7851563,0.5742187 -1.6757813,0.5742187 H 3.0950469 Z m 1.4296875,2.7304688 c 1.0078125,-0.2226563 2.1914063,-0.9140625 2.1914063,-1.921875 0,-0.8554688 -0.890625,-1.5 -2.203125,-1.5 H 2.3216094 c -0.1992188,0 -0.2929688,0 -0.2929688,0.1992187 0,0.1171875 0.09375,0.1171875 0.28125,0.1171875 0.023437,0 0.2109375,0 0.3867188,0.011719 0.1757812,0.023437 0.2578125,0.035156 0.2578125,0.1640625 0,0.035156 0,0.070312 -0.035156,0.1875 l -1.3359375,5.35546873 c -0.09375,0.38671875 -0.1171875,0.46875 -0.90234372,0.46875 -0.17578125,0 -0.26953125,0 -0.26953125,0.19921875 0,0.105468745 0.1171875,0.105468745 0.140625,0.105468745 0.28125,0 0.97265627,-0.035156245 1.25390627,-0.035156245 0.28125,0 0.984375,0.035156245 1.265625,0.035156245 0.082031,0 0.1992187,0 0.1992187,-0.199218745 0,-0.10546875 -0.09375,-0.10546875 -0.28125,-0.10546875 -0.3632812,0 -0.6445312,0 -0.6445312,-0.1875 0,-0.0585938 0.011719,-0.10546875 0.023437,-0.1640625 l 0.65625,-2.63671873 h 1.1953125 c 0.9023437,0 1.078125,0.5507812 1.078125,0.9023437 0,0.1523438 -0.082031,0.4570313 -0.140625,0.6914063 -0.070312,0.2695312 -0.1523438,0.6445312 -0.1523438,0.84374998 0,1.078125 1.1953125,1.078125 1.3242188,1.078125 0.84375,0 1.1953125,-1.0078125 1.1953125,-1.1484375 0,-0.11718748 -0.1171875,-0.11718748 -0.1171875,-0.11718748 -0.09375,0 -0.1171875,0.0703125 -0.1289063,0.14062498 -0.2578125,0.73828125 -0.6796875,0.902343745 -0.9140625,0.902343745 -0.328125,0 -0.3984375,-0.222656245 -0.3984375,-0.609374995 0,-0.3046875 0.058594,-0.82031253 0.1054688,-1.13671873 0.011719,-0.140625 0.035156,-0.328125 0.035156,-0.46875 0,-0.7617188 -0.6679687,-1.078125 -0.9374996,-1.1718752 z m 0,0"
       style="fill:#000000;fill-opacity:1;fill-rule:nonzero;stroke:none"
       aria-label="R"
       transform="matrix(1.3333333,0,0,1.3333333,156.53733,270.58533)" />
    <path
       id="path12"
       d="M 3.01732,56.69362 H 107.30597"
       style="fill:none;stroke:#000000;stroke-width:0.3985;stroke-linecap:butt;stroke-linejoin:miter;stroke-miterlimit:10;stroke-dasharray:none;stroke-opacity:1"
       transform="matrix(1.3333333,0,0,-1.3333333,10.450667,101.612)" />
    <path
       id="path13"
       d="M 4.21463,0 0.64343,1.34572 1.8178,0 0.64343,-1.34572 Z"
       style="fill:#000000;fill-opacity:1;fill-rule:nonzero;stroke:#000000;stroke-width:0.3985;stroke-linecap:butt;stroke-linejoin:miter;stroke-miterlimit:10;stroke-dasharray:none;stroke-opacity:1"
       transform="matrix(1.3333333,0,0,-1.3333333,151.23437,26.020507)" />
    <path
       id="path14"
       d="M 113.38724,53.67627 V -22.26552"
       style="fill:none;stroke:#000000;stroke-width:0.3985;stroke-linecap:butt;stroke-linejoin:miter;stroke-miterlimit:10;stroke-dasharray:none;stroke-opacity:1"
       transform="matrix(1.3333333,0,0,-1.3333333,10.450667,101.612)" />
    <path
       id="path15"
       d="M 4.21463,0 0.64343,1.34572 1.8178,0 0.64343,-1.34572 Z"
       style="fill:#000000;fill-opacity:1;fill-rule:nonzero;stroke:#000000;stroke-width:0.3985;stroke-linecap:butt;stroke-linejoin:miter;stroke-miterlimit:10;stroke-dasharray:none;stroke-opacity:1"
       transform="matrix(0,1.3333333,1.3333333,0,161.63365,129.00844)" />
    <path
       id="path16"
       d="m 113.38724,-110.36989 v 75.94187"
       style="fill:none;stroke:#000000;stroke-width:0.3985;stroke-linecap:butt;stroke-linejoin:miter;stroke-miterlimit:10;stroke-dasharray:none;stroke-opacity:1"
       transform="matrix(1.3333333,0,0,-1.3333333,10.450667,101.612)" />
    <path
       id="path17"
       d="M 4.21463,0 0.64343,1.34572 1.8178,0 0.64343,-1.34572 Z"
       style="fill:#000000;fill-opacity:1;fill-rule:nonzero;stroke:#000000;stroke-width:0.3985;stroke-linecap:butt;stroke-linejoin:miter;stroke-miterlimit:10;stroke-dasharray:none;stroke-opacity:1"
       transform="matrix(0,-1.3333333,-1.3333333,0,161.63365,149.80695)" />
    <path
       id="path18"
       d="m 116.40456,56.69362 c 99.4897,0 99.4897,-170.08086 3.0639,-170.08086"
       style="fill:none;stroke:#000000;stroke-width:0.3985;stroke-linecap:butt;stroke-linejoin:miter;stroke-miterlimit:10;stroke-dasharray:none;stroke-opacity:1"
       transform="matrix(1.3333333,0,0,-1.3333333,10.450667,101.612)" />
    <path
       id="path19"
       d="M 4.21463,0 0.64343,1.34572 1.8178,0 0.64343,-1.34572 Z"
       style="fill:#000000;fill-opacity:1;fill-rule:nonzero;stroke:#000000;stroke-width:0.3985;stroke-linecap:butt;stroke-linejoin:miter;stroke-miterlimit:10;stroke-dasharray:none;stroke-opacity:1"
       transform="matrix(-1.3333333,0,0,1.3333333,172.03287,252.79499)" />
    <path
       id="path20"
       d="m 286.2863,56.69362 c 0,1.55638 -1.26169,2.81807 -2.81808,2.81807 -1.5564,0 -2.81809,-1.26169 -2.81809,-2.81807 0,-1.5564 1.26169,-2.81809 2.81809,-2.81809 1.55639,0 2.81808,1.26169 2.81808,2.81809 z"
       style="fill:#000000;fill-opacity:1;fill-rule:nonzero;stroke:none"
       transform="matrix(1.3333333,0,0,-1.3333333,10.450667,101.612)" />
    <path
       id="path21"
       d="M 4.8273047,-4.0903281 3.9952734,-6.0825156 c -0.035156,-0.070312 -0.046875,-0.1171875 -0.046875,-0.1289063 0,-0.058594 0.1640625,-0.2460937 0.5859375,-0.28125 0.09375,-0.011719 0.1992188,-0.023437 0.1992188,-0.1875 0,-0.1289062 -0.1171875,-0.1289062 -0.1523438,-0.1289062 -0.4101562,0 -0.8320312,0.035156 -1.2539062,0.035156 -0.2460938,0 -0.8671875,-0.035156 -1.1132813,-0.035156 -0.058594,0 -0.1875,0 -0.1875,0.1992187 0,0.1171875 0.1054688,0.1171875 0.234375,0.1171875 0.5976563,0 0.65625,0.09375 0.75,0.3164063 l 1.171875,2.7773437 -2.0976562,2.2617188 -0.1289063,0.1054687 c -0.4921875,0.52734378 -0.96093746,0.69140628 -1.46484371,0.72656253 -0.12890625,0 -0.22265625,0 -0.22265625,0.19921875 0,0 0,0.105468745 0.12890625,0.105468745 0.3046875,0 0.63281251,-0.035156245 0.93750001,-0.035156245 0.3632812,0 0.7617187,0.035156245 1.1132812,0.035156245 0.058594,0 0.1757813,0 0.1757813,-0.199218745 0,-0.10546875 -0.09375,-0.10546875 -0.1171875,-0.10546875 -0.082031,-0.0117188 -0.3984375,-0.0351563 -0.3984375,-0.31640625 0,-0.15234375 0.1523437,-0.31640625 0.2695312,-0.44531248 l 1.0195313,-1.078125 0.890625,-0.9726563 1.0078125,2.37890628 c 0.046875,0.10546875 0.046875,0.1171875 0.046875,0.140625 0,0.0820313 -0.1875,0.24609375 -0.5742188,0.29296875 -0.1054687,0 -0.1992187,0.0117188 -0.1992187,0.1875 0,0.117187495 0.1171875,0.117187495 0.1523437,0.117187495 0.28125,0 0.9726563,-0.035156245 1.2539063,-0.035156245 0.2460937,0 0.8554687,0.035156245 1.1015625,0.035156245 0.070312,0 0.1992187,0 0.1992187,-0.187499995 0,-0.1171875 -0.1054687,-0.1171875 -0.1875,-0.1171875 -0.6679687,-0.0117188 -0.6796875,-0.046875 -0.8554687,-0.4453125 C 5.8468359,-1.6762656 5.1788672,-3.2231406 4.9444922,-3.8207969 c 0.6796875,-0.703125 1.734375,-1.8867187 2.0507812,-2.1679687 0.28125,-0.234375 0.6679688,-0.4804688 1.265625,-0.5039063 0.1289063,-0.011719 0.2109375,-0.011719 0.2109375,-0.1992187 0,-0.011719 0,-0.1171875 -0.1289062,-0.1171875 -0.2929688,0 -0.6210938,0.035156 -0.9375,0.035156 -0.3632813,0 -0.7382813,-0.035156 -1.1015625,-0.035156 -0.058594,0 -0.1875,0 -0.1875,0.1992187 0,0.070312 0.046875,0.1054688 0.1171875,0.1171875 0.09375,0.011719 0.3984375,0.023437 0.3984375,0.3046875 0,0.140625 -0.1054688,0.2695313 -0.1875,0.3632813 z m 0,0"
       style="fill:#000000;fill-opacity:1;fill-rule:nonzero;stroke:none"
       aria-label="X"
       transform="matrix(1.3333333,0,0,1.3333333,382.38,17.305333)" />
    <path
       id="path22"
       d="m 399.67354,56.69362 c 0,1.55638 -1.26169,2.81807 -2.81809,2.81807 -1.55639,0 -2.81808,-1.26169 -2.81808,-2.81807 0,-1.5564 1.26169,-2.81809 2.81808,-2.81809 1.5564,0 2.81809,1.26169 2.81809,2.81809 z"
       style="fill:none;stroke:#000000;stroke-width:0.3985;stroke-linecap:butt;stroke-linejoin:miter;stroke-miterlimit:10;stroke-dasharray:none;stroke-opacity:1"
       transform="matrix(1.3333333,0,0,-1.3333333,10.450667,101.612)" />
    <path
       id="path23"
       d="m 5.9404453,-5.6729453 0.140625,-0.140625 c 0.3046875,-0.2929688 0.6328125,-0.6328125 1.3125,-0.6796875 0.1054688,-0.011719 0.1992188,-0.011719 0.1992188,-0.1875 0,-0.082031 -0.058594,-0.1289063 -0.1289063,-0.1289063 -0.2578125,0 -0.5507812,0.035156 -0.8203125,0.035156 -0.328125,0 -0.6796875,-0.035156 -0.9960937,-0.035156 -0.058594,0 -0.1875,0 -0.1875,0.1992188 0,0.1054687 0.09375,0.1171875 0.1523437,0.1171875 0.070312,0 0.3515625,0.011719 0.3515625,0.2226562 0,0.1757813 -0.2226562,0.4335938 -0.2695312,0.4804688 l -2.3085938,2.6601562 -1.0898437,-2.953125 c -0.070312,-0.140625 -0.070312,-0.1640625 -0.070312,-0.1757812 0,-0.234375 0.4921875,-0.234375 0.5976562,-0.234375 0.1289063,0 0.234375,0 0.234375,-0.1992188 0,-0.1171875 -0.1171875,-0.1171875 -0.1523437,-0.1171875 -0.28125,0 -0.9726563,0.035156 -1.2539063,0.035156 -0.2460937,0 -0.86718749,-0.035156 -1.11328124,-0.035156 -0.0585938,0 -0.1875,0 -0.1875,0.1992188 0,0.1171875 0.09375,0.1171875 0.22265625,0.1171875 0.59765629,0 0.64453129,0.082031 0.72656249,0.3398437 l 1.2304688,3.2695313 c 0.011719,0.035156 0.035156,0.140625 0.035156,0.1757812 0,0.023437 -0.3984375,1.6289063 -0.4453125,1.80468754 -0.1289062,0.55078125 -0.140625,0.5859375 -0.9375,0.59765625 -0.18749999,0 -0.26953124,0 -0.26953124,0.19921875 0,0.10546875 0.11718754,0.10546875 0.14062504,0.10546875 0.28125,0 0.9726562,-0.03515625 1.2539062,-0.03515625 0.28125,0 0.9960938,0.03515625 1.2773438,0.03515625 0.070312,0 0.1875,0 0.1875,-0.19921875 0,-0.10546875 -0.082031,-0.10546875 -0.28125,-0.10546875 -0.011719,0 -0.1992188,0 -0.375,-0.0234375 -0.2109375,-0.0234375 -0.2695313,-0.0351563 -0.2695313,-0.1640625 0,-0.0703125 0.09375,-0.41015625 0.140625,-0.62109379 l 0.3515625,-1.40625 c 0.046875,-0.1875 0.058594,-0.2226562 0.140625,-0.3046875 z m 0,0"
       style="fill:#000000;fill-opacity:1;fill-rule:nonzero;stroke:none"
       aria-label="Y"
       transform="matrix(1.3333333,0,0,1.3333333,522.388,13.505333)" />
    <path
       id="path24"
       d="m 2.1808594,-4.6298359 c 0.011719,-0.011719 0.035156,-0.1054688 0.035156,-0.1171875 0,-0.035156 -0.035156,-0.09375 -0.1171875,-0.09375 -0.140625,0 -0.7148437,0.058594 -0.890625,0.070312 -0.058594,0.011719 -0.1523437,0.011719 -0.1523437,0.1640625 0,0.09375 0.09375,0.09375 0.1757812,0.09375 0.3398438,0 0.3398438,0.046875 0.3398438,0.1054687 0,0.046875 -0.011719,0.09375 -0.035156,0.1523438 l -0.97265622,3.94921871 c -0.0351563,0.12890625 -0.0351563,0.140625 -0.0351563,0.15234375 0,0.10546875 0.0820313,0.22265625 0.234375,0.22265625 0.1875,0 0.28125002,-0.140625 0.31640632,-0.29296875 0.011719,-0.0234375 0.3164062,-1.25390626 0.3398437,-1.34765626 0.5039063,0.046875 0.9023438,0.1992188 0.9023438,0.5625 0,0.0351563 0,0.0703125 -0.023437,0.14062501 -0.023437,0.10546875 -0.023437,0.140625 -0.023437,0.22265625 0,0.4921875 0.3984375,0.71484375 0.7382812,0.71484375 0.6796875,0 0.890625,-1.0546875 0.890625,-1.06640625 0,-0.09375 -0.09375,-0.09375 -0.1171875,-0.09375 -0.09375,0 -0.1054687,0.035156 -0.140625,0.16406242 -0.082031,0.3046875 -0.2695312,0.796875 -0.609375,0.796875 -0.1875,0 -0.2460937,-0.17578125 -0.2460937,-0.36328125 0,-0.1171875 0,-0.12890625 0.046875,-0.3046875 0,-0.0234375 0.035156,-0.140625 0.035156,-0.22265617 0,-0.6210938 -0.84375,-0.7148438 -1.1367187,-0.7382813 0.1992187,-0.1289062 0.4570312,-0.3515625 0.5859375,-0.4570312 0.3515625,-0.3398438 0.703125,-0.6679688 1.0898437,-0.6679688 0.082031,0 0.1757813,0.023437 0.234375,0.09375 -0.3046875,0.046875 -0.3632812,0.28125 -0.3632812,0.3867188 0,0.1523437 0.1171875,0.2578125 0.2695312,0.2578125 0.1992188,0 0.3984375,-0.1523438 0.3984375,-0.4453125 0,-0.2226563 -0.1640625,-0.4804688 -0.5273437,-0.4804688 -0.3984375,0 -0.7617188,0.28125 -1.125,0.609375 -0.2929688,0.28125 -0.515625,0.4921875 -0.8085938,0.609375 z m 5.9238281,2.7773437 c 0,-0.7734375 -0.5742187,-1.21875 -1.265625,-1.21875 -1.03125,0 -2.0039062,0.9609375 -2.0039062,1.921875 0,0.69140626 0.5039062,1.21875001 1.265625,1.21875001 0.9960937,0 2.0039062,-0.92578125 2.0039062,-1.92187501 z M 6.1125,-0.12983594 c -0.3515625,0 -0.703125,-0.22265625 -0.703125,-0.7734375 0,-0.28124996 0.140625,-0.96093746 0.4101563,-1.35937496 0.2929687,-0.4335938 0.703125,-0.6210938 1.0195312,-0.6210938 0.375,0 0.6914063,0.2578125 0.6914063,0.7734375 0,0.1757813 -0.082031,0.8554688 -0.3867188,1.34765626 -0.2695312,0.41015625 -0.6796875,0.6328125 -1.03125,0.6328125 z m 5.24707,-0.43359375 c -0.03516,0.140625 -0.09375,0.375 -0.09375,0.41015625 0,0.1523437525 0.128907,0.22265625 0.234375,0.22265625 0.128907,0 0.234375,-0.09375 0.269532,-0.15234375 0.03516,-0.05859375 0.09375,-0.29296875 0.128906,-0.43359375 0.03516,-0.12890625 0.117187,-0.45703125 0.152344,-0.63281251 0.04687,-0.1523437 0.08203,-0.3046875 0.117187,-0.4570312 0.08203,-0.3046875 0.08203,-0.3164063 0.222656,-0.5390625 0.222657,-0.3398438 0.5625,-0.7382813 1.113282,-0.7382813 0.386718,0 0.410156,0.328125 0.410156,0.4921875 0,0.421875 -0.304688,1.1953125 -0.410156,1.48828126 -0.08203,0.1875 -0.105469,0.2578125 -0.105469,0.375 0,0.36328125 0.304687,0.59765625 0.65625,0.59765625 0.703125,0 1.007812,-0.9609375 1.007812,-1.06640625 0,-0.09375 -0.09375,-0.09375 -0.105468,-0.09375 -0.105469,0 -0.105469,0.046875 -0.140625,0.11718742 -0.152344,0.5625 -0.457032,0.84375 -0.738282,0.84375 -0.140625,0 -0.175781,-0.09375 -0.175781,-0.24609375 0,-0.15234375 0.03516,-0.24609375 0.164063,-0.5625 0.08203,-0.21093747 0.375,-0.94921867 0.375,-1.34765617 0,-0.1054688 0,-0.3984375 -0.257813,-0.5976563 -0.128906,-0.09375 -0.328125,-0.1875 -0.65625,-0.1875 -0.621094,0 -1.007812,0.4101563 -1.230469,0.703125 -0.05859,-0.5976562 -0.550781,-0.703125 -0.902343,-0.703125 -0.585938,0 -0.972657,0.3515625 -1.183594,0.6328125 -0.04687,-0.4804687 -0.4570314,-0.6328125 -0.7500002,-0.6328125 -0.2929687,0 -0.4570312,0.2109375 -0.5507812,0.375 -0.1523438,0.2578125 -0.2460938,0.65625 -0.2460938,0.6914063 0,0.082031 0.09375,0.082031 0.1171875,0.082031 0.09375,0 0.1054688,-0.011719 0.1523438,-0.1992187 0.1054687,-0.421875 0.234375,-0.7617188 0.515625,-0.7617188 0.1757812,0 0.2226562,0.1523438 0.2226562,0.3398438 0,0.140625 -0.058594,0.3984375 -0.1054687,0.5859375 -0.046875,0.1875 -0.1171875,0.46875 -0.1523438,0.6210937 l -0.2226562,0.90234372 c -0.035156,0.0820313 -0.070312,0.2578125 -0.070312,0.28125 0,0.1523437525 0.1171875,0.22265625 0.234375,0.22265625 0.1289062,0 0.234375,-0.09375 0.2695312,-0.15234375 0.035156,-0.05859375 0.09375,-0.29296875 0.1289063,-0.43359375 0.035156,-0.12890625 0.1054687,-0.45703125 0.1523437,-0.63281247 0.035156,-0.1523437 0.082031,-0.3046875 0.1171882,-0.4570312 0.08203,-0.2929688 0.09375,-0.3515625 0.292969,-0.6328125 0.199218,-0.28125 0.527343,-0.6445313 1.042968,-0.6445313 0.410157,0 0.410157,0.3632813 0.410157,0.4921875 0,0.1757813 -0.01172,0.2695313 -0.117188,0.65625 z m 4.573243,1.41796875 C 15.874219,1.0420391 15.8625,1.1006328 15.58125,1.1006328 c -0.08203,0 -0.1875,0 -0.1875,0.1523438 0,0.070312 0.07031,0.09375 0.105469,0.09375 0.175781,0 0.410156,-0.023437 0.597656,-0.023437 0.234375,0 0.503906,0.023437 0.726563,0.023437 0.07031,0 0.140625,-0.011719 0.140625,-0.1523438 0,-0.09375 -0.09375,-0.09375 -0.175782,-0.09375 -0.152343,0 -0.339843,0 -0.339843,-0.082031 0,-0.0351563 0.04687,-0.22265629 0.07031,-0.31640629 0.08203,-0.375 0.1875,-0.75 0.257813,-1.04296875 0.08203,0.140625 0.304687,0.41015625 0.726562,0.41015625 0.84375,0 1.78125,-0.9375 1.78125,-1.98046871 0,-0.8203125 -0.5625,-1.1601563 -1.042969,-1.1601563 -0.433593,0 -0.796875,0.2929688 -0.984375,0.4804688 -0.117187,-0.3984375 -0.515625,-0.4804688 -0.726562,-0.4804688 -0.269531,0 -0.433594,0.1757813 -0.550781,0.3632813 -0.140625,0.234375 -0.246094,0.65625 -0.246094,0.703125 0,0.082031 0.09375,0.082031 0.117187,0.082031 0.09375,0 0.105469,-0.011719 0.152344,-0.1992187 0.105469,-0.4101563 0.234375,-0.7617188 0.515625,-0.7617188 0.175781,0 0.222656,0.1523438 0.222656,0.3398438 0,0.082031 -0.01172,0.1757812 -0.02344,0.2109375 z m 1.3125,-3.09374996 c 0.410156,-0.5390625 0.75,-0.6445313 0.972656,-0.6445313 0.28125,0 0.515625,0.2109375 0.515625,0.6796875 0,0.28125 -0.152344,0.9960938 -0.363281,1.40625001 -0.175782,0.33984375 -0.515625,0.66796875 -0.867188,0.66796875 -0.503906,0 -0.621094,-0.5390625 -0.621094,-0.59765625 0,-0.0351563 0.01172,-0.0820313 0.01172,-0.10546875 z m 0,0"
       style="fill:#000000;fill-opacity:1;fill-rule:nonzero;stroke:none"
       aria-label="komp"
       transform="matrix(1.3333333,0,0,1.3333333,530.1,15.497333)" />
    <path
       id="path25"
       d="m 399.67354,-28.34679 c 0,1.5564 -1.26169,2.81809 -2.81809,2.81809 -1.55639,0 -2.81808,-1.26169 -2.81808,-2.81809 0,-1.55639 1.26169,-2.81808 2.81808,-2.81808 1.5564,0 2.81809,1.26169 2.81809,2.81808 z"
       style="fill:#000000;fill-opacity:1;fill-rule:nonzero;stroke:#000000;stroke-width:1.39478;stroke-linecap:butt;stroke-linejoin:miter;stroke-miterlimit:10;stroke-dasharray:none;stroke-opacity:1"
       transform="matrix(1.3333333,0,0,-1.3333333,10.450667,101.612)" />
    <path
       id="path26"
       d="m 399.67354,-28.34679 c 0,1.5564 -1.26169,2.81809 -2.81809,2.81809 -1.55639,0 -2.81808,-1.26169 -2.81808,-2.81809 0,-1.55639 1.26169,-2.81808 2.81808,-2.81808 1.5564,0 2.81809,1.26169 2.81809,2.81808 z"
       style="fill:none;stroke:#ffffff;stroke-width:0.59776;stroke-linecap:butt;stroke-linejoin:miter;stroke-miterlimit:10;stroke-dasharray:none;stroke-opacity:1"
       transform="matrix(1.3333333,0,0,-1.3333333,10.450667,101.612)" />
    <path
       id="path27"
       d="m 5.9409922,-5.6719609 0.140625,-0.140625 c 0.3046875,-0.2929688 0.6328125,-0.6328125 1.3125,-0.6796875 0.1054687,-0.011719 0.1992187,-0.011719 0.1992187,-0.1875 0,-0.082031 -0.058594,-0.1289063 -0.1289062,-0.1289063 -0.2578125,0 -0.5507813,0.035156 -0.8203125,0.035156 -0.328125,0 -0.6796875,-0.035156 -0.9960938,-0.035156 -0.058594,0 -0.1875,0 -0.1875,0.1992188 0,0.1054687 0.09375,0.1171875 0.1523438,0.1171875 0.070312,0 0.3515625,0.011719 0.3515625,0.2226562 0,0.1757813 -0.2226563,0.4335938 -0.2695313,0.4804688 l -2.3085937,2.6601562 -1.0898438,-2.953125 c -0.070312,-0.140625 -0.070312,-0.1640625 -0.070312,-0.1757812 0,-0.234375 0.4921875,-0.234375 0.5976563,-0.234375 0.1289062,0 0.234375,0 0.234375,-0.1992188 0,-0.1171875 -0.1171875,-0.1171875 -0.1523438,-0.1171875 -0.28125,0 -0.9726562,0.035156 -1.2539062,0.035156 -0.2460938,0 -0.86718751,-0.035156 -1.11328126,-0.035156 -0.0585938,0 -0.1875,0 -0.1875,0.1992188 0,0.1171875 0.09375,0.1171875 0.22265625,0.1171875 0.59765621,0 0.64453121,0.082031 0.72656251,0.3398437 l 1.2304687,3.2695313 c 0.011719,0.035156 0.035156,0.140625 0.035156,0.1757812 0,0.023437 -0.3984375,1.6289063 -0.4453125,1.80468751 -0.1289063,0.55078125 -0.140625,0.5859375 -0.9375,0.59765625 -0.18750001,0 -0.26953126,0 -0.26953126,0.19921875 0,0.1054687525 0.11718746,0.1054687525 0.14062496,0.1054687525 0.28125,0 0.9726563,-0.0351562525 1.2539063,-0.0351562525 0.28125,0 0.9960937,0.0351562525 1.2773437,0.0351562525 0.070312,0 0.1875,0 0.1875,-0.1992187525 0,-0.10546875 -0.082031,-0.10546875 -0.28125,-0.10546875 -0.011719,0 -0.1992187,0 -0.375,-0.0234375 -0.2109375,-0.0234375 -0.2695312,-0.0351563 -0.2695312,-0.1640625 0,-0.0703125 0.09375,-0.41015625 0.140625,-0.62109376 l 0.3515625,-1.40625 c 0.046875,-0.1875 0.058594,-0.2226562 0.140625,-0.3046875 z m 0,0"
       style="fill:#000000;fill-opacity:1;fill-rule:nonzero;stroke:none"
       aria-label="Y"
       transform="matrix(1.3333333,0,0,1.3333333,548.30133,142.94933)" />
    <path
       id="path28"
       d="m 1.8386328,-4.6288516 c 0.011719,-0.011719 0.023437,-0.1054687 0.023437,-0.1171875 0,-0.035156 -0.023437,-0.09375 -0.1054687,-0.09375 -0.140625,0 -0.7148438,0.058594 -0.89062504,0.070312 -0.0585938,0.011719 -0.15234375,0.011719 -0.15234375,0.1640625 0,0.09375 0.09375,0.09375 0.17578125,0.09375 0.33984374,0 0.33984374,0.046875 0.33984374,0.1054688 0,0.046875 -0.070312,0.328125 -0.1171875,0.4921875 l -0.15234374,0.6328125 c -0.0703125,0.2460937 -0.45703125,1.7695312 -0.46875,1.8632812 -0.0351563,0.1640625 -0.0351563,0.2578125 -0.0351563,0.3398438 0,0.70312499 0.4453125,1.14843749 1.03124994,1.14843749 0.8671875,0 1.7929688,-0.94921875 1.7929688,-1.98046879 0,-0.8203125 -0.5625,-1.1601562 -1.0429688,-1.1601562 -0.3632812,0 -0.6679687,0.1992187 -0.8789062,0.375 z m -0.3515625,4.50000004 c -0.3398437,0 -0.52734374,-0.29296875 -0.52734374,-0.703125 0,-0.25781254 0.0585937,-0.50390624 0.25781254,-1.28906254 0.035156,-0.1289062 0.035156,-0.140625 0.1640625,-0.2929687 0.2695312,-0.3164063 0.5859375,-0.46875 0.8320312,-0.46875 0.2695313,0 0.515625,0.2109375 0.515625,0.6796875 0,0.28125 -0.1523437,0.9960937 -0.3632812,1.40624999 -0.1757813,0.33984375 -0.515625,0.66796875 -0.8789063,0.66796875 z M 5.0612891,-1.5936953 c 0.1992187,0 0.75,-0.011719 1.125,-0.140625 0.515625,-0.1875 0.609375,-0.515625 0.609375,-0.7265625 0,-0.3867188 -0.375,-0.609375 -0.8554688,-0.609375 -0.84375,0 -1.96875,0.6328125 -1.96875,1.828125 0,0.70312499 0.4335938,1.31249999 1.2539063,1.31249999 1.1835937,0 1.734375,-0.69140625 1.734375,-0.78515625 0,-0.046875 -0.070312,-0.1171875 -0.1289063,-0.1171875 -0.035156,0 -0.046875,0.0117188 -0.1054687,0.0703125 -0.5507813,0.6328125 -1.359375,0.6328125 -1.4882813,0.6328125 -0.421875,0 -0.6914062,-0.28125 -0.6914062,-0.84375 0,-0.09375 0,-0.23437504 0.082031,-0.62109374 z m -0.375,-0.1875 c 0.28125,-1.0195313 1.0546875,-1.1015625 1.2539062,-1.1015625 0.3046875,0 0.5625,0.1523437 0.5625,0.421875 0,0.6796875 -1.1835937,0.6796875 -1.4765625,0.6796875 z m 6.3017579,-0.070312 c 0,-0.7734375 -0.574219,-1.21875 -1.2656251,-1.21875 -1.03125,0 -2.0039063,0.9609375 -2.0039063,1.921875 0,0.69140624 0.5039063,1.21874999 1.265625,1.21874999 0.9960938,0 2.0039064,-0.92578125 2.0039064,-1.92187499 z m -1.9921876,1.72265624 c -0.3515625,0 -0.703125,-0.22265625 -0.703125,-0.7734375 0,-0.28125004 0.140625,-0.96093754 0.4101562,-1.35937504 0.2929688,-0.4335937 0.703125,-0.6210937 1.0195313,-0.6210937 0.3750001,0 0.6914061,0.2578125 0.6914061,0.7734375 0,0.1757812 -0.08203,0.8554687 -0.386719,1.34765624 -0.2695309,0.41015625 -0.6796871,0.6328125 -1.0312496,0.6328125 z M 13.056406,-4.6288516 c 0.01172,-0.011719 0.02344,-0.1054687 0.02344,-0.1171875 0,-0.035156 -0.02344,-0.09375 -0.105469,-0.09375 -0.140625,0 -0.714844,0.058594 -0.890625,0.070312 -0.05859,0.011719 -0.152344,0.011719 -0.152344,0.1640625 0,0.09375 0.09375,0.09375 0.175782,0.09375 0.339843,0 0.339843,0.046875 0.339843,0.1054688 0,0.046875 -0.07031,0.328125 -0.117187,0.4921875 l -0.152346,0.632813 c -0.07031,0.2460937 -0.457031,1.7695312 -0.46875,1.8632812 -0.03516,0.1640625 -0.03516,0.2578125 -0.03516,0.3398438 0,0.70312499 0.445312,1.14843749 1.03125,1.14843749 0.867187,0 1.792969,-0.94921875 1.792969,-1.98046879 0,-0.8203125 -0.5625,-1.1601562 -1.042969,-1.1601562 -0.363281,0 -0.667969,0.1992187 -0.878906,0.375 z m -0.351562,4.50000004 c -0.339844,0 -0.527344,-0.29296875 -0.527344,-0.703125 0,-0.25781254 0.05859,-0.50390624 0.257813,-1.28906254 0.03516,-0.1289062 0.03516,-0.140625 0.164062,-0.2929687 0.269531,-0.3164063 0.585938,-0.46875 0.832031,-0.46875 0.269532,0 0.515625,0.2109375 0.515625,0.6796875 0,0.28125 -0.152343,0.9960937 -0.363281,1.40624999 -0.175781,0.33984375 -0.515625,0.66796875 -0.878906,0.66796875 z m 0,0"
       style="fill:#000000;fill-opacity:1;fill-rule:nonzero;stroke:none"
       aria-label="beob"
       transform="matrix(1.3333333,0,0,1.3333333,556.01333,144.94133)" />
    <path
       id="path29"
       d="m 399.67354,-113.38724 c 0,1.5564 -1.26169,2.81809 -2.81809,2.81809 -1.55639,0 -2.81808,-1.26169 -2.81808,-2.81809 0,-1.55638 1.26169,-2.81806 2.81808,-2.81806 1.5564,0 2.81809,1.26168 2.81809,2.81806 z"
       style="fill:#000000;fill-opacity:1;fill-rule:nonzero;stroke:none"
       transform="matrix(1.3333333,0,0,-1.3333333,10.450667,101.612)" />
    <path
       id="path30"
       d="m 3.7394219,-6.1167344 c 0.058594,-0.234375 0.082031,-0.3398437 0.28125,-0.3632812 0.082031,-0.011719 0.3984375,-0.011719 0.5976562,-0.011719 0.7148438,0 1.8164063,0 1.8164063,0.984375 0,0.3398438 -0.1523438,1.0195313 -0.5507813,1.4179688 -0.2578125,0.2578125 -0.7851562,0.5742187 -1.6757812,0.5742187 H 3.0948906 Z m 1.4296875,2.7304688 c 1.0078125,-0.2226563 2.1914062,-0.9140625 2.1914062,-1.921875 0,-0.8554688 -0.890625,-1.5 -2.203125,-1.5 H 2.3214531 c -0.1992187,0 -0.2929687,0 -0.2929687,0.1992187 0,0.1171875 0.09375,0.1171875 0.28125,0.1171875 0.023437,0 0.2109375,0 0.3867187,0.011719 0.1757813,0.023437 0.2578125,0.035156 0.2578125,0.1640625 0,0.035156 0,0.070312 -0.035156,0.1875 l -1.3359375,5.35546873 c -0.09375,0.38671875 -0.1171875,0.46875 -0.90234377,0.46875 -0.17578125,0 -0.26953125,0 -0.26953125,0.19921875 0,0.105468745 0.1171875,0.105468745 0.140625,0.105468745 0.28125,0 0.97265622,-0.035156245 1.25390622,-0.035156245 0.28125,0 0.984375,0.035156245 1.265625,0.035156245 0.082031,0 0.1992188,0 0.1992188,-0.199218745 0,-0.10546875 -0.09375,-0.10546875 -0.28125,-0.10546875 -0.3632813,0 -0.6445313,0 -0.6445313,-0.1875 0,-0.0585938 0.011719,-0.10546875 0.023437,-0.1640625 l 0.65625,-2.63671873 h 1.1953125 c 0.9023438,0 1.078125,0.5507812 1.078125,0.9023437 0,0.1523438 -0.082031,0.4570313 -0.140625,0.6914063 -0.070312,0.2695312 -0.1523437,0.6445312 -0.1523437,0.84374998 0,1.078125 1.1953125,1.078125 1.3242187,1.078125 0.84375,0 1.1953125,-1.0078125 1.1953125,-1.1484375 0,-0.11718748 -0.1171875,-0.11718748 -0.1171875,-0.11718748 -0.09375,0 -0.1171875,0.0703125 -0.1289062,0.14062498 -0.2578125,0.73828125 -0.6796875,0.902343745 -0.9140625,0.902343745 -0.328125,0 -0.3984375,-0.222656245 -0.3984375,-0.609374995 0,-0.3046875 0.058594,-0.82031253 0.1054687,-1.13671873 0.011719,-0.140625 0.035156,-0.328125 0.035156,-0.46875 0,-0.7617188 -0.6679688,-1.078125 -0.9374994,-1.1718752 z m 0,0"
       style="fill:#000000;fill-opacity:1;fill-rule:nonzero;stroke:none"
       aria-label="R"
       transform="matrix(1.3333333,0,0,1.3333333,534.49067,270.58533)" />
    <path
       id="path31"
       d="M 286.48553,56.69362 H 390.77419"
       style="fill:none;stroke:#000000;stroke-width:0.3985;stroke-linecap:butt;stroke-linejoin:miter;stroke-miterlimit:10;stroke-dasharray:none;stroke-opacity:1"
       transform="matrix(1.3333333,0,0,-1.3333333,10.450667,101.612)" />
    <path
       id="path32"
       d="M 4.21463,0 0.64343,1.34572 1.8178,0 0.64343,-1.34572 Z"
       style="fill:#000000;fill-opacity:1;fill-rule:nonzero;stroke:#000000;stroke-width:0.3985;stroke-linecap:butt;stroke-linejoin:miter;stroke-miterlimit:10;stroke-dasharray:none;stroke-opacity:1"
       transform="matrix(1.3333333,0,0,-1.3333333,529.192,26.020507)" />
    <path
       id="path33"
       d="M 396.85545,53.67627 V -22.26552"
       style="fill:none;stroke:#000000;stroke-width:0.3985;stroke-linecap:butt;stroke-linejoin:miter;stroke-miterlimit:10;stroke-dasharray:none;stroke-opacity:1"
       transform="matrix(1.3333333,0,0,-1.3333333,10.450667,101.612)" />
    <path
       id="path34"
       d="M 4.21463,0 0.64343,1.34572 1.8178,0 0.64343,-1.34572 Z"
       style="fill:#000000;fill-opacity:1;fill-rule:nonzero;stroke:#000000;stroke-width:0.3985;stroke-linecap:butt;stroke-linejoin:miter;stroke-miterlimit:10;stroke-dasharray:none;stroke-opacity:1"
       transform="matrix(0,1.3333333,1.3333333,0,539.59127,129.00844)" />
    <path
       id="path35"
       d="m 396.85545,-110.36989 v 75.94187"
       style="fill:none;stroke:#000000;stroke-width:0.3985;stroke-linecap:butt;stroke-linejoin:miter;stroke-miterlimit:10;stroke-dasharray:none;stroke-opacity:1"
       transform="matrix(1.3333333,0,0,-1.3333333,10.450667,101.612)" />
    <path
       id="path36"
       d="M 4.21463,0 0.64343,1.34572 1.8178,0 0.64343,-1.34572 Z"
       style="fill:#000000;fill-opacity:1;fill-rule:nonzero;stroke:#000000;stroke-width:0.3985;stroke-linecap:butt;stroke-linejoin:miter;stroke-miterlimit:10;stroke-dasharray:none;stroke-opacity:1"
       transform="matrix(0,-1.3333333,-1.3333333,0,539.59127,149.80695)" />
    <path
       id="path37"
       d="M 285.14183,54.18312 393.48235,-108.32753"
       style="fill:none;stroke:#000000;stroke-width:0.3985;stroke-linecap:butt;stroke-linejoin:miter;stroke-miterlimit:10;stroke-dasharray:none;stroke-opacity:1"
       transform="matrix(1.3333333,0,0,-1.3333333,10.450667,101.612)" />
    <path
       id="path38"
       d="M 4.21463,0 0.64343,1.34572 1.8178,0 0.64343,-1.34572 Z"
       style="fill:#000000;fill-opacity:1;fill-rule:nonzero;stroke:#000000;stroke-width:0.3985;stroke-linecap:butt;stroke-linejoin:miter;stroke-miterlimit:10;stroke-dasharray:none;stroke-opacity:1"
       transform="matrix(0.73956,1.10936,1.10936,-0.73956,533.82308,244.14261)" />
    <path
       id="path39"
       d="m 399.87277,56.69362 c 99.48972,0 99.48972,-170.08086 3.06392,-170.08086"
       style="fill:none;stroke:#000000;stroke-width:0.3985;stroke-linecap:butt;stroke-linejoin:miter;stroke-miterlimit:10;stroke-dasharray:none;stroke-opacity:1"
       transform="matrix(1.3333333,0,0,-1.3333333,10.450667,101.612)" />
    <path
       id="path40"
       d="M 4.21463,0 0.64343,1.34572 1.8178,0 0.64343,-1.34572 Z"
       style="fill:#000000;fill-opacity:1;fill-rule:nonzero;stroke:#000000;stroke-width:0.3985;stroke-linecap:butt;stroke-linejoin:miter;stroke-miterlimit:10;stroke-dasharray:none;stroke-opacity:1"
       transform="matrix(-1.3333333,0,0,1.3333333,549.99051,252.79499)" />
  </g>
</svg>
