<?xml version="1.0" encoding="UTF-8" standalone="no"?>
<!-- Created with Inkscape (http://www.inkscape.org/) -->

<svg
   version="1.1"
   id="svg1"
   width="315.70267"
   height="159.81866"
   viewBox="0 0 315.70267 159.81866"
   xmlns="http://www.w3.org/2000/svg"
   xmlns:svg="http://www.w3.org/2000/svg">
  <defs
     id="defs1" />
  <g
     id="g1">
    <path
       id="path1"
       d="m 2.81807,28.3468 c 0,1.5564 -1.26169,2.81809 -2.81807,2.81809 -1.55638,0 -2.81807,-1.26169 -2.81807,-2.81809 0,-1.5564 1.26169,-2.81808 2.81807,-2.81808 1.55638,0 2.81807,1.26168 2.81807,2.81808 z"
       style="fill:#000000;fill-opacity:1;fill-rule:nonzero;stroke:none"
       transform="matrix(1.3333333,0,0,-1.3333333,10.450667,60.014667)" />
    <path
       id="path2"
       d="M 4.8293906,-4.0899141 3.9973594,-6.0821016 c -0.035156,-0.070312 -0.046875,-0.1171875 -0.046875,-0.1289062 0,-0.058594 0.1640625,-0.2460938 0.5859375,-0.28125 0.09375,-0.011719 0.1992187,-0.023437 0.1992187,-0.1875 0,-0.1289063 -0.1171875,-0.1289063 -0.1523437,-0.1289063 -0.4101563,0 -0.8320313,0.035156 -1.2539063,0.035156 -0.2460937,0 -0.8671875,-0.035156 -1.1132812,-0.035156 -0.058594,0 -0.1875,0 -0.1875,0.1992188 0,0.1171875 0.1054687,0.1171875 0.234375,0.1171875 0.5976562,0 0.65625,0.09375 0.75,0.3164062 l 1.171875,2.7773438 -2.0976563,2.2617187 -0.1289062,0.1054688 c -0.4921875,0.52734374 -0.96093753,0.69140624 -1.46484378,0.72656249 -0.12890625,0 -0.22265625,0 -0.22265625,0.19921875 0,0 0,0.1054687475 0.12890625,0.1054687475 0.3046875,0 0.63281248,-0.0351562475 0.93749998,-0.0351562475 0.3632813,0 0.7617188,0.0351562475 1.1132813,0.0351562475 0.058594,0 0.1757812,0 0.1757812,-0.1992187475 0,-0.10546875 -0.09375,-0.10546875 -0.1171875,-0.10546875 -0.082031,-0.0117188 -0.3984375,-0.0351563 -0.3984375,-0.31640625 0,-0.15234375 0.1523438,-0.31640625 0.2695313,-0.44531254 l 1.0195312,-1.078125 0.890625,-0.9726562 1.0078125,2.37890624 c 0.046875,0.10546875 0.046875,0.1171875 0.046875,0.140625 0,0.0820313 -0.1875,0.24609375 -0.5742187,0.29296875 -0.1054688,0 -0.1992188,0.0117188 -0.1992188,0.1875 0,0.1171874975 0.1171875,0.1171874975 0.1523438,0.1171874975 0.28125,0 0.9726562,-0.0351562475 1.2539062,-0.0351562475 0.2460938,0 0.8554688,0.0351562475 1.1015625,0.0351562475 0.070312,0 0.1992188,0 0.1992188,-0.1874999975 0,-0.1171875 -0.1054688,-0.1171875 -0.1875,-0.1171875 -0.6679688,-0.0117188 -0.6796875,-0.046875 -0.8554688,-0.4453125 C 5.8489219,-1.6758516 5.1809531,-3.2227266 4.9465781,-3.8203828 c 0.6796875,-0.703125 1.734375,-1.8867188 2.0507813,-2.1679688 0.28125,-0.234375 0.6679687,-0.4804687 1.265625,-0.5039062 0.1289062,-0.011719 0.2109375,-0.011719 0.2109375,-0.1992188 0,-0.011719 0,-0.1171875 -0.1289063,-0.1171875 -0.2929687,0 -0.6210937,0.035156 -0.9375,0.035156 -0.3632812,0 -0.7382812,-0.035156 -1.1015625,-0.035156 -0.058594,0 -0.1875,0 -0.1875,0.1992188 0,0.070312 0.046875,0.1054687 0.1171875,0.1171875 0.09375,0.011719 0.3984375,0.023437 0.3984375,0.3046875 0,0.140625 -0.1054687,0.2695312 -0.1875,0.3632812 z m 0,0"
       style="fill:#000000;fill-opacity:1;fill-rule:nonzero;stroke:none"
       aria-label="X"
       transform="matrix(1.3333333,0,0,1.3333333,4.428,13.504)" />
    <path
       id="path3"
       d="m 59.51169,28.3468 c 0,1.5564 -1.26169,2.81809 -2.81807,2.81809 -1.5564,0 -2.81809,-1.26169 -2.81809,-2.81809 0,-1.5564 1.26169,-2.81808 2.81809,-2.81808 1.55638,0 2.81807,1.26168 2.81807,2.81808 z"
       style="fill:none;stroke:#000000;stroke-width:0.3985;stroke-linecap:butt;stroke-linejoin:miter;stroke-miterlimit:10;stroke-dasharray:none;stroke-opacity:1"
       transform="matrix(1.3333333,0,0,-1.3333333,10.450667,60.014667)" />
    <path
       id="path4"
       d="m 5.9426094,-5.6719453 0.140625,-0.140625 c 0.3046875,-0.2929688 0.6328125,-0.6328125 1.3125,-0.6796875 0.1054687,-0.011719 0.1992187,-0.011719 0.1992187,-0.1875 0,-0.082031 -0.058594,-0.1289063 -0.1289062,-0.1289063 -0.2578125,0 -0.5507813,0.035156 -0.8203125,0.035156 -0.328125,0 -0.6796875,-0.035156 -0.9960938,-0.035156 -0.058594,0 -0.1875,0 -0.1875,0.1992188 0,0.1054687 0.09375,0.1171875 0.1523438,0.1171875 0.070312,0 0.3515625,0.011719 0.3515625,0.2226562 0,0.1757813 -0.2226563,0.4335938 -0.2695313,0.4804688 l -2.3085937,2.6601562 -1.0898438,-2.953125 c -0.070312,-0.140625 -0.070312,-0.1640625 -0.070312,-0.1757812 0,-0.234375 0.4921875,-0.234375 0.5976563,-0.234375 0.1289062,0 0.234375,0 0.234375,-0.1992188 0,-0.1171875 -0.1171875,-0.1171875 -0.1523438,-0.1171875 -0.28125,0 -0.9726562,0.035156 -1.2539062,0.035156 -0.2460938,0 -0.86718752,-0.035156 -1.11328127,-0.035156 -0.0585938,0 -0.1875,0 -0.1875,0.1992188 0,0.1171875 0.09375,0.1171875 0.22265625,0.1171875 0.59765622,0 0.64453122,0.082031 0.72656252,0.3398437 l 1.2304687,3.2695313 c 0.011719,0.035156 0.035156,0.140625 0.035156,0.1757812 0,0.023437 -0.3984375,1.6289063 -0.4453125,1.80468754 -0.1289063,0.55078125 -0.140625,0.5859375 -0.9375,0.59765625 -0.18750002,0 -0.26953127,0 -0.26953127,0.19921875 0,0.1054687475 0.11718747,0.1054687475 0.14062497,0.1054687475 0.28125,0 0.9726563,-0.0351562475 1.2539063,-0.0351562475 0.28125,0 0.9960937,0.0351562475 1.2773437,0.0351562475 0.070312,0 0.1875,0 0.1875,-0.1992187475 0,-0.10546875 -0.082031,-0.10546875 -0.28125,-0.10546875 -0.011719,0 -0.1992187,0 -0.375,-0.0234375 -0.2109375,-0.0234375 -0.2695312,-0.0351563 -0.2695312,-0.1640625 0,-0.0703125 0.09375,-0.41015625 0.140625,-0.62109379 l 0.3515625,-1.40625 c 0.046875,-0.1875 0.058594,-0.2226562 0.140625,-0.3046875 z m 0,0"
       style="fill:#000000;fill-opacity:1;fill-rule:nonzero;stroke:none"
       aria-label="Y"
       transform="matrix(1.3333333,0,0,1.3333333,80.709333,13.504)" />
    <path
       id="path5"
       d="m 59.51169,-14.17339 c 0,1.5564 -1.26169,2.81809 -2.81807,2.81809 -1.5564,0 -2.81809,-1.26169 -2.81809,-2.81809 0,-1.55639 1.26169,-2.81808 2.81809,-2.81808 1.55638,0 2.81807,1.26169 2.81807,2.81808 z"
       style="fill:none;stroke:#000000;stroke-width:1.39478;stroke-linecap:butt;stroke-linejoin:miter;stroke-miterlimit:10;stroke-dasharray:none;stroke-opacity:1"
       transform="matrix(1.3333333,0,0,-1.3333333,10.450667,60.014667)" />
    <path
       id="path6"
       d="m 59.51169,-14.17339 c 0,1.5564 -1.26169,2.81809 -2.81807,2.81809 -1.5564,0 -2.81809,-1.26169 -2.81809,-2.81809 0,-1.55639 1.26169,-2.81808 2.81809,-2.81808 1.55638,0 2.81807,1.26169 2.81807,2.81808 z"
       style="fill:none;stroke:#ffffff;stroke-width:0.59776;stroke-linecap:butt;stroke-linejoin:miter;stroke-miterlimit:10;stroke-dasharray:none;stroke-opacity:1"
       transform="matrix(1.3333333,0,0,-1.3333333,10.450667,60.014667)" />
    <path
       id="path7"
       d="m 5.9417656,-5.6706641 0.140625,-0.140625 c 0.3046875,-0.2929687 0.6328125,-0.6328125 1.3125,-0.6796875 0.1054688,-0.011719 0.1992188,-0.011719 0.1992188,-0.1875 0,-0.082031 -0.058594,-0.1289062 -0.1289063,-0.1289062 -0.2578125,0 -0.5507812,0.035156 -0.8203125,0.035156 -0.328125,0 -0.6796875,-0.035156 -0.9960937,-0.035156 -0.058594,0 -0.1875,0 -0.1875,0.1992187 0,0.1054688 0.09375,0.1171875 0.1523437,0.1171875 0.070312,0 0.3515625,0.011719 0.3515625,0.2226563 0,0.1757812 -0.2226562,0.4335937 -0.2695312,0.4804687 l -2.3085938,2.6601563 -1.0898437,-2.953125 c -0.070312,-0.140625 -0.070312,-0.1640625 -0.070312,-0.1757813 0,-0.234375 0.4921875,-0.234375 0.5976562,-0.234375 0.1289063,0 0.234375,0 0.234375,-0.1992187 0,-0.1171875 -0.1171875,-0.1171875 -0.1523437,-0.1171875 -0.28125,0 -0.9726563,0.035156 -1.2539063,0.035156 -0.2460937,0 -0.86718747,-0.035156 -1.11328122,-0.035156 -0.0585938,0 -0.1875,0 -0.1875,0.1992187 0,0.1171875 0.09375,0.1171875 0.22265625,0.1171875 0.59765627,0 0.64453127,0.082031 0.72656247,0.3398438 l 1.2304688,3.2695312 c 0.011719,0.035156 0.035156,0.140625 0.035156,0.1757813 0,0.023437 -0.3984375,1.6289062 -0.4453125,1.80468749 -0.1289062,0.55078125 -0.140625,0.5859375 -0.9375,0.59765625 -0.18749997,0 -0.26953122,0 -0.26953122,0.19921875 0,0.10546875 0.11718752,0.10546875 0.14062502,0.10546875 0.28125,0 0.9726562,-0.03515625 1.2539062,-0.03515625 0.28125,0 0.9960938,0.03515625 1.2773438,0.03515625 0.070312,0 0.1875,0 0.1875,-0.19921875 0,-0.10546875 -0.082031,-0.10546875 -0.28125,-0.10546875 -0.011719,0 -0.1992188,0 -0.375,-0.0234375 -0.2109375,-0.0234375 -0.2695313,-0.0351563 -0.2695313,-0.1640625 0,-0.0703125 0.09375,-0.41015625 0.140625,-0.62109374 l 0.3515625,-1.40625 c 0.046875,-0.1875 0.058594,-0.2226563 0.140625,-0.3046875 z m 0,0"
       style="fill:#000000;fill-opacity:1;fill-rule:nonzero;stroke:none"
       aria-label="Y"
       transform="matrix(1.3333333,0,0,1.3333333,94.757333,83.486667)" />
    <path
       id="path8"
       d="m 2.2504062,-1.7353281 c 0.5742188,-0.2578125 0.8320313,-0.3515625 1.0078125,-0.4335938 0.1289063,-0.058594 0.1992188,-0.082031 0.1992188,-0.2109375 0,-0.1289062 -0.09375,-0.234375 -0.2226563,-0.234375 -0.046875,0 -0.058594,0 -0.140625,0.070312 l -0.9492187,0.6328125 0.1054687,-1.03125 c 0.011719,-0.1289062 0,-0.3046875 -0.2109375,-0.3046875 -0.082031,0 -0.2226562,0.058594 -0.2226562,0.2109375 0,0.070312 0.035156,0.2695313 0.035156,0.3398438 0.011719,0.1171875 0.070312,0.6210937 0.082031,0.7851562 L 0.98478125,-2.5439219 C 0.9261875,-2.5907969 0.90275,-2.6142344 0.8324375,-2.6142344 c -0.1171875,0 -0.2109375,0.1054688 -0.2109375,0.234375 0,0.1289063 0.0820313,0.1640625 0.140625,0.1992188 l 1.0546875,0.4335937 c -0.5625,0.2578125 -0.83203125,0.3515625 -0.99609375,0.4335938 -0.140625,0.058594 -0.19921875,0.082031 -0.19921875,0.2226562 0,0.11718752 0.09375,0.22265627 0.2109375,0.22265627 0.0585938,0 0.0703125,0 0.15234375,-0.0703125 L 1.934,-1.5712656 1.8168125,-0.44626563 c 0,0.15234375 0.140625,0.2109375 0.2226562,0.2109375 0.082031,0 0.2109375,-0.0585938 0.2109375,-0.2109375 0,-0.0585937 -0.023437,-0.26953125 -0.035156,-0.33984375 -0.011719,-0.1171875 -0.058594,-0.62109372 -0.070312,-0.78515622 l 0.8320312,0.5625 c 0.1875,0.14062497 0.1992188,0.14062497 0.2578125,0.14062497 0.1289063,0 0.2226563,-0.10546875 0.2226563,-0.22265627 0,-0.140625 -0.09375,-0.1757812 -0.1523438,-0.2109375 z m 0,0"
       style="fill:#000000;fill-opacity:1;fill-rule:nonzero;stroke:none"
       aria-label="∗"
       transform="matrix(1.3333333,0,0,1.3333333,105.42133,78.665333)" />
    <path
       id="path9"
       d="m 59.51169,-56.69362 c 0,1.5564 -1.26169,2.81809 -2.81807,2.81809 -1.5564,0 -2.81809,-1.26169 -2.81809,-2.81809 0,-1.55638 1.26169,-2.81807 2.81809,-2.81807 1.55638,0 2.81807,1.26169 2.81807,2.81807 z"
       style="fill:#000000;fill-opacity:1;fill-rule:nonzero;stroke:none"
       transform="matrix(1.3333333,0,0,-1.3333333,10.450667,60.014667)" />
    <path
       id="path10"
       d="m 9.2226563,-6.0353281 c 0.09375,-0.3632813 0.1054687,-0.4570313 0.8554687,-0.4570313 0.234375,0 0.316406,0 0.316406,-0.1992187 0,-0.1171875 -0.09375,-0.1171875 -0.269531,-0.1171875 H 8.8125 c -0.2578125,0 -0.2695312,0 -0.3867187,0.1992187 L 4.7929688,-0.93767187 4.0195313,-6.5743906 C 3.984375,-6.8087656 3.9609375,-6.8087656 3.703125,-6.8087656 H 2.34375 c -0.1875,0 -0.3046875,0 -0.3046875,0.1992187 0,0.1171875 0.09375,0.1171875 0.2929688,0.1171875 0.1289062,0 0.3046875,0.011719 0.421875,0.011719 0.1640625,0.023437 0.2226562,0.058594 0.2226562,0.1640625 0,0.035156 -0.011719,0.070312 -0.035156,0.1875 l -1.265625,5.0742187 c -0.1054688,0.39843753 -0.2695313,0.71484378 -1.07812505,0.75000003 -0.046875,0 -0.17578125,0 -0.17578125,0.1875 0,0.08203125 0.0585938,0.117187495 0.140625,0.117187495 0.31640625,0 0.6679688,-0.035156245 0.9960938,-0.035156245 0.3398437,0 0.6914062,0.035156245 1.0195312,0.035156245 0.046875,0 0.1757813,0 0.1757813,-0.199218745 0,-0.10546875 -0.1054688,-0.10546875 -0.1757813,-0.10546875 -0.5625,-0.0117188 -0.6796875,-0.2109375 -0.6796875,-0.4453125 0,-0.0703125 0.011719,-0.1171875 0.046875,-0.22265625 L 3.2929688,-6.4103281 h 0.011719 l 0.8554688,6.17578123 c 0.023437,0.12890625 0.035156,0.234374995 0.1523437,0.234374995 0.1054688,0 0.1757813,-0.105468745 0.2226563,-0.175781245 L 8.5546875,-6.4806406 h 0.011719 L 7.136719,-0.77360937 c -0.09375,0.38671875 -0.1171875,0.46875 -0.9023438,0.46875 -0.1640625,0 -0.28125,0 -0.28125,0.1875 0,0.117187495 0.1289063,0.117187495 0.1523438,0.117187495 0.28125,0 0.9609375,-0.035156245 1.2304687,-0.035156245 0.4101563,0 0.84375,0.035156245 1.2539063,0.035156245 0.058594,0 0.1875,0 0.1875,-0.199218745 0,-0.10546875 -0.09375,-0.10546875 -0.28125,-0.10546875 -0.3632813,0 -0.6445313,0 -0.6445313,-0.1875 0,-0.0351562 0,-0.0585937 0.046875,-0.234375 z m 0,0"
       style="fill:#000000;fill-opacity:1;fill-rule:nonzero;stroke:none"
       aria-label="M"
       transform="matrix(1.3333333,0,0,1.3333333,75,153.39867)" />
    <path
       id="path11"
       d="m 4.7226953,-3.9258125 c 0.140625,-0.140625 0.28125,-0.2695312 0.4335938,-0.375 0.28125,-0.1875 0.5390625,-0.1992187 0.6328125,-0.2109375 0.070312,-0.011719 0.1640625,-0.011719 0.1640625,-0.1523437 0,-0.046875 -0.046875,-0.09375 -0.1054688,-0.09375 -0.1757812,0 -0.3867187,0.023437 -0.5625,0.023437 -0.2226562,0 -0.515625,-0.023437 -0.7265625,-0.023437 -0.035156,0 -0.140625,0 -0.140625,0.1523437 0,0.082031 0.09375,0.09375 0.1289063,0.09375 0.1992187,0.011719 0.1992187,0.09375 0.1992187,0.1289063 0,0.070312 -0.035156,0.1171875 -0.09375,0.1875 C 4.6172266,-4.13675 4.5820703,-4.089875 4.5351953,-4.043 l -1.734375,1.8164063 -0.9257812,-2.0390625 c -0.046875,-0.09375 -0.046875,-0.1171875 -0.046875,-0.1171875 0,-0.1289063 0.328125,-0.1289063 0.375,-0.1289063 0.09375,0 0.1757812,0 0.1757812,-0.1523437 0,-0.011719 0,-0.09375 -0.1054687,-0.09375 -0.2109375,0 -0.7265625,0.023437 -0.9375,0.023437 -0.1757813,0 -0.62109379,-0.023437 -0.79687504,-0.023437 -0.046875,0 -0.12890625,0.011719 -0.12890625,0.1523437 0,0.09375 0.0820313,0.09375 0.1875,0.09375 0.3984375,0 0.42187499,0.058594 0.49218749,0.2109375 l 1.0898438,2.390625 -0.3164063,1.27734375 c -0.09375,0.3515625 -0.09375,0.375 -0.6445312,0.38671875 -0.1171875,0 -0.2109375,0 -0.2109375,0.140625 0,0.0703125 0.046875,0.10546875 0.1171875,0.10546875 0.1289062,0 0.2929687,-0.0234375 0.4335937,-0.0234375 0.1289063,0 0.328125,0 0.4570313,0 0.140625,0 0.3046875,0 0.4453125,0 0.1523437,0 0.3164062,0.0234375 0.46875,0.0234375 0.035156,0 0.1523437,0 0.1523437,-0.15234375 0,-0.09375 -0.082031,-0.09375 -0.234375,-0.09375 -0.1171875,0 -0.140625,0 -0.2695312,-0.0234375 C 2.4492578,-0.2812813 2.4258203,-0.293 2.4258203,-0.3633125 c 0,-0.046875 0.082031,-0.375 0.1289063,-0.5625 0.058594,-0.2226562 0.2109375,-0.8320312 0.2226562,-0.8554687 0.023437,-0.1054688 0.023437,-0.1171875 0.09375,-0.1875 z m 0,0"
       style="fill:#000000;fill-opacity:1;fill-rule:nonzero;stroke:none"
       aria-label="Y"
       transform="matrix(1.3333333,0,0,1.3333333,87.886667,155.39067)" />
    <path
       id="path12"
       d="M 3.01733,28.3468 H 50.61237"
       style="fill:none;stroke:#000000;stroke-width:0.3985;stroke-linecap:butt;stroke-linejoin:miter;stroke-miterlimit:10;stroke-dasharray:none;stroke-opacity:1"
       transform="matrix(1.3333333,0,0,-1.3333333,10.450667,60.014667)" />
    <path
       id="path13"
       d="M 4.21463,0 0.64343,1.34572 1.8178,0 0.64343,-1.34572 Z"
       style="fill:#000000;fill-opacity:1;fill-rule:nonzero;stroke:#000000;stroke-width:0.3985;stroke-linecap:butt;stroke-linejoin:miter;stroke-miterlimit:10;stroke-dasharray:none;stroke-opacity:1"
       transform="matrix(1.3333333,0,0,-1.3333333,75.642907,22.218933)" />
    <path
       id="path14"
       d="M 56.69362,25.32947 V -8.09215"
       style="fill:none;stroke:#000000;stroke-width:0.3985;stroke-linecap:butt;stroke-linejoin:miter;stroke-miterlimit:10;stroke-dasharray:none;stroke-opacity:1"
       transform="matrix(1.3333333,0,0,-1.3333333,10.450667,60.014667)" />
    <path
       id="path15"
       d="M 4.21463,0 0.64343,1.34572 1.8178,0 0.64343,-1.34572 Z"
       style="fill:#000000;fill-opacity:1;fill-rule:nonzero;stroke:#000000;stroke-width:0.3985;stroke-linecap:butt;stroke-linejoin:miter;stroke-miterlimit:10;stroke-dasharray:none;stroke-opacity:1"
       transform="matrix(0,1.3333333,1.3333333,0,86.04216,68.513267)" />
    <path
       id="path16"
       d="m 56.69362,-53.67628 v 33.42164"
       style="fill:none;stroke:#000000;stroke-width:0.3985;stroke-linecap:butt;stroke-linejoin:miter;stroke-miterlimit:10;stroke-dasharray:none;stroke-opacity:1"
       transform="matrix(1.3333333,0,0,-1.3333333,10.450667,60.014667)" />
    <path
       id="path17"
       d="M 4.21463,0 0.64343,1.34572 1.8178,0 0.64343,-1.34572 Z"
       style="fill:#000000;fill-opacity:1;fill-rule:nonzero;stroke:#000000;stroke-width:0.3985;stroke-linecap:butt;stroke-linejoin:miter;stroke-miterlimit:10;stroke-dasharray:none;stroke-opacity:1"
       transform="matrix(0,-1.3333333,-1.3333333,0,86.04216,89.31176)" />
    <path
       id="path18"
       d="M 59.30666,26.8382 C 87.00803,10.8449 87.00803,-39.19171 61.96004,-53.65309"
       style="fill:none;stroke:#000000;stroke-width:0.3985;stroke-linecap:butt;stroke-linejoin:miter;stroke-miterlimit:10;stroke-dasharray:none;stroke-opacity:1"
       transform="matrix(1.3333333,0,0,-1.3333333,10.450667,60.014667)" />
    <path
       id="path19"
       d="M 4.21463,0 0.64343,1.34572 1.8178,0 0.64343,-1.34572 Z"
       style="fill:#000000;fill-opacity:1;fill-rule:nonzero;stroke:#000000;stroke-width:0.3985;stroke-linecap:butt;stroke-linejoin:miter;stroke-miterlimit:10;stroke-dasharray:none;stroke-opacity:1"
       transform="matrix(-1.15468,0.66664,0.66664,1.15468,95.048,130.40672)" />
    <path
       id="path20"
       d="m 144.55219,28.3468 c 0,1.5564 -1.26169,2.81809 -2.81809,2.81809 -1.5564,0 -2.81808,-1.26169 -2.81808,-2.81809 0,-1.5564 1.26168,-2.81808 2.81808,-2.81808 1.5564,0 2.81809,1.26168 2.81809,2.81808 z"
       style="fill:#000000;fill-opacity:1;fill-rule:nonzero;stroke:none"
       transform="matrix(1.3333333,0,0,-1.3333333,10.450667,60.014667)" />
    <path
       id="path21"
       d="M 4.8268828,-4.0899141 3.9948516,-6.0821016 c -0.035156,-0.070312 -0.046875,-0.1171875 -0.046875,-0.1289062 0,-0.058594 0.1640625,-0.2460938 0.5859375,-0.28125 0.09375,-0.011719 0.1992187,-0.023437 0.1992187,-0.1875 0,-0.1289063 -0.1171875,-0.1289063 -0.1523437,-0.1289063 -0.4101563,0 -0.8320313,0.035156 -1.2539063,0.035156 -0.2460937,0 -0.8671875,-0.035156 -1.1132812,-0.035156 -0.058594,0 -0.1875,0 -0.1875,0.1992188 0,0.1171875 0.1054687,0.1171875 0.234375,0.1171875 0.5976562,0 0.65625,0.09375 0.75,0.3164062 l 1.171875,2.7773438 -2.0976563,2.2617187 -0.1289062,0.1054688 c -0.4921875,0.52734374 -0.96093754,0.69140624 -1.46484379,0.72656249 -0.12890625,0 -0.22265625,0 -0.22265625,0.19921875 0,0 0,0.1054687475 0.12890625,0.1054687475 0.3046875,0 0.63281249,-0.0351562475 0.93749999,-0.0351562475 0.3632813,0 0.7617188,0.0351562475 1.1132813,0.0351562475 0.058594,0 0.1757812,0 0.1757812,-0.1992187475 0,-0.10546875 -0.09375,-0.10546875 -0.1171875,-0.10546875 -0.082031,-0.0117188 -0.3984375,-0.0351563 -0.3984375,-0.31640625 0,-0.15234375 0.1523438,-0.31640625 0.2695313,-0.44531254 l 1.0195312,-1.078125 0.890625,-0.9726562 1.0078125,2.37890624 c 0.046875,0.10546875 0.046875,0.1171875 0.046875,0.140625 0,0.0820313 -0.1875,0.24609375 -0.5742187,0.29296875 -0.1054688,0 -0.1992188,0.0117188 -0.1992188,0.1875 0,0.1171874975 0.1171875,0.1171874975 0.1523438,0.1171874975 0.28125,0 0.9726562,-0.0351562475 1.2539062,-0.0351562475 0.2460938,0 0.8554688,0.0351562475 1.1015625,0.0351562475 0.070312,0 0.1992188,0 0.1992188,-0.1874999975 0,-0.1171875 -0.1054688,-0.1171875 -0.1875,-0.1171875 -0.6679688,-0.0117188 -0.6796875,-0.046875 -0.8554688,-0.4453125 C 5.8464141,-1.6758516 5.1784453,-3.2227266 4.9440703,-3.8203828 c 0.6796875,-0.703125 1.734375,-1.8867188 2.0507813,-2.1679688 0.28125,-0.234375 0.6679687,-0.4804687 1.265625,-0.5039062 0.1289062,-0.011719 0.2109375,-0.011719 0.2109375,-0.1992188 0,-0.011719 0,-0.1171875 -0.1289063,-0.1171875 -0.2929687,0 -0.6210937,0.035156 -0.9375,0.035156 -0.3632812,0 -0.7382812,-0.035156 -1.1015625,-0.035156 -0.058594,0 -0.1875,0 -0.1875,0.1992188 0,0.070312 0.046875,0.1054687 0.1171875,0.1171875 0.09375,0.011719 0.3984375,0.023437 0.3984375,0.3046875 0,0.140625 -0.1054687,0.2695312 -0.1875,0.3632812 z m 0,0"
       style="fill:#000000;fill-opacity:1;fill-rule:nonzero;stroke:none"
       aria-label="X"
       transform="matrix(1.3333333,0,0,1.3333333,193.404,13.504)" />
    <path
       id="path22"
       d="m 201.2458,28.3468 c 0,1.5564 -1.26168,2.81809 -2.81808,2.81809 -1.5564,0 -2.81809,-1.26169 -2.81809,-2.81809 0,-1.5564 1.26169,-2.81808 2.81809,-2.81808 1.5564,0 2.81808,1.26168 2.81808,2.81808 z"
       style="fill:none;stroke:#000000;stroke-width:0.3985;stroke-linecap:butt;stroke-linejoin:miter;stroke-miterlimit:10;stroke-dasharray:none;stroke-opacity:1"
       transform="matrix(1.3333333,0,0,-1.3333333,10.450667,60.014667)" />
    <path
       id="path23"
       d="m 5.9420313,-5.6719453 0.140625,-0.140625 c 0.3046875,-0.2929688 0.6328125,-0.6328125 1.3125,-0.6796875 0.1054687,-0.011719 0.1992187,-0.011719 0.1992187,-0.1875 0,-0.082031 -0.058594,-0.1289063 -0.1289062,-0.1289063 -0.2578125,0 -0.5507813,0.035156 -0.8203125,0.035156 -0.328125,0 -0.6796875,-0.035156 -0.9960938,-0.035156 -0.058594,0 -0.1875,0 -0.1875,0.1992188 0,0.1054687 0.09375,0.1171875 0.1523438,0.1171875 0.070312,0 0.3515625,0.011719 0.3515625,0.2226562 0,0.1757813 -0.2226563,0.4335938 -0.2695313,0.4804688 L 3.3873438,-3.1289766 2.2975,-6.0821016 c -0.070312,-0.140625 -0.070312,-0.1640625 -0.070312,-0.1757812 0,-0.234375 0.4921875,-0.234375 0.5976563,-0.234375 0.1289062,0 0.234375,0 0.234375,-0.1992188 0,-0.1171875 -0.1171875,-0.1171875 -0.1523438,-0.1171875 -0.28125,0 -0.9726562,0.035156 -1.2539062,0.035156 -0.2460938,0 -0.86718755,-0.035156 -1.1132813,-0.035156 -0.0585938,0 -0.1875,0 -0.1875,0.1992188 0,0.1171875 0.09375,0.1171875 0.22265625,0.1171875 0.59765625,0 0.64453125,0.082031 0.72656255,0.3398437 l 1.2304687,3.2695313 c 0.011719,0.035156 0.035156,0.140625 0.035156,0.1757812 0,0.023437 -0.3984375,1.6289063 -0.4453125,1.80468754 -0.1289063,0.55078125 -0.140625,0.5859375 -0.9375,0.59765625 -0.18750005,0 -0.2695313,0 -0.2695313,0.19921875 0,0.1054687475 0.1171875,0.1054687475 0.140625,0.1054687475 0.28125,0 0.9726563,-0.0351562475 1.2539063,-0.0351562475 0.28125,0 0.9960937,0.0351562475 1.2773437,0.0351562475 0.070312,0 0.1875,0 0.1875,-0.1992187475 0,-0.10546875 -0.082031,-0.10546875 -0.28125,-0.10546875 -0.011719,0 -0.1992187,0 -0.375,-0.0234375 -0.2109375,-0.0234375 -0.2695312,-0.0351563 -0.2695312,-0.1640625 0,-0.0703125 0.09375,-0.41015625 0.140625,-0.62109379 l 0.3515625,-1.40625 c 0.046875,-0.1875 0.058594,-0.2226562 0.140625,-0.3046875 z m 0,0"
       style="fill:#000000;fill-opacity:1;fill-rule:nonzero;stroke:none"
       aria-label="Y"
       transform="matrix(1.3333333,0,0,1.3333333,269.68667,13.504)" />
    <path
       id="path24"
       d="m 201.2458,-14.17339 c 0,1.5564 -1.26168,2.81809 -2.81808,2.81809 -1.5564,0 -2.81809,-1.26169 -2.81809,-2.81809 0,-1.55639 1.26169,-2.81808 2.81809,-2.81808 1.5564,0 2.81808,1.26169 2.81808,2.81808 z"
       style="fill:none;stroke:#000000;stroke-width:1.39478;stroke-linecap:butt;stroke-linejoin:miter;stroke-miterlimit:10;stroke-dasharray:none;stroke-opacity:1"
       transform="matrix(1.3333333,0,0,-1.3333333,10.450667,60.014667)" />
    <path
       id="path25"
       d="m 201.2458,-14.17339 c 0,1.5564 -1.26168,2.81809 -2.81808,2.81809 -1.5564,0 -2.81809,-1.26169 -2.81809,-2.81809 0,-1.55639 1.26169,-2.81808 2.81809,-2.81808 1.5564,0 2.81808,1.26169 2.81808,2.81808 z"
       style="fill:none;stroke:#ffffff;stroke-width:0.59776;stroke-linecap:butt;stroke-linejoin:miter;stroke-miterlimit:10;stroke-dasharray:none;stroke-opacity:1"
       transform="matrix(1.3333333,0,0,-1.3333333,10.450667,60.014667)" />
    <path
       id="path26"
       d="m 5.9411875,-5.6706641 0.140625,-0.140625 c 0.3046875,-0.2929687 0.6328125,-0.6328125 1.3125,-0.6796875 0.1054688,-0.011719 0.1992188,-0.011719 0.1992188,-0.1875 0,-0.082031 -0.058594,-0.1289062 -0.1289063,-0.1289062 -0.2578125,0 -0.5507812,0.035156 -0.8203125,0.035156 -0.328125,0 -0.6796875,-0.035156 -0.9960937,-0.035156 -0.058594,0 -0.1875,0 -0.1875,0.1992187 0,0.1054688 0.09375,0.1171875 0.1523437,0.1171875 0.070312,0 0.3515625,0.011719 0.3515625,0.2226563 0,0.1757812 -0.2226562,0.4335937 -0.2695312,0.4804687 L 3.3865,-3.1276953 2.2966563,-6.0808203 c -0.070312,-0.140625 -0.070312,-0.1640625 -0.070312,-0.1757813 0,-0.234375 0.4921875,-0.234375 0.5976562,-0.234375 0.1289063,0 0.234375,0 0.234375,-0.1992187 0,-0.1171875 -0.1171875,-0.1171875 -0.1523437,-0.1171875 -0.28125,0 -0.9726563,0.035156 -1.2539063,0.035156 -0.2460937,0 -0.8671875,-0.035156 -1.11328125,-0.035156 -0.0585937,0 -0.1875,0 -0.1875,0.1992187 0,0.1171875 0.09375,0.1171875 0.22265625,0.1171875 0.5976563,0 0.6445313,0.082031 0.7265625,0.3398438 l 1.2304688,3.2695312 c 0.011719,0.035156 0.035156,0.140625 0.035156,0.1757813 0,0.023437 -0.3984375,1.6289062 -0.4453125,1.80468749 -0.1289062,0.55078125 -0.140625,0.5859375 -0.9375,0.59765625 -0.1875,0 -0.26953125,0 -0.26953125,0.19921875 0,0.10546875 0.11718755,0.10546875 0.14062505,0.10546875 0.28125,0 0.9726562,-0.03515625 1.2539062,-0.03515625 0.28125,0 0.9960938,0.03515625 1.2773438,0.03515625 0.070312,0 0.1875,0 0.1875,-0.19921875 0,-0.10546875 -0.082031,-0.10546875 -0.28125,-0.10546875 -0.011719,0 -0.1992188,0 -0.375,-0.0234375 -0.2109375,-0.0234375 -0.2695313,-0.0351563 -0.2695313,-0.1640625 0,-0.0703125 0.09375,-0.41015625 0.140625,-0.62109374 l 0.3515625,-1.40625 c 0.046875,-0.1875 0.058594,-0.2226563 0.140625,-0.3046875 z m 0,0"
       style="fill:#000000;fill-opacity:1;fill-rule:nonzero;stroke:none"
       aria-label="Y"
       transform="matrix(1.3333333,0,0,1.3333333,283.73467,83.486667)" />
    <path
       id="path27"
       d="m 2.2508281,-1.7353281 c 0.5742188,-0.2578125 0.8320313,-0.3515625 1.0078125,-0.4335938 0.1289063,-0.058594 0.1992188,-0.082031 0.1992188,-0.2109375 0,-0.1289062 -0.09375,-0.234375 -0.2226563,-0.234375 -0.046875,0 -0.058594,0 -0.140625,0.070312 l -0.9492187,0.6328125 0.1054687,-1.03125 c 0.011719,-0.1289062 0,-0.3046875 -0.2109375,-0.3046875 -0.082031,0 -0.2226562,0.058594 -0.2226562,0.2109375 0,0.070312 0.035156,0.2695313 0.035156,0.3398438 0.011719,0.1171875 0.070312,0.6210937 0.082031,0.7851562 l -0.94921828,-0.632812 c -0.0585938,-0.046875 -0.0820313,-0.070312 -0.15234375,-0.070312 -0.1171875,0 -0.2109375,0.1054688 -0.2109375,0.234375 0,0.1289063 0.0820313,0.1640625 0.140625,0.1992188 l 1.05468753,0.4335937 c -0.5625,0.2578125 -0.83203128,0.3515625 -0.99609378,0.4335938 -0.140625,0.058594 -0.19921875,0.082031 -0.19921875,0.2226562 0,0.11718752 0.09375,0.22265627 0.2109375,0.22265627 0.0585938,0 0.0703125,0 0.15234375,-0.0703125 L 1.9344219,-1.5712656 1.8172344,-0.44626563 c 0,0.15234375 0.140625,0.2109375 0.2226562,0.2109375 0.082031,0 0.2109375,-0.0585938 0.2109375,-0.2109375 0,-0.0585937 -0.023437,-0.26953125 -0.035156,-0.33984375 -0.011719,-0.1171875 -0.058594,-0.62109372 -0.070312,-0.78515622 l 0.8320312,0.5625 c 0.1875,0.14062497 0.1992188,0.14062497 0.2578125,0.14062497 0.1289063,0 0.2226563,-0.10546875 0.2226563,-0.22265627 0,-0.140625 -0.09375,-0.1757812 -0.1523438,-0.2109375 z m 0,0"
       style="fill:#000000;fill-opacity:1;fill-rule:nonzero;stroke:none"
       aria-label="∗"
       transform="matrix(1.3333333,0,0,1.3333333,294.39733,78.665333)" />
    <path
       id="path28"
       d="m 201.2458,-56.69362 c 0,1.5564 -1.26168,2.81809 -2.81808,2.81809 -1.5564,0 -2.81809,-1.26169 -2.81809,-2.81809 0,-1.55638 1.26169,-2.81807 2.81809,-2.81807 1.5564,0 2.81808,1.26169 2.81808,2.81807 z"
       style="fill:#000000;fill-opacity:1;fill-rule:nonzero;stroke:none"
       transform="matrix(1.3333333,0,0,-1.3333333,10.450667,60.014667)" />
    <path
       id="path29"
       d="m 9.2230781,-6.0353281 c 0.09375,-0.3632813 0.1054688,-0.4570313 0.8554689,-0.4570313 0.234375,0 0.316406,0 0.316406,-0.1992187 0,-0.1171875 -0.09375,-0.1171875 -0.269531,-0.1171875 H 8.8129219 c -0.2578125,0 -0.2695313,0 -0.3867188,0.1992187 L 4.7933906,-0.93767187 4.0199531,-6.5743906 c -0.035156,-0.234375 -0.058594,-0.234375 -0.3164062,-0.234375 h -1.359375 c -0.1875,0 -0.3046875,0 -0.3046875,0.1992187 0,0.1171875 0.09375,0.1171875 0.2929687,0.1171875 0.1289063,0 0.3046875,0.011719 0.421875,0.011719 0.1640625,0.023437 0.2226563,0.058594 0.2226563,0.1640625 0,0.035156 -0.011719,0.070312 -0.035156,0.1875 l -1.265625,5.0742187 c -0.1054687,0.39843753 -0.2695312,0.71484378 -1.07812497,0.75000003 -0.046875,0 -0.17578125,0 -0.17578125,0.1875 0,0.08203125 0.0585938,0.117187495 0.140625,0.117187495 0.31640625,0 0.66796872,-0.035156245 0.99609372,-0.035156245 0.3398438,0 0.6914063,0.035156245 1.0195313,0.035156245 0.046875,0 0.1757812,0 0.1757812,-0.199218745 0,-0.10546875 -0.1054687,-0.10546875 -0.1757812,-0.10546875 -0.5625,-0.0117188 -0.6796875,-0.2109375 -0.6796875,-0.4453125 0,-0.0703125 0.011719,-0.1171875 0.046875,-0.22265625 L 3.2933906,-6.4103281 h 0.011719 l 0.8554687,6.17578123 c 0.023437,0.12890625 0.035156,0.234374995 0.1523438,0.234374995 0.1054687,0 0.1757812,-0.105468745 0.2226562,-0.175781245 L 8.5551094,-6.4806406 h 0.011719 l -1.4296875,5.70703123 c -0.09375,0.38671875 -0.1171875,0.46875 -0.9023437,0.46875 -0.1640625,0 -0.28125,0 -0.28125,0.1875 0,0.117187495 0.1289062,0.117187495 0.1523437,0.117187495 0.28125,0 0.9609375,-0.035156245 1.2304688,-0.035156245 0.4101562,0 0.84375,0.035156245 1.2539062,0.035156245 0.058594,0 0.1875,0 0.1875,-0.199218745 0,-0.10546875 -0.09375,-0.10546875 -0.28125,-0.10546875 -0.3632812,0 -0.6445312,0 -0.6445312,-0.1875 0,-0.0351562 0,-0.0585937 0.046875,-0.234375 z m 0,0"
       style="fill:#000000;fill-opacity:1;fill-rule:nonzero;stroke:none"
       aria-label="M"
       transform="matrix(1.3333333,0,0,1.3333333,263.976,153.39867)" />
    <path
       id="path30"
       d="m 4.7231172,-3.9258125 c 0.140625,-0.140625 0.28125,-0.2695312 0.4335937,-0.375 0.28125,-0.1875 0.5390625,-0.1992187 0.6328125,-0.2109375 0.070312,-0.011719 0.1640625,-0.011719 0.1640625,-0.1523437 0,-0.046875 -0.046875,-0.09375 -0.1054687,-0.09375 -0.1757813,0 -0.3867188,0.023437 -0.5625,0.023437 -0.2226563,0 -0.515625,-0.023437 -0.7265625,-0.023437 -0.035156,0 -0.140625,0 -0.140625,0.1523437 0,0.082031 0.09375,0.09375 0.1289062,0.09375 0.1992188,0.011719 0.1992188,0.09375 0.1992188,0.1289063 0,0.070312 -0.035156,0.1171875 -0.09375,0.1875 C 4.6176484,-4.13675 4.5824922,-4.089875 4.5356172,-4.043 l -1.734375,1.8164063 -0.9257813,-2.0390625 c -0.046875,-0.09375 -0.046875,-0.1171875 -0.046875,-0.1171875 0,-0.1289063 0.328125,-0.1289063 0.375,-0.1289063 0.09375,0 0.1757813,0 0.1757813,-0.1523437 0,-0.011719 0,-0.09375 -0.1054688,-0.09375 -0.2109375,0 -0.7265625,0.023437 -0.9375,0.023437 -0.1757812,0 -0.62109371,-0.023437 -0.79687496,-0.023437 -0.046875,0 -0.12890625,0.011719 -0.12890625,0.1523437 0,0.09375 0.0820313,0.09375 0.1875,0.09375 0.3984375,0 0.42187501,0.058594 0.49218751,0.2109375 l 1.0898437,2.390625 -0.3164062,1.27734375 c -0.09375,0.3515625 -0.09375,0.375 -0.6445313,0.38671875 -0.1171875,0 -0.2109375,0 -0.2109375,0.140625 0,0.0703125 0.046875,0.10546875 0.1171875,0.10546875 0.1289063,0 0.2929688,-0.0234375 0.4335938,-0.0234375 0.1289062,0 0.328125,0 0.4570312,0 0.140625,0 0.3046875,0 0.4453125,0 0.1523438,0 0.3164063,0.0234375 0.46875,0.0234375 0.035156,0 0.1523438,0 0.1523438,-0.15234375 0,-0.09375 -0.082031,-0.09375 -0.234375,-0.09375 -0.1171875,0 -0.140625,0 -0.2695313,-0.0234375 C 2.4496797,-0.2812813 2.4262422,-0.293 2.4262422,-0.3633125 c 0,-0.046875 0.082031,-0.375 0.1289062,-0.5625 0.058594,-0.2226562 0.2109375,-0.8320312 0.2226563,-0.8554687 0.023437,-0.1054688 0.023437,-0.1171875 0.09375,-0.1875 z m 0,0"
       style="fill:#000000;fill-opacity:1;fill-rule:nonzero;stroke:none"
       aria-label="Y"
       transform="matrix(1.3333333,0,0,1.3333333,276.86267,155.39067)" />
    <path
       id="path31"
       d="m 144.75143,28.3468 h 47.59505"
       style="fill:none;stroke:#000000;stroke-width:0.3985;stroke-linecap:butt;stroke-linejoin:miter;stroke-miterlimit:10;stroke-dasharray:none;stroke-opacity:1"
       transform="matrix(1.3333333,0,0,-1.3333333,10.450667,60.014667)" />
    <path
       id="path32"
       d="M 4.21463,0 0.64343,1.34572 1.8178,0 0.64343,-1.34572 Z"
       style="fill:#000000;fill-opacity:1;fill-rule:nonzero;stroke:#000000;stroke-width:0.3985;stroke-linecap:butt;stroke-linejoin:miter;stroke-miterlimit:10;stroke-dasharray:none;stroke-opacity:1"
       transform="matrix(1.3333333,0,0,-1.3333333,264.62171,22.218933)" />
    <path
       id="path33"
       d="M 198.42772,25.32947 V -8.09215"
       style="fill:none;stroke:#000000;stroke-width:0.3985;stroke-linecap:butt;stroke-linejoin:miter;stroke-miterlimit:10;stroke-dasharray:none;stroke-opacity:1"
       transform="matrix(1.3333333,0,0,-1.3333333,10.450667,60.014667)" />
    <path
       id="path34"
       d="M 4.21463,0 0.64343,1.34572 1.8178,0 0.64343,-1.34572 Z"
       style="fill:#000000;fill-opacity:1;fill-rule:nonzero;stroke:#000000;stroke-width:0.3985;stroke-linecap:butt;stroke-linejoin:miter;stroke-miterlimit:10;stroke-dasharray:none;stroke-opacity:1"
       transform="matrix(0,1.3333333,1.3333333,0,275.02096,68.513267)" />
    <path
       id="path35"
       d="m 198.42772,-53.67628 v 33.42164"
       style="fill:none;stroke:#000000;stroke-width:0.3985;stroke-linecap:butt;stroke-linejoin:miter;stroke-miterlimit:10;stroke-dasharray:none;stroke-opacity:1"
       transform="matrix(1.3333333,0,0,-1.3333333,10.450667,60.014667)" />
    <path
       id="path36"
       d="M 4.21463,0 0.64343,1.34572 1.8178,0 0.64343,-1.34572 Z"
       style="fill:#000000;fill-opacity:1;fill-rule:nonzero;stroke:#000000;stroke-width:0.3985;stroke-linecap:butt;stroke-linejoin:miter;stroke-miterlimit:10;stroke-dasharray:none;stroke-opacity:1"
       transform="matrix(0,-1.3333333,-1.3333333,0,275.02096,89.31176)" />
    <path
       id="path37"
       d="m 143.40773,25.83633 51.6469,-77.47026"
       style="fill:none;stroke:#000000;stroke-width:0.3985;stroke-linecap:butt;stroke-linejoin:miter;stroke-miterlimit:10;stroke-dasharray:none;stroke-opacity:1"
       transform="matrix(1.3333333,0,0,-1.3333333,10.450667,60.014667)" />
    <path
       id="path38"
       d="M 4.21463,0 0.64343,1.34572 1.8178,0 0.64343,-1.34572 Z"
       style="fill:#000000;fill-opacity:1;fill-rule:nonzero;stroke:#000000;stroke-width:0.3985;stroke-linecap:butt;stroke-linejoin:miter;stroke-miterlimit:10;stroke-dasharray:none;stroke-opacity:1"
       transform="matrix(0.73956,1.10936,1.10936,-0.73956,269.25281,126.95381)" />
    <path
       id="path39"
       d="m 201.04076,26.8382 c 27.70138,-15.9933 27.70138,-66.02991 2.65338,-80.49129"
       style="fill:none;stroke:#000000;stroke-width:0.3985;stroke-linecap:butt;stroke-linejoin:miter;stroke-miterlimit:10;stroke-dasharray:none;stroke-opacity:1"
       transform="matrix(1.3333333,0,0,-1.3333333,10.450667,60.014667)" />
    <path
       id="path40"
       d="M 4.21463,0 0.64343,1.34572 1.8178,0 0.64343,-1.34572 Z"
       style="fill:#000000;fill-opacity:1;fill-rule:nonzero;stroke:#000000;stroke-width:0.3985;stroke-linecap:butt;stroke-linejoin:miter;stroke-miterlimit:10;stroke-dasharray:none;stroke-opacity:1"
       transform="matrix(-1.15468,0.66664,0.66664,1.15468,284.02681,130.40672)" />
  </g>
</svg>
