<svg version="1.1" xmlns="http://www.w3.org/2000/svg" viewBox="0 0 1545.800748371615 234.7648564857356" width="1545.800748371615" height="234.7648564857356"><!-- svg-source:excalidraw --><metadata></metadata><defs><style class="style-fonts">
      </style></defs><g stroke-linecap="round" transform="translate(18.508669108301206 174.65127401108697) rotate(0 14.362718374934047 13.131719357722488)"><path d="M6.57 0 C10.9 0.31, 16.05 -0.41, 22.16 0 M6.57 0 C11.72 -0.44, 17.62 -0.43, 22.16 0 M22.16 0 C25.37 1.98, 27.98 0.59, 28.73 6.57 M22.16 0 C28.74 -1.05, 27.08 0.5, 28.73 6.57 M28.73 6.57 C28.05 11.41, 27.78 13.71, 28.73 19.7 M28.73 6.57 C28.82 10.93, 28.27 15.87, 28.73 19.7 M28.73 19.7 C27.24 25.52, 28.2 25.17, 22.16 26.26 M28.73 19.7 C26.67 24.49, 25.13 26.16, 22.16 26.26 M22.16 26.26 C17.64 27.67, 10.11 25.25, 6.57 26.26 M22.16 26.26 C16.61 25.97, 12.72 26.36, 6.57 26.26 M6.57 26.26 C3.17 26.79, -0.24 23.87, 0 19.7 M6.57 26.26 C4.45 27.1, 1.06 22.07, 0 19.7 M0 19.7 C-0.06 16.93, 0.77 14.14, 0 6.57 M0 19.7 C-0.5 15.84, 0.26 11.14, 0 6.57 M0 6.57 C-0.31 1.64, 0.58 -1.81, 6.57 0 M0 6.57 C1.56 3.66, 0.39 -0.36, 6.57 0" stroke="#267326" stroke-width="2" fill="none"></path></g><g stroke-linecap="round" transform="translate(70.71815693642151 174.65127401108697) rotate(0 14.362718374934047 13.131719357722488)"><path d="M6.57 0 C9.96 -0.47, 16.16 0.42, 22.16 0 M6.57 0 C11.1 -0.35, 15.14 0.86, 22.16 0 M22.16 0 C25.79 -1.6, 30.65 1.28, 28.73 6.57 M22.16 0 C24.89 -1.69, 29.14 1.44, 28.73 6.57 M28.73 6.57 C27.76 9.42, 29.55 14.44, 28.73 19.7 M28.73 6.57 C28.32 11.07, 28.26 16.78, 28.73 19.7 M28.73 19.7 C30.39 22.98, 24.75 26.62, 22.16 26.26 M28.73 19.7 C27.32 23.97, 27.51 25.56, 22.16 26.26 M22.16 26.26 C15.25 25.3, 11.18 26.29, 6.57 26.26 M22.16 26.26 C18.91 26.46, 15.83 26.44, 6.57 26.26 M6.57 26.26 C1.95 26.06, 1.97 24.81, 0 19.7 M6.57 26.26 C3.25 24.26, -1.99 24.77, 0 19.7 M0 19.7 C0.81 16.95, 0.39 14.31, 0 6.57 M0 19.7 C0.37 16.95, -0.01 13.83, 0 6.57 M0 6.57 C-1.61 0.37, 3.54 1.28, 6.57 0 M0 6.57 C-1.79 1.82, 1.31 1.37, 6.57 0" stroke="#267326" stroke-width="2" fill="none"></path></g><g stroke-linecap="round" transform="translate(122.92764476454181 174.65127401108697) rotate(0 14.362718374934047 13.131719357722488)"><path d="M6.57 0 C12.36 0.49, 16.32 -0.69, 22.16 0 M6.57 0 C9.87 0.86, 13.8 -0.54, 22.16 0 M22.16 0 C28.46 -0.91, 27.29 0.72, 28.73 6.57 M22.16 0 C26.95 -0.75, 28.95 1.08, 28.73 6.57 M28.73 6.57 C29.53 10.92, 29.56 16.02, 28.73 19.7 M28.73 6.57 C28.15 10.04, 29.19 12.21, 28.73 19.7 M28.73 19.7 C26.94 24.43, 25.31 26.17, 22.16 26.26 M28.73 19.7 C29.7 23.37, 27.81 27.47, 22.16 26.26 M22.16 26.26 C16.25 26.05, 8.83 24.6, 6.57 26.26 M22.16 26.26 C18.19 26.52, 13.36 26.23, 6.57 26.26 M6.57 26.26 C4.15 26.99, 0.92 22.33, 0 19.7 M6.57 26.26 C0.2 26.96, -2.01 24.04, 0 19.7 M0 19.7 C0.31 15.92, -1.18 10.8, 0 6.57 M0 19.7 C-0.16 14.64, -0.59 9.34, 0 6.57 M0 6.57 C1.35 3.47, 0.63 -0.32, 6.57 0 M0 6.57 C-0.88 3.56, 3.77 -0.98, 6.57 0" stroke="#267326" stroke-width="2" fill="none"></path></g><g stroke-linecap="round"><g transform="translate(215.62454636992123 63.91149102319508) rotate(0 -65.11081622259184 54.11604017750389)"><path d="M0.35 -0.12 C-21.39 17.69, -109.03 89.58, -130.78 107.53 M-0.93 -1.24 C-22.85 16.66, -110.36 90.41, -132.03 108.7" stroke="#267326" stroke-width="2" fill="none"></path></g><g transform="translate(215.62454636992123 63.91149102319508) rotate(0 -65.11081622259184 54.11604017750389)"><path d="M-130.06 109.43 L-124.79 93.35 L-119.28 105.39 L-133.77 108.67" stroke="none" stroke-width="0" fill="#267326" fill-rule="evenodd"></path><path d="M-132.03 108.7 C-130.54 104.28, -129.55 101.31, -125.72 95.09 M-132.03 108.7 C-130.7 104.73, -128.16 101.68, -125.72 95.09 M-125.72 95.09 C-124.33 97.41, -122.66 100.15, -117.55 104.78 M-125.72 95.09 C-124.04 97.72, -121.92 99.06, -117.55 104.78 M-117.55 104.78 C-119.89 106.84, -125.19 105.17, -132.03 108.7 M-117.55 104.78 C-121.86 105.79, -126.37 107.66, -132.03 108.7 M-132.03 108.7 C-132.03 108.7, -132.03 108.7, -132.03 108.7 M-132.03 108.7 C-132.03 108.7, -132.03 108.7, -132.03 108.7" stroke="#267326" stroke-width="2" fill="none"></path></g></g><mask></mask><g stroke-linecap="round"><g transform="translate(223.2969836766519 72.33846635971133) rotate(0 -43.43999211546155 50.25834925360499)"><path d="M-0.56 -0.7 C-15.1 15.96, -72.35 82.76, -86.86 99.83 M1.34 1.54 C-13.38 18.36, -73.39 84.6, -87.79 101.01" stroke="#267326" stroke-width="2" fill="none"></path></g><g transform="translate(223.2969836766519 72.33846635971133) rotate(0 -43.43999211546155 50.25834925360499)"><path d="M-86.87 99.27 L-85.19 87.25 L-75.75 95.07 L-87.74 102.24" stroke="none" stroke-width="0" fill="#267326" fill-rule="evenodd"></path><path d="M-87.79 101.01 C-87.23 96.34, -85.79 90.71, -83.46 86.65 M-87.79 101.01 C-85.29 94.97, -84.82 89.03, -83.46 86.65 M-83.46 86.65 C-81.09 89.97, -78.35 90.85, -74.01 95.1 M-83.46 86.65 C-79.89 89.24, -76.94 92.45, -74.01 95.1 M-74.01 95.1 C-77.9 95.2, -79.93 96.96, -87.79 101.01 M-74.01 95.1 C-77.64 97.2, -81.49 97.89, -87.79 101.01 M-87.79 101.01 C-87.79 101.01, -87.79 101.01, -87.79 101.01 M-87.79 101.01 C-87.79 101.01, -87.79 101.01, -87.79 101.01" stroke="#267326" stroke-width="2" fill="none"></path></g></g><mask></mask><g stroke-linecap="round"><g transform="translate(232.24326584898304 77.89500372788092) rotate(0 -20.661521627947693 46.51342947777775)"><path d="M0.02 -0.68 C-6.89 15.14, -35.06 78.76, -42.03 94.22 M-1.42 1.57 C-7.9 17.15, -32.79 77.5, -39.68 92.72" stroke="#267326" stroke-width="2" fill="none"></path></g><g transform="translate(232.24326584898304 77.89500372788092) rotate(0 -20.661521627947693 46.51342947777775)"><path d="M-41.41 93.32 L-41.88 77.7 L-28.44 83.96 L-39.61 93.31" stroke="none" stroke-width="0" fill="#267326" fill-rule="evenodd"></path><path d="M-39.68 92.72 C-40.57 88.05, -38.34 84.57, -40.14 77.73 M-39.68 92.72 C-40.46 88.87, -39.89 85.88, -40.14 77.73 M-40.14 77.73 C-37.43 78.05, -32.09 80.52, -28.49 82.73 M-40.14 77.73 C-36.22 79.32, -31.96 81.98, -28.49 82.73 M-28.49 82.73 C-32.57 85.54, -37.19 90.93, -39.68 92.72 M-28.49 82.73 C-30.81 84.82, -35 88.22, -39.68 92.72 M-39.68 92.72 C-39.68 92.72, -39.68 92.72, -39.68 92.72 M-39.68 92.72 C-39.68 92.72, -39.68 92.72, -39.68 92.72" stroke="#267326" stroke-width="2" fill="none"></path></g></g><mask></mask><g stroke-linecap="round"><g transform="translate(10.505794924078486 223.21883686402526) rotate(0 9.674278777454475 -8.517047655920436)"><path d="M-0.51 0.37 C2.65 -2.34, 15.92 -13.68, 19.24 -16.64 M0.24 0.09 C3.29 -2.74, 15.6 -14.56, 18.76 -17.41" stroke="#267326" stroke-width="2" fill="none"></path></g><g transform="translate(10.505794924078486 223.21883686402526) rotate(0 9.674278777454475 -8.517047655920436)"><path d="M17.95 -18.32 L14.62 -4.81 L5.72 -13.57 L18.37 -16.81" stroke="none" stroke-width="0" fill="#267326" fill-rule="evenodd"></path><path d="M18.76 -17.41 C17.46 -13.36, 15.8 -8.92, 13.95 -5.45 M18.76 -17.41 C17.38 -14.46, 16.79 -12.13, 13.95 -5.45 M13.95 -5.45 C12.35 -6.92, 10.64 -8.52, 6.5 -13.41 M13.95 -5.45 C11.1 -8.27, 8.65 -11.32, 6.5 -13.41 M6.5 -13.41 C9.16 -13.9, 11.59 -15.1, 18.76 -17.41 M6.5 -13.41 C10.19 -14.87, 13.31 -15.65, 18.76 -17.41 M18.76 -17.41 C18.76 -17.41, 18.76 -17.41, 18.76 -17.41 M18.76 -17.41 C18.76 -17.41, 18.76 -17.41, 18.76 -17.41" stroke="#267326" stroke-width="2" fill="none"></path></g></g><mask></mask><g stroke-linecap="round"><g transform="translate(62.931593135417984 223.42189112079194) rotate(0 9.753609768823935 -8.72037262418499)"><path d="M-0.11 0.39 C3.25 -2.64, 16.4 -14.81, 19.61 -17.83 M-0.83 0.11 C2.51 -2.89, 15.71 -14.43, 19.23 -17.33" stroke="#267326" stroke-width="2" fill="none"></path></g><g transform="translate(62.931593135417984 223.42189112079194) rotate(0 9.753609768823935 -8.72037262418499)"><path d="M19.9 -16.69 L13.01 -5.59 L6.23 -13.25 L19.91 -17.76" stroke="none" stroke-width="0" fill="#267326" fill-rule="evenodd"></path><path d="M19.23 -17.33 C18.6 -14.75, 16.54 -12.81, 13.79 -5.43 M19.23 -17.33 C18.12 -14.58, 16.23 -11.42, 13.79 -5.43 M13.79 -5.43 C11.91 -7.12, 10.66 -8.96, 6.62 -13.85 M13.79 -5.43 C12.28 -7.45, 10.5 -9.06, 6.62 -13.85 M6.62 -13.85 C10.75 -15.05, 14.47 -15.43, 19.23 -17.33 M6.62 -13.85 C10.57 -14.87, 14.81 -16.14, 19.23 -17.33 M19.23 -17.33 C19.23 -17.33, 19.23 -17.33, 19.23 -17.33 M19.23 -17.33 C19.23 -17.33, 19.23 -17.33, 19.23 -17.33" stroke="#267326" stroke-width="2" fill="none"></path></g></g><mask></mask><g stroke-linecap="round"><g transform="translate(115.41041456641142 223.2735615558792) rotate(0 9.753609768823935 -8.72037262418499)"><path d="M0.1 -0.39 C3.31 -3.41, 15.98 -14.97, 19.15 -17.74 M-0.51 0.6 C2.88 -2.39, 16.74 -14.11, 20.2 -17.2" stroke="#267326" stroke-width="2" fill="none"></path></g><g transform="translate(115.41041456641142 223.2735615558792) rotate(0 9.753609768823935 -8.72037262418499)"><path d="M19.42 -17.36 L14.47 -4.66 L8.3 -14.04 L20.63 -17.64" stroke="none" stroke-width="0" fill="#267326" fill-rule="evenodd"></path><path d="M20.2 -17.2 C18.27 -14.27, 16.88 -10.98, 14.85 -5.26 M20.2 -17.2 C17.97 -12.71, 16.07 -8.34, 14.85 -5.26 M14.85 -5.26 C12.68 -7.63, 9.42 -11.35, 7.61 -13.61 M14.85 -5.26 C12.37 -7.9, 10.46 -10.32, 7.61 -13.61 M7.61 -13.61 C11.94 -14.22, 16.63 -15.81, 20.2 -17.2 M7.61 -13.61 C10.02 -14.4, 13 -14.96, 20.2 -17.2 M20.2 -17.2 C20.2 -17.2, 20.2 -17.2, 20.2 -17.2 M20.2 -17.2 C20.2 -17.2, 20.2 -17.2, 20.2 -17.2" stroke="#267326" stroke-width="2" fill="none"></path></g></g><mask></mask><g stroke-linecap="round" transform="translate(218.11554730503673 28.194244494454068) rotate(0 22.99568758528239 21.573294653320843)"><path d="M20.63 -0.25 C25.31 -0.88, 31.71 1.52, 35.76 4.12 C39.81 6.73, 43.55 11, 44.92 15.38 C46.29 19.76, 45.99 26.17, 43.97 30.39 C41.95 34.61, 37.25 38.7, 32.81 40.69 C28.37 42.68, 22.01 43.41, 17.33 42.34 C12.65 41.27, 7.58 37.96, 4.72 34.29 C1.86 30.62, -0.16 24.98, 0.18 20.32 C0.52 15.67, 3.21 9.77, 6.76 6.35 C10.31 2.93, 18.88 0.7, 21.48 -0.21 C24.08 -1.12, 22.36 0.56, 22.36 0.89 M23.83 0.29 C28.41 0.27, 35.05 2.12, 38.78 5.38 C42.5 8.63, 45.59 15.02, 46.19 19.81 C46.79 24.61, 45.16 30.51, 42.35 34.15 C39.54 37.78, 34.01 40.38, 29.35 41.6 C24.68 42.82, 18.96 43.15, 14.35 41.46 C9.75 39.77, 4.09 35.57, 1.74 31.49 C-0.62 27.41, -1.03 21.63, 0.23 16.97 C1.5 12.31, 5.2 6.33, 9.32 3.5 C13.44 0.67, 22.35 0.41, 24.96 0.01 C27.58 -0.4, 25.05 0.61, 24.98 1.09" stroke="#267326" stroke-width="2" fill="none"></path></g><g stroke-linecap="round" transform="translate(175.1371325926621 174.65127401108697) rotate(0 14.362718374934047 13.131719357722488)"><path d="M6.57 0 C9.48 -0.66, 15.13 -1.11, 22.16 0 M6.57 0 C10.93 -0.06, 15.98 -0.5, 22.16 0 M22.16 0 C25.6 -0.75, 27.98 3.29, 28.73 6.57 M22.16 0 C26.38 0.61, 29.51 3.9, 28.73 6.57 M28.73 6.57 C28.73 10.89, 28.52 11.68, 28.73 19.7 M28.73 6.57 C28.25 11.06, 28.72 14.6, 28.73 19.7 M28.73 19.7 C29.62 25.65, 27.16 27.83, 22.16 26.26 M28.73 19.7 C28.46 21.98, 28.43 26.69, 22.16 26.26 M22.16 26.26 C19.89 26.01, 14.03 27.15, 6.57 26.26 M22.16 26.26 C17.8 27.09, 12.97 26.7, 6.57 26.26 M6.57 26.26 C3.76 27.93, -1.47 24.91, 0 19.7 M6.57 26.26 C1.8 27.12, -0.44 24.74, 0 19.7 M0 19.7 C-1.06 15.88, -0.89 12.42, 0 6.57 M0 19.7 C0.15 16.93, 0.18 13.16, 0 6.57 M0 6.57 C1.34 0.85, 2.41 1.31, 6.57 0 M0 6.57 C1.98 3.33, 4.08 -2, 6.57 0" stroke="#267326" stroke-width="2" fill="none"></path></g><g stroke-linecap="round" transform="translate(227.34662042078241 174.65127401108697) rotate(0 14.362718374934047 13.131719357722488)"><path d="M6.57 0 C10.97 -1.11, 14.51 1.57, 22.16 0 M6.57 0 C10.94 -0.52, 14.59 -0.27, 22.16 0 M22.16 0 C25.8 1.1, 28.59 2.72, 28.73 6.57 M22.16 0 C27.32 1.71, 27.35 2.45, 28.73 6.57 M28.73 6.57 C28.51 8.62, 29.07 14.1, 28.73 19.7 M28.73 6.57 C28.51 9.21, 28.9 13.44, 28.73 19.7 M28.73 19.7 C29.35 25.64, 26.31 24.44, 22.16 26.26 M28.73 19.7 C30.62 24.5, 24.59 27.4, 22.16 26.26 M22.16 26.26 C16.95 27.22, 14.49 27.31, 6.57 26.26 M22.16 26.26 C16.22 26.71, 10.89 27.05, 6.57 26.26 M6.57 26.26 C0.72 27.1, -0.34 24.82, 0 19.7 M6.57 26.26 C1.74 26.93, -0.91 25.14, 0 19.7 M0 19.7 C-0.73 15.47, -0.77 12.29, 0 6.57 M0 19.7 C0.16 15.74, 0.41 12.17, 0 6.57 M0 6.57 C0.22 3.5, 3.91 0.99, 6.57 0 M0 6.57 C1.89 0.19, 3.77 -1.54, 6.57 0" stroke="#267326" stroke-width="2" fill="none"></path></g><g stroke-linecap="round" transform="translate(279.5561082489027 174.65127401108697) rotate(0 14.362718374934047 13.131719357722488)"><path d="M6.57 0 C10.46 1.61, 14 -0.4, 22.16 0 M6.57 0 C10.66 -0.18, 15.19 0.54, 22.16 0 M22.16 0 C26.4 0.53, 29.41 3.67, 28.73 6.57 M22.16 0 C25.16 0.26, 27.53 2.18, 28.73 6.57 M28.73 6.57 C29.05 12.7, 27.94 15.63, 28.73 19.7 M28.73 6.57 C29 11.44, 28.91 15.81, 28.73 19.7 M28.73 19.7 C28.5 22.25, 28.18 26.64, 22.16 26.26 M28.73 19.7 C26.78 25.21, 25.23 27.86, 22.16 26.26 M22.16 26.26 C17.56 27.43, 14.39 26.83, 6.57 26.26 M22.16 26.26 C16.7 26.97, 9.44 26.65, 6.57 26.26 M6.57 26.26 C1.85 27.01, -0.39 24.65, 0 19.7 M6.57 26.26 C1.28 27.33, -0.28 22.33, 0 19.7 M0 19.7 C-0.79 16.31, -0.31 12.95, 0 6.57 M0 19.7 C0.4 14.72, 0.03 11.05, 0 6.57 M0 6.57 C1.72 3.18, 3.83 -1.74, 6.57 0 M0 6.57 C1.58 0.65, 2.49 1.62, 6.57 0" stroke="#267326" stroke-width="2" fill="none"></path></g><g stroke-linecap="round"><g transform="translate(243.79678004938697 80.09269596072227) rotate(0 -0.5905952262044991 44.57099704768325)"><path d="M1.15 -0.37 C1.04 14.47, -1.23 74.19, -1.58 88.97 M0.3 -1.61 C0.07 13.42, -2.43 75.29, -2.73 90.42" stroke="#267326" stroke-width="2" fill="none"></path></g><g transform="translate(243.79678004938697 80.09269596072227) rotate(0 -0.5905952262044991 44.57099704768325)"><path d="M-3.07 91.17 L-9.03 77.21 L3.24 77.96 L-2.97 88.9" stroke="none" stroke-width="0" fill="#267326" fill-rule="evenodd"></path><path d="M-2.73 90.42 C-4.52 86.89, -5.59 84.64, -8.64 76.63 M-2.73 90.42 C-4.3 87.64, -5.44 84.25, -8.64 76.63 M-8.64 76.63 C-4.26 76.18, -0.18 78.11, 4.03 77.03 M-8.64 76.63 C-4.56 76.35, -2.02 77.03, 4.03 77.03 M4.03 77.03 C3.18 81.34, 1.25 84.5, -2.73 90.42 M4.03 77.03 C2.09 80.21, 0.89 83.16, -2.73 90.42 M-2.73 90.42 C-2.73 90.42, -2.73 90.42, -2.73 90.42 M-2.73 90.42 C-2.73 90.42, -2.73 90.42, -2.73 90.42" stroke="#267326" stroke-width="2" fill="none"></path></g></g><mask></mask><g stroke-linecap="round"><g transform="translate(252.6106118834927 76.23657143401851) rotate(0 19.209240561969544 47.3247112801169)"><path d="M-0.4 -0.17 C5.86 15.53, 32.32 78.08, 38.7 93.81 M1.6 -1.3 C7.62 14.56, 32.03 78.81, 37.9 94.91" stroke="#267326" stroke-width="2" fill="none"></path></g><g transform="translate(252.6106118834927 76.23657143401851) rotate(0 19.209240561969544 47.3247112801169)"><path d="M37.51 95.49 L26.41 85.31 L38.84 78.44 L37.28 93.65" stroke="none" stroke-width="0" fill="#267326" fill-rule="evenodd"></path><path d="M37.9 94.91 C33.48 91.06, 28.41 85.84, 27.2 84.39 M37.9 94.91 C35.08 92.4, 32.58 90, 27.2 84.39 M27.2 84.39 C30.05 84.52, 32.7 81.16, 39.08 79.95 M27.2 84.39 C30.48 83.21, 34.82 81.05, 39.08 79.95 M39.08 79.95 C39.97 84.94, 37.02 91.5, 37.9 94.91 M39.08 79.95 C38.15 85.25, 38.12 88.81, 37.9 94.91 M37.9 94.91 C37.9 94.91, 37.9 94.91, 37.9 94.91 M37.9 94.91 C37.9 94.91, 37.9 94.91, 37.9 94.91" stroke="#267326" stroke-width="2" fill="none"></path></g></g><mask></mask><g stroke-linecap="round"><g transform="translate(206.891631705694 54.82315236553782) rotate(0 -85.9384314116038 57.87758275172918)"><path d="M0.28 -0.84 C-28.39 18.41, -143.67 95.76, -172.44 115.3 M-1.03 1.33 C-29.88 20.76, -144.97 97.76, -173.68 116.6" stroke="#267326" stroke-width="2" fill="none"></path></g><g transform="translate(206.891631705694 54.82315236553782) rotate(0 -85.9384314116038 57.87758275172918)"><path d="M-174.48 117.53 L-166.1 102.29 L-159.46 113.11 L-174.36 115.27" stroke="none" stroke-width="0" fill="#267326" fill-rule="evenodd"></path><path d="M-173.68 116.6 C-172.63 112.46, -170.05 109.19, -165.86 103.8 M-173.68 116.6 C-170.64 112.59, -168.57 107.58, -165.86 103.8 M-165.86 103.8 C-164.33 105.2, -162.05 109.96, -158.85 114.37 M-165.86 103.8 C-164.36 105.82, -162.28 109.39, -158.85 114.37 M-158.85 114.37 C-165.11 116.33, -168.38 114.56, -173.68 116.6 M-158.85 114.37 C-164.12 114.57, -168.76 115.99, -173.68 116.6 M-173.68 116.6 C-173.68 116.6, -173.68 116.6, -173.68 116.6 M-173.68 116.6 C-173.68 116.6, -173.68 116.6, -173.68 116.6" stroke="#267326" stroke-width="2" fill="none"></path></g></g><mask></mask><g stroke-linecap="round"><g transform="translate(168.2239318242389 223.9416895941912) rotate(0 10.338011060319872 -8.88477533662197)"><path d="M-0.26 -0.21 C3.13 -3.05, 16.99 -14.56, 20.47 -17.47 M0.61 -0.79 C3.9 -3.76, 16.66 -15.58, 19.94 -18.28" stroke="#267326" stroke-width="2" fill="none"></path></g><g transform="translate(168.2239318242389 223.9416895941912) rotate(0 10.338011060319872 -8.88477533662197)"><path d="M19.82 -19.03 L14.17 -6.42 L6.52 -15.1 L20.05 -18.58" stroke="none" stroke-width="0" fill="#267326" fill-rule="evenodd"></path><path d="M19.94 -18.28 C17.87 -14.5, 16.74 -10.26, 14.48 -5.79 M19.94 -18.28 C17.97 -14.14, 16.22 -10.1, 14.48 -5.79 M14.48 -5.79 C11.67 -8.74, 8.22 -13.06, 6.86 -14.43 M14.48 -5.79 C12.08 -8.46, 9.51 -11.34, 6.86 -14.43 M6.86 -14.43 C10.78 -16.17, 14.76 -17.09, 19.94 -18.28 M6.86 -14.43 C11.91 -15.81, 16.76 -16.94, 19.94 -18.28 M19.94 -18.28 C19.94 -18.28, 19.94 -18.28, 19.94 -18.28 M19.94 -18.28 C19.94 -18.28, 19.94 -18.28, 19.94 -18.28" stroke="#267326" stroke-width="2" fill="none"></path></g></g><mask></mask><g stroke-linecap="round"><g transform="translate(221.25858517427713 223.64192935867794) rotate(0 9.753609768823935 -8.72037262418499)"><path d="M-0.2 0.3 C3.08 -2.54, 16.15 -14.41, 19.47 -17.3 M0.69 -0.02 C3.93 -3.02, 15.9 -15.21, 19.02 -18.19" stroke="#267326" stroke-width="2" fill="none"></path></g><g transform="translate(221.25858517427713 223.64192935867794) rotate(0 9.753609768823935 -8.72037262418499)"><path d="M18.71 -18.82 L14.14 -6.58 L6.81 -14.08 L19.27 -17.73" stroke="none" stroke-width="0" fill="#267326" fill-rule="evenodd"></path><path d="M19.02 -18.19 C18.21 -15.13, 16.87 -11.76, 14.47 -5.92 M19.02 -18.19 C17.11 -13.6, 15.87 -9.06, 14.47 -5.92 M14.47 -5.92 C12.52 -8.02, 11.4 -9.26, 6.7 -13.78 M14.47 -5.92 C12.84 -7.39, 11.02 -9.58, 6.7 -13.78 M6.7 -13.78 C11.73 -15.79, 16.57 -17.16, 19.02 -18.19 M6.7 -13.78 C9.49 -14.44, 11.95 -15.33, 19.02 -18.19 M19.02 -18.19 C19.02 -18.19, 19.02 -18.19, 19.02 -18.19 M19.02 -18.19 C19.02 -18.19, 19.02 -18.19, 19.02 -18.19" stroke="#267326" stroke-width="2" fill="none"></path></g></g><mask></mask><g stroke-linecap="round"><g transform="translate(273.807184612912 223.52207743915358) rotate(0 9.753609768823935 -8.72037262418499)"><path d="M-0.04 0.15 C3.28 -2.74, 16.49 -14.11, 19.69 -17.03 M-0.72 -0.26 C2.56 -3.32, 15.85 -15.04, 19.36 -17.79" stroke="#267326" stroke-width="2" fill="none"></path></g><g transform="translate(273.807184612912 223.52207743915358) rotate(0 9.753609768823935 -8.72037262418499)"><path d="M19.02 -18.45 L13.95 -6.23 L6.97 -13.94 L19.66 -18.41" stroke="none" stroke-width="0" fill="#267326" fill-rule="evenodd"></path><path d="M19.36 -17.79 C18.11 -14.45, 16.97 -11.94, 13.83 -5.93 M19.36 -17.79 C17.9 -14.15, 15.59 -10.32, 13.83 -5.93 M13.83 -5.93 C11.35 -9.25, 8.04 -12.11, 6.72 -14.4 M13.83 -5.93 C11.1 -9.36, 8.66 -12.26, 6.72 -14.4 M6.72 -14.4 C9.89 -15.16, 11.56 -15.42, 19.36 -17.79 M6.72 -14.4 C10.53 -15.16, 14.16 -16.32, 19.36 -17.79 M19.36 -17.79 C19.36 -17.79, 19.36 -17.79, 19.36 -17.79 M19.36 -17.79 C19.36 -17.79, 19.36 -17.79, 19.36 -17.79" stroke="#267326" stroke-width="2" fill="none"></path></g></g><mask></mask><g stroke-linecap="round" transform="translate(331.76559607702313 174.65127401108697) rotate(0 14.362718374934047 13.131719357722488)"><path d="M6.57 0 C10.77 1.13, 17.45 1.29, 22.16 0 M6.57 0 C11.42 -0.28, 15.18 0.23, 22.16 0 M22.16 0 C26.92 -0.02, 27.79 2.95, 28.73 6.57 M22.16 0 C24.42 2.28, 30.24 2.94, 28.73 6.57 M28.73 6.57 C28.89 10.19, 30.02 12.14, 28.73 19.7 M28.73 6.57 C28.63 11.95, 28.26 16.18, 28.73 19.7 M28.73 19.7 C27.18 24.78, 25 27.59, 22.16 26.26 M28.73 19.7 C28.23 26.13, 28.69 28.14, 22.16 26.26 M22.16 26.26 C15.12 27.59, 9.29 27.31, 6.57 26.26 M22.16 26.26 C18.89 26.26, 14.17 26.28, 6.57 26.26 M6.57 26.26 C1.06 27.19, -1.63 24.61, 0 19.7 M6.57 26.26 C2.83 24.15, 1.34 23.68, 0 19.7 M0 19.7 C0.09 16.56, 1.17 13.16, 0 6.57 M0 19.7 C0.42 15.52, -0.29 12.95, 0 6.57 M0 6.57 C0.91 2.21, 3.46 -0.2, 6.57 0 M0 6.57 C-0.14 0.39, 3.66 2.24, 6.57 0" stroke="#267326" stroke-width="2" fill="none"></path></g><g stroke-linecap="round" transform="translate(383.9750839051434 174.65127401108697) rotate(0 14.362718374934047 13.131719357722488)"><path d="M6.57 0 C11.83 1.18, 15.84 -0.84, 22.16 0 M6.57 0 C10.65 0.29, 16.12 0.05, 22.16 0 M22.16 0 C25.6 0.76, 26.89 4.17, 28.73 6.57 M22.16 0 C28.05 0.75, 27.32 2.3, 28.73 6.57 M28.73 6.57 C30.03 9.85, 29.64 13.36, 28.73 19.7 M28.73 6.57 C28.38 9.2, 28.22 12.18, 28.73 19.7 M28.73 19.7 C27.18 25.4, 26.11 28.05, 22.16 26.26 M28.73 19.7 C30.88 25.95, 28.41 24.11, 22.16 26.26 M22.16 26.26 C14.99 27.28, 8.94 26.92, 6.57 26.26 M22.16 26.26 C18.34 26.41, 14.57 26.64, 6.57 26.26 M6.57 26.26 C0.56 26.8, 0.56 22.23, 0 19.7 M6.57 26.26 C3.53 25.87, -0.4 21.86, 0 19.7 M0 19.7 C1.05 16.71, -0.33 11.03, 0 6.57 M0 19.7 C-0.45 17.21, 0.23 13.79, 0 6.57 M0 6.57 C1.27 1.98, 2.07 -1.57, 6.57 0 M0 6.57 C1.47 4.43, 1.41 -1.19, 6.57 0" stroke="#267326" stroke-width="2" fill="none"></path></g><g stroke-linecap="round" transform="translate(436.18457173326385 174.65127401108697) rotate(0 14.362718374934047 13.131719357722488)"><path d="M6.57 0 C12.31 -0.86, 18.21 0.35, 22.16 0 M6.57 0 C10.84 -0.05, 14.44 0.25, 22.16 0 M22.16 0 C24.7 1.98, 30.04 2.84, 28.73 6.57 M22.16 0 C25.13 0.11, 28.82 2.47, 28.73 6.57 M28.73 6.57 C29.75 9.8, 27.61 15.47, 28.73 19.7 M28.73 6.57 C28.15 11.84, 28.15 17.09, 28.73 19.7 M28.73 19.7 C28.29 25.86, 28.41 27.89, 22.16 26.26 M28.73 19.7 C30.6 21.92, 28.79 24.66, 22.16 26.26 M22.16 26.26 C15.5 26.9, 9.35 27.55, 6.57 26.26 M22.16 26.26 C16.83 26.65, 11.74 26.5, 6.57 26.26 M6.57 26.26 C2.75 24.42, 1.16 23.73, 0 19.7 M6.57 26.26 C1.78 24.05, -0.13 24.01, 0 19.7 M0 19.7 C-0.44 14.26, -1.09 11.33, 0 6.57 M0 19.7 C0.37 16.91, 0.5 14.04, 0 6.57 M0 6.57 C-0.12 0.62, 3.47 1.95, 6.57 0 M0 6.57 C-0.78 1, 2 1.18, 6.57 0" stroke="#267326" stroke-width="2" fill="none"></path></g><g stroke-linecap="round"><g transform="translate(260.62336772247374 72.38601213806422) rotate(0 41.230797408220226 49.39959931660552)"><path d="M-0.56 0.02 C13.08 16.42, 69.15 81.84, 82.83 98.37 M1.35 -1.02 C14.77 15.56, 68.32 83.34, 82.08 99.68" stroke="#267326" stroke-width="2" fill="none"></path></g><g transform="translate(260.62336772247374 72.38601213806422) rotate(0 41.230797408220226 49.39959931660552)"><path d="M82.63 97.84 L69.75 92.78 L78.08 83.2 L81.97 99.62" stroke="none" stroke-width="0" fill="#267326" fill-rule="evenodd"></path><path d="M82.08 99.68 C76.94 97.57, 71.21 93.4, 68.58 93.12 M82.08 99.68 C77.26 97.8, 72.47 96.09, 68.58 93.12 M68.58 93.12 C72.22 90.31, 75.92 87.8, 78.43 85.13 M68.58 93.12 C71.97 89.27, 76.5 87.22, 78.43 85.13 M78.43 85.13 C79.84 87.59, 81.21 92.02, 82.08 99.68 M78.43 85.13 C80.6 90.06, 82.14 95.91, 82.08 99.68 M82.08 99.68 C82.08 99.68, 82.08 99.68, 82.08 99.68 M82.08 99.68 C82.08 99.68, 82.08 99.68, 82.08 99.68" stroke="#267326" stroke-width="2" fill="none"></path></g></g><mask></mask><g stroke-linecap="round"><g transform="translate(268.3432700149252 65.66558565856064) rotate(0 64.62154887380183 54.459595038207084)"><path d="M0.37 -0.43 C21.84 17.78, 106.77 91.06, 128.28 109.28 M-0.9 -1.7 C20.99 16.13, 108.87 88.69, 130.49 107.35" stroke="#267326" stroke-width="2" fill="none"></path></g><g transform="translate(268.3432700149252 65.66558565856064) rotate(0 64.62154887380183 54.459595038207084)"><path d="M131.66 107 L115.66 101.52 L124.06 93.69 L131.36 108.94" stroke="none" stroke-width="0" fill="#267326" fill-rule="evenodd"></path><path d="M130.49 107.35 C126.29 105.21, 123.61 105.71, 116.01 103.45 M130.49 107.35 C125.49 106.98, 122.35 105.32, 116.01 103.45 M116.01 103.45 C118.11 101.59, 121.15 98.13, 124.17 93.75 M116.01 103.45 C119.13 100.49, 121.77 96.32, 124.17 93.75 M124.17 93.75 C126.62 96.5, 128.37 101.26, 130.49 107.35 M124.17 93.75 C127.43 98.47, 129.67 103.72, 130.49 107.35 M130.49 107.35 C130.49 107.35, 130.49 107.35, 130.49 107.35 M130.49 107.35 C130.49 107.35, 130.49 107.35, 130.49 107.35" stroke="#267326" stroke-width="2" fill="none"></path></g></g><mask></mask><g stroke-linecap="round"><g transform="translate(271.12730560266976 56.462277007304834) rotate(0 90.39819930940634 57.468839553582924)"><path d="M-0.96 0.36 C29.15 19.59, 150.83 95.75, 181.03 114.93 M0.74 -0.49 C30.68 18.97, 150.46 97.49, 180.2 116.46" stroke="#267326" stroke-width="2" fill="none"></path></g><g transform="translate(271.12730560266976 56.462277007304834) rotate(0 90.39819930940634 57.468839553582924)"><path d="M179.85 114.53 L165.24 114.33 L173.11 105.34 L181.55 115.95" stroke="none" stroke-width="0" fill="#267326" fill-rule="evenodd"></path><path d="M180.2 116.46 C175.75 115.94, 170.37 114.27, 165.35 114.38 M180.2 116.46 C175.69 116.15, 169.72 115.24, 165.35 114.38 M165.35 114.38 C168.68 110.44, 170.39 106.74, 172.24 103.74 M165.35 114.38 C166.42 112.09, 167.68 110.19, 172.24 103.74 M172.24 103.74 C175.44 108, 177.1 110.65, 180.2 116.46 M172.24 103.74 C174.57 105.96, 176.08 108.66, 180.2 116.46 M180.2 116.46 C180.2 116.46, 180.2 116.46, 180.2 116.46 M180.2 116.46 C180.2 116.46, 180.2 116.46, 180.2 116.46" stroke="#267326" stroke-width="2" fill="none"></path></g></g><mask></mask><g stroke-linecap="round"><g transform="translate(326.362563715962 224.74660080491344) rotate(0 10.63461641678964 -9.719479619451931)"><path d="M0.11 -0.01 C3.68 -3.24, 17.57 -16.08, 21.01 -19.23 M-0.5 -0.48 C3.02 -3.9, 16.73 -16.89, 20.45 -20.09" stroke="#267326" stroke-width="2" fill="none"></path></g><g transform="translate(326.362563715962 224.74660080491344) rotate(0 10.63461641678964 -9.719479619451931)"><path d="M20.39 -20.12 L15.31 -6 L7.36 -16.07 L19.74 -20.84" stroke="none" stroke-width="0" fill="#267326" fill-rule="evenodd"></path><path d="M20.45 -20.09 C19.24 -17.49, 18.29 -14.89, 14.88 -6.8 M20.45 -20.09 C18.05 -14.76, 16.06 -9.43, 14.88 -6.8 M14.88 -6.8 C12.5 -10.41, 8.74 -12.86, 6.69 -15.81 M14.88 -6.8 C11.52 -10.16, 8.38 -13.52, 6.69 -15.81 M6.69 -15.81 C11.09 -16.48, 13.66 -17.55, 20.45 -20.09 M6.69 -15.81 C10.05 -16.94, 13.14 -17.99, 20.45 -20.09 M20.45 -20.09 C20.45 -20.09, 20.45 -20.09, 20.45 -20.09 M20.45 -20.09 C20.45 -20.09, 20.45 -20.09, 20.45 -20.09" stroke="#267326" stroke-width="2" fill="none"></path></g></g><mask></mask><g stroke-linecap="round"><g transform="translate(379.99042777893976 223.38629412263498) rotate(0 9.753609768823935 -8.72037262418499)"><path d="M-0.26 0.21 C2.89 -2.61, 15.65 -13.98, 19 -16.9 M0.61 -0.16 C3.91 -3.11, 16.79 -14.57, 19.98 -17.58" stroke="#267326" stroke-width="2" fill="none"></path></g><g transform="translate(379.99042777893976 223.38629412263498) rotate(0 9.753609768823935 -8.72037262418499)"><path d="M20.41 -16.78 L15.63 -5.76 L6.78 -14.41 L20.47 -18.45" stroke="none" stroke-width="0" fill="#267326" fill-rule="evenodd"></path><path d="M19.98 -17.58 C18.62 -14.34, 17.41 -9.45, 14.95 -5.5 M19.98 -17.58 C18.28 -13.52, 16.72 -9.22, 14.95 -5.5 M14.95 -5.5 C12.56 -7.52, 11.72 -9.85, 7.49 -13.66 M14.95 -5.5 C12.6 -7.68, 10.58 -9.99, 7.49 -13.66 M7.49 -13.66 C11.78 -14.62, 16.85 -16.31, 19.98 -17.58 M7.49 -13.66 C10.57 -14.8, 13.68 -15.45, 19.98 -17.58 M19.98 -17.58 C19.98 -17.58, 19.98 -17.58, 19.98 -17.58 M19.98 -17.58 C19.98 -17.58, 19.98 -17.58, 19.98 -17.58" stroke="#267326" stroke-width="2" fill="none"></path></g></g><mask></mask><g stroke-linecap="round"><g transform="translate(432.8304368231437 223.49570007245853) rotate(0 9.753609768823935 -8.72037262418499)"><path d="M-0.51 0.54 C2.85 -2.37, 16.59 -14.27, 19.87 -17.26 M0.24 0.35 C3.57 -2.75, 16.28 -15.28, 19.62 -18.14" stroke="#267326" stroke-width="2" fill="none"></path></g><g transform="translate(432.8304368231437 223.49570007245853) rotate(0 9.753609768823935 -8.72037262418499)"><path d="M20.3 -18.39 L13.98 -6.77 L7.66 -15 L19.04 -17.43" stroke="none" stroke-width="0" fill="#267326" fill-rule="evenodd"></path><path d="M19.62 -18.14 C19.05 -14.66, 17.36 -12.42, 14.69 -6.02 M19.62 -18.14 C18.24 -14.12, 16.44 -10.53, 14.69 -6.02 M14.69 -6.02 C13.62 -8.01, 11.53 -9.84, 7.17 -14.13 M14.69 -6.02 C12.14 -8.46, 9.94 -11.21, 7.17 -14.13 M7.17 -14.13 C11.49 -15.23, 16.29 -16.87, 19.62 -18.14 M7.17 -14.13 C10.51 -15.03, 13.25 -16.02, 19.62 -18.14 M19.62 -18.14 C19.62 -18.14, 19.62 -18.14, 19.62 -18.14 M19.62 -18.14 C19.62 -18.14, 19.62 -18.14, 19.62 -18.14" stroke="#267326" stroke-width="2" fill="none"></path></g></g><mask></mask><g stroke-linecap="round" transform="translate(596.7554567092178 52.379368953920334) rotate(0 22.995687585282383 21.57329465332083)"><path d="M25.75 0.06 C30.37 0.1, 35.75 2.74, 39.15 6.11 C42.55 9.48, 45.72 15.54, 46.15 20.26 C46.58 24.98, 44.68 30.72, 41.75 34.41 C38.82 38.1, 33.44 41.34, 28.56 42.41 C23.68 43.49, 16.92 42.92, 12.45 40.87 C7.99 38.82, 3.76 34.34, 1.77 30.11 C-0.22 25.88, -0.86 19.96, 0.49 15.5 C1.85 11.03, 5.67 5.84, 9.91 3.3 C14.16 0.76, 23.09 0.68, 25.97 0.25 C28.84 -0.18, 27.2 0.43, 27.17 0.73 M26.55 0.09 C31.16 0.6, 37.01 4.24, 40.27 7.66 C43.54 11.09, 46.1 16.22, 46.14 20.65 C46.19 25.08, 43.58 30.63, 40.55 34.24 C37.51 37.85, 32.61 41.37, 27.95 42.3 C23.28 43.23, 17.06 42, 12.55 39.8 C8.03 37.61, 2.69 33.35, 0.86 29.13 C-0.96 24.91, -0.07 18.9, 1.58 14.47 C3.24 10.03, 6.53 4.91, 10.78 2.52 C15.03 0.13, 24.56 0.42, 27.08 0.13 C29.61 -0.16, 26.06 0.43, 25.91 0.77" stroke="#267326" stroke-width="2" fill="none"></path></g><g stroke-linecap="round" transform="translate(554.1633522731399 174.83639847055326) rotate(0 14.362718374934047 13.131719357722488)"><path d="M6.57 0 C11.36 1.13, 17.31 -0.26, 22.16 0 M6.57 0 C10.24 0.19, 13.59 -0.03, 22.16 0 M22.16 0 C26.15 -1.77, 28.4 1.36, 28.73 6.57 M22.16 0 C25.53 -1.86, 28.22 1.07, 28.73 6.57 M28.73 6.57 C28.27 9.28, 27.82 11.58, 28.73 19.7 M28.73 6.57 C28.96 11.15, 28.87 16.35, 28.73 19.7 M28.73 19.7 C29.15 23.21, 25.29 24.29, 22.16 26.26 M28.73 19.7 C29.74 22.82, 28.05 23.97, 22.16 26.26 M22.16 26.26 C18.43 26, 14.51 27.86, 6.57 26.26 M22.16 26.26 C17.84 26.05, 13.77 26.21, 6.57 26.26 M6.57 26.26 C1.75 28.22, 1.47 24.24, 0 19.7 M6.57 26.26 C1.41 27.41, 1.94 23.6, 0 19.7 M0 19.7 C0.64 16.44, -0.13 13.16, 0 6.57 M0 19.7 C-0.05 16.32, -0.12 13.94, 0 6.57 M0 6.57 C-0.27 2.61, 0.9 -0.67, 6.57 0 M0 6.57 C0.62 2.65, 1.1 1.69, 6.57 0" stroke="#267326" stroke-width="2" fill="none"></path></g><g stroke-linecap="round" transform="translate(606.3728401012603 174.83639847055326) rotate(0 14.362718374934047 13.131719357722488)"><path d="M6.57 0 C12.93 -0.32, 15.97 -1.66, 22.16 0 M6.57 0 C12.13 -0.01, 17.1 -0.74, 22.16 0 M22.16 0 C26.21 -0.83, 27.85 0.57, 28.73 6.57 M22.16 0 C26.03 -1.12, 26.99 0.17, 28.73 6.57 M28.73 6.57 C27.9 9.65, 29.46 15.25, 28.73 19.7 M28.73 6.57 C28.83 10.11, 28.9 12.66, 28.73 19.7 M28.73 19.7 C27.48 22.1, 27.42 25.17, 22.16 26.26 M28.73 19.7 C30.24 21.78, 24.24 25.09, 22.16 26.26 M22.16 26.26 C15.23 27.74, 10.89 25.44, 6.57 26.26 M22.16 26.26 C17.79 26.14, 12.17 26.98, 6.57 26.26 M6.57 26.26 C3.66 26.43, -0.67 25.07, 0 19.7 M6.57 26.26 C4.13 25.78, -2.12 26.28, 0 19.7 M0 19.7 C-0.09 15.94, -0.84 14.49, 0 6.57 M0 19.7 C-0.1 17.47, -0.08 14.18, 0 6.57 M0 6.57 C-1.29 1.52, 2.73 0.4, 6.57 0 M0 6.57 C-1.09 3.87, 2.96 0.75, 6.57 0" stroke="#267326" stroke-width="2" fill="none"></path></g><g stroke-linecap="round" transform="translate(658.5823279293805 174.83639847055326) rotate(0 14.362718374934047 13.131719357722488)"><path d="M6.57 0 C11.17 -1.52, 18.99 0.56, 22.16 0 M6.57 0 C11.6 -0.7, 16.82 -0.33, 22.16 0 M22.16 0 C25.66 -1.62, 28.28 1.21, 28.73 6.57 M22.16 0 C24.8 -2.02, 28.78 1.59, 28.73 6.57 M28.73 6.57 C29.42 11.01, 27.89 14.3, 28.73 19.7 M28.73 6.57 C28.88 9.97, 28.33 13.29, 28.73 19.7 M28.73 19.7 C29.61 22.99, 27.85 24.27, 22.16 26.26 M28.73 19.7 C26.43 22.9, 27.79 25.37, 22.16 26.26 M22.16 26.26 C17.61 25.62, 13.72 26.7, 6.57 26.26 M22.16 26.26 C17.78 27.01, 14.32 26.31, 6.57 26.26 M6.57 26.26 C1.51 27.26, 1.69 23.66, 0 19.7 M6.57 26.26 C0.07 28.47, -2.22 25.42, 0 19.7 M0 19.7 C-0.76 16.43, -1.11 12.82, 0 6.57 M0 19.7 C-0.07 16.3, -0.4 12.41, 0 6.57 M0 6.57 C0.54 2.59, 1.24 1.47, 6.57 0 M0 6.57 C0.77 2.93, 3.49 -1.49, 6.57 0" stroke="#267326" stroke-width="2" fill="none"></path></g><g stroke-linecap="round"><g transform="translate(602.9546219180158 100.34525820981645) rotate(0 -18.908805350368894 36.707375089316685)"><path d="M-1.19 0.51 C-7.4 12.98, -31.36 61.65, -37.41 73.81 M0.39 -0.27 C-5.93 11.91, -31.73 59.38, -38.14 71.89" stroke="#267326" stroke-width="2" fill="none"></path></g><g transform="translate(602.9546219180158 100.34525820981645) rotate(0 -18.908805350368894 36.707375089316685)"><path d="M-38.81 72.89 L-35.69 56.5 L-28.02 64.76 L-40.06 73.06" stroke="none" stroke-width="0" fill="#267326" fill-rule="evenodd"></path><path d="M-38.14 71.89 C-37.16 68.11, -37.09 63.71, -37.38 56.91 M-38.14 71.89 C-38 67.02, -37.97 62.16, -37.38 56.91 M-37.38 56.91 C-35.41 58.68, -31.51 60.06, -26.17 62.84 M-37.38 56.91 C-34.38 57.9, -31.89 59.57, -26.17 62.84 M-26.17 62.84 C-30.49 64.74, -35.03 69.15, -38.14 71.89 M-26.17 62.84 C-29.8 64.56, -31.58 66.88, -38.14 71.89 M-38.14 71.89 C-38.14 71.89, -38.14 71.89, -38.14 71.89 M-38.14 71.89 C-38.14 71.89, -38.14 71.89, -38.14 71.89" stroke="#267326" stroke-width="2" fill="none"></path></g></g><mask></mask><g stroke-linecap="round"><g transform="translate(621.0240170944833 102.57486303031084) rotate(0 0.09889968084299028 35.09198923469643)"><path d="M0.41 0.39 C0.7 12.02, 0.61 58.79, 0.53 70.24 M-0.83 -0.44 C-0.57 11.34, -0.22 60.09, -0.24 71.81" stroke="#267326" stroke-width="2" fill="none"></path></g><g transform="translate(621.0240170944833 102.57486303031084) rotate(0 0.09889968084299028 35.09198923469643)"><path d="M1.45 71.39 L-8.47 60.16 L4.12 59.36 L-1.05 71.8" stroke="none" stroke-width="0" fill="#267326" fill-rule="evenodd"></path><path d="M-0.24 71.81 C-1.09 69.52, -2.8 66.08, -6.63 58.24 M-0.24 71.81 C-1.9 68.31, -3.09 65.68, -6.63 58.24 M-6.63 58.24 C-4.11 58, -1.7 57.36, 6.05 58.19 M-6.63 58.24 C-1.92 58.17, 2.53 58.63, 6.05 58.19 M6.05 58.19 C2.49 63.19, 1.13 67.89, -0.24 71.81 M6.05 58.19 C5.06 60.6, 3.23 62.94, -0.24 71.81 M-0.24 71.81 C-0.24 71.81, -0.24 71.81, -0.24 71.81 M-0.24 71.81 C-0.24 71.81, -0.24 71.81, -0.24 71.81" stroke="#267326" stroke-width="2" fill="none"></path></g></g><mask></mask><g stroke-linecap="round"><g transform="translate(640.4008024664199 97.65732641307335) rotate(0 18.70398118015359 37.89784124012564)"><path d="M0.33 0.06 C6.46 12.45, 31.03 62.19, 37.17 74.73 M-0.95 -0.96 C4.96 11.51, 29.89 62.83, 36.1 75.71" stroke="#267326" stroke-width="2" fill="none"></path></g><g transform="translate(640.4008024664199 97.65732641307335) rotate(0 18.70398118015359 37.89784124012564)"><path d="M34.26 77.63 L22.55 67.41 L35.07 60.7 L34.46 74.56" stroke="none" stroke-width="0" fill="#267326" fill-rule="evenodd"></path><path d="M36.1 75.71 C32.26 72.29, 26.97 69.17, 24.47 66.24 M36.1 75.71 C32.98 72.81, 29.57 70.07, 24.47 66.24 M24.47 66.24 C27.17 63.73, 32.14 63.64, 35.89 60.72 M24.47 66.24 C27.3 65.27, 30.13 63.3, 35.89 60.72 M35.89 60.72 C34.97 65.26, 34.35 66.34, 36.1 75.71 M35.89 60.72 C35.86 63.77, 36.8 68.08, 36.1 75.71 M36.1 75.71 C36.1 75.71, 36.1 75.71, 36.1 75.71 M36.1 75.71 C36.1 75.71, 36.1 75.71, 36.1 75.71" stroke="#267326" stroke-width="2" fill="none"></path></g></g><mask></mask><g stroke-linecap="round"><g transform="translate(546.1604780889172 223.40396132349156) rotate(0 9.674278777454475 -8.517047655920436)"><path d="M-0.11 -0.49 C3.08 -3.37, 16.06 -14.43, 19.26 -17.26 M-0.83 0.45 C2.27 -2.36, 15.54 -13.75, 18.78 -16.68" stroke="#267326" stroke-width="2" fill="none"></path></g><g transform="translate(546.1604780889172 223.40396132349156) rotate(0 9.674278777454475 -8.517047655920436)"><path d="M17.82 -16.1 L13.19 -4.89 L5.59 -13.65 L18.89 -17.53" stroke="none" stroke-width="0" fill="#267326" fill-rule="evenodd"></path><path d="M18.78 -16.68 C16.51 -12.92, 15.12 -9.23, 13.6 -4.88 M18.78 -16.68 C17.39 -14.39, 16.51 -11.61, 13.6 -4.88 M13.6 -4.88 C11.92 -6.91, 9.26 -9.38, 6.41 -13.07 M13.6 -4.88 C11.63 -7.28, 9.39 -9.73, 6.41 -13.07 M6.41 -13.07 C10.04 -15, 14.61 -15.25, 18.78 -16.68 M6.41 -13.07 C9.96 -14, 12.71 -14.85, 18.78 -16.68 M18.78 -16.68 C18.78 -16.68, 18.78 -16.68, 18.78 -16.68 M18.78 -16.68 C18.78 -16.68, 18.78 -16.68, 18.78 -16.68" stroke="#267326" stroke-width="2" fill="none"></path></g></g><mask></mask><g stroke-linecap="round"><g transform="translate(598.5862763002567 223.60701558025823) rotate(0 9.753609768823935 -8.72037262418499)"><path d="M-0.09 -0.23 C3.14 -3.13, 16.02 -14.97, 19.27 -17.89 M-0.8 -0.82 C2.35 -3.63, 15.42 -14.68, 18.71 -17.42" stroke="#267326" stroke-width="2" fill="none"></path></g><g transform="translate(598.5862763002567 223.60701558025823) rotate(0 9.753609768823935 -8.72037262418499)"><path d="M18.31 -17.42 L12.36 -6.13 L6.18 -14.87 L18.66 -17.72" stroke="none" stroke-width="0" fill="#267326" fill-rule="evenodd"></path><path d="M18.71 -17.42 C16.84 -14.38, 15.03 -10.91, 13.19 -5.56 M18.71 -17.42 C17.29 -14.55, 15.83 -11.68, 13.19 -5.56 M13.19 -5.56 C11.19 -7.36, 9.75 -9.41, 6.08 -14.02 M13.19 -5.56 C10.48 -8.85, 8.25 -11.73, 6.08 -14.02 M6.08 -14.02 C10.38 -14.84, 15.08 -16.59, 18.71 -17.42 M6.08 -14.02 C8.55 -14.68, 11.43 -15.54, 18.71 -17.42 M18.71 -17.42 C18.71 -17.42, 18.71 -17.42, 18.71 -17.42 M18.71 -17.42 C18.71 -17.42, 18.71 -17.42, 18.71 -17.42" stroke="#267326" stroke-width="2" fill="none"></path></g></g><mask></mask><g stroke-linecap="round"><g transform="translate(651.0650977312501 223.4586860153455) rotate(0 9.753609768823935 -8.72037262418499)"><path d="M-0.24 -0.45 C3.01 -3.36, 16.16 -14.8, 19.39 -17.71 M0.64 0.51 C3.81 -2.31, 15.63 -14.13, 18.89 -17.15" stroke="#267326" stroke-width="2" fill="none"></path></g><g transform="translate(651.0650977312501 223.4586860153455) rotate(0 9.753609768823935 -8.72037262418499)"><path d="M18.07 -17.73 L14.3 -5.78 L6.47 -13.2 L18.74 -16.24" stroke="none" stroke-width="0" fill="#267326" fill-rule="evenodd"></path><path d="M18.89 -17.15 C17 -13.84, 15.88 -10.72, 14.2 -4.94 M18.89 -17.15 C17.84 -14.76, 16.68 -11.78, 14.2 -4.94 M14.2 -4.94 C11.37 -7.71, 9.05 -10.49, 6.52 -12.9 M14.2 -4.94 C12.37 -7.17, 10.46 -9.33, 6.52 -12.9 M6.52 -12.9 C8.75 -13.93, 10.89 -14, 18.89 -17.15 M6.52 -12.9 C10.13 -14.22, 13.84 -15.37, 18.89 -17.15 M18.89 -17.15 C18.89 -17.15, 18.89 -17.15, 18.89 -17.15 M18.89 -17.15 C18.89 -17.15, 18.89 -17.15, 18.89 -17.15" stroke="#267326" stroke-width="2" fill="none"></path></g></g><mask></mask><g stroke-linecap="round" transform="translate(753.7702304698754 52.379368953920334) rotate(0 22.995687585282383 21.57329465332083)"><path d="M18.56 0.29 C23.13 -0.86, 29.55 0.09, 33.92 2.41 C38.29 4.72, 43.04 9.8, 44.79 14.2 C46.54 18.6, 46.11 24.47, 44.42 28.8 C42.74 33.12, 38.81 37.8, 34.67 40.16 C30.53 42.52, 24.47 43.78, 19.59 42.97 C14.7 42.17, 8.71 38.83, 5.37 35.35 C2.02 31.87, -0.41 26.61, -0.49 22.09 C-0.57 17.58, 1.69 11.98, 4.91 8.26 C8.12 4.54, 16.34 1.01, 18.81 -0.22 C21.28 -1.45, 19.62 0.47, 19.73 0.89 M17.48 0.65 C21.88 -0.62, 29.08 0.07, 33.61 2.14 C38.15 4.22, 42.83 8.69, 44.69 13.11 C46.56 17.53, 46.25 24.22, 44.81 28.65 C43.36 33.09, 40.19 37.3, 36.03 39.75 C31.88 42.2, 24.77 43.96, 19.9 43.35 C15.02 42.75, 10.21 39.43, 6.78 36.1 C3.35 32.77, -0.19 27.9, -0.66 23.38 C-1.14 18.86, 0.9 12.8, 3.93 8.99 C6.97 5.19, 15.32 1.95, 17.56 0.54 C19.8 -0.87, 17.2 0.28, 17.35 0.53" stroke="#267326" stroke-width="2" fill="none"></path></g><g stroke-linecap="round" transform="translate(710.7918157575008 174.83639847055326) rotate(0 14.362718374934047 13.131719357722488)"><path d="M6.57 0 C9.53 0.16, 14.83 -0.17, 22.16 0 M6.57 0 C10.74 -0.54, 14.23 -0.24, 22.16 0 M22.16 0 C26.74 1.1, 29.15 1.32, 28.73 6.57 M22.16 0 C25.1 -2.27, 29.74 0.94, 28.73 6.57 M28.73 6.57 C27.92 12.08, 28.08 15.88, 28.73 19.7 M28.73 6.57 C28.52 9.42, 28.97 11.88, 28.73 19.7 M28.73 19.7 C30.1 23.89, 26.09 28.22, 22.16 26.26 M28.73 19.7 C30.42 24.26, 25.76 27.41, 22.16 26.26 M22.16 26.26 C17.66 24.62, 11.08 25.49, 6.57 26.26 M22.16 26.26 C17.58 25.51, 12.78 25.93, 6.57 26.26 M6.57 26.26 C1.87 28.09, -0.27 24.49, 0 19.7 M6.57 26.26 C0.71 25.5, 0.62 24.54, 0 19.7 M0 19.7 C0.33 17.12, -0.95 13.14, 0 6.57 M0 19.7 C-0.35 16.66, 0.6 12.61, 0 6.57 M0 6.57 C1.23 2.85, 1.99 1.49, 6.57 0 M0 6.57 C1.35 4.37, 2.35 -1.37, 6.57 0" stroke="#267326" stroke-width="2" fill="none"></path></g><g stroke-linecap="round" transform="translate(763.0013035856211 174.83639847055326) rotate(0 14.362718374934047 13.131719357722488)"><path d="M6.57 0 C9.66 -0.29, 12.63 -1.06, 22.16 0 M6.57 0 C12.35 -0.06, 17.83 0.52, 22.16 0 M22.16 0 C26.96 -0.87, 27.48 0.22, 28.73 6.57 M22.16 0 C27.55 -1.25, 30.24 -0.1, 28.73 6.57 M28.73 6.57 C28.15 8.9, 27.48 13.09, 28.73 19.7 M28.73 6.57 C28.78 10.13, 29.11 14.02, 28.73 19.7 M28.73 19.7 C28.28 26.03, 28.01 26.43, 22.16 26.26 M28.73 19.7 C27.95 25.22, 28.47 25.78, 22.16 26.26 M22.16 26.26 C19.83 25.48, 15.67 24.83, 6.57 26.26 M22.16 26.26 C18.34 25.89, 14.49 26.84, 6.57 26.26 M6.57 26.26 C1.92 26.68, -1.29 23.41, 0 19.7 M6.57 26.26 C2.81 26.73, -1.09 25.76, 0 19.7 M0 19.7 C-0.89 15.39, -0.5 9.63, 0 6.57 M0 19.7 C0.57 16.05, 0.5 12.87, 0 6.57 M0 6.57 C-0.2 3.68, 3.36 1.89, 6.57 0 M0 6.57 C0.16 0.82, 3.32 -1.64, 6.57 0" stroke="#267326" stroke-width="2" fill="none"></path></g><g stroke-linecap="round" transform="translate(815.2107914137415 174.83639847055326) rotate(0 14.362718374934047 13.131719357722488)"><path d="M6.57 0 C10.34 -1.03, 16.92 0.91, 22.16 0 M6.57 0 C10.43 0.46, 14.3 -0.31, 22.16 0 M22.16 0 C25.29 -1.97, 29.61 1.1, 28.73 6.57 M22.16 0 C28.05 -2.29, 26.43 1.01, 28.73 6.57 M28.73 6.57 C27.49 12.49, 28.49 15.21, 28.73 19.7 M28.73 6.57 C29.2 10.64, 28.6 15.47, 28.73 19.7 M28.73 19.7 C30.2 24.24, 25.86 27.26, 22.16 26.26 M28.73 19.7 C30.66 23.6, 24.42 28.47, 22.16 26.26 M22.16 26.26 C18.97 24.92, 14.9 26.37, 6.57 26.26 M22.16 26.26 C18.68 26.93, 15.34 26.38, 6.57 26.26 M6.57 26.26 C0.9 25.6, 0.54 24.48, 0 19.7 M6.57 26.26 C1.1 27.95, 0.77 24.82, 0 19.7 M0 19.7 C-0.37 13.71, -0.33 9.38, 0 6.57 M0 19.7 C0.31 15.08, -0.16 10.52, 0 6.57 M0 6.57 C1.17 4.08, 2.33 -1.19, 6.57 0 M0 6.57 C1.13 0.55, 0.07 -0.83, 6.57 0" stroke="#267326" stroke-width="2" fill="none"></path></g><g stroke-linecap="round"><g transform="translate(759.9331437968851 100.34278762039725) rotate(0 -19.08813316130329 36.70861038402629)"><path d="M-0.81 0.7 C-7.03 12.95, -31.32 60.65, -37.5 72.73 M0.96 0.03 C-5.33 12.48, -31.52 61.51, -38.09 73.91" stroke="#267326" stroke-width="2" fill="none"></path></g><g transform="translate(759.9331437968851 100.34278762039725) rotate(0 -19.08813316130329 36.70861038402629)"><path d="M-39.38 73.24 L-36.76 59.33 L-27.06 66.35 L-37.42 74.56" stroke="none" stroke-width="0" fill="#267326" fill-rule="evenodd"></path><path d="M-38.09 73.91 C-36.9 70.54, -38.41 65.84, -37.3 58.93 M-38.09 73.91 C-37.72 69.37, -38.13 64.76, -37.3 58.93 M-37.3 58.93 C-34.74 59.64, -30.28 63.64, -26.11 64.88 M-37.3 58.93 C-33.78 60.5, -31.79 62.23, -26.11 64.88 M-26.11 64.88 C-30.09 67.51, -32.3 71.82, -38.09 73.91 M-26.11 64.88 C-29.2 67.57, -34.21 71.22, -38.09 73.91 M-38.09 73.91 C-38.09 73.91, -38.09 73.91, -38.09 73.91 M-38.09 73.91 C-38.09 73.91, -38.09 73.91, -38.09 73.91" stroke="#267326" stroke-width="2" fill="none"></path></g></g><mask></mask><g stroke-linecap="round"><g transform="translate(778.0134788610133 102.57463045748563) rotate(0 -0.05203559772616018 35.42545927628575)"><path d="M0.68 -0.69 C0.85 10.97, 0.31 58.59, 0.2 70.62 M-0.42 1.57 C-0.32 13.34, -0.55 60.71, -0.59 72.03" stroke="#267326" stroke-width="2" fill="none"></path></g><g transform="translate(778.0134788610133 102.57463045748563) rotate(0 -0.05203559772616018 35.42545927628575)"><path d="M-0.05 72.44 L-7.82 59.88 L6.48 59.12 L0.53 70.74" stroke="none" stroke-width="0" fill="#267326" fill-rule="evenodd"></path><path d="M-0.59 72.03 C-2.99 69.28, -3.88 65.9, -6.88 58.41 M-0.59 72.03 C-3.32 66.43, -4.75 61.93, -6.88 58.41 M-6.88 58.41 C-2.89 59.25, 1.9 58.3, 5.8 58.47 M-6.88 58.41 C-4.53 58.53, -1.43 58.26, 5.8 58.47 M5.8 58.47 C4.9 64.56, 1.2 67.95, -0.59 72.03 M5.8 58.47 C2.99 63.92, 0.72 68.38, -0.59 72.03 M-0.59 72.03 C-0.59 72.03, -0.59 72.03, -0.59 72.03 M-0.59 72.03 C-0.59 72.03, -0.59 72.03, -0.59 72.03" stroke="#267326" stroke-width="2" fill="none"></path></g></g><mask></mask><g stroke-linecap="round"><g transform="translate(797.394938348936 97.6485305619776) rotate(0 18.554405624346685 37.90223916567355)"><path d="M0.3 -0.23 C6.39 12.63, 31.06 63.88, 37.23 76.46 M-1 -1.4 C4.89 11.17, 30.06 61.73, 36.35 74.69" stroke="#267326" stroke-width="2" fill="none"></path></g><g transform="translate(797.394938348936 97.6485305619776) rotate(0 18.554405624346685 37.90223916567355)"><path d="M35.4 76.15 L25.33 65.94 L37.16 58.39 L36.47 73.99" stroke="none" stroke-width="0" fill="#267326" fill-rule="evenodd"></path><path d="M36.35 74.69 C31.95 71.52, 28.89 68.33, 24.66 65.29 M36.35 74.69 C33.74 71.75, 30.9 69, 24.66 65.29 M24.66 65.29 C26.47 63.82, 28.1 64.21, 36.04 59.69 M24.66 65.29 C28.06 63.48, 31.64 62.01, 36.04 59.69 M36.04 59.69 C36.39 63.35, 37.1 69.28, 36.35 74.69 M36.04 59.69 C35.26 64.31, 35.77 68.05, 36.35 74.69 M36.35 74.69 C36.35 74.69, 36.35 74.69, 36.35 74.69 M36.35 74.69 C36.35 74.69, 36.35 74.69, 36.35 74.69" stroke="#267326" stroke-width="2" fill="none"></path></g></g><mask></mask><g stroke-linecap="round"><g transform="translate(703.8786149890776 224.12681405365748) rotate(0 10.338011060319872 -8.884775336621999)"><path d="M0.06 0.3 C3.5 -2.68, 17.41 -14.91, 20.79 -18.01 M-0.58 -0.02 C2.79 -2.92, 16.75 -14.44, 20.42 -17.43" stroke="#267326" stroke-width="2" fill="none"></path></g><g transform="translate(703.8786149890776 224.12681405365748) rotate(0 10.338011060319872 -8.884775336621999)"><path d="M20.76 -17.11 L15.09 -5.79 L7.28 -14.39 L19.43 -17.75" stroke="none" stroke-width="0" fill="#267326" fill-rule="evenodd"></path><path d="M20.42 -17.43 C18.87 -13.29, 16.28 -9.86, 14.53 -5.14 M20.42 -17.43 C19.49 -15.31, 17.73 -12.67, 14.53 -5.14 M14.53 -5.14 C11.44 -7.74, 9.29 -11.75, 7.22 -14.04 M14.53 -5.14 C12.42 -7.98, 9.86 -10.47, 7.22 -14.04 M7.22 -14.04 C12.49 -14.71, 16.94 -17.18, 20.42 -17.43 M7.22 -14.04 C12.32 -15.43, 17.41 -16.96, 20.42 -17.43 M20.42 -17.43 C20.42 -17.43, 20.42 -17.43, 20.42 -17.43 M20.42 -17.43 C20.42 -17.43, 20.42 -17.43, 20.42 -17.43" stroke="#267326" stroke-width="2" fill="none"></path></g></g><mask></mask><g stroke-linecap="round"><g transform="translate(756.9132683391159 223.82705381814424) rotate(0 9.753609768823935 -8.72037262418499)"><path d="M0.12 -0.24 C3.3 -3.29, 15.89 -15.07, 19.16 -17.98 M-0.49 0.83 C2.87 -2.2, 16.89 -14.54, 20.22 -17.56" stroke="#267326" stroke-width="2" fill="none"></path></g><g transform="translate(756.9132683391159 223.82705381814424) rotate(0 9.753609768823935 -8.72037262418499)"><path d="M20.79 -18.21 L15.11 -5.89 L6.7 -14.12 L19.49 -16.88" stroke="none" stroke-width="0" fill="#267326" fill-rule="evenodd"></path><path d="M20.22 -17.56 C18.36 -14.23, 16.4 -9.81, 15.05 -5.54 M20.22 -17.56 C18.66 -14.8, 17.9 -11.81, 15.05 -5.54 M15.05 -5.54 C12.96 -8.08, 11.08 -9.99, 7.69 -13.8 M15.05 -5.54 C12.97 -7.5, 11.26 -9.98, 7.69 -13.8 M7.69 -13.8 C10.88 -15.46, 14.98 -16.49, 20.22 -17.56 M7.69 -13.8 C11.92 -15.34, 16.71 -16.77, 20.22 -17.56 M20.22 -17.56 C20.22 -17.56, 20.22 -17.56, 20.22 -17.56 M20.22 -17.56 C20.22 -17.56, 20.22 -17.56, 20.22 -17.56" stroke="#267326" stroke-width="2" fill="none"></path></g></g><mask></mask><g stroke-linecap="round"><g transform="translate(809.4618677777506 223.70720189861987) rotate(0 9.753609768823935 -8.72037262418499)"><path d="M-0.34 -0.54 C2.93 -3.46, 16.38 -14.83, 19.75 -17.74 M0.48 0.37 C3.69 -2.46, 16.24 -14.19, 19.44 -17.19" stroke="#267326" stroke-width="2" fill="none"></path></g><g transform="translate(809.4618677777506 223.70720189861987) rotate(0 9.753609768823935 -8.72037262418499)"><path d="M19.5 -17.54 L13.57 -5.37 L6.28 -12.45 L20.17 -17.38" stroke="none" stroke-width="0" fill="#267326" fill-rule="evenodd"></path><path d="M19.44 -17.19 C17.2 -13.02, 15.92 -8.98, 14.56 -5.06 M19.44 -17.19 C18.58 -14.9, 17.36 -12.64, 14.56 -5.06 M14.56 -5.06 C11.65 -8.18, 8.4 -11.11, 7.01 -13.13 M14.56 -5.06 C12.58 -7.34, 10.09 -9.58, 7.01 -13.13 M7.01 -13.13 C12.42 -15.27, 16.95 -16.46, 19.44 -17.19 M7.01 -13.13 C10.78 -14.59, 14.45 -15.63, 19.44 -17.19 M19.44 -17.19 C19.44 -17.19, 19.44 -17.19, 19.44 -17.19 M19.44 -17.19 C19.44 -17.19, 19.44 -17.19, 19.44 -17.19" stroke="#267326" stroke-width="2" fill="none"></path></g></g><mask></mask><g stroke-linecap="round" transform="translate(910.785004230533 52.379368953920334) rotate(0 22.995687585282383 21.57329465332083)"><path d="M26.5 0.56 C31.21 1.07, 37.09 3.88, 40.26 7.42 C43.44 10.97, 45.47 17.23, 45.54 21.83 C45.61 26.43, 43.74 31.51, 40.7 35.01 C37.66 38.52, 32.16 41.92, 27.3 42.87 C22.44 43.82, 15.87 43.01, 11.55 40.71 C7.24 38.41, 3.05 33.37, 1.42 29.05 C-0.2 24.73, 0.14 19.14, 1.8 14.77 C3.45 10.4, 7.02 5.16, 11.33 2.84 C15.65 0.51, 24.92 1.22, 27.68 0.83 C30.44 0.44, 27.94 0.3, 27.9 0.5 M25.72 -0.21 C30.45 0.05, 36.89 3.11, 40.26 6.6 C43.63 10.09, 45.83 15.88, 45.94 20.72 C46.05 25.56, 43.98 31.95, 40.91 35.64 C37.85 39.33, 32.43 42.08, 27.54 42.86 C22.65 43.64, 15.88 42.5, 11.59 40.31 C7.31 38.11, 3.62 33.85, 1.83 29.69 C0.03 25.52, -0.75 19.7, 0.81 15.33 C2.37 10.96, 6.86 6.05, 11.18 3.45 C15.5 0.85, 24.23 0.25, 26.76 -0.26 C29.28 -0.77, 26.56 0, 26.31 0.39" stroke="#267326" stroke-width="2" fill="none"></path></g><g stroke-linecap="round" transform="translate(867.4202792418619 174.83639847055326) rotate(0 14.362718374934019 13.131719357722488)"><path d="M6.57 0 C10.38 -1.66, 16.5 0.75, 22.16 0 M6.57 0 C11.39 0.03, 14.32 0.25, 22.16 0 M22.16 0 C26.91 -0.61, 30.1 2, 28.73 6.57 M22.16 0 C26.03 2.25, 30.42 2.38, 28.73 6.57 M28.73 6.57 C28.52 8.85, 30.05 12.29, 28.73 19.7 M28.73 6.57 C28.13 10.89, 28.74 15.42, 28.73 19.7 M28.73 19.7 C28.62 23.46, 26.22 28.09, 22.16 26.26 M28.73 19.7 C28.41 24.56, 25.05 25.5, 22.16 26.26 M22.16 26.26 C18.2 26.71, 12.46 27.07, 6.57 26.26 M22.16 26.26 C17.72 25.96, 14.25 26.74, 6.57 26.26 M6.57 26.26 C3.63 25.89, 1.23 24.74, 0 19.7 M6.57 26.26 C1.96 27.97, 1.35 26.25, 0 19.7 M0 19.7 C-0.86 14.45, -0.39 10.94, 0 6.57 M0 19.7 C-0.35 16.57, 0.41 13.6, 0 6.57 M0 6.57 C0.7 1.42, 1.29 -1.73, 6.57 0 M0 6.57 C1.54 2.02, 2.13 -0.89, 6.57 0" stroke="#267326" stroke-width="2" fill="none"></path></g><g stroke-linecap="round" transform="translate(919.6297670699822 174.83639847055326) rotate(0 14.362718374934047 13.131719357722488)"><path d="M6.57 0 C11.47 1, 17.36 -0.19, 22.16 0 M6.57 0 C9.44 0.14, 13.26 -0.22, 22.16 0 M22.16 0 C27.91 -0.19, 28.28 4.15, 28.73 6.57 M22.16 0 C28.23 0.19, 27.95 3.33, 28.73 6.57 M28.73 6.57 C29.96 10.35, 29.46 16.12, 28.73 19.7 M28.73 6.57 C28.69 9.94, 28.58 14.23, 28.73 19.7 M28.73 19.7 C28.41 25.9, 26.27 26.68, 22.16 26.26 M28.73 19.7 C27.24 23.31, 27.16 26.73, 22.16 26.26 M22.16 26.26 C18.73 27.19, 13.27 26.41, 6.57 26.26 M22.16 26.26 C17.45 26.75, 14.45 26.07, 6.57 26.26 M6.57 26.26 C3.42 26.93, -0.2 25.56, 0 19.7 M6.57 26.26 C3.54 28.44, 0.16 22.7, 0 19.7 M0 19.7 C-0.38 14.42, -0.52 10.66, 0 6.57 M0 19.7 C0.49 17.33, 0.3 13.6, 0 6.57 M0 6.57 C-0.9 0.46, 3.53 -0.15, 6.57 0 M0 6.57 C-0.06 1.29, 4.26 -2.07, 6.57 0" stroke="#267326" stroke-width="2" fill="none"></path></g><g stroke-linecap="round" transform="translate(971.8392548981025 174.83639847055326) rotate(0 14.362718374934047 13.131719357722488)"><path d="M6.57 0 C9.08 -0.43, 11.4 1.42, 22.16 0 M6.57 0 C11.17 -0.26, 16.03 -0.1, 22.16 0 M22.16 0 C26.09 1.96, 30.2 2.35, 28.73 6.57 M22.16 0 C25.76 1.14, 30.66 1.71, 28.73 6.57 M28.73 6.57 C29.62 8.76, 28.84 10.94, 28.73 19.7 M28.73 6.57 C28.71 9.54, 28.64 13.52, 28.73 19.7 M28.73 19.7 C28.46 24.49, 25.25 25.6, 22.16 26.26 M28.73 19.7 C29.35 24.54, 25.45 27.95, 22.16 26.26 M22.16 26.26 C15.95 26.44, 11.21 24.8, 6.57 26.26 M22.16 26.26 C18.54 26.22, 14.27 26.63, 6.57 26.26 M6.57 26.26 C1.99 27.75, 1.17 25.97, 0 19.7 M6.57 26.26 C2.35 24.89, 1.13 22.43, 0 19.7 M0 19.7 C-0.56 17.1, -0.97 13.58, 0 6.57 M0 19.7 C0.15 15.11, -0.38 10.45, 0 6.57 M0 6.57 C1.34 2.04, 2.14 -0.78, 6.57 0 M0 6.57 C2.07 0.12, 3.13 -0.61, 6.57 0" stroke="#267326" stroke-width="2" fill="none"></path></g><g stroke-linecap="round"><g transform="translate(917.0051773546246 100.35746868024307) rotate(0 -19.235783912168472 36.7012698541034)"><path d="M-0.27 -1.08 C-6.59 11.2, -30.84 60.79, -37.31 73.24 M1.8 0.97 C-4.65 13.48, -30.65 62.35, -37.65 74.69" stroke="#267326" stroke-width="2" fill="none"></path></g><g transform="translate(917.0051773546246 100.35746868024307) rotate(0 -19.235783912168472 36.7012698541034)"><path d="M-37.84 76.17 L-35.51 61.61 L-25.42 64.61 L-36.66 73.26" stroke="none" stroke-width="0" fill="#267326" fill-rule="evenodd"></path><path d="M-37.65 74.69 C-38.6 70.84, -37.12 63.32, -36.69 59.72 M-37.65 74.69 C-36.86 69.91, -37.24 66, -36.69 59.72 M-36.69 59.72 C-31.9 63.1, -28.64 63.13, -25.56 65.8 M-36.69 59.72 C-32.6 62.06, -28.46 64.1, -25.56 65.8 M-25.56 65.8 C-29.86 68.32, -31.78 71.11, -37.65 74.69 M-25.56 65.8 C-29.3 68.76, -33.73 72.01, -37.65 74.69 M-37.65 74.69 C-37.65 74.69, -37.65 74.69, -37.65 74.69 M-37.65 74.69 C-37.65 74.69, -37.65 74.69, -37.65 74.69" stroke="#267326" stroke-width="2" fill="none"></path></g></g><mask></mask><g stroke-linecap="round"><g transform="translate(935.0669832090426 102.57430272178709) rotate(0 -0.22787252018798654 35.42562314413502)"><path d="M1.16 -0.17 C1.03 11.85, -0.83 59.25, -1.07 71.03 M0.31 -1.3 C0.6 11.03, 1.52 60.51, 1.33 72.66" stroke="#267326" stroke-width="2" fill="none"></path></g><g transform="translate(935.0669832090426 102.57430272178709) rotate(0 -0.22787252018798654 35.42562314413502)"><path d="M2.5 74.55 L-4.93 57.89 L8.6 57.61 L-0.52 71.94" stroke="none" stroke-width="0" fill="#267326" fill-rule="evenodd"></path><path d="M1.33 72.66 C-0.54 68.19, -1.89 65.46, -5.07 59.09 M1.33 72.66 C-0.66 69.73, -1.66 65.39, -5.07 59.09 M-5.07 59.09 C-1.96 57.8, 2.9 57.73, 7.61 59.04 M-5.07 59.09 C-1.05 58.7, 4.08 58.52, 7.61 59.04 M7.61 59.04 C7.08 62.84, 4.18 66.09, 1.33 72.66 M7.61 59.04 C5.62 63.23, 4.55 66.56, 1.33 72.66 M1.33 72.66 C1.33 72.66, 1.33 72.66, 1.33 72.66 M1.33 72.66 C1.33 72.66, 1.33 72.66, 1.33 72.66" stroke="#267326" stroke-width="2" fill="none"></path></g></g><mask></mask><g stroke-linecap="round"><g transform="translate(954.4241381276312 97.66226668261788) rotate(0 18.32271223949914 37.895371105353405)"><path d="M-0.61 0.18 C5.34 12.77, 30.52 62.84, 36.87 75.43 M1.27 -0.78 C6.98 12.01, 30.06 63.82, 36.04 76.77" stroke="#267326" stroke-width="2" fill="none"></path></g><g transform="translate(954.4241381276312 97.66226668261788) rotate(0 18.32271223949914 37.895371105353405)"><path d="M36.18 75.58 L25.64 65.57 L34.36 61.06 L34.98 75.85" stroke="none" stroke-width="0" fill="#267326" fill-rule="evenodd"></path><path d="M36.04 76.77 C31.75 73.11, 26.56 69.99, 24.66 67 M36.04 76.77 C33.3 74.1, 29.19 71.57, 24.66 67 M24.66 67 C30.32 63.88, 34.28 62.57, 36.21 61.77 M24.66 67 C28.23 64.96, 31.58 63.74, 36.21 61.77 M36.21 61.77 C36.61 65.07, 35.75 70.71, 36.04 76.77 M36.21 61.77 C36.33 66.82, 36.45 70.89, 36.04 76.77 M36.04 76.77 C36.04 76.77, 36.04 76.77, 36.04 76.77 M36.04 76.77 C36.04 76.77, 36.04 76.77, 36.04 76.77" stroke="#267326" stroke-width="2" fill="none"></path></g></g><mask></mask><g stroke-linecap="round"><g transform="translate(862.0172468808007 224.93172526437974) rotate(0 10.634616416789612 -9.719479619451931)"><path d="M0.1 -0.17 C3.76 -3.43, 18.14 -16.37, 21.65 -19.49 M-0.51 -0.73 C3.13 -3.91, 17.87 -15.66, 21.41 -18.82" stroke="#267326" stroke-width="2" fill="none"></path></g><g transform="translate(862.0172468808007 224.93172526437974) rotate(0 10.634616416789612 -9.719479619451931)"><path d="M21.9 -19.53 L14.39 -6.12 L6.96 -15.56 L21.51 -19.59" stroke="none" stroke-width="0" fill="#267326" fill-rule="evenodd"></path><path d="M21.41 -18.82 C19.68 -15.07, 18.31 -12.47, 15.31 -5.76 M21.41 -18.82 C18.91 -13.44, 16.91 -8.5, 15.31 -5.76 M15.31 -5.76 C14 -7.99, 12.01 -10.18, 7.49 -15.1 M15.31 -5.76 C13.4 -8.15, 11.47 -10.04, 7.49 -15.1 M7.49 -15.1 C11.23 -15.92, 15.61 -17.53, 21.41 -18.82 M7.49 -15.1 C12.88 -16.74, 17.9 -18.02, 21.41 -18.82 M21.41 -18.82 C21.41 -18.82, 21.41 -18.82, 21.41 -18.82 M21.41 -18.82 C21.41 -18.82, 21.41 -18.82, 21.41 -18.82" stroke="#267326" stroke-width="2" fill="none"></path></g></g><mask></mask><g stroke-linecap="round"><g transform="translate(915.6451109437784 223.57141858210127) rotate(0 9.753609768823935 -8.72037262418499)"><path d="M0.38 -0.05 C3.59 -2.84, 16.13 -14.01, 19.39 -16.9 M-0.09 -0.55 C3.03 -3.47, 15.58 -14.89, 18.89 -17.59" stroke="#267326" stroke-width="2" fill="none"></path></g><g transform="translate(915.6451109437784 223.57141858210127) rotate(0 9.753609768823935 -8.72037262418499)"><path d="M17.97 -17.95 L13.04 -6.1 L6.41 -14.76 L18.38 -17.29" stroke="none" stroke-width="0" fill="#267326" fill-rule="evenodd"></path><path d="M18.89 -17.59 C17.12 -13.91, 16.13 -9.48, 13.57 -5.64 M18.89 -17.59 C17.51 -13.96, 15.29 -9.9, 13.57 -5.64 M13.57 -5.64 C12.07 -7.81, 10.27 -8.99, 6.32 -13.98 M13.57 -5.64 C11.97 -7.19, 10.41 -9.18, 6.32 -13.98 M6.32 -13.98 C9.42 -15.16, 12.73 -15.48, 18.89 -17.59 M6.32 -13.98 C10.51 -15.26, 14.34 -16.44, 18.89 -17.59 M18.89 -17.59 C18.89 -17.59, 18.89 -17.59, 18.89 -17.59 M18.89 -17.59 C18.89 -17.59, 18.89 -17.59, 18.89 -17.59" stroke="#267326" stroke-width="2" fill="none"></path></g></g><mask></mask><g stroke-linecap="round"><g transform="translate(968.4851199879826 223.68082453192483) rotate(0 9.753609768823935 -8.72037262418499)"><path d="M-0.12 0.54 C3.13 -2.35, 16.67 -14.45, 19.91 -17.4 M0.82 0.34 C4 -2.45, 16.68 -13.6, 19.69 -16.67" stroke="#267326" stroke-width="2" fill="none"></path></g><g transform="translate(968.4851199879826 223.68082453192483) rotate(0 9.753609768823935 -8.72037262418499)"><path d="M19.16 -17.14 L14.92 -5.3 L6.75 -12.29 L20.33 -15.82" stroke="none" stroke-width="0" fill="#267326" fill-rule="evenodd"></path><path d="M19.69 -16.67 C18.53 -11.72, 16.15 -7.95, 14.82 -4.53 M19.69 -16.67 C17.74 -12.12, 16.02 -7.99, 14.82 -4.53 M14.82 -4.53 C12.54 -6.59, 10.43 -8.77, 7.26 -12.6 M14.82 -4.53 C12.75 -6.61, 10.58 -8.93, 7.26 -12.6 M7.26 -12.6 C11.8 -13.68, 15.6 -14.87, 19.69 -16.67 M7.26 -12.6 C9.85 -13.64, 12.86 -14.27, 19.69 -16.67 M19.69 -16.67 C19.69 -16.67, 19.69 -16.67, 19.69 -16.67 M19.69 -16.67 C19.69 -16.67, 19.69 -16.67, 19.69 -16.67" stroke="#267326" stroke-width="2" fill="none"></path></g></g><mask></mask><g stroke-linecap="round" transform="translate(1131.5512784412952 94.42506654236956) rotate(0 23.02075760710028 21.57329465332083)"><path d="M17.96 0.03 C22.48 -1.15, 29.49 -0.02, 33.86 2.13 C38.23 4.29, 42.4 8.56, 44.18 12.95 C45.96 17.35, 46.06 24.06, 44.54 28.5 C43.02 32.93, 39.13 37.21, 35.05 39.57 C30.96 41.94, 24.87 43.32, 20.02 42.68 C15.17 42.04, 9.33 39.11, 5.94 35.73 C2.54 32.35, -0.11 26.89, -0.37 22.4 C-0.63 17.92, 1.01 12.57, 4.35 8.82 C7.69 5.07, 16.86 1.24, 19.65 -0.08 C22.44 -1.39, 20.99 0.48, 21.09 0.92 M26.28 -0.38 C30.78 0.06, 36.11 4.18, 39.37 7.57 C42.63 10.96, 45.52 15.47, 45.84 19.96 C46.17 24.46, 44.22 30.88, 41.29 34.54 C38.37 38.2, 33.06 40.75, 28.29 41.92 C23.51 43.09, 17.1 43.52, 12.65 41.54 C8.2 39.57, 3.61 34.43, 1.58 30.07 C-0.45 25.7, -0.95 19.74, 0.47 15.34 C1.89 10.94, 5.99 6.14, 10.1 3.66 C14.21 1.18, 22.46 1.05, 25.14 0.44 C27.82 -0.18, 26.07 -0.24, 26.18 -0.05" stroke="#267326" stroke-width="2" fill="none"></path></g><g stroke-linecap="round" transform="translate(1088.9127398647497 174.04337894522814) rotate(0 14.378376687462833 13.131719357722488)"><path d="M6.57 0 C12.38 -1.33, 16.73 -1.28, 22.19 0 M6.57 0 C10.71 -0.56, 16.88 -0.28, 22.19 0 M22.19 0 C25.48 0.64, 27.69 2.15, 28.76 6.57 M22.19 0 C25.12 -1.77, 28.92 -0.11, 28.76 6.57 M28.76 6.57 C27.63 12.97, 29.04 17.58, 28.76 19.7 M28.76 6.57 C29.33 10.67, 28.49 16.36, 28.76 19.7 M28.76 19.7 C28.33 22.93, 26.18 26.34, 22.19 26.26 M28.76 19.7 C28.86 22.05, 26.66 28.49, 22.19 26.26 M22.19 26.26 C18.12 25.46, 14.28 24.85, 6.57 26.26 M22.19 26.26 C17.27 25.43, 12.05 26.78, 6.57 26.26 M6.57 26.26 C2.97 26.68, 1.4 25.13, 0 19.7 M6.57 26.26 C0.99 25.39, -1.17 24.15, 0 19.7 M0 19.7 C0.67 14.83, 0.87 10.65, 0 6.57 M0 19.7 C0.04 16.48, 0.26 12.92, 0 6.57 M0 6.57 C-0.15 2.43, 1.34 -1.48, 6.57 0 M0 6.57 C-1.39 1.85, 4.41 1.4, 6.57 0" stroke="#267326" stroke-width="2" fill="none"></path></g><g stroke-linecap="round" transform="translate(1141.179146756242 174.04337894522814) rotate(0 14.378376687462833 13.131719357722488)"><path d="M6.57 0 C9.23 -1.27, 13.53 -1.02, 22.19 0 M6.57 0 C11.2 -0.21, 14.48 0.37, 22.19 0 M22.19 0 C25.51 -0.03, 27.5 0.65, 28.76 6.57 M22.19 0 C26.73 -2.3, 31.04 1.41, 28.76 6.57 M28.76 6.57 C28.97 10.29, 29.28 14.18, 28.76 19.7 M28.76 6.57 C28.45 10.55, 28.71 12.85, 28.76 19.7 M28.76 19.7 C28.37 24.15, 26.65 24.5, 22.19 26.26 M28.76 19.7 C28.85 26.3, 25.72 26.31, 22.19 26.26 M22.19 26.26 C18.89 24.89, 15.55 27.18, 6.57 26.26 M22.19 26.26 C19.22 26.77, 15.74 26.28, 6.57 26.26 M6.57 26.26 C3.59 27.32, -1.04 23.31, 0 19.7 M6.57 26.26 C1.02 26.34, 1.34 24.51, 0 19.7 M0 19.7 C0.83 17.4, -0.57 14.19, 0 6.57 M0 19.7 C0.24 14.81, -0.06 9.81, 0 6.57 M0 6.57 C-0.85 0.71, 0.98 -0.29, 6.57 0 M0 6.57 C2.23 3.59, 3.88 1.91, 6.57 0" stroke="#267326" stroke-width="2" fill="none"></path></g><g stroke-linecap="round" transform="translate(1193.4455536477344 174.04337894522814) rotate(0 14.378376687462833 13.131719357722488)"><path d="M6.57 0 C10.02 -1.02, 12.49 -1.42, 22.19 0 M6.57 0 C9.61 0.32, 13.09 0.05, 22.19 0 M22.19 0 C25.31 -1.54, 28.9 0.19, 28.76 6.57 M22.19 0 C28.85 -0.78, 27.44 0.3, 28.76 6.57 M28.76 6.57 C29.42 12.9, 28.18 17.66, 28.76 19.7 M28.76 6.57 C28.54 9.2, 28.55 12.61, 28.76 19.7 M28.76 19.7 C28.84 22.31, 26.65 28.2, 22.19 26.26 M28.76 19.7 C27.91 24.12, 24.99 26.32, 22.19 26.26 M22.19 26.26 C18.79 27.12, 12.9 26.85, 6.57 26.26 M22.19 26.26 C19.21 26.55, 16.17 26.8, 6.57 26.26 M6.57 26.26 C1.15 25.5, -1.02 24.14, 0 19.7 M6.57 26.26 C3.53 26.69, -2.24 25.29, 0 19.7 M0 19.7 C-0.59 15.74, 0.96 12.2, 0 6.57 M0 19.7 C-0.1 15.4, -0.33 10.46, 0 6.57 M0 6.57 C-1.21 1.9, 4.12 1.22, 6.57 0 M0 6.57 C1.69 4.09, 3.02 -1.01, 6.57 0" stroke="#267326" stroke-width="2" fill="none"></path></g><g stroke-linecap="round"><g transform="translate(1131.4234843640256 137.5809253161621) rotate(0 -15.221397108832605 17.06340775433202)"><path d="M-0.41 -0.18 C-5.49 5.42, -26.04 28.02, -30.99 33.7 M0.38 -0.75 C-4.5 4.9, -24.93 28.32, -30.04 34.18" stroke="#267326" stroke-width="2" fill="none"></path></g><g transform="translate(1131.4234843640256 137.5809253161621) rotate(0 -15.221397108832605 17.06340775433202)"><path d="M-30.56 33.8 L-26.39 19.8 L-15.75 28.29 L-31.02 34.71" stroke="none" stroke-width="0" fill="#267326" fill-rule="evenodd"></path><path d="M-30.04 34.18 C-29.43 30.42, -28.89 28.6, -25.88 19.77 M-30.04 34.18 C-29.13 30.45, -28.09 26.45, -25.88 19.77 M-25.88 19.77 C-23.2 21.92, -20.58 25.4, -16.33 28.1 M-25.88 19.77 C-22.46 22.3, -19.44 24.93, -16.33 28.1 M-16.33 28.1 C-20.02 29.4, -22.85 31.04, -30.04 34.18 M-16.33 28.1 C-19.37 29.46, -22.4 30.75, -30.04 34.18 M-30.04 34.18 C-30.04 34.18, -30.04 34.18, -30.04 34.18 M-30.04 34.18 C-30.04 34.18, -30.04 34.18, -30.04 34.18" stroke="#267326" stroke-width="2" fill="none"></path></g></g><mask></mask><g stroke-linecap="round"><g transform="translate(1155.9091081209267 144.61798358444184) rotate(0 0.061919017997411174 12.477941030724821)"><path d="M-0.55 -0.43 C-0.41 3.72, 0.39 20.46, 0.45 24.72 M0.17 0.54 C0.3 4.78, 0.33 21.37, 0.19 25.3" stroke="#267326" stroke-width="2" fill="none"></path></g><g transform="translate(1155.9091081209267 144.61798358444184) rotate(0 0.061919017997411174 12.477941030724821)"><path d="M-0.32 25.34 L-4.35 14.11 L4.64 14.59 L0.06 25.99" stroke="none" stroke-width="0" fill="#267326" fill-rule="evenodd"></path><path d="M0.19 25.3 C-1.43 23.09, -2.36 19.81, -4.93 13.93 M0.19 25.3 C-1.68 21.29, -3.16 17.44, -4.93 13.93 M-4.93 13.93 C-1.16 14.48, 3.62 14.28, 5.61 14.07 M-4.93 13.93 C-1.08 13.81, 2.25 14.31, 5.61 14.07 M5.61 14.07 C4.09 17.22, 2.01 20.34, 0.19 25.3 M5.61 14.07 C3.23 18.53, 1.15 23.04, 0.19 25.3 M0.19 25.3 C0.19 25.3, 0.19 25.3, 0.19 25.3 M0.19 25.3 C0.19 25.3, 0.19 25.3, 0.19 25.3" stroke="#267326" stroke-width="2" fill="none"></path></g></g><mask></mask><g stroke-linecap="round"><g transform="translate(1180.6640201885748 134.18818190302812) rotate(0 15.424249358403642 18.43098277887384)"><path d="M0.33 -0.23 C5.51 6.01, 25.51 30.86, 30.55 37.04 M-0.17 -0.83 C5.24 5.29, 26.59 29.78, 31.63 36.16" stroke="#267326" stroke-width="2" fill="none"></path></g><g transform="translate(1180.6640201885748 134.18818190302812) rotate(0 15.424249358403642 18.43098277887384)"><path d="M32.21 36.35 L17.07 30.33 L27.64 22.35 L31.9 35.78" stroke="none" stroke-width="0" fill="#267326" fill-rule="evenodd"></path><path d="M31.63 36.16 C28.62 34.52, 26.46 33.26, 18.04 29.8 M31.63 36.16 C27.62 33.84, 23.92 32.19, 18.04 29.8 M18.04 29.8 C20.6 28.04, 23.11 26.4, 27.77 21.67 M18.04 29.8 C20.29 28.09, 22.88 25.53, 27.77 21.67 M27.77 21.67 C28.2 25.76, 30.66 29.52, 31.63 36.16 M27.77 21.67 C28.72 26.12, 29.74 30.56, 31.63 36.16 M31.63 36.16 C31.63 36.16, 31.63 36.16, 31.63 36.16 M31.63 36.16 C31.63 36.16, 31.63 36.16, 31.63 36.16" stroke="#267326" stroke-width="2" fill="none"></path></g></g><mask></mask><g stroke-linecap="round"><g transform="translate(1080.9011409042114 222.61094179816644) rotate(0 9.684825728013095 -8.517047655920436)"><path d="M-0.3 0.18 C2.82 -2.63, 15.86 -14.1, 19.08 -17.04 M0.55 -0.21 C3.82 -2.9, 16.89 -13.54, 20.16 -16.35" stroke="#267326" stroke-width="2" fill="none"></path></g><g transform="translate(1080.9011409042114 222.61094179816644) rotate(0 9.684825728013095 -8.517047655920436)"><path d="M19.19 -15.82 L14.54 -4 L7.97 -13.43 L20.02 -15.55" stroke="none" stroke-width="0" fill="#267326" fill-rule="evenodd"></path><path d="M20.16 -16.35 C18.37 -12.51, 16.18 -8.37, 14.67 -4.68 M20.16 -16.35 C19.26 -13.88, 17.53 -11.44, 14.67 -4.68 M14.67 -4.68 C12.21 -7.4, 8.99 -10.79, 7.69 -13.05 M14.67 -4.68 C13.04 -6.72, 11.44 -8.47, 7.69 -13.05 M7.69 -13.05 C12.12 -14.29, 15.31 -15.5, 20.16 -16.35 M7.69 -13.05 C11.2 -13.94, 15.45 -15.33, 20.16 -16.35 M20.16 -16.35 C20.16 -16.35, 20.16 -16.35, 20.16 -16.35 M20.16 -16.35 C20.16 -16.35, 20.16 -16.35, 20.16 -16.35" stroke="#267326" stroke-width="2" fill="none"></path></g></g><mask></mask><g stroke-linecap="round"><g transform="translate(1133.3840940016617 222.8139960549331) rotate(0 9.76424320645441 -8.72037262418499)"><path d="M-0.29 -0.01 C2.96 -3.02, 15.87 -14.87, 19.18 -17.86 M0.56 -0.49 C4.01 -3.46, 17.13 -14.52, 20.24 -17.38" stroke="#267326" stroke-width="2" fill="none"></path></g><g transform="translate(1133.3840940016617 222.8139960549331) rotate(0 9.76424320645441 -8.72037262418499)"><path d="M20.11 -16.7 L15.23 -5.79 L7.52 -12.94 L20.27 -17.05" stroke="none" stroke-width="0" fill="#267326" fill-rule="evenodd"></path><path d="M20.24 -17.38 C18.95 -14.87, 17.16 -11.47, 14.95 -5.4 M20.24 -17.38 C19.05 -15.26, 18.47 -12.52, 14.95 -5.4 M14.95 -5.4 C12.19 -7.83, 9.58 -11.37, 7.67 -13.73 M14.95 -5.4 C11.99 -8.75, 9.15 -12.33, 7.67 -13.73 M7.67 -13.73 C11.48 -15.27, 15.31 -16.22, 20.24 -17.38 M7.67 -13.73 C11.91 -15.2, 15.88 -16.39, 20.24 -17.38 M20.24 -17.38 C20.24 -17.38, 20.24 -17.38, 20.24 -17.38 M20.24 -17.38 C20.24 -17.38, 20.24 -17.38, 20.24 -17.38" stroke="#267326" stroke-width="2" fill="none"></path></g></g><mask></mask><g stroke-linecap="round"><g transform="translate(1185.9201281249643 222.66566649002039) rotate(0 9.76424320645441 -8.72037262418499)"><path d="M-0.35 -0.42 C2.96 -3.42, 16.16 -15.12, 19.57 -17.99 M0.48 0.55 C3.74 -2.4, 15.9 -14.63, 19.15 -17.57" stroke="#267326" stroke-width="2" fill="none"></path></g><g transform="translate(1185.9201281249643 222.66566649002039) rotate(0 9.76424320645441 -8.72037262418499)"><path d="M19.43 -17.96 L14.28 -4.57 L6.8 -13.02 L19.53 -17.43" stroke="none" stroke-width="0" fill="#267326" fill-rule="evenodd"></path><path d="M19.15 -17.57 C17.48 -14.53, 16.16 -10.91, 14.42 -5.37 M19.15 -17.57 C18.15 -14.26, 16.73 -10.93, 14.42 -5.37 M14.42 -5.37 C11.03 -8.82, 8.95 -11.76, 6.76 -13.35 M14.42 -5.37 C12.58 -7.55, 10.72 -8.98, 6.76 -13.35 M6.76 -13.35 C10.04 -14.71, 13.42 -16.08, 19.15 -17.57 M6.76 -13.35 C11.08 -15.02, 15.29 -15.88, 19.15 -17.57 M19.15 -17.57 C19.15 -17.57, 19.15 -17.57, 19.15 -17.57 M19.15 -17.57 C19.15 -17.57, 19.15 -17.57, 19.15 -17.57" stroke="#267326" stroke-width="2" fill="none"></path></g></g><mask></mask><g stroke-linecap="round" transform="translate(1288.5565696824733 94.43568207908561) rotate(0 23.02075760710028 21.57329465332083)"><path d="M28.26 1.1 C32.92 1.99, 38.82 5.4, 41.81 9.16 C44.81 12.91, 46.64 18.99, 46.22 23.62 C45.8 28.26, 42.83 33.77, 39.29 36.96 C35.76 40.14, 29.78 42.34, 24.99 42.74 C20.21 43.13, 14.65 41.87, 10.58 39.31 C6.51 36.74, 2.01 31.78, 0.58 27.35 C-0.84 22.92, 0.05 16.95, 2.04 12.75 C4.04 8.56, 7.98 4.2, 12.56 2.17 C17.14 0.14, 26.74 0.78, 29.54 0.57 C32.33 0.36, 29.5 0.59, 29.32 0.93 M24.64 -0.6 C29.5 -0.82, 35.42 1.73, 39.02 5.09 C42.62 8.44, 45.65 14.79, 46.25 19.51 C46.86 24.24, 45.3 29.59, 42.65 33.43 C40 37.28, 35.16 41.29, 30.33 42.58 C25.5 43.87, 18.38 43.02, 13.69 41.17 C8.99 39.31, 4.26 35.48, 2.15 31.44 C0.04 27.4, -0.03 21.36, 1.01 16.91 C2.05 12.47, 4.55 7.5, 8.39 4.77 C12.24 2.04, 21.41 1.31, 24.07 0.54 C26.73 -0.23, 24.37 -0.2, 24.35 0.17" stroke="#267326" stroke-width="2" fill="none"></path></g><g stroke-linecap="round" transform="translate(1245.711960539227 174.04337894522814) rotate(0 14.378376687462833 13.131719357722488)"><path d="M6.57 0 C10.84 -1.05, 14.87 1.22, 22.19 0 M6.57 0 C12.38 -0.44, 17.25 -0.63, 22.19 0 M22.19 0 C25.37 2, 28.33 1.05, 28.76 6.57 M22.19 0 C26.12 0.09, 28.86 0.16, 28.76 6.57 M28.76 6.57 C28.91 9.65, 28.92 13.96, 28.76 19.7 M28.76 6.57 C29.06 10.22, 28.95 14.38, 28.76 19.7 M28.76 19.7 C29.79 25.72, 27.35 26.68, 22.19 26.26 M28.76 19.7 C30.37 25.29, 25.37 25.39, 22.19 26.26 M22.19 26.26 C18.59 24.83, 15.23 26.15, 6.57 26.26 M22.19 26.26 C16.33 26.83, 10.71 26.46, 6.57 26.26 M6.57 26.26 C2.93 26.55, -0.15 24.31, 0 19.7 M6.57 26.26 C1.22 24.57, -1.39 23.74, 0 19.7 M0 19.7 C1.01 14.96, -0.65 9.34, 0 6.57 M0 19.7 C0.06 15.93, -0.07 12.73, 0 6.57 M0 6.57 C0.33 1.13, 3.53 1.42, 6.57 0 M0 6.57 C-1.55 1.7, 1.79 -1.53, 6.57 0" stroke="#267326" stroke-width="2" fill="none"></path></g><g stroke-linecap="round" transform="translate(1297.9783674307193 174.04337894522814) rotate(0 14.378376687462833 13.131719357722488)"><path d="M6.57 0 C11.52 1.47, 19.42 0.72, 22.19 0 M6.57 0 C12.54 -0.48, 16.97 0.85, 22.19 0 M22.19 0 C26.14 -1.14, 28.37 2.26, 28.76 6.57 M22.19 0 C26.67 -2.02, 28.85 4.41, 28.76 6.57 M28.76 6.57 C28.79 9.44, 29.02 12.38, 28.76 19.7 M28.76 6.57 C29.14 10.41, 29.18 15.97, 28.76 19.7 M28.76 19.7 C29.53 24.49, 27.97 27.32, 22.19 26.26 M28.76 19.7 C27.56 23.2, 25.4 26.34, 22.19 26.26 M22.19 26.26 C17.42 25.91, 12.06 26.54, 6.57 26.26 M22.19 26.26 C18.13 26.65, 14.3 26.5, 6.57 26.26 M6.57 26.26 C2.03 26.5, -0.85 22.6, 0 19.7 M6.57 26.26 C0.8 25.93, 2.23 25.47, 0 19.7 M0 19.7 C-0.68 14.85, -0.42 11.07, 0 6.57 M0 19.7 C0.01 16.79, 0.07 12.97, 0 6.57 M0 6.57 C1.34 3.6, 0.84 -0.43, 6.57 0 M0 6.57 C-0.4 0.66, 0.28 -1.97, 6.57 0" stroke="#267326" stroke-width="2" fill="none"></path></g><g stroke-linecap="round" transform="translate(1350.244774322212 174.04337894522814) rotate(0 14.378376687462833 13.131719357722488)"><path d="M6.57 0 C10.75 0.5, 14.9 1.34, 22.19 0 M6.57 0 C10.06 0.89, 14.32 -0.34, 22.19 0 M22.19 0 C26.18 0.07, 28.84 0.43, 28.76 6.57 M22.19 0 C26.66 2.22, 27.91 2.23, 28.76 6.57 M28.76 6.57 C29.02 8.5, 29.25 13.46, 28.76 19.7 M28.76 6.57 C29.16 9.95, 29.07 12.38, 28.76 19.7 M28.76 19.7 C30.16 25.13, 25.53 25.5, 22.19 26.26 M28.76 19.7 C27.59 24.15, 27.91 26.69, 22.19 26.26 M22.19 26.26 C20.09 26.67, 15.26 26.02, 6.57 26.26 M22.19 26.26 C16.55 26.43, 10.27 26.41, 6.57 26.26 M6.57 26.26 C1.34 24.79, -1.21 23.78, 0 19.7 M6.57 26.26 C4.41 27.66, 1.69 25.98, 0 19.7 M0 19.7 C-0.26 16.47, -0.69 11.23, 0 6.57 M0 19.7 C0.1 15.69, 0.43 12.84, 0 6.57 M0 6.57 C-1.35 1.76, 1.84 -1.33, 6.57 0 M0 6.57 C-1.91 0.22, 2.2 -1.61, 6.57 0" stroke="#267326" stroke-width="2" fill="none"></path></g><g stroke-linecap="round"><g transform="translate(1288.467713564281 137.64827229177024) rotate(0 -15.551532186404017 17.40396426034181)"><path d="M0.22 0.26 C-4.96 6, -25.43 28.86, -30.58 34.55 M-0.33 -0.08 C-5.57 5.72, -25.66 29.3, -30.75 35.12" stroke="#267326" stroke-width="2" fill="none"></path></g><g transform="translate(1288.467713564281 137.64827229177024) rotate(0 -15.551532186404017 17.40396426034181)"><path d="M-31.17 34.38 L-27.27 20.54 L-16.1 29.57 L-30.01 35.95" stroke="none" stroke-width="0" fill="#267326" fill-rule="evenodd"></path><path d="M-30.75 35.12 C-28.82 30.21, -27.95 24.42, -26.67 20.69 M-30.75 35.12 C-29.85 31.58, -28.91 28.5, -26.67 20.69 M-26.67 20.69 C-23.17 22.97, -20.85 25.29, -17.07 28.97 M-26.67 20.69 C-24.05 23.3, -20.68 25.42, -17.07 28.97 M-17.07 28.97 C-21.21 31.42, -26.4 33.78, -30.75 35.12 M-17.07 28.97 C-22.1 31.12, -26.51 33.35, -30.75 35.12 M-30.75 35.12 C-30.75 35.12, -30.75 35.12, -30.75 35.12 M-30.75 35.12 C-30.75 35.12, -30.75 35.12, -30.75 35.12" stroke="#267326" stroke-width="2" fill="none"></path></g></g><mask></mask><g stroke-linecap="round"><g transform="translate(1312.8877761786944 144.62844914296522) rotate(0 0.00911540550640666 13.668686415706588)"><path d="M0.52 -0.26 C0.55 4.19, 0.53 22.26, 0.4 26.95 M0.12 0.8 C0.09 5.29, 0.04 23.06, 0.16 27.45" stroke="#267326" stroke-width="2" fill="none"></path></g><g transform="translate(1312.8877761786944 144.62844914296522) rotate(0 0.00911540550640666 13.668686415706588)"><path d="M-0.44 27.3 L-4.77 15.72 L6.55 15.83 L0.52 27.01" stroke="none" stroke-width="0" fill="#267326" fill-rule="evenodd"></path><path d="M0.16 27.45 C-2.2 23.74, -4.37 18.67, -5.74 15.12 M0.16 27.45 C-2.25 22.51, -4.53 17.27, -5.74 15.12 M-5.74 15.12 C-2.22 14.71, 1.3 14.81, 5.82 15 M-5.74 15.12 C-1.86 14.82, 1.79 14.76, 5.82 15 M5.82 15 C4.02 19.87, 2.25 23.41, 0.16 27.45 M5.82 15 C4.5 18.33, 2.49 21.7, 0.16 27.45 M0.16 27.45 C0.16 27.45, 0.16 27.45, 0.16 27.45 M0.16 27.45 C0.16 27.45, 0.16 27.45, 0.16 27.45" stroke="#267326" stroke-width="2" fill="none"></path></g></g><mask></mask><g stroke-linecap="round"><g transform="translate(1337.6127973338596 134.23478080154916) rotate(0 15.637736860039013 18.885629752552973)"><path d="M0.38 -0.39 C5.45 6.04, 25.82 32.01, 30.95 38.32 M-0.09 0.6 C5.11 6.91, 26.87 31.42, 32.01 37.64" stroke="#267326" stroke-width="2" fill="none"></path></g><g transform="translate(1337.6127973338596 134.23478080154916) rotate(0 15.637736860039013 18.885629752552973)"><path d="M32.98 38.25 L19.07 32.3 L28.31 22.76 L32.06 37.4" stroke="none" stroke-width="0" fill="#267326" fill-rule="evenodd"></path><path d="M32.01 37.64 C26.1 34.8, 21.99 32.66, 18.34 31.47 M32.01 37.64 C28.71 35.81, 25.39 35.01, 18.34 31.47 M18.34 31.47 C20.88 29.04, 23.52 26.62, 27.95 23.2 M18.34 31.47 C21.7 28.43, 24.96 26.19, 27.95 23.2 M27.95 23.2 C29.73 27.69, 30.43 32.59, 32.01 37.64 M27.95 23.2 C28.86 27.77, 30.4 32.21, 32.01 37.64 M32.01 37.64 C32.01 37.64, 32.01 37.64, 32.01 37.64 M32.01 37.64 C32.01 37.64, 32.01 37.64, 32.01 37.64" stroke="#267326" stroke-width="2" fill="none"></path></g></g><mask></mask><g stroke-linecap="round"><g transform="translate(1238.7912229622848 223.33379452833242) rotate(0 10.349281615369591 -8.88477533662197)"><path d="M-0.33 0.55 C3.04 -2.4, 17.09 -15.03, 20.58 -18.08 M0.5 0.36 C3.75 -2.49, 16.81 -14.63, 20.09 -17.55" stroke="#267326" stroke-width="2" fill="none"></path></g><g transform="translate(1238.7912229622848 223.33379452833242) rotate(0 10.349281615369591 -8.88477533662197)"><path d="M20.82 -16.72 L15.19 -5.39 L7.12 -13.72 L20.99 -18.12" stroke="none" stroke-width="0" fill="#267326" fill-rule="evenodd"></path><path d="M20.09 -17.55 C18.79 -13.07, 15.78 -8.42, 14.83 -4.96 M20.09 -17.55 C18.51 -13.42, 16.77 -9.92, 14.83 -4.96 M14.83 -4.96 C13.15 -7.43, 11.46 -8.55, 7.07 -13.48 M14.83 -4.96 C13.28 -6.6, 11.57 -8.62, 7.07 -13.48 M7.07 -13.48 C11.62 -15.3, 16.72 -16.06, 20.09 -17.55 M7.07 -13.48 C11.19 -14.58, 15.48 -16.24, 20.09 -17.55 M20.09 -17.55 C20.09 -17.55, 20.09 -17.55, 20.09 -17.55 M20.09 -17.55 C20.09 -17.55, 20.09 -17.55, 20.09 -17.55" stroke="#267326" stroke-width="2" fill="none"></path></g></g><mask></mask><g stroke-linecap="round"><g transform="translate(1291.8836949755685 223.03403429281911) rotate(0 9.76424320645441 -8.72037262418499)"><path d="M-0.12 -0.31 C3.17 -3.31, 16.14 -14.49, 19.42 -17.42 M0.82 0.71 C4.06 -1.96, 15.87 -13.66, 18.93 -16.71" stroke="#267326" stroke-width="2" fill="none"></path></g><g transform="translate(1291.8836949755685 223.03403429281911) rotate(0 9.76424320645441 -8.72037262418499)"><path d="M19.3 -17.15 L14.44 -4.67 L7.51 -12.87 L19.2 -16.92" stroke="none" stroke-width="0" fill="#267326" fill-rule="evenodd"></path><path d="M18.93 -16.71 C17.53 -13.9, 16.84 -10.79, 14.39 -4.43 M18.93 -16.71 C17.85 -14.08, 16.79 -11.47, 14.39 -4.43 M14.39 -4.43 C12.61 -6.12, 9.95 -8.23, 6.61 -12.3 M14.39 -4.43 C12.84 -6, 11.3 -7.56, 6.61 -12.3 M6.61 -12.3 C9.7 -12.98, 12.85 -15.09, 18.93 -16.71 M6.61 -12.3 C11.05 -14.02, 15.26 -15.19, 18.93 -16.71 M18.93 -16.71 C18.93 -16.71, 18.93 -16.71, 18.93 -16.71 M18.93 -16.71 C18.93 -16.71, 18.93 -16.71, 18.93 -16.71" stroke="#267326" stroke-width="2" fill="none"></path></g></g><mask></mask><g stroke-linecap="round"><g transform="translate(1344.48958317887 222.9141823732948) rotate(0 9.76424320645441 -8.72037262418499)"><path d="M-0.11 0.02 C3.17 -2.91, 16.28 -15.1, 19.55 -17.92 M-0.83 -0.44 C2.39 -3.3, 15.79 -14.6, 19.13 -17.47" stroke="#267326" stroke-width="2" fill="none"></path></g><g transform="translate(1344.48958317887 222.9141823732948) rotate(0 9.76424320645441 -8.72037262418499)"><path d="M19.18 -17.71 L14.59 -6.14 L6.78 -14.21 L19.21 -17.05" stroke="none" stroke-width="0" fill="#267326" fill-rule="evenodd"></path><path d="M19.13 -17.47 C17.61 -14.14, 15.49 -10.83, 13.69 -5.57 M19.13 -17.47 C16.73 -12.74, 14.64 -7.97, 13.69 -5.57 M13.69 -5.57 C11.65 -7.12, 10.07 -8.91, 6.51 -13.99 M13.69 -5.57 C11.12 -8.64, 8.04 -12.11, 6.51 -13.99 M6.51 -13.99 C9.78 -15.54, 13.14 -15.85, 19.13 -17.47 M6.51 -13.99 C11.11 -14.99, 15.81 -16.42, 19.13 -17.47 M19.13 -17.47 C19.13 -17.47, 19.13 -17.47, 19.13 -17.47 M19.13 -17.47 C19.13 -17.47, 19.13 -17.47, 19.13 -17.47" stroke="#267326" stroke-width="2" fill="none"></path></g></g><mask></mask><g stroke-linecap="round" transform="translate(1445.9231826579094 94.58634942859521) rotate(0 23.020757607100336 21.57329465332083)"><path d="M23.25 -0.34 C27.86 -0.58, 34.24 1.97, 38 4.96 C41.76 7.95, 44.99 12.96, 45.83 17.61 C46.67 22.26, 45.63 28.77, 43.03 32.85 C40.44 36.94, 35.02 40.61, 30.27 42.14 C25.51 43.67, 18.97 43.66, 14.49 42.03 C10.01 40.4, 5.72 36.38, 3.39 32.37 C1.05 28.36, -0.39 22.59, 0.49 17.97 C1.37 13.35, 4.82 7.69, 8.66 4.65 C12.49 1.62, 20.93 0.41, 23.52 -0.24 C26.1 -0.9, 24.13 0.43, 24.16 0.75 M26.25 -0.1 C30.94 0.22, 36.6 4.11, 39.9 7.61 C43.2 11.11, 45.77 16.36, 46.04 20.9 C46.32 25.44, 44.57 31.19, 41.55 34.83 C38.53 38.47, 32.84 41.84, 27.92 42.73 C23.01 43.61, 16.49 42.32, 12.05 40.15 C7.62 37.97, 3 33.8, 1.29 29.7 C-0.42 25.6, 0.14 19.81, 1.8 15.52 C3.45 11.24, 7.14 6.6, 11.22 3.99 C15.31 1.38, 23.85 0.45, 26.32 -0.14 C28.78 -0.73, 26.01 0.1, 26.02 0.44" stroke="#267326" stroke-width="2" fill="none"></path></g><g stroke-linecap="round" transform="translate(1402.5111812137043 174.04337894522814) rotate(0 14.378376687462833 13.131719357722488)"><path d="M6.57 0 C12.83 -0.58, 16.1 -1.08, 22.19 0 M6.57 0 C10.64 0.26, 16.51 -0.69, 22.19 0 M22.19 0 C27.48 -1.8, 29.79 3.84, 28.76 6.57 M22.19 0 C27.46 0.47, 30.37 3.4, 28.76 6.57 M28.76 6.57 C28.75 10.59, 28.95 11.8, 28.76 19.7 M28.76 6.57 C28.92 10.95, 28.65 16.35, 28.76 19.7 M28.76 19.7 C28.82 24.74, 27.31 26.55, 22.19 26.26 M28.76 19.7 C28.58 24.35, 25.6 24.57, 22.19 26.26 M22.19 26.26 C19.4 27.57, 15.99 26.98, 6.57 26.26 M22.19 26.26 C18.89 25.78, 14.39 26.06, 6.57 26.26 M6.57 26.26 C2.33 27.12, 0.33 23.01, 0 19.7 M6.57 26.26 C3.73 27.89, -1.55 23.58, 0 19.7 M0 19.7 C-1.04 15.99, -0.83 12.21, 0 6.57 M0 19.7 C-0.16 15.08, -0.07 11.39, 0 6.57 M0 6.57 C-1.08 1.82, 2.54 1.88, 6.57 0 M0 6.57 C-0.41 4.04, 3.55 -0.95, 6.57 0" stroke="#267326" stroke-width="2" fill="none"></path></g><g stroke-linecap="round" transform="translate(1454.777588105197 174.04337894522814) rotate(0 14.378376687462833 13.131719357722488)"><path d="M6.57 0 C11.34 -1.02, 16.1 -0.64, 22.19 0 M6.57 0 C12.06 -0.71, 16.92 -0.76, 22.19 0 M22.19 0 C27.6 1.65, 29.53 2.6, 28.76 6.57 M22.19 0 C28.18 1.21, 27.56 1.31, 28.76 6.57 M28.76 6.57 C29.01 8.56, 29.45 12.94, 28.76 19.7 M28.76 6.57 C28.7 11.92, 28.81 16.45, 28.76 19.7 M28.76 19.7 C29.5 24.36, 26.41 26.5, 22.19 26.26 M28.76 19.7 C27.78 22.38, 25.18 25.93, 22.19 26.26 M22.19 26.26 C17.29 26.94, 9.11 26.45, 6.57 26.26 M22.19 26.26 C18.09 26.01, 13.62 26.51, 6.57 26.26 M6.57 26.26 C2.52 25.2, 1.34 25.49, 0 19.7 M6.57 26.26 C0.64 25.77, -0.4 22.55, 0 19.7 M0 19.7 C-0.81 16.79, 0.59 13.98, 0 6.57 M0 19.7 C-0.03 15.61, -0.32 10.35, 0 6.57 M0 6.57 C0.35 4.07, 1.83 1.61, 6.57 0 M0 6.57 C1.36 1.24, 3.1 -1.88, 6.57 0" stroke="#267326" stroke-width="2" fill="none"></path></g><g stroke-linecap="round" transform="translate(1507.0439949966894 174.04337894522814) rotate(0 14.378376687462833 13.131719357722488)"><path d="M6.57 0 C10.72 -0.59, 15.11 -1.2, 22.19 0 M6.57 0 C12.2 -0.57, 17.52 0.77, 22.19 0 M22.19 0 C27.35 0.41, 30.16 3.24, 28.76 6.57 M22.19 0 C25.37 -0.88, 27.59 2.26, 28.76 6.57 M28.76 6.57 C29.47 11.1, 29.68 16.33, 28.76 19.7 M28.76 6.57 C28.76 10.22, 28.98 13.53, 28.76 19.7 M28.76 19.7 C28.6 24.31, 25.72 24.79, 22.19 26.26 M28.76 19.7 C27.37 23.74, 28.79 27.66, 22.19 26.26 M22.19 26.26 C15.67 26.4, 10.14 27.73, 6.57 26.26 M22.19 26.26 C18.45 26.56, 14.73 25.81, 6.57 26.26 M6.57 26.26 C3.53 27.68, -1.35 23.65, 0 19.7 M6.57 26.26 C1.79 24.74, -1.91 22.1, 0 19.7 M0 19.7 C0.57 15.74, 0.77 11.48, 0 6.57 M0 19.7 C-0.34 16.03, 0.13 13.22, 0 6.57 M0 6.57 C-0.35 3.8, 3.37 -0.82, 6.57 0 M0 6.57 C0.91 0.31, 0.46 0.8, 6.57 0" stroke="#267326" stroke-width="2" fill="none"></path></g><g stroke-linecap="round"><g transform="translate(1445.7419183193952 137.6897488852697) rotate(0 -15.500601335468446 17.008995969778198)"><path d="M-0.25 0.11 C-5.43 5.81, -26.39 28.65, -31.46 34.22 M0.63 -0.31 C-4.35 5.22, -25.22 27.66, -30.46 33.37" stroke="#267326" stroke-width="2" fill="none"></path></g><g transform="translate(1445.7419183193952 137.6897488852697) rotate(0 -15.500601335468446 17.008995969778198)"><path d="M-29.8 34.07 L-26.56 18.87 L-16.75 27.02 L-31.29 32.51" stroke="none" stroke-width="0" fill="#267326" fill-rule="evenodd"></path><path d="M-30.46 33.37 C-29.26 29.44, -28.07 27.24, -25.89 19.08 M-30.46 33.37 C-29.31 30.61, -28.37 27.29, -25.89 19.08 M-25.89 19.08 C-22.66 21.97, -18.95 25.85, -16.58 27.69 M-25.89 19.08 C-23 22.02, -19.91 24.42, -16.58 27.69 M-16.58 27.69 C-20.27 29.59, -24.38 30.87, -30.46 33.37 M-16.58 27.69 C-21.15 29.35, -24.89 31.41, -30.46 33.37 M-30.46 33.37 C-30.46 33.37, -30.46 33.37, -30.46 33.37 M-30.46 33.37 C-30.46 33.37, -30.46 33.37, -30.46 33.37" stroke="#267326" stroke-width="2" fill="none"></path></g></g><mask></mask><g stroke-linecap="round"><g transform="translate(1470.0966446532943 144.7865133414158) rotate(0 -0.15009771064308097 13.102483528771188)"><path d="M-0.46 0.21 C-0.41 4.48, -0.02 21.49, 0.05 25.74 M0.3 -0.16 C0.33 4.15, -0.11 21.84, -0.21 26.21" stroke="#267326" stroke-width="2" fill="none"></path></g><g transform="translate(1470.0966446532943 144.7865133414158) rotate(0 -0.15009771064308097 13.102483528771188)"><path d="M-0.88 25.99 L-5.64 13.54 L4.78 13.61 L-0.2 25.51" stroke="none" stroke-width="0" fill="#267326" fill-rule="evenodd"></path><path d="M-0.21 26.21 C-1.32 23.53, -3.45 20.36, -5.47 14.21 M-0.21 26.21 C-1.22 23.77, -2.22 21.36, -5.47 14.21 M-5.47 14.21 C-2.7 14.62, 0.13 13.82, 5.6 14.46 M-5.47 14.21 C-1.49 14.15, 2.3 14.57, 5.6 14.46 M5.6 14.46 C3.96 17.98, 2.18 21.32, -0.21 26.21 M5.6 14.46 C4.57 17.31, 3.18 20.04, -0.21 26.21 M-0.21 26.21 C-0.21 26.21, -0.21 26.21, -0.21 26.21 M-0.21 26.21 C-0.21 26.21, -0.21 26.21, -0.21 26.21" stroke="#267326" stroke-width="2" fill="none"></path></g></g><mask></mask><g stroke-linecap="round"><g transform="translate(1494.5820885048338 134.9290194284439) rotate(0 14.501623691374448 18.539003562975665)"><path d="M0.35 -0.46 C5.3 5.6, 24.43 30.25, 29.25 36.58 M-0.14 0.49 C4.8 6.59, 24.08 30.99, 28.95 37.03" stroke="#267326" stroke-width="2" fill="none"></path></g><g transform="translate(1494.5820885048338 134.9290194284439) rotate(0 14.501623691374448 18.539003562975665)"><path d="M28.78 36.36 L14.69 29.5 L25.44 21.75 L28.91 37.39" stroke="none" stroke-width="0" fill="#267326" fill-rule="evenodd"></path><path d="M28.95 37.03 C25.41 35.97, 22.45 34.57, 15.52 30.35 M28.95 37.03 C24.07 34.69, 18.47 31.79, 15.52 30.35 M15.52 30.35 C18.11 27.74, 20.79 26.3, 25.43 22.45 M15.52 30.35 C19.11 27.71, 22.82 24.66, 25.43 22.45 M25.43 22.45 C26.72 27.05, 27.26 31.83, 28.95 37.03 M25.43 22.45 C26.78 26.91, 27.65 30.59, 28.95 37.03 M28.95 37.03 C28.95 37.03, 28.95 37.03, 28.95 37.03 M28.95 37.03 C28.95 37.03, 28.95 37.03, 28.95 37.03" stroke="#267326" stroke-width="2" fill="none"></path></g></g><mask></mask><g stroke-linecap="round"><g transform="translate(1397.1022584378134 224.13870573905456) rotate(0 10.646210332588225 -9.719479619451931)"><path d="M0.25 -0.49 C3.79 -3.58, 18.03 -15.85, 21.58 -18.99 M-0.28 0.44 C3.18 -2.75, 17.7 -16.53, 21.29 -19.72" stroke="#267326" stroke-width="2" fill="none"></path></g><g transform="translate(1397.1022584378134 224.13870573905456) rotate(0 10.646210332588225 -9.719479619451931)"><path d="M20.46 -20.58 L15.82 -7.08 L7.51 -14.97 L21.28 -19.2" stroke="none" stroke-width="0" fill="#267326" fill-rule="evenodd"></path><path d="M21.29 -19.72 C18.6 -14.49, 17.86 -9.75, 15.82 -6.38 M21.29 -19.72 C19.4 -15.57, 17.65 -11.14, 15.82 -6.38 M15.82 -6.38 C13.17 -9.71, 10.31 -12.67, 7.56 -15.34 M15.82 -6.38 C13.67 -8.59, 11.61 -10.99, 7.56 -15.34 M7.56 -15.34 C11.04 -17.02, 15.48 -17.17, 21.29 -19.72 M7.56 -15.34 C12.63 -17.13, 17.47 -18.64, 21.29 -19.72 M21.29 -19.72 C21.29 -19.72, 21.29 -19.72, 21.29 -19.72 M21.29 -19.72 C21.29 -19.72, 21.29 -19.72, 21.29 -19.72" stroke="#267326" stroke-width="2" fill="none"></path></g></g><mask></mask><g stroke-linecap="round"><g transform="translate(1450.7885878855345 222.77839905677615) rotate(0 9.764243206454353 -8.72037262418499)"><path d="M0.28 0.45 C3.53 -2.35, 16.47 -14.39, 19.74 -17.33 M-0.23 0.21 C2.94 -2.73, 16.09 -15.19, 19.42 -18.23" stroke="#267326" stroke-width="2" fill="none"></path></g><g transform="translate(1450.7885878855345 222.77839905677615) rotate(0 9.764243206454353 -8.72037262418499)"><path d="M19.42 -18.93 L14.47 -5.73 L6.96 -13.67 L19.17 -18.53" stroke="none" stroke-width="0" fill="#267326" fill-rule="evenodd"></path><path d="M19.42 -18.23 C18.21 -13.77, 16.11 -9.37, 14.52 -6.1 M19.42 -18.23 C17.49 -13.95, 16.12 -9.62, 14.52 -6.1 M14.52 -6.1 C13.35 -7.59, 11.23 -9.46, 6.97 -14.19 M14.52 -6.1 C11.76 -9.11, 8.77 -12.19, 6.97 -14.19 M6.97 -14.19 C10.1 -14.56, 13.8 -15.75, 19.42 -18.23 M6.97 -14.19 C11.75 -15.79, 16.79 -17.45, 19.42 -18.23 M19.42 -18.23 C19.42 -18.23, 19.42 -18.23, 19.42 -18.23 M19.42 -18.23 C19.42 -18.23, 19.42 -18.23, 19.42 -18.23" stroke="#267326" stroke-width="2" fill="none"></path></g></g><mask></mask><g stroke-linecap="round"><g transform="translate(1503.6862033907187 222.8878050065997) rotate(0 9.764243206454353 -8.72037262418499)"><path d="M0.21 0.11 C3.49 -2.82, 16.74 -14.19, 19.91 -17.15 M-0.34 -0.3 C2.87 -3.44, 16.5 -15.16, 19.68 -17.97" stroke="#267326" stroke-width="2" fill="none"></path></g><g transform="translate(1503.6862033907187 222.8878050065997) rotate(0 9.764243206454353 -8.72037262418499)"><path d="M19.63 -17.6 L14.36 -5.49 L6.85 -14.64 L19.58 -17.16" stroke="none" stroke-width="0" fill="#267326" fill-rule="evenodd"></path><path d="M19.68 -17.97 C18 -13.29, 16.34 -9.88, 14.37 -6 M19.68 -17.97 C18.45 -14.77, 16.55 -11.53, 14.37 -6 M14.37 -6 C12.04 -8.47, 10.61 -10.76, 7.1 -14.34 M14.37 -6 C11.91 -8.74, 9.39 -11.76, 7.1 -14.34 M7.1 -14.34 C10.52 -14.79, 13.68 -15.91, 19.68 -17.97 M7.1 -14.34 C10.62 -15.45, 13.64 -16.26, 19.68 -17.97 M19.68 -17.97 C19.68 -17.97, 19.68 -17.97, 19.68 -17.97 M19.68 -17.97 C19.68 -17.97, 19.68 -17.97, 19.68 -17.97" stroke="#267326" stroke-width="2" fill="none"></path></g></g><mask></mask><g stroke-linecap="round" transform="translate(1286.8539539741955 10) rotate(0 23.02075760710028 21.57329465332083)"><path d="M25.88 0.41 C30.59 0.61, 36.02 3.52, 39.33 6.81 C42.64 10.1, 45.39 15.59, 45.76 20.14 C46.12 24.68, 44.37 30.35, 41.53 34.06 C38.69 37.77, 33.43 41.17, 28.72 42.38 C24 43.6, 17.77 43.4, 13.24 41.35 C8.72 39.3, 3.55 34.4, 1.57 30.08 C-0.42 25.76, -0.16 19.89, 1.34 15.42 C2.85 10.96, 6.42 5.74, 10.62 3.28 C14.81 0.82, 23.76 1.14, 26.5 0.66 C29.24 0.18, 27.17 0.16, 27.06 0.39 M24.29 -0.4 C29.03 -0.14, 35.64 3.39, 39.24 6.66 C42.83 9.93, 45.48 14.64, 45.87 19.22 C46.27 23.8, 44.27 30.31, 41.61 34.15 C38.95 37.98, 34.68 40.93, 29.9 42.23 C25.12 43.53, 17.49 43.95, 12.94 41.95 C8.4 39.94, 4.76 34.58, 2.61 30.22 C0.46 25.87, -1.18 20.12, 0.04 15.82 C1.25 11.52, 5.8 7.05, 9.89 4.44 C13.97 1.82, 21.96 0.72, 24.53 0.12 C27.11 -0.48, 25.41 0.42, 25.34 0.83" stroke="#267326" stroke-width="2" fill="none"></path></g><g stroke-linecap="round"><g transform="translate(1280.852255164309 44.33043644371173) rotate(0 -50.955870192675775 26.46348920331377)"><path d="M-0.93 0.85 C-17.54 9.56, -83.79 44.39, -100.78 52.91 M0.78 0.26 C-15.79 9.11, -84.25 45.69, -101.14 54.43" stroke="#267326" stroke-width="2" fill="none"></path></g><g transform="translate(1280.852255164309 44.33043644371173) rotate(0 -50.955870192675775 26.46348920331377)"><path d="M-101.5 55.59 L-90.91 41.88 L-87.75 55.58 L-100.35 52.52" stroke="none" stroke-width="0" fill="#267326" fill-rule="evenodd"></path><path d="M-101.14 54.43 C-98.28 53.46, -97.51 48.33, -92.07 42.48 M-101.14 54.43 C-98.99 51.31, -97.63 49.47, -92.07 42.48 M-92.07 42.48 C-89.41 44.51, -90.22 48.53, -86.16 53.7 M-92.07 42.48 C-89.93 46.63, -87.67 50.47, -86.16 53.7 M-86.16 53.7 C-90.96 55.07, -96.03 53.58, -101.14 54.43 M-86.16 53.7 C-89.95 53.36, -92.72 54.49, -101.14 54.43 M-101.14 54.43 C-101.14 54.43, -101.14 54.43, -101.14 54.43 M-101.14 54.43 C-101.14 54.43, -101.14 54.43, -101.14 54.43" stroke="#267326" stroke-width="2" fill="none"></path></g></g><mask></mask><g stroke-linecap="round"><g transform="translate(1313.250705941407 64.95887394380952) rotate(0 -0.33889206775808134 11.231488711692222)"><path d="M-0.51 -0.36 C-0.66 3.35, -0.38 18.45, -0.48 22.34 M0.23 0.64 C-0.02 4.43, -0.77 19.39, -0.81 22.98" stroke="#267326" stroke-width="2" fill="none"></path></g><g transform="translate(1313.250705941407 64.95887394380952) rotate(0 -0.33889206775808134 11.231488711692222)"><path d="M-0.95 23.51 L-5.56 13.49 L4.01 13.22 L-1.35 23.76" stroke="none" stroke-width="0" fill="#267326" fill-rule="evenodd"></path><path d="M-0.81 22.98 C-2.87 19.19, -4.32 14.6, -5.21 12.64 M-0.81 22.98 C-2.58 18.98, -4.1 14.7, -5.21 12.64 M-5.21 12.64 C-1.53 13.21, 1.65 12.86, 4.28 12.96 M-5.21 12.64 C-2.56 12.86, 0.57 13, 4.28 12.96 M4.28 12.96 C2.85 15.81, 1.24 18.8, -0.81 22.98 M4.28 12.96 C2.95 14.87, 2.39 16.96, -0.81 22.98 M-0.81 22.98 C-0.81 22.98, -0.81 22.98, -0.81 22.98 M-0.81 22.98 C-0.81 22.98, -0.81 22.98, -0.81 22.98" stroke="#267326" stroke-width="2" fill="none"></path></g></g><mask></mask><g stroke-linecap="round"><g transform="translate(1339.4123460302394 46.180436341682) rotate(0 51.17258634535807 25.666097288458502)"><path d="M-0.09 -1.17 C17.02 7.67, 86.27 43.61, 103.15 52.49 M-1.6 0.83 C15.38 9.41, 85.11 42.76, 102.62 50.98" stroke="#267326" stroke-width="2" fill="none"></path></g><g transform="translate(1339.4123460302394 46.180436341682) rotate(0 51.17258634535807 25.666097288458502)"><path d="M102.05 51.64 L88.71 52.11 L91.98 40.18 L101.8 50.56" stroke="none" stroke-width="0" fill="#267326" fill-rule="evenodd"></path><path d="M102.62 50.98 C96.03 51.93, 93.82 49.43, 87.62 50.87 M102.62 50.98 C97.69 50.97, 92.04 51.77, 87.62 50.87 M87.62 50.87 C89.79 46.08, 90.39 42.21, 93.06 39.42 M87.62 50.87 C88.54 48.09, 90.62 45.37, 93.06 39.42 M93.06 39.42 C96.32 43.13, 100.25 48.24, 102.62 50.98 M93.06 39.42 C94.81 42.75, 97.64 44.36, 102.62 50.98 M102.62 50.98 C102.62 50.98, 102.62 50.98, 102.62 50.98 M102.62 50.98 C102.62 50.98, 102.62 50.98, 102.62 50.98" stroke="#267326" stroke-width="2" fill="none"></path></g></g><mask></mask></svg>